<svg fill="none" viewBox="0 0 24 24"><path fill="currentColor" d="m6.5 22.5-.5-.9zm-1-.7-1-.1zm-.7-4-.9.6 0 0zm-1.1-1.9.9-.5 0 0zm17.4-1.9.5 1zm-.2-1 .4-1zm-3-2.7-.8.5 0 0zm-1-1.9.9-.5 0 0zm-10.5-2.8.5.9zm7 16.8.5.8zm-6.9-.5c.2-1.2 0-3-.8-4.5l-1.8 1q1 1.7.6 3.3zm-.8-4.5-1.1-2-1.8 1 1.1 2zm15.6-5.4q-1.3-.5-2.5-2.2l-1.7 1q1.6 2.3 3.4 3zm-2.5-2.2-1-1.9-1.7 1 1 1.9zm-1-1.9c-2.4-4.1-7.7-5.6-11.9-3.2l1 1.8c3.2-1.9 7.3-.8 9.2 2.4zm3.8 7q.9-.7.7-1.6 0-.8-1-1.3l-.8 1.8q-.2-.1-.2-.2a.4.4 0 0 1 .3-.4zm-17 .5c-1.8-3.1-.8-7.1 2.3-9l-1-1.7c-4 2.4-5.4 7.6-3 11.7zm1.4 6.2a1 1 0 0 1 .3 0q0 0 .1 0a.2.2 0 0 1 .1 0q0 .2 0 .3l-2-.2q0 1 .7 1.5.6.6 1.8.1zm14.6-8.4-14.6 8.4 1 1.7 14.6-8.4zm-6.7 5c.7 1 .3 2.6-1 3.3l1 1.7c2.1-1.2 3-3.9 1.8-6zm-1 3.3c-1.3.8-2.8.3-3.5-.7l-1.7 1c1.2 2.1 4 2.7 6.2 1.4zm-6.4-18.7a1.4 1.4 0 0 1-.6 2l1 1.7a3.4 3.4 0 0 0 1.3-4.7zm-.6 2a1.4 1.4 0 0 1-1.9-.6l-1.7 1a3.4 3.4 0 0 0 4.6 1.3zm-1.9-.6a1.4 1.4 0 0 1 .5-1.9l-1-1.7a3.4 3.4 0 0 0-1.2 4.6zm.5-1.9a1.4 1.4 0 0 1 2 .5l1.7-1a3.4 3.4 0 0 0-4.7-1.2z"/></svg>