<svg viewBox="0 0 24 25"><path fill="currentColor" fill-rule="evenodd" d="M12 0a3.4 3.4 0 0 0-2.7 5.5c-2.8 1.1-4.8 4-4.8 7.3l0 2.4q-.2 2.5-1.4 3.8c-.3.4 0 1.1.5 1.1h3.8c.4 2.2 2.3 3.8 4.6 3.8 2.3 0 4.2-1.6 4.6-3.8h3.8c.5 0 .8-.7.5-1q-1.2-1.5-1.3-4l0-2.1c0-3.5-2-6.4-5-7.5a3.4 3.4 0 0 0-2.6-5.5Zm-1.4 3.4a1.4 1.4 0 1 1 2.8 0 1.4 1.4 0 0 1-2.8 0Zm4 16.7h-5.1q.6 1.7 2.5 1.8 2-.2 2.5-1.8Z" clip-rule="evenodd"/><path fill="currentColor" d="M6.6 5.9a1 1 0 0 0-1-1.8q-2.4 1.5-3.5 4.1a1 1 0 1 0 1.8.8q.9-2.2 2.7-3.1Zm11.7-1.8a1 1 0 1 0-1 1.8q2 1.1 2.8 3a1 1 0 0 0 1.8-.7q-1.1-2.7-3.6-4Z"/></svg>