<svg xmlns="http://www.w3.org/2000/svg" fill="none" viewBox="0 0 24 24">
  <path fill="#000" d="M12.5 2c.477 0 .946.026 1.406.076.382.04.553.495.36.827a5 5 0 0 0 7.737 6.159c.3-.278.818-.185.89.218.07.398.107.806.107 1.22 0 2.536-1.371 4.812-3.546 6.369a1.06 1.06 0 0 0-.454.855v2.237c0 .83-.952 1.296-1.603.78a238.87 238.87 0 0 1-2.093-1.677 1.05 1.05 0 0 0-.823-.215c-.641.1-1.304.151-1.981.151C6.701 19 2 15.194 2 10.5S6.701 2 12.5 2Z"/>
  <path fill="#000" d="M15.6 5.4a2.998 2.998 0 0 1 3-3 3 3 0 1 1-3 3Z"/>
</svg>
