<svg fill="none" viewBox="0 0 24 24"><path fill="currentColor" d="m3.1 16.9-.8-.6zm1.3-4-1 0v0zm0-2.4 1 0v0zm16.5 6.4.8-.6zm-1.3-4-1 0v0zm0-2.3 1 0v0zm-10.6 10a1 1 0 1 0 0 2zm6 2a1 1 0 1 0 0-2zm-11-5.2q1.2-1.6 1.4-4.5h-2q-.1 2.2-1.1 3.4zm1.4-4.5 0-2.4-2 0 0 2.4zm16.3 3.4q-.9-1.2-1-3.4h-2q.1 3 1.4 4.5zm-1-3.4 0-2.3-2 0 0 2.3zm0-2.3c0-5-3.9-9.2-8.7-9.2v2c3.6 0 6.7 3.2 6.7 7.2zm-.3 8.4c.8 0 1.3-.6 1.5-1q.3-.8-.2-1.7l-1.6 1.1a.3.3 0 0 1-.1-.1 0 0 0 0 1 0 0 .3.3 0 0 1 0-.2 1 1 0 0 1 .4-.1zm-15-8.5c0-4 3-7.1 6.6-7.1v-2c-4.8 0-8.5 4.1-8.5 9zm-1.8 6.5q.2 0 .3.1 0 0 0 .1a.1.1 0 0 1 .1 0 .3.3 0 0 1 0 .2l-1.7-1.1q-.5.9-.2 1.6.3 1 1.5 1.1zm16.8 0h-16.8v2h16.8zm-11.4 5.6h6v-2h-6z"/></svg>