<svg fill="none" viewBox="0 0 24 24"><path fill="currentColor" d="m6.5 22.5-.5-.9zm-1-.7-1-.1zm-.7-4-.9.6zM3.7 16l.9-.5zm17.4-2 .5 1zm-.2-1 .4-1zm-3-2.7-.8.5zm-1-1.9.9-.5zM6.4 5.6l.5.9zm7 16.8.5.8zm-6.9-.5c.2-1.2 0-3-.8-4.5l-1.8 1q1 1.7.6 3.3zm-.8-4.5-1.1-2-1.8 1 1.1 2zM21.3 12q-1.3-.5-2.5-2.2l-1.7 1q1.6 2.3 3.4 3zm-2.5-2.2-1-1.9-1.7 1 1 1.9zm-1-1.9C15.4 3.8 10 2.3 5.9 4.7l1 1.8c3.2-1.9 7.3-.8 9.2 2.4zm3.8 7q.9-.7.7-1.6 0-.8-1-1.3l-.8 1.8-.2-.2.3-.4zm-17 .5c-1.8-3.1-.8-7.1 2.3-9L6 4.8C2 7.1.5 12.3 3 16.4zM6 21.6h.5v.3l-2-.2q0 1 .7 1.5t1.8.1zm14.6-8.4L6 21.6l1 1.7L21.6 15zm-6.7 5c.7 1 .3 2.6-1 3.3l1 1.7c2.1-1.2 3-3.9 1.8-6zm-1 3.3c-1.3.8-2.8.3-3.5-.7l-1.7 1c1.2 2.1 4 2.7 6.2 1.4zM6.5 2.8a1.4 1.4 0 0 1-.6 2l1 1.7a3.4 3.4 0 0 0 1.3-4.7zm-.6 2A1.4 1.4 0 0 1 4 4.1l-1.7 1a3.4 3.4 0 0 0 4.6 1.3zM4 4.1a1.4 1.4 0 0 1 .5-1.9L3.5.6a3.4 3.4 0 0 0-1.2 4.6zm.5-1.9a1.4 1.4 0 0 1 2 .5l1.7-1A3.4 3.4 0 0 0 3.5.6z"/></svg>