<svg fill="none" viewBox="0 0 24 24"><path fill="currentColor" d="m8.7 21.6-.5-.8zm-.8-.6-1-.1zm-.7-3.5-.9.5 0 0zm-1-1.8.9-.5 0 0zm15.6-1.7.5.9zm-.1-1 .4-1zm-2.7-2.3-.9.4 0 0zm-1-1.7 1-.5 0 0zm-9.3-2.6.5.9zm6.2 15.1.5.9zm-13.8-9.9a1 1 0 1 0 2-.3zm2.7-3.8a1 1 0 1 0-1.7-1zm8.1-6.8a1 1 0 0 0 0 2zm3.5 3.1a1 1 0 1 0 1.3-1.5zm-6.5 17q.3-1.7-.8-4.1l-1.8 1q.8 1.5.6 2.9zm-.8-4-1-1.9-1.7 1 1 1.8zm14-5q-1.3-.5-2.2-2l-1.8 1q1.5 2.2 3.1 2.8zm-2.2-2-1-1.6-1.7 1 1 1.6zm-1-1.6c-2.1-3.8-7-5.1-10.7-3l1 1.8c2.8-1.6 6.4-.7 8 2.2zm3.4 6.4q.8-.7.7-1.5 0-.8-1-1.3l-.8 1.8q-.2 0-.2-.3a1 1 0 0 1 .3-.4zm-15.2.3c-1.6-2.8-.7-6.3 2-8l-1-1.6c-3.6 2.1-4.9 6.9-2.7 10.6zm1.1 5.6a1 1 0 0 1 .5 0q.1 0 .2.3l-2-.2q0 1 .6 1.4.6.6 1.7.2zm13-7.6-13 7.6 1 1.7 13-7.6zm-5.9 4.6q.8 1.7-1 2.9l1 1.7c2-1.1 2.9-3.6 1.7-5.6zm-1 2.9c-1 .6-2.3.3-2.9-.7l-1.7 1c1.2 2 3.7 2.5 5.7 1.4zm-5.7-16.7q.4.9-.4 1.6l1 1.7a3 3 0 0 0 1.1-4.3zm-.4 1.6a1 1 0 0 1-1.6-.5l-1.7 1a3 3 0 0 0 4.3 1.2zm-1.6-.5a1.2 1.2 0 0 1 .4-1.6l-1-1.7a3 3 0 0 0-1.1 4.3zm.4-1.6a1 1 0 0 1 1.6.5l1.7-1a3 3 0 0 0-4.3-1.2zm-4 7.8q-.2-1.9.8-3.5l-1.7-1q-1.5 2.2-1 4.8zm9-8.3q1.8 0 3.4 1.1l1.3-1.5q-2.1-1.6-4.8-1.6z"/></svg>