<svg fill="none" viewBox="0 0 24 24"><path fill="currentColor" d="m3.7 16.8-.8-.6zm1.2-3.6-1 0v0zm0-2.2 1 0v0zm15.4 5.8.9-.6zm-1.1-3.6-1 0v0zm0-2 1 0v0zm-9.4 8.7a1 1 0 0 0-1.2 1.6zm5.6 1.6a1 1 0 1 0-1.2-1.6zm-13.3-15.9a1 1 0 1 0 1.8.8zm4.5-2.3a1 1 0 1 0-1-1.8zm11.7-1.8a1 1 0 0 0-1 1.8zm1.8 4.9a1 1 0 0 0 1.8-.8zm-15.6 11q1.2-1.6 1.4-4.2h-2q-.1 1.9-1 3zm1.4-4.2 0-2.2-2 0 0 2.2zm15.3 3q-1-1.1-1-3h-2q.1 2.6 1.3 4.2zm-1-3 0-2-2-.1 0 2zm0-2c0-4.7-3.7-8.5-8.2-8.5v2c3.4 0 6.2 2.8 6.2 6.4zm-.3 7.6c.8 0 1.2-.6 1.4-1q.4-.6-.2-1.6l-1.6 1.2a.4.4 0 0 1 0-.2.2.2 0 0 1 0-.1.3.3 0 0 1 0-.2 1 1 0 0 1 .4-.1zm-14-7.8c0-3.5 2.8-6.3 6.1-6.3v-2c-4.5 0-8 3.7-8 8.3zm-1.8 5.8q.3 0 .3.1a.3.3 0 0 1 .1.2q0 0 0 0a.4.4 0 0 1 0 .3l-1.6-1.2q-.5.9-.2 1.6.3.8 1.4 1zm15.8 0h-15.8v2h15.8zm-7.9 3.8q-1.3 0-2.2-.7l-1.2 1.6q1.5 1 3.4 1.1zm2.2-.7q-.9.6-2.2.7v2q2 0 3.4-1.1zm-10.3-13.5q.9-2.2 2.7-3.1l-1-1.8q-2.4 1.5-3.5 4.1zm13.4-3.1q2 1.1 2.8 3l1.8-.7q-1.1-2.7-3.6-4z"/></svg>