<svg fill="none" viewBox="0 0 24 24"><path fill="currentColor" d="m3.1 16.9-.8-.6zm1.3-4h-1zm0-2.4h1zM21 16.9l.8-.6zm-1.3-4h-1zm0-2.3h1zM9 20.6a1 1 0 1 0 0 2zm6 2a1 1 0 1 0 0-2zM4 17.4q1.2-1.6 1.4-4.5h-2q-.1 2.2-1.1 3.4zM5.3 13v-2.4h-2V13zm16.3 3.4q-.9-1.2-1-3.4h-2q.1 3 1.4 4.5zm-1-3.4v-2.3h-2V13zm0-2.3c0-5-3.9-9.2-8.7-9.2v2c3.6 0 6.7 3.2 6.7 7.2zm-.3 8.4c.8 0 1.3-.6 1.5-1q.3-.8-.2-1.7L20 17.5l-.1-.1V17l.4-.1zm-15-8.5c0-4 3-7.1 6.6-7.1v-2c-4.8 0-8.5 4.1-8.5 9zM3.7 17l.3.1v.3l-1.7-1.1q-.5.9-.2 1.6.3 1 1.5 1.1zm16.8 0H3.6v2h16.8zM9 22.6h6v-2H9z"/></svg>