<svg viewBox="0 0 24 24"><path fill="currentColor" fill-rule="evenodd" d="M5.7.5a3.4 3.4 0 0 1 4.8 4.2 8 8 0 0 1 8.6 3.6l1 1.9q1.4 2 3 2.6c.4.2.5.9.1 1.1l-5.9 3.4c.9 1.8 0 4-1.6 5-1.8 1-4 .6-5.1-1l-2 1c-.4.3-1-.2-1-.6q.4-1.8-.6-4l-1.1-1.9a8 8 0 0 1 1-9A3.4 3.4 0 0 1 5.7.5m3 2.2a1.4 1.4 0 1 0-2.5 1.4 1.4 1.4 0 0 0 2.4-1.4m3.6 17.5q.9 1 2.4.3 1.2-.9.9-2.2z" clip-rule="evenodd"/><path fill="currentColor" d="M12.6 3.3q1.8 0 3.4 1.1a1 1 0 1 0 1.2-1.6q-2-1.6-4.7-1.5a1 1 0 0 0 0 2M4.4 8a1 1 0 1 0-1.8-1q-1.3 2.2-1 4.9a1 1 0 1 0 2-.3q-.2-2 .8-3.6"/></svg>