<svg fill="none" viewBox="0 0 24 26"><path fill="currentColor" d="m3.1 20-.8-.6zm1.3-3.8-1 0v0zm0-2.2 1 0v0zm16.5 6 .8-.6zm-1.3-3.8-1 0v0zm0-2.1 1 0v0zm-15.7 6.5q1.4-1.5 1.5-4.4h-2q-.1 2-1 3.2zm1.5-4.4 0-2.2-2 0 0 2.2zm16.3 3.2q-1-1.2-1-3.2h-2q.2 2.9 1.4 4.4zm-1-3.2 0-2-2-.1 0 2.1zm0-2.1c0-4.8-4-8.7-8.7-8.7v2c3.7 0 6.7 3 6.7 6.7zm-.3 8q1.2-.2 1.5-1 .3-.8-.2-1.7l-1.6 1.2q0-.3 0-.3 0-.1.3-.3zm-15-8.1c0-3.7 3-6.6 6.6-6.6v-2c-4.7 0-8.5 3.8-8.5 8.6zm-1.8 6a1 1 0 0 1 .3.1q0 0 0 .2 0 0 .1 0a.4.4 0 0 1 0 .3l-1.7-1.2q-.5.9-.2 1.6.3.9 1.5 1zm16.8 0h-16.8v2h16.8zm-5.8 1c0 1.3-1.1 2.4-2.6 2.4v2c2.5 0 4.6-1.9 4.6-4.4zm-2.6 2.4c-1.5 0-2.6-1.1-2.6-2.4h-2c0 2.5 2.1 4.4 4.6 4.4zm1.4-19.4a1.4 1.4 0 0 1-1.4 1.4v2a3.4 3.4 0 0 0 3.4-3.4zm-1.4 1.4a1.4 1.4 0 0 1-1.4-1.4h-2a3.4 3.4 0 0 0 3.4 3.4zm-1.4-1.4a1.4 1.4 0 0 1 1.4-1.4v-2a3.4 3.4 0 0 0-3.4 3.4zm1.4-1.4a1.4 1.4 0 0 1 1.4 1.4h2a3.4 3.4 0 0 0-3.4-3.4z"/></svg>