<svg xmlns="http://www.w3.org/2000/svg" fill="none" viewBox="0 0 24 24">
  <path fill="#000" fill-rule="evenodd" d="M5.7.456a3.4 3.4 0 0 1 4.848 4.231 7.691 7.691 0 0 1 8.53 3.626l1.047 1.869c.783 1.356 1.97 2.17 2.964 2.614.429.192.53.9.125 1.134l-5.9 3.406c.845 1.786.069 3.92-1.662 4.919-1.73.999-3.965.604-5.09-1.02l-1.948 1.124c-.411.237-.982-.222-.923-.694.136-1.095.047-2.535-.73-3.882l-1.104-1.966a7.58 7.58 0 0 1 1.09-9.047A3.4 3.4 0 0 1 5.7.456Zm2.913 2.245a1.4 1.4 0 1 0-2.425 1.4 1.4 1.4 0 0 0 2.425-1.4Zm3.697 17.524c.519.593 1.484.793 2.342.298.859-.496 1.168-1.432.914-2.178l-3.257 1.88Z" clip-rule="evenodd"/>
  <path fill="#000" d="M12.551 3.264c1.269-.024 2.484.371 3.432 1.138a1 1 0 1 0 1.257-1.556c-1.34-1.083-3.022-1.614-4.727-1.581a1 1 0 0 0 .038 2ZM4.353 8.023a1 1 0 1 0-1.705-1.046c-.903 1.472-1.221 3.212-.98 4.903a1 1 0 1 0 1.98-.282c-.18-1.262.062-2.527.705-3.575Z"/>
</svg>
