<svg xmlns="http://www.w3.org/2000/svg" fill="none" viewBox="0 0 24 24"><path fill="currentColor" d="m3.678 17.183-.815-.58zm1.226-3.71-1-.011v.011zm.026-2.243 1 .012v-.012zm15.403 5.971.826-.564zm-1.18-3.728-1-.012v.012zm.025-2.131 1 .012v-.012zM9.19 20.6a1 1 0 1 0 0 2zm5.624 2a1 1 0 1 0 0-2zM2.072 5.632a1 1 0 0 0 1.856.745zm4.57-2.352a1 1 0 1 0-.948-1.76zm11.651-1.746a1 1 0 1 0-.967 1.75zm1.775 4.823a1 1 0 1 0 1.864-.725zM4.492 17.763c.709-.995 1.412-2.48 1.412-4.29h-2c0 1.286-.502 2.373-1.04 3.13zm1.412-4.278.026-2.243-2-.023-.026 2.243zm15.255 3.152c-.517-.757-1.006-1.856-1.006-3.164h-2c0 1.81.673 3.296 1.354 4.292zm-1.007-3.152.026-2.131-2-.024-.025 2.131 2 .024Zm.026-2.143c0-4.72-3.6-8.657-8.176-8.657v2c3.35 0 6.176 2.918 6.176 6.657zm-.275 7.899c.78 0 1.234-.578 1.405-1.007.175-.439.213-1.066-.15-1.597l-1.651 1.128a.4.4 0 0 1-.07-.188.2.2 0 0 1 .014-.085.33.33 0 0 1 .099-.127.56.56 0 0 1 .353-.124zM5.93 11.23c0-3.678 2.778-6.546 6.072-6.546v-2c-4.518 0-8.072 3.888-8.072 8.545h2Zm-1.828 6.01c.16 0 .284.065.357.127a.3.3 0 0 1 .096.125.2.2 0 0 1 .01.08.4.4 0 0 1-.073.19l-1.629-1.16c-.379.533-.344 1.17-.174 1.611.167.432.62 1.027 1.413 1.027zm15.801 0H4.102v2h15.801zM9.19 22.6h5.624v-2H9.19zM3.928 6.377c.535-1.335 1.487-2.435 2.714-3.097l-.948-1.76c-1.667.898-2.925 2.373-3.622 4.112zm13.398-3.092c1.263.698 2.24 1.778 2.742 3.072l1.864-.725c-.684-1.761-1.996-3.19-3.639-4.098l-.967 1.75Z"/></svg>