<svg xmlns="http://www.w3.org/2000/svg" fill="none" viewBox="0 0 24 24"><path fill="currentColor" d="M6.423 1.683a1 1 0 0 1 1.394.24l12 17a1 1 0 0 1-1.634 1.154l-1.715-2.43H4.12c-.447 0-.696-.686-.426-1.066.626-.885 1.231-2.181 1.231-3.743l.026-2.262c0-1.595.82-3.299 1.69-4.576l.024-.035Q6.833 5.721 7 5.5l.004.006c.153-.194.323-.392.495-.566L6.183 3.077a1 1 0 0 1 .24-1.394M20.095 15.92c.044.118-.205.26-.278.158l-9.02-12.995a6.7 6.7 0 0 1 1.256-.118c3.98 0 7.206 3.458 7.206 7.723L19.5 13c0 .718.327 2.213.595 2.92"/><path fill="currentColor" d="M9 19.317a1 1 0 0 0 0 2h5.818a1 1 0 1 0 0-2z"/></svg>