<svg xmlns="http://www.w3.org/2000/svg" fill="currentColor" viewBox="0 0 24 24"><path d="m8.697 21.623-.502-.865zm-.827-.625-.992-.123zM7.216 17.5l-.873.487.006.01zm-.988-1.77.874-.488-.006-.01zm15.543-1.701.502.864zm-.113-1.022.41-.912zm-2.653-2.354-.874.486.007.011zm-.938-1.684.874-.486-.006-.012zM8.685 6.417l.503.865zm6.198 15.123.503.865zM1.078 11.617a1 1 0 1 0 1.98-.282zM3.763 7.76a1 1 0 1 0-1.705-1.046zM11.923 1a1 1 0 0 0 .039 2zm3.47 3.138a1 1 0 1 0 1.257-1.556l-1.256 1.556ZM8.863 21.12c.14-1.131.055-2.663-.78-4.117l-1.734.995c.558.973.633 2.035.529 2.877zm-.774-4.107-.987-1.77-1.747.974.988 1.77zm13.98-4.917c-.756-.339-1.628-.95-2.197-1.94l-1.734.995c.833 1.453 2.086 2.31 3.11 2.77l.82-1.825Zm-2.19-1.929-.938-1.683-1.747.973.937 1.683zm-.944-1.695c-2.175-3.788-6.987-5.106-10.752-2.92l1.005 1.73C11.98 5.66 15.57 6.628 17.2 9.468zm3.338 6.422c.636-.37.771-1.048.714-1.511-.056-.462-.331-1.023-.919-1.287l-.82 1.825c-.203-.092-.24-.247-.246-.295a.49.49 0 0 1 .266-.461zm-15.177.338c-1.605-2.795-.658-6.353 2.092-7.95l-1.005-1.73C4.47 7.71 3.216 12.492 5.361 16.229zm1.099 5.526a.5.5 0 0 1 .544.002c.037.028.151.139.124.36l-1.985-.245c-.08.647.264 1.177.635 1.465.37.288 1.036.525 1.686.148zm13.073-7.593L8.195 20.758l1.004 1.73 13.074-7.594-1.005-1.73Zm-5.971 4.619c.532.928.2 2.243-.916 2.892l1.005 1.73c1.967-1.143 2.782-3.637 1.645-5.618zm-.916 2.892c-1.114.647-2.403.279-2.933-.645l-1.735.996c1.14 1.984 3.703 2.522 5.673 1.378l-1.005-1.73ZM8.605 3.962c.32.559.128 1.271-.422 1.59l1.005 1.73a3.17 3.17 0 0 0 1.151-4.316zm-.422 1.59a1.14 1.14 0 0 1-1.566-.424l-1.735.996a3.14 3.14 0 0 0 4.306 1.158zm-1.566-.424a1.17 1.17 0 0 1 .422-1.59l-1.005-1.73a3.17 3.17 0 0 0-1.152 4.316zm.422-1.59a1.14 1.14 0 0 1 1.566.424l1.734-.996a3.14 3.14 0 0 0-4.305-1.158zm-3.981 7.797c-.18-1.262.062-2.527.705-3.575L2.058 6.714c-.903 1.472-1.221 3.212-.98 4.903zM11.962 3c1.268-.024 2.483.371 3.431 1.138l1.257-1.556C15.31 1.5 13.628.969 11.924 1.001z"/></svg>