<svg fill="none" viewBox="0 0 24 24"><path fill="currentColor" d="m3.7 17.2-.8-.6zm1.2-3.7-1 0v0zm0-2.3 1 0v0zm15.4 6 .9-.6zm-1.1-3.7-1 0v0zm0-2.2 1 0v0zm-10 9.3a1 1 0 1 0 0 2zm5.6 2a1 1 0 1 0 0-2zm-12.7-17a1 1 0 0 0 1.8.8zm4.5-2.3a1 1 0 1 0-1-1.8zm11.7-1.8a1 1 0 1 0-1 1.8zm1.8 4.9a1 1 0 1 0 1.8-.8zm-15.6 11.4q1.2-1.6 1.4-4.3h-2q-.1 2-1 3.1zm1.4-4.3 0-2.3-2 0 0 2.3zm15.3 3.1q-1-1.1-1-3.1h-2q.1 2.8 1.3 4.3zm-1-3.1 0-2.1-2 0 0 2zm0-2.2c0-4.7-3.6-8.6-8.2-8.6v2c3.4 0 6.2 2.9 6.2 6.6zm-.3 8c.8 0 1.2-.6 1.4-1q.3-.8-.1-1.7l-1.7 1.2a.4.4 0 0 1 0-.2.2.2 0 0 1 0-.1.3.3 0 0 1 0-.1 1 1 0 0 1 .4-.2zm-14-8c0-3.7 2.8-6.6 6.1-6.6v-2c-4.5 0-8 3.9-8 8.5zm-1.8 6q.3 0 .4 0a.3.3 0 0 1 0 .2 0 0 0 0 1 0 0 .4.4 0 0 1 0 .3l-1.6-1.2q-.5.9-.2 1.6c.2.4.6 1 1.4 1zm15.8 0h-15.8v2h15.8zm-10.7 5.3h5.6v-2h-5.6zm-5.3-16.2q.9-2.2 2.7-3.1l-1-1.8q-2.4 1.5-3.5 4.1zm13.4-3.1q2 1.1 2.8 3l1.8-.7q-1.1-2.7-3.6-4z"/></svg>