<svg fill="none" viewBox="0 0 24 26"><path fill="currentColor" d="m3.1 20-.8-.6zm1.3-3.8h-1zm0-2.2h1zM21 20l.8-.6zm-1.3-3.8h-1zm0-2.1h1zm-3 7a1 1 0 1 0-2 0zm-7.2 0a1 1 0 1 0-2 0zM2.1 6.5a1 1 0 1 0 1.8.8zm4.5-2.3a1 1 0 0 0-1-1.8zm11.7-1.8a1 1 0 0 0-1 1.8zm1.7 5a1 1 0 1 0 1.8-.8zM3.9 20.6q1.3-1.5 1.5-4.4h-2q-.1 2-1 3.2zm1.5-4.4V14h-2v2.2zm16.3 3.2q-1-1.2-1-3.2h-2q.2 2.9 1.4 4.4zm-1-3.2v-2l-2-.1v2.1zm0-2.1c0-4.8-4-8.7-8.7-8.7v2c3.7 0 6.7 3 6.7 6.7zm-.3 8q1.2-.2 1.5-1t-.2-1.7l-1.6 1.2v-.3l.3-.3zM5.4 14c0-3.7 3-6.6 6.6-6.6v-2c-4.7 0-8.5 3.8-8.5 8.6zm-1.8 6 .3.1v.2H4v.3l-1.7-1.2q-.5.9-.2 1.6.3.9 1.5 1zm16.8 0H3.6v2h16.8zm-5.8 1c0 1.3-1.1 2.4-2.6 2.4v2c2.5 0 4.6-1.9 4.6-4.4zM12 23.4c-1.5 0-2.6-1.1-2.6-2.4h-2c0 2.5 2.1 4.4 4.6 4.4zM13.4 4A1.4 1.4 0 0 1 12 5.4v2A3.4 3.4 0 0 0 15.4 4zM12 5.4A1.4 1.4 0 0 1 10.6 4h-2A3.4 3.4 0 0 0 12 7.4zM10.6 4A1.4 1.4 0 0 1 12 2.6v-2A3.4 3.4 0 0 0 8.6 4zM12 2.6A1.4 1.4 0 0 1 13.4 4h2A3.4 3.4 0 0 0 12 .6zM4 7.4q.8-2.2 2.6-3.1l-1-1.8Q3.3 4 2.2 6.6zm13.3-3.1q2 1.1 2.8 3l1.8-.7q-1.1-2.7-3.6-4z"/></svg>