<svg viewBox="0 0 24 25"><path fill="currentColor" fill-rule="evenodd" d="M12 0a3.4 3.4 0 0 0-2.7 5.5c-2.8 1.1-4.8 4-4.8 7.3v2.4Q4.2 17.7 3 19c-.3.4 0 1.1.5 1.1h3.8C7.8 22.3 9.7 24 12 24s4.2-1.6 4.6-3.8h3.8c.5 0 .8-.7.5-1q-1.2-1.5-1.3-4V13c0-3.5-2-6.4-5-7.5A3.4 3.4 0 0 0 12 0m-1.4 3.4a1.4 1.4 0 1 1 2.8 0 1.4 1.4 0 0 1-2.8 0m4 16.7H9.4Q10 21.8 12 22q2-.2 2.5-1.8" clip-rule="evenodd"/><path fill="currentColor" d="M6.6 5.9a1 1 0 0 0-1-1.8Q3.3 5.6 2.2 8.2A1 1 0 1 0 4 9q.9-2.2 2.7-3.1M18.3 4a1 1 0 1 0-1 1.8q2 1.1 2.8 3a1 1 0 0 0 1.8-.7q-1.1-2.7-3.6-4"/></svg>