<svg fill="none" viewBox="0 0 24 24"><path fill="currentColor" d="m3.7 17.2-.8-.6zm1.2-3.7h-1zm0-2.3h1zm15.4 6 .9-.6zm-1.1-3.7h-1zm0-2.2h1zm-10 9.3a1 1 0 1 0 0 2zm5.6 2a1 1 0 1 0 0-2zM2.1 5.6a1 1 0 0 0 1.8.8zm4.5-2.3a1 1 0 1 0-1-1.8zm11.7-1.8a1 1 0 1 0-1 1.8zM20 6.4a1 1 0 1 0 1.8-.8zM4.5 17.8q1.2-1.6 1.4-4.3h-2q-.1 2-1 3.1zm1.4-4.3v-2.3H4v2.3zm15.3 3.1q-1-1.1-1-3.1h-2q.1 2.8 1.3 4.3zm-1-3.1v-2.1h-2v2zm0-2.2c0-4.7-3.6-8.6-8.2-8.6v2c3.4 0 6.2 2.9 6.2 6.6zm-.3 8c.8 0 1.2-.6 1.4-1q.3-.8-.1-1.7l-1.7 1.2v-.4l.4-.2zm-14-8C6 7.5 8.7 4.6 12 4.6v-2c-4.5 0-8 3.9-8 8.5zm-1.8 6h.4v.5l-1.6-1.2q-.5.9-.2 1.6c.2.4.6 1 1.4 1zm15.8 0H4.1v2h15.8zM9.2 22.5h5.6v-2H9.2zM3.9 6.4q.9-2.2 2.7-3.1l-1-1.8Q3.3 3 2.2 5.6zm13.4-3.1q2 1.1 2.8 3l1.8-.7q-1.1-2.7-3.6-4z"/></svg>