<svg fill="none" viewBox="0 0 24 24"><path fill="currentColor" d="m8.7 21.6-.5-.8zm-.8-.6-1-.1zm-.7-3.5-.9.5zm-1-1.8.9-.5zM21.8 14l.5.9zm-.1-1 .4-1zM19 10.7l-.9.4zM18 9l1-.5zM8.8 6.4l.5.9zM15 21.5l.5.9zM1 11.6a1 1 0 1 0 2-.3zm2.7-3.8a1 1 0 1 0-1.7-1zM11.9 1a1 1 0 0 0 0 2zm3.5 3.1a1 1 0 1 0 1.3-1.5zm-6.5 17q.3-1.7-.8-4.1l-1.8 1q.8 1.5.6 2.9zm-.8-4-1-1.9-1.7 1 1 1.8zm14-5q-1.3-.5-2.2-2l-1.8 1q1.5 2.2 3.1 2.8zm-2.2-2-1-1.6-1.7 1 1 1.6zm-1-1.6c-2.1-3.8-7-5.1-10.7-3l1 1.8c2.8-1.6 6.4-.7 8 2.2zm3.4 6.4q.8-.7.7-1.5 0-.8-1-1.3l-.8 1.8q-.2 0-.2-.3l.3-.4zM7 15.2c-1.6-2.8-.7-6.3 2-8L8 5.6c-3.6 2.1-4.9 6.9-2.7 10.6zm1.1 5.6h.5l.2.3-2-.2q0 1 .6 1.4.6.6 1.7.2zm13-7.6-13 7.6 1 1.7 13-7.6zm-5.9 4.6q.8 1.7-1 2.9l1 1.7c2-1.1 2.9-3.6 1.7-5.6zm-1 2.9c-1 .6-2.3.3-2.9-.7l-1.7 1c1.2 2 3.7 2.5 5.7 1.4zM8.7 4q.4.9-.4 1.6l1 1.7a3 3 0 0 0 1-4.3zm-.4 1.6A1 1 0 0 1 6.6 5L5 6.1a3 3 0 0 0 4.3 1.2zM6.6 5A1 1 0 0 1 7 3.5L6 1.8a3 3 0 0 0-1 4.3zM7 3.5a1 1 0 0 1 1.6.5l1.7-1A3 3 0 0 0 6 1.8zm-4 7.8q-.2-1.9.8-3.5L2 6.8Q.6 9 1 11.5zM12 3q1.8 0 3.4 1.1l1.3-1.5Q14.6 1 11.9 1z"/></svg>