<svg xmlns="http://www.w3.org/2000/svg" width="24" height="24" fill="none" viewBox="0 0 24 24">
  <path fill="#000" fill-rule="evenodd" d="M21.5 5.9a3.6 3.6 0 0 0-3.6-3.6h-12a3.6 3.6 0 0 0-3.6 3.6v12a3.6 3.6 0 0 0 3.6 3.6h12a3.6 3.6 0 0 0 3.6-3.6v-12ZM8.65 15.297v.45A5.17 5.17 0 0 1 6.9 11.85c0-2.163 1.304-4.003 3.133-4.76a1 1 0 1 0-.764-1.847C6.699 6.305 4.9 8.869 4.9 11.85c0 2.216.995 4.202 2.56 5.511h-.81a1 1 0 0 0 0 2h3a1 1 0 0 0 1-1v-3.064a1 1 0 0 0-2 0Zm5.119 1.374a1 1 0 0 0 .764 1.849c2.569-1.063 4.368-3.627 4.368-6.607A7.167 7.167 0 0 0 16.34 6.4h.81a1 1 0 1 0 0-2h-3a1 1 0 0 0-1 1v3.064a1 1 0 1 0 2 0v-.45a5.17 5.17 0 0 1 1.75 3.898c0 2.163-1.304 4.002-3.132 4.758Z" clip-rule="evenodd"/>
</svg>
