<svg viewBox="0 0 24 24"><path fill="currentColor" fill-rule="evenodd" d="M18 2.4A3.6 3.6 0 0 1 21.6 6v12a3.6 3.6 0 0 1-3.6 3.6H6A3.6 3.6 0 0 1 2.4 18V6A3.6 3.6 0 0 1 6 2.4zM8.6 15.3h-.4A5 5 0 0 0 12 17c2.1 0 4-1.3 4.7-3.1a1 1 0 1 1 1.9.7C17.6 17.2 15 19 12 19a7 7 0 0 1-5.6-2.6v.9a1 1 0 1 1-2 0v-3a1 1 0 0 1 1-1h3.1a1 1 0 1 1 0 2M7.2 10a1 1 0 0 1-1.8-.7C6.4 6.8 9 5 12 5q3.4.1 5.5 2.6v-.8a1 1 0 1 1 2 0v3a1 1 0 0 1-1 1h-3a1 1 0 1 1 0-2h.4a5 5 0 0 0-4-1.8c-2 0-4 1.3-4.7 3.1" clip-rule="evenodd"/></svg>