<svg viewBox="0 0 24 24"><path fill="currentColor" fill-rule="evenodd" d="M21.6 18a3.6 3.6 0 0 1-3.6 3.6h-12a3.6 3.6 0 0 1-3.6-3.6v-12a3.6 3.6 0 0 1 3.6-3.6h12a3.6 3.6 0 0 1 3.6 3.6zm-12.8-9.4v-.4a5 5 0 0 0-1.8 3.9c0 2.1 1.3 4 3.1 4.7a1 1 0 1 1-.7 1.9c-2.6-1.1-4.4-3.7-4.4-6.6q.1-3.6 2.6-5.6h-.8a1 1 0 0 1 0-2h3a1 1 0 0 1 1 1v3.1a1 1 0 1 1-2 0Zm5-1.4a1 1 0 0 1 .8-1.8c2.6 1 4.4 3.6 4.4 6.6a7 7 0 0 1-2.6 5.5h.9a1 1 0 0 1 0 2h-3a1 1 0 0 1-1-1v-3a1 1 0 0 1 2 0v.4a5 5 0 0 0 1.7-4c0-2-1.3-4-3.1-4.7Z" clip-rule="evenodd"/></svg>