<svg xmlns="http://www.w3.org/2000/svg" fill="none" viewBox="0 0 24 24"><path fill="currentColor" d="M11.568 6.904a1 1 0 1 0-1.537 1.28zm2.767 4.883.768.64a1 1 0 0 0 0-1.28zm-4.304 3.603a1 1 0 0 0 1.537 1.28zm0-7.205 3.536 4.242 1.536-1.28-3.535-4.243-1.537 1.28Zm3.536 2.962L10.03 15.39l1.537 1.28 3.535-4.243zM12 3.4a8.6 8.6 0 0 1 8.6 8.6h2c0-5.854-4.746-10.6-10.6-10.6zm8.6 8.6a8.6 8.6 0 0 1-8.6 8.6v2c5.854 0 10.6-4.746 10.6-10.6zM12 20.6A8.6 8.6 0 0 1 3.4 12h-2c0 5.854 4.746 10.6 10.6 10.6zM3.4 12A8.6 8.6 0 0 1 12 3.4v-2C6.146 1.4 1.4 6.146 1.4 12z"/></svg>