<svg fill="none" viewBox="0 0 24 24"><path fill="currentColor" d="M10.5 16.9a1 1 0 1 0 1.6-1.3zm-2.7-4.9-.8-.6a1 1 0 0 0 0 1.2zm4.3-3.6a1 1 0 0 0-1.6-1.3zm4.1 4.6a1 1 0 0 0 0-2zm-4.1 2.6-3.6-4.2-1.5 1.2 3.5 4.3zm-3.6-3 3.6-4.2-1.6-1.3-3.5 4.3zm-.7.4h8.4v-2h-8.4zm-1.9-7a8.6 8.6 0 0 1 12.2 0l1.4-1.5c-4.1-4.1-10.9-4.1-15 0zm12.2 0a8.6 8.6 0 0 1 0 12l1.4 1.5c4.1-4.1 4.1-10.9 0-15zm0 12a8.6 8.6 0 0 1-12.2 0l-1.4 1.5c4.1 4.1 10.9 4.1 15 0zm-12.2 0a8.6 8.6 0 0 1 0-12l-1.4-1.5c-4.1 4.1-4.1 10.9 0 15z"/></svg>