<svg viewBox="0 0 24 24"><path fill="currentColor" fill-rule="evenodd" d="M18 2.4a3.6 3.6 0 0 1 3.6 3.6v12a3.6 3.6 0 0 1-3.6 3.6h-12a3.6 3.6 0 0 1-3.6-3.6v-12a3.6 3.6 0 0 1 3.6-3.6zm-4.5 2.6h5.3q.2 0 .2.2v5.3a.2.2 0 0 1-.3.2l-2-2-1.5 1.5a1 1 0 0 1-1.4-1.4l1.5-1.5-2-2a.2.2 0 0 1 .2-.3Zm-3 14h-5.3a.2.2 0 0 1-.2-.2v-5.3a.2.2 0 0 1 .3-.2l2 2 1.5-1.5a1 1 0 0 1 1.4 1.4l-1.5 1.5 2 2a.2.2 0 0 1-.2.3Zm8.5-.2v-5.3a.2.2 0 0 0-.3-.2l-2 2-1.5-1.5a1 1 0 0 0-1.4 1.4l1.5 1.5-2 2a.2.2 0 0 0 .2.3h5.3a.2.2 0 0 0 .2-.2Zm-14-8.3v-5.3q0-.2.2-.2h5.3a.2.2 0 0 1 .2.3l-2 2 1.5 1.5a1 1 0 0 1-1.4 1.4l-1.5-1.5-2 2a.2.2 0 0 1-.3-.2Z" clip-rule="evenodd"/></svg>