<svg viewBox="0 0 24 24"><path fill="currentColor" fill-rule="evenodd" d="M21.5 5.9a3.6 3.6 0 0 0-3.6-3.6h-12a3.6 3.6 0 0 0-3.6 3.6v12a3.6 3.6 0 0 0 3.6 3.6h12a3.6 3.6 0 0 0 3.6-3.6zM8.7 15.3v.4A5 5 0 0 1 6.9 12q.2-3.6 3.1-5a1 1 0 1 0-.7-1.9C6.7 6.3 4.9 9 4.9 12q.1 3.4 2.6 5.5h-.8a1 1 0 0 0 0 2h3a1 1 0 0 0 1-1v-3.1a1 1 0 0 0-2 0m5 1.4a1 1 0 0 0 .8 1.8c2.6-1 4.4-3.6 4.4-6.6a7 7 0 0 0-2.6-5.5h.8a1 1 0 1 0 0-2h-3a1 1 0 0 0-1 1v3a1 1 0 1 0 2 0V8a5 5 0 0 1 1.8 4c0 2-1.3 4-3.1 4.7" clip-rule="evenodd"/></svg>