<svg xmlns="http://www.w3.org/2000/svg" fill="currentColor" viewBox="0 0 24 24"><path d="M16.883 13.475a1 1 0 0 0-1.28-1.536zM12 16.243l-.64.768a1 1 0 0 0 1.28 0zm-3.602-4.304a1 1 0 0 0-1.28 1.536zM13 7.757a1 1 0 1 0-2 0zm2.602 4.182-4.242 3.535 1.28 1.537 4.243-3.536zm-2.962 3.535L8.398 11.94l-1.28 1.536 4.242 3.536 1.28-1.537Zm.36.769V7.757h-2v8.486zm5.081 1.838a8.6 8.6 0 0 1-12.162 0l-1.414 1.414c4.14 4.14 10.85 4.14 14.99 0zm-12.162 0a8.6 8.6 0 0 1 0-12.162L4.505 4.505c-4.14 4.14-4.14 10.85 0 14.99zm0-12.162a8.6 8.6 0 0 1 12.162 0l1.414-1.414c-4.14-4.14-10.85-4.14-14.99 0zm12.162 0a8.6 8.6 0 0 1 0 12.162l1.414 1.414c4.14-4.14 4.14-10.85 0-14.99z"/></svg>