<svg fill="none" viewBox="0 0 24 24"><path fill="currentColor" d="M7.1 10.5a1 1 0 0 0 1.3 1.6zm4.9-2.7.6-.8a1 1 0 0 0-1.2 0zm3.6 4.3a1 1 0 0 0 1.3-1.6zm-4.6 4.1a1 1 0 1 0 2 0zm-2.6-4.1 4.2-3.6-1.2-1.5-4.3 3.5zm3-3.6 4.2 3.6 1.3-1.6-4.3-3.5zm-.4-.7v8.4h2v-8.4zm7-1.9a8.6 8.6 0 0 1 0 12.2l1.5 1.4c4.1-4.1 4.1-10.9 0-15zm0 12.2a8.6 8.6 0 0 1-12 0l-1.5 1.4c4.1 4.1 10.9 4.1 15 0zm-12 0a8.6 8.6 0 0 1 0-12.2l-1.5-1.4c-4.1 4.1-4.1 10.9 0 15zm0-12.2a8.6 8.6 0 0 1 12 0l1.5-1.4c-4.1-4.1-10.9-4.1-15 0z"/></svg>