<svg viewBox="0 0 24 24"><path fill="currentColor" fill-rule="evenodd" d="M21.5 5.9a3.6 3.6 0 0 0-3.6-3.6h-12a3.6 3.6 0 0 0-3.6 3.6v12a3.6 3.6 0 0 0 3.6 3.6h12a3.6 3.6 0 0 0 3.6-3.6zm-12.8 9.4v.4a5 5 0 0 1-1.8-3.8q.2-3.5 3.1-4.8a1 1 0 1 0-.7-1.9c-2.6 1.1-4.4 3.7-4.4 6.7q.1 3.4 2.6 5.5h-.8a1 1 0 0 0 0 2h3a1 1 0 0 0 1-1v-3.1a1 1 0 0 0-2 0Zm5 1.4a1 1 0 0 0 .8 1.8c2.6-1 4.4-3.6 4.4-6.6a7 7 0 0 0-2.6-5.5h.8a1 1 0 1 0 0-2h-3a1 1 0 0 0-1 1v3a1 1 0 1 0 2 0v-.4a5 5 0 0 1 1.8 4c0 2-1.3 4-3.1 4.7Z" clip-rule="evenodd"/></svg>