<svg xmlns="http://www.w3.org/2000/svg" width="24" height="24" fill="none" viewBox="0 0 24 24">
  <path fill="#000" fill-rule="evenodd" d="M18 2.4A3.6 3.6 0 0 1 21.6 6v12a3.6 3.6 0 0 1-3.6 3.6H6A3.6 3.6 0 0 1 2.4 18V6A3.6 3.6 0 0 1 6 2.4h12Zm-4.146 2.524a1 1 0 0 0-1.707-.707l-1.498 1.497a1 1 0 0 0 0 1.414l1.498 1.498a1 1 0 0 0 1.707-.707v-.175a4.65 4.65 0 0 1 1.445 7.74 1 1 0 0 0 1.357 1.47 6.65 6.65 0 0 0-2.802-11.31v-.72Zm-4.858 3.73a1 1 0 1 0-1.357-1.47 6.65 6.65 0 0 0 2.717 11.288v.742a1 1 0 0 0 1.707.707l1.497-1.497a1 1 0 0 0 0-1.415l-1.497-1.497a1 1 0 0 0-1.708.707v.14a4.649 4.649 0 0 1-1.36-7.705Z" clip-rule="evenodd"/>
</svg>
