<svg viewBox="0 0 24 24"><path fill="currentColor" fill-rule="evenodd" d="M18 2.4A3.6 3.6 0 0 1 21.6 6v12a3.6 3.6 0 0 1-3.6 3.6H6A3.6 3.6 0 0 1 2.4 18V6A3.6 3.6 0 0 1 6 2.4zM13.5 5h5.3q.2 0 .2.2v5.3a.2.2 0 0 1-.3.2l-2-2-1.5 1.5a1 1 0 0 1-1.4-1.4l1.5-1.5-2-2a.2.2 0 0 1 .2-.3m-3 14H5.2l-.2-.2v-5.3a.2.2 0 0 1 .3-.2l2 2 1.5-1.5a1 1 0 0 1 1.4 1.4l-1.5 1.5 2 2a.2.2 0 0 1-.2.3m8.5-.2v-5.3a.2.2 0 0 0-.3-.2l-2 2-1.5-1.5a1 1 0 0 0-1.4 1.4l1.5 1.5-2 2a.2.2 0 0 0 .2.3h5.3zM5 10.5V5.2q0-.2.2-.2h5.3a.2.2 0 0 1 .2.3l-2 2 1.5 1.5a1 1 0 0 1-1.4 1.4L7.3 8.7l-2 2a.2.2 0 0 1-.3-.2" clip-rule="evenodd"/></svg>