<svg viewBox="0 0 24 24"><path fill="currentColor" fill-rule="evenodd" d="M18 2.4a3.6 3.6 0 0 1 3.6 3.6v12a3.6 3.6 0 0 1-3.6 3.6h-12a3.6 3.6 0 0 1-3.6-3.6v-12a3.6 3.6 0 0 1 3.6-3.6zm-9.4 12.9h-.4a5 5 0 0 0 3.9 1.7c2.1 0 4-1.3 4.7-3.1a1 1 0 1 1 1.9.7c-1.1 2.6-3.7 4.4-6.6 4.4a7 7 0 0 1-5.6-2.6v.9a1 1 0 1 1-2 0v-3a1 1 0 0 1 1-1h3.1a1 1 0 1 1 0 2Zm-1.4-5.2a1 1 0 0 1-1.8-.7c1-2.6 3.6-4.4 6.6-4.4q3.4.1 5.5 2.6v-.8a1 1 0 1 1 2 0v3a1 1 0 0 1-1 1h-3a1 1 0 1 1 0-2h.4a5 5 0 0 0-4-1.8c-2 0-4 1.3-4.7 3.1Z" clip-rule="evenodd"/></svg>