<svg xmlns="http://www.w3.org/2000/svg" width="24" height="24" fill="none" viewBox="0 0 24 24">
  <path fill="#000" fill-rule="evenodd" d="M14.145 16.22c.145 0 .263-.12.263-.27V9.182c0-.149.118-.27.264-.27h1.882c.145 0 .263.121.263.27v6.768c0 .15.118.27.264.27h2.19c.453 0 .695.546.397.896l-3.658 4.299a.519.519 0 0 1-.794 0l-3.659-4.3c-.298-.349-.055-.895.397-.895h2.19ZM9.854 7.78a.267.267 0 0 0-.264.27v6.768c0 .149-.118.27-.263.27H7.445a.267.267 0 0 1-.264-.27V8.05c0-.15-.118-.27-.263-.27h-2.19c-.453 0-.695-.546-.398-.896l3.66-4.299a.518.518 0 0 1 .794 0l3.658 4.3c.298.349.056.895-.397.895h-2.19Z" clip-rule="evenodd"/>
</svg>
