<svg xmlns="http://www.w3.org/2000/svg" width="24" height="24" fill="none" viewBox="0 0 24 24">
  <path fill="#000" fill-rule="evenodd" d="M21.6 18a3.6 3.6 0 0 1-3.6 3.6H6A3.6 3.6 0 0 1 2.4 18V6A3.6 3.6 0 0 1 6 2.4h12A3.6 3.6 0 0 1 21.6 6v12ZM8.75 8.603v-.45A5.17 5.17 0 0 0 7 12.05c0 2.163 1.304 4.003 3.133 4.759a1 1 0 1 1-.765 1.848C6.8 17.595 5 15.031 5 12.05c0-2.217.995-4.202 2.56-5.511h-.81a1 1 0 0 1 0-2h3a1 1 0 0 1 1 1v3.064a1 1 0 1 1-2 0Zm5.118-1.375a1 1 0 0 1 .764-1.848C17.203 6.442 19 9.007 19 11.987a7.167 7.167 0 0 1-2.56 5.512h.81a1 1 0 0 1 0 2h-3a1 1 0 0 1-1-1v-3.065a1 1 0 0 1 2 0v.45A5.17 5.17 0 0 0 17 11.988c0-2.163-1.303-4.003-3.132-4.759Z" clip-rule="evenodd"/>
</svg>
