<svg xmlns="http://www.w3.org/2000/svg" width="24" height="24" fill="none" viewBox="0 0 24 24">
  <path fill="#000" fill-rule="evenodd" d="M18 2.4A3.6 3.6 0 0 1 21.6 6v12a3.6 3.6 0 0 1-3.6 3.6H6A3.6 3.6 0 0 1 2.4 18V6A3.6 3.6 0 0 1 6 2.4h12ZM6 5a1 1 0 0 0-1 1v3a1 1 0 0 0 2 0v-.586l1.668 1.668a1 1 0 0 0 1.414-1.414L8.414 7H9a1 1 0 0 0 0-2H6Zm9 2h.586l-1.668 1.668a1 1 0 0 0 1.414 1.414L17 8.414V9a1 1 0 1 0 2 0V6a1 1 0 0 0-1-1h-3a1 1 0 1 0 0 2Zm-4.918 8.332a1 1 0 0 0-1.414-1.414L7 15.586V15a1 1 0 1 0-2 0v3a1 1 0 0 0 1 1h3a1 1 0 1 0 0-2h-.586l1.668-1.668Zm5.25-1.414a1 1 0 0 0-1.414 1.414L15.586 17H15a1 1 0 1 0 0 2h3a1 1 0 0 0 1-1v-3a1 1 0 1 0-2 0v.586l-1.668-1.668Z" clip-rule="evenodd"/>
</svg>
