<svg xmlns="http://www.w3.org/2000/svg" fill="currentColor" viewBox="0 0 24 24"><path d="M9.59 7.504a1 1 0 0 0-.18 1.992zM15 9l.996-.09a1 1 0 0 0-.905-.906zm-.496 5.59a1 1 0 1 0 1.992-.18zm-6.211-.297a1 1 0 1 0 1.414 1.414zm1.116-4.797 5.5.5.182-1.992-5.5-.5zm4.595-.406.5 5.5 1.992-.18-.5-5.5zm.289-.797-6 6 1.414 1.414 6-6zM20.6 12a8.6 8.6 0 0 1-8.6 8.6v2c5.854 0 10.6-4.746 10.6-10.6zM12 20.6A8.6 8.6 0 0 1 3.4 12h-2c0 5.854 4.746 10.6 10.6 10.6zM3.4 12A8.6 8.6 0 0 1 12 3.4v-2C6.146 1.4 1.4 6.146 1.4 12zM12 3.4a8.6 8.6 0 0 1 8.6 8.6h2c0-5.854-4.746-10.6-10.6-10.6z"/></svg>