<svg xmlns="http://www.w3.org/2000/svg" width="24" height="24" fill="none" viewBox="0 0 24 24">
  <path fill="#000" fill-rule="evenodd" d="M18 2.4A3.6 3.6 0 0 1 21.6 6v12a3.6 3.6 0 0 1-3.6 3.6H6A3.6 3.6 0 0 1 2.4 18V6A3.6 3.6 0 0 1 6 2.4h12ZM8.565 8.612H8.09A5.13 5.13 0 0 1 12.013 6.8a5.132 5.132 0 0 1 4.757 3.19 1 1 0 1 0 1.853-.754 7.131 7.131 0 0 0-6.61-4.436A7.128 7.128 0 0 0 6.5 7.397v-.835a1 1 0 0 0-2 0v3.05a1 1 0 0 0 1 1h3.065a1 1 0 1 0 0-2ZM7.192 13.81a1 1 0 1 0-1.853.754A7.131 7.131 0 0 0 11.95 19a7.128 7.128 0 0 0 5.513-2.598v.835a1 1 0 1 0 2 0v-3.05a1 1 0 0 0-1-1h-3.064a1 1 0 1 0 0 2h.474A5.13 5.13 0 0 1 11.95 17a5.131 5.131 0 0 1-4.758-3.19Z" clip-rule="evenodd"/>
</svg>
