<svg viewBox="0 0 24 24"><path fill="currentColor" fill-rule="evenodd" d="M18 2.4a3.6 3.6 0 0 1 3.6 3.6v12a3.6 3.6 0 0 1-3.6 3.6h-12a3.6 3.6 0 0 1-3.6-3.6v-12a3.6 3.6 0 0 1 3.6-3.6zm.5 4.8a1 1 0 0 1-.2 1.1l-.5.5a6.7 6.7 0 0 1-6 10 1 1 0 0 1 0-2 4.7 4.7 0 0 0 4.5-6.5l-.1.1a1 1 0 0 1-1.7-.7v-2.1a1 1 0 0 1 1-1h2.1a1 1 0 0 1 1 .6Zm-5.2-.6a1 1 0 0 1-1 1 4.6 4.6 0 0 0-4.5 6.3l0 0a1 1 0 0 1 1.8.6v2.1a1 1 0 0 1-1 1h-2.2a1 1 0 0 1-.7-1.7l.6-.5a6.7 6.7 0 0 1 6-9.9 1 1 0 0 1 1 1Z" clip-rule="evenodd"/></svg>