<svg viewBox="0 0 24 24"><path fill="currentColor" fill-rule="evenodd" d="M18 2.4a3.6 3.6 0 0 1 3.6 3.6v12a3.6 3.6 0 0 1-3.6 3.6h-12a3.6 3.6 0 0 1-3.6-3.6v-12a3.6 3.6 0 0 1 3.6-3.6zm-9.4 6.2h-.5a5 5 0 0 1 4-1.8 5 5 0 0 1 4.7 3.2 1 1 0 1 0 1.8-.8 7 7 0 0 0-6.6-4.4 7 7 0 0 0-5.5 2.6v-.8a1 1 0 0 0-2 0v3a1 1 0 0 0 1 1h3a1 1 0 1 0 0-2Zm-1.4 5.2a1 1 0 1 0-1.9.8 7 7 0 0 0 6.7 4.4 7 7 0 0 0 5.5-2.6v.8a1 1 0 1 0 2 0v-3a1 1 0 0 0-1-1h-3.1a1 1 0 1 0 0 2h.5a5 5 0 0 1-4 1.8 5 5 0 0 1-4.7-3.2Z" clip-rule="evenodd"/></svg>