<svg fill="none" viewBox="0 0 24 24"><path fill="currentColor" d="M1.4 16a1 1 0 1 0 2 .2zm2.1-9.8L3 5.4l-.4.7zm2.9-1.1a1 1 0 1 0-1.3-1.5zm14.2 11a1 1 0 0 0 2-.1zm-.1-9.9 1-.1-.4-.7zm-1.6-2.6A1 1 0 1 0 17.6 5zM8 16.3a2.4 2.4 0 0 1-2.3 2.4v2a4.4 4.4 0 0 0 4.3-4.4zm-2.3 2.4a2.4 2.4 0 0 1-2.4-2.4h-2a4.4 4.4 0 0 0 4.4 4.4zm-2.4-2.4A2.4 2.4 0 0 1 5.8 14v-2a4.4 4.4 0 0 0-4.4 4.3zM5.8 14A2.4 2.4 0 0 1 8 16.3h2A4.4 4.4 0 0 0 5.8 12zm4.2 2a2 2 0 0 1 2-1.2v-2A4 4 0 0 0 8.2 15zm2-1.2q1.4 0 2 1.2l1.8-1a4 4 0 0 0-3.8-2.2zm8.6 1.4a2.4 2.4 0 0 1-2.4 2.4v2a4.4 4.4 0 0 0 4.4-4.4zm-2.4 2.4a2.4 2.4 0 0 1-2.3-2.4h-2a4.4 4.4 0 0 0 4.3 4.4zM16 16.3a2.4 2.4 0 0 1 2.3-2.3v-2a4.4 4.4 0 0 0-4.3 4.3zm2.3-2.3a2.4 2.4 0 0 1 2.4 2.3h2a4.4 4.4 0 0 0-4.4-4.3zM3.4 16.2l1.1-9.9-2-.2-1 9.9zM4.2 7l2.2-2-1.3-1.4L3 5.4zm18.4 9L21.5 6l-2 .3 1.1 9.9zM21 5.4l-2-1.8L17.6 5l2.2 2z"/></svg>