<svg xmlns="http://www.w3.org/2000/svg" fill="none" viewBox="0 0 24 24">
  <path fill="#000" fill-rule="evenodd" d="M17.806 3a1.31 1.31 0 0 0-1.313 1.308v15.384A1.31 1.31 0 0 0 17.806 21h1.881A1.31 1.31 0 0 0 21 19.692V4.308A1.31 1.31 0 0 0 19.687 3h-1.88Zm-8.169 7.846a1.31 1.31 0 0 1 1.313-1.308h1.897a1.31 1.31 0 0 1 1.312 1.308v8.846A1.31 1.31 0 0 1 12.846 21H10.95a1.31 1.31 0 0 1-1.313-1.308v-8.846ZM3 16.076a1.31 1.31 0 0 1 1.313-1.307h1.906a1.31 1.31 0 0 1 1.313 1.308v3.615A1.31 1.31 0 0 1 6.22 21H4.313A1.31 1.31 0 0 1 3 19.692v-3.615Z" clip-rule="evenodd"/>
</svg>
