<svg viewBox="0 0 24 24"><path fill="currentColor" d="M8.1 12a2.4 2.4 0 0 1-2.3 2.4v2A4.4 4.4 0 0 0 10 12zm-2.3 2.4A2.4 2.4 0 0 1 3.4 12h-2a4.4 4.4 0 0 0 4.4 4.4zM3.4 12a2.4 2.4 0 0 1 2.4-2.4v-2A4.4 4.4 0 0 0 1.4 12zm2.4-2.4A2.4 2.4 0 0 1 8 12h2a4.4 4.4 0 0 0-4.3-4.4zm4.2 2.2a2 2 0 0 1 2-1.2v-2a4 4 0 0 0-3.8 2.2zm2-1.2q1.4 0 2 1.2l1.8-1A4 4 0 0 0 12 8.6zm8.6 1.4a2.4 2.4 0 0 1-2.4 2.4v2a4.4 4.4 0 0 0 4.4-4.4zm-2.4 2.4A2.4 2.4 0 0 1 16 12h-2a4.4 4.4 0 0 0 4.3 4.4zM16 12a2.4 2.4 0 0 1 2.3-2.4v-2A4.4 4.4 0 0 0 14 12zm2.3-2.4a2.4 2.4 0 0 1 2.4 2.4h2a4.4 4.4 0 0 0-4.4-4.4z"/></svg>