<svg xmlns="http://www.w3.org/2000/svg" fill="none" viewBox="0 0 24 24">
  <path fill="#000" fill-rule="evenodd" d="M4.8 2.4a2.4 2.4 0 0 0-2.4 2.4v14.4a2.4 2.4 0 0 0 2.4 2.4h14.4a2.4 2.4 0 0 0 2.4-2.4V4.8a2.4 2.4 0 0 0-2.4-2.4H4.8Zm12.533 3.2c-.589 0-1.066.478-1.066 1.067V18.4c0 .589.477 1.067 1.066 1.067H18.4c.589 0 1.067-.478 1.067-1.067V6.667c0-.59-.478-1.067-1.067-1.067h-1.067ZM10.4 12c0-.589.478-1.066 1.067-1.066h1.066c.59 0 1.067.477 1.067 1.066v6.4c0 .589-.477 1.067-1.067 1.067h-1.066c-.59 0-1.067-.478-1.067-1.067V12Zm-5.866 4.267c0-.59.477-1.067 1.066-1.067h1.067c.589 0 1.067.478 1.067 1.067V18.4c0 .589-.478 1.067-1.067 1.067H5.6A1.067 1.067 0 0 1 4.534 18.4v-2.133Z" clip-rule="evenodd"/>
</svg>
