<svg fill="none" viewBox="0 0 24 24"><path stroke="currentColor" stroke-linecap="round" stroke-linejoin="round" stroke-width="2" d="M8.8 9a5 5 0 0 1 3-.9 5 5 0 0 1 3 1m-8.3-2.6a9 9 0 0 1 5.3-1.7 9 9 0 0 1 5.3 1.7m-14.7 11.8s0-1.5 0-1.9q0-.7.6-1.5 0 0 .2-.1 1.5-1.2 2.9-1.6a18 18 0 0 1 7.5-.9q3 .3 5.4 1.4 1.5.6 2.1 1.4.6.6.5 1.3l0 2q0 .3-.2.6-.4.2-.6.2h0q-.6 0-1 0-.4 0-.6 0l-1.6 0q-.9 0-.9-.9 0-.2 0-.5c0-.5 0-.1 0-.6q0 0 0 0 0-.7-.5-.8l0 0q-1-.5-2.4-.6h0q-2.7-.3-4.9.2a6 6 0 0 0-.5.2q-.3 0-.4.1 0 0-.1 0a1 1 0 0 0-.4.3q-.3.4-.2.6l0 1.1q0 .3-.2.7-.3.2-.6.2h0l-3.2 0c-.6 0-.9-1-.9-1Z"/></svg>