<svg xmlns="http://www.w3.org/2000/svg" fill="none" viewBox="0 0 24 24">
  <path stroke="currentColor" stroke-linecap="round" stroke-linejoin="round" stroke-width="2" d="M11.53 13.83c.494.407 1.602 1.177 2.127 1.508.188.12.38.215.563.307.165.082.32.16.454.242.018.009.036.022.055.032a.994.994 0 0 0 .453.114c.38 0 .618-.238.696-.315l.898-.896c.155-.156.403-.343.691-.343.284 0 .518.178.66.334l2.532 2.527c.472.466.005 1.43.005 1.43s-1.159 1.139-1.443 1.472c-.462.494-1.007.727-1.722.727-.069 0-.142 0-.21-.005-1.36-.086-2.625-.617-3.573-1.07-1.626-.785-3.521-2.317-4.882-3.504m-2.798-2.95c-1.066-1.445-1.83-2.837-2.377-4.308-.426-1.138-.581-2.025-.513-2.861a2.1 2.1 0 0 1 .632-1.358L5.34 3.355c.225-.21.463-.325.696-.325.289 0 .522.174.669.32l.014.014c.279.26.545.53.824.818l.435.443 1.25 1.248c.486.484.486.932 0 1.417-.133.132-.26.265-.394.393-.384.393-.082.091-.48.448-.01.009-.019.014-.023.023-.394.393-.32.777-.239 1.037l.014.041c.213.514.482 1.009.838 1.536M3.13 20.43l17.4-17.4"/>
</svg>
