<svg fill="none" viewBox="0 0 24 24"><path stroke="currentColor" stroke-linecap="round" stroke-linejoin="round" stroke-width="2" d="M20.9 9h-5.6m0 0 0-4.9m0 4.9 6.3-6.3m-1.2 16.3s-1.2 1.2-1.4 1.5q-.7.8-1.8.8-.1 0-.2 0-2.1-.3-3.7-1.1a21 21 0 0 1-7-5.5q-2.3-2.8-3.4-5.6-.6-1.7-.5-3 0-.8.7-1.3l1.6-1.6q.3-.4.7-.4.4 0 .7.4l0 0q.5.3.8.8.3.3.5.5l1.3 1.3q.8.8 0 1.4-.3.2-.4.4c-.4.4-.1.1-.5.5q0 0 0 0-.6.7-.3 1l0 .1q.5 1.2 1.5 2.5l0 0q2 2.3 4.2 3.8.3.2.6.3.3 0 .5.3l0 0q.3 0 .5.1.6 0 .7-.3l1-1q.2-.2.6-.3.5 0 .7.4l0 0 2.6 2.6c.5.4 0 1.4 0 1.4Z"/></svg>