<svg xmlns="http://www.w3.org/2000/svg" fill="none" viewBox="0 0 24 24">
  <path fill="#000" d="M22.598 12.6a1 1 0 1 0-2 0h2Zm-1.815 3.878-.915-.405a1 1 0 0 0-.075.546l.99-.141Zm-4.086 4.495.243-.97a1 1 0 0 0-.733.099l.49.871ZM21.6 22.2l-.242.97a1 1 0 0 0 1.232-1.111l-.99.14ZM10.385 4.15a1 1 0 0 0-.373-1.965l.373 1.965Zm10.213 8.45a8.566 8.566 0 0 1-.73 3.473l1.83.81c.58-1.312.9-2.761.9-4.283h-2Zm-8.6 8.6a8.6 8.6 0 0 1-8.6-8.6h-2c0 5.854 4.746 10.6 10.6 10.6v-2Zm4.21-1.098a8.556 8.556 0 0 1-4.21 1.098v2a10.56 10.56 0 0 0 5.19-1.355l-.98-1.743Zm5.635 1.127-4.903-1.226-.485 1.94 4.903 1.226.485-1.94Zm-2.05-4.61.817 5.721 1.98-.282-.817-5.722-1.98.283ZM3.398 12.6a8.603 8.603 0 0 1 6.987-8.448l-.373-1.965c-4.905.93-8.614 5.238-8.614 10.414h2Zm17.2-7.2a2.6 2.6 0 0 1-2.6 2.6v2a4.6 4.6 0 0 0 4.6-4.6h-2Zm-2.6 2.6a2.6 2.6 0 0 1-2.6-2.6h-2a4.6 4.6 0 0 0 4.6 4.6V8Zm-2.6-2.6a2.6 2.6 0 0 1 2.6-2.6v-2a4.6 4.6 0 0 0-4.6 4.6h2Zm2.6-2.6a2.6 2.6 0 0 1 2.6 2.6h2a4.6 4.6 0 0 0-4.6-4.6v2Z"/>
</svg>
