<svg fill="none" viewBox="0 0 24 24"><path stroke="currentColor" stroke-linecap="round" stroke-linejoin="round" stroke-width="2" d="M20.7 18.8s-1.2 1.1-1.5 1.4q-.6.8-1.7.8 0 0-.2 0-2.1-.3-3.6-1.1a20 20 0 0 1-6.7-5.3q-2.3-2.7-3.3-5.5-.7-1.6-.6-2.8a2 2 0 0 1 .7-1.4l1.5-1.5q.4-.4.7-.4.5 0 .7.3l0 0q.5.5.8.9l.5.4 1.2 1.3q.7.7 0 1.4-.1.2-.4.4c-.4.4 0 0-.4.4q0 0 0 0-.6.7-.3 1l0 .1q.5 1.2 1.5 2.4l0 0q2 2.4 4 3.7.3.3.6.3.3.1.5.3 0 0 0 0a1 1 0 0 0 .5.1q.6 0 .7-.3l.9-.9q.2-.2.7-.3.5 0 .6.3a0 0 0 0 0 0 0l2.6 2.5c.4.5 0 1.5 0 1.5Z"/></svg>