<svg viewBox="0 0 24 24"><path fill="currentColor" d="M11.7 17.2v-1l-.7.3zm-5 5h-1a1 1 0 0 0 1.7.7zm0-5h1a1 1 0 0 0-1-1zM10.8 4a1 1 0 1 0 0-2zm11.8 8a1 1 0 1 0-2 0zM11 16.5l-5 5 1.4 1.4 5-5zm-3.3 5.7v-5h-2v5zm-1-6H4.8v2h1.9zm-3.3-1.4V5.4h-2v9.4zm15.8 1.4h-7.5v2h7.5zM4.8 4h6V2h-6zm15.8 8v2.8h2V12zm-1.4 6.2a3.4 3.4 0 0 0 3.4-3.4h-2a1.4 1.4 0 0 1-1.4 1.4zM3.4 5.4A1.4 1.4 0 0 1 4.8 4V2a3.4 3.4 0 0 0-3.4 3.4zm1.4 10.8a1.4 1.4 0 0 1-1.4-1.4h-2a3.4 3.4 0 0 0 3.4 3.4zM20.6 5.4A2.6 2.6 0 0 1 18 8v2a4.6 4.6 0 0 0 4.6-4.6zM18 8a2.6 2.6 0 0 1-2.6-2.6h-2A4.6 4.6 0 0 0 18 10zm-2.6-2.6A2.6 2.6 0 0 1 18 2.8v-2a4.6 4.6 0 0 0-4.6 4.6zM18 2.8a2.6 2.6 0 0 1 2.6 2.6h2A4.6 4.6 0 0 0 18 .8z"/></svg>