<svg fill="none" viewBox="0 0 24 24"><path fill="currentColor" d="M22.6 12.6a1 1 0 1 0-2 0zm-1.8 3.9-1-.4a1 1 0 0 0 0 .5zm-4.1 4.5.2-1a1 1 0 0 0-.7.1zm4.9 1.2-.2 1a1 1 0 0 0 1.2-1.1zm-11.2-18a1 1 0 1 0-.4-2zm10.2 8.4a9 9 0 0 1-.7 3.5l1.8.8q.9-2 .9-4.3zm-8.6 8.6a8.6 8.6 0 0 1-8.6-8.6h-2c0 5.9 4.7 10.6 10.6 10.6zm4.2-1.1a9 9 0 0 1-4.2 1.1v2q2.9 0 5.2-1.4zm5.6 1.1-4.9-1.2-.4 2 4.9 1.2zm-2-4.6.8 5.7 2-.2-.8-5.8zm-16.4-4a8.6 8.6 0 0 1 7-8.4l-.4-2c-4.9 1-8.6 5.2-8.6 10.4zm17.2-7.2a2.6 2.6 0 0 1-2.6 2.6v2a4.6 4.6 0 0 0 4.6-4.6zm-2.6 2.6a2.6 2.6 0 0 1-2.6-2.6h-2a4.6 4.6 0 0 0 4.6 4.6zm-2.6-2.6a2.6 2.6 0 0 1 2.6-2.6v-2a4.6 4.6 0 0 0-4.6 4.6zm2.6-2.6a2.6 2.6 0 0 1 2.6 2.6h2a4.6 4.6 0 0 0-4.6-4.6z"/></svg>