<svg viewBox="0 0 24 24"><path fill="currentColor" d="M9 10.6q0-.7.3-1c.8-1.3 1-2.5-.7-4.2-2.2-2.2-3.8-1.6-5.2-.2q-1.5 1.7-.7 3.9c.9 2.9 8.6 10.9 12.4 12.2q2.1.9 3.8-.7c1.4-1.4 2-3-.2-5.2-2-1.9-3-1.5-4.2-.6q-.4.3-1 .2c-.7 0-2-.6-3-1.8q-1.4-1.6-1.5-2.6Z"/><path fill="currentColor" fill-rule="evenodd" d="M13.4 3.4a1.2 1.2 0 0 1 1.4-1q2.3.5 4.4 2.4 2 2.1 2.4 4.4a1.2 1.2 0 0 1-2.3.4q-.3-1.5-1.8-3.1-1.6-1.5-3.1-1.8a1.2 1.2 0 0 1-1-1.3Zm-.4 3.7a1.2 1.2 0 0 1 1.4-1q1.2.2 2.3 1.2.9 1 1.2 2.3a1.2 1.2 0 0 1-2.3.4q0-.5-.6-1-.6-.5-1-.6a1.2 1.2 0 0 1-1-1.3Z" clip-rule="evenodd"/></svg>