<svg xmlns="http://www.w3.org/2000/svg" fill="none" viewBox="0 0 24 24">
  <path fill="#000" d="M19.553 2.056 3.933 6.713c-1.179.352-1.261 1.99-.124 2.458l5.764 2.36a.599.599 0 0 0 .656-.136l3.553-3.644a1.2 1.2 0 0 1 1.697 1.698L11.836 13a.6.6 0 0 0-.136.657l2.36 5.765c.469 1.135 2.105 1.053 2.456-.124l4.66-15.621a1.304 1.304 0 0 0-1.623-1.622ZM2.175 13.922a.596.596 0 0 0 .846 0l1.902-1.902a.597.597 0 1 0-.846-.845l-1.902 1.902a.597.597 0 0 0 0 .845Zm1.963 5.065a.597.597 0 0 1-.423-1.02l3.578-3.578a.597.597 0 1 1 .846.846L4.56 18.812a.596.596 0 0 1-.423.175Zm4.468 1.363a.596.596 0 0 0 .846 0l1.902-1.9a.597.597 0 1 0-.846-.846l-1.902 1.902a.597.597 0 0 0 0 .845Z"/>
</svg>
