<svg fill="none" viewBox="0 0 24 24"><path stroke="currentColor" stroke-linecap="round" stroke-linejoin="round" stroke-width="2" d="M12.9 6.3q1.8.3 3.1 1.7a6 6 0 0 1 1.7 3.1M13 2.4a10 10 0 0 1 5.6 3 10 10 0 0 1 2.9 5.5m-1.7 8.5-1.4 1.5q-.7.7-1.7.7h-.2c-1.4 0-2.7-.6-3.6-1a20 20 0 0 1-6.8-5.4Q4 12.5 3 9.8 2.3 8 2.4 6.9A2 2 0 0 1 3 5.5L4.6 4q.3-.3.7-.3T6 4h0l.8.8.4.5 1.3 1.2q.8.8 0 1.4l-.4.4-.5.5q0 0 0 0-.5.7-.2 1h0q.5 1.2 1.5 2.5h0q1.8 2.2 4 3.7l.6.3.4.2h.1l.4.2q.6-.1.7-.4l1-.8q.2-.3.6-.4.5 0 .7.3h0l2.5 2.6c.5.4 0 1.4 0 1.4"/></svg>