<svg viewBox="0 0 24 24"><path fill="currentColor" d="M22.6 12.6a1 1 0 1 0-2 0zm-1.8 3.9-1-.4v.5zM16.7 21l.2-1-.7.1zm4.9 1.2-.2 1a1 1 0 0 0 1.2-1.1zm-11.2-18a1 1 0 0 0-.4-2zm10.2 8.4a9 9 0 0 1-.7 3.5l1.8.8q.9-2 .9-4.3zM12 21.2a8.6 8.6 0 0 1-8.6-8.6h-2c0 5.9 4.7 10.6 10.6 10.6zm4.2-1.1a9 9 0 0 1-4.2 1.1v2a11 11 0 0 0 5.2-1.4zm5.6 1.1L17 20l-.4 2 4.9 1.2zm-2-4.6.8 5.7 2-.2-.8-5.8zm-16.4-4a8.6 8.6 0 0 1 7-8.4l-.4-2c-4.9 1-8.6 5.2-8.6 10.4zm17.2-7.2A2.6 2.6 0 0 1 18 8v2a4.6 4.6 0 0 0 4.6-4.6zM18 8a2.6 2.6 0 0 1-2.6-2.6h-2A4.6 4.6 0 0 0 18 10zm-2.6-2.6A2.6 2.6 0 0 1 18 2.8v-2a4.6 4.6 0 0 0-4.6 4.6zM18 2.8a2.6 2.6 0 0 1 2.6 2.6h2A4.6 4.6 0 0 0 18 .8z"/></svg>