<svg fill="none" viewBox="0 0 24 24"><path stroke="currentColor" stroke-linecap="round" stroke-linejoin="round" stroke-width="2" d="m17.3 9.9-3.9-3.9m0 0 3.4-3.4m-3.4 3.4h8.8m-2.4 13.2s-1.2 1.2-1.5 1.5q-.7.7-1.8.7 0 0-.2 0-2.1-.2-3.7-1a21 21 0 0 1-7-5.5q-2.2-2.9-3.3-5.6-.6-1.7-.5-3 0-.8.6-1.4l1.6-1.6q.4-.3.7-.3.5 0 .7.3l0 0q.4.4.9.9.2.2.4.4l1.3 1.3q.8.8 0 1.5-.1.1-.4.4c-.4.4 0 0-.5.4q0 0 0 0-.5.8-.2 1.1l0 0q.5 1.3 1.5 2.5l0 0q2 2.4 4.2 3.8.3.3.6.4.2 0 .4.2 0 0 0 0 .3.2.5.2.6-.1.8-.4l.9-.9q.2-.2.7-.3.4 0 .7.3l0 0 2.6 2.6c.5.5 0 1.5 0 1.5Z"/></svg>