<svg xmlns="http://www.w3.org/2000/svg" fill="currentColor" viewBox="0 0 24 24"><path d="M22.6 12.6a1 1 0 1 0-2 0zm-1.816 3.878-.915-.405a1 1 0 0 0-.075.546zm-4.086 4.495.243-.97a1 1 0 0 0-.733.099zm4.903 1.226-.242.97a1 1 0 0 0 1.232-1.111l-.99.14ZM10.386 4.15a1 1 0 1 0-.373-1.965zm10.213 8.45a8.6 8.6 0 0 1-.73 3.473l1.83.81c.579-1.312.9-2.761.9-4.283zM12 21.2a8.6 8.6 0 0 1-8.6-8.6h-2c0 5.854 4.746 10.6 10.6 10.6zm4.209-1.098A8.56 8.56 0 0 1 12 21.2v2c1.883 0 3.654-.492 5.19-1.355zm5.636 1.127-4.903-1.226-.485 1.94 4.902 1.226zm-2.05-4.61.817 5.721 1.98-.282-.817-5.722zM3.399 12.6a8.6 8.6 0 0 1 6.987-8.448l-.373-1.965c-4.905.93-8.614 5.238-8.614 10.414zm17.2-7.2A2.6 2.6 0 0 1 18 8v2a4.6 4.6 0 0 0 4.6-4.6h-2ZM18 8a2.6 2.6 0 0 1-2.6-2.6h-2A4.6 4.6 0 0 0 18 10zm-2.6-2.6A2.6 2.6 0 0 1 18 2.8v-2a4.6 4.6 0 0 0-4.6 4.6zM18 2.8a2.6 2.6 0 0 1 2.6 2.6h2A4.6 4.6 0 0 0 18 .8z"/></svg>