<svg fill="none" viewBox="0 0 24 24"><path stroke="currentColor" stroke-linecap="round" stroke-linejoin="round" stroke-width="2" d="m21.6 8.4-3-3m0 0-3-3m3 3-3 3m3-3 3-3m-1.7 17s-1.1 1.1-1.4 1.4q-.7.8-1.7.8-.2 0-.2 0-2.2-.3-3.6-1.1a20 20 0 0 1-6.8-5.3q-2.2-2.7-3.3-5.5-.6-1.6-.5-2.8 0-.8.6-1.4l1.6-1.5q.4-.4.7-.4.4 0 .7.4l0 0q.4.3.8.8.3.2.4.4l1.3 1.3q.8.8 0 1.4-.2.2-.4.4c-.4.4 0 0-.5.4q0 0 0 0-.5.7-.2 1l0 .1q.4 1.2 1.5 2.4l0 0q1.8 2.4 4 3.7.3.3.6.3.3.2.4.3 0 0 .1 0a1 1 0 0 0 .5.1q.5 0 .6-.3l1-.9q.2-.2.6-.3.5 0 .7.3a1 1 0 0 0 0 0l2.5 2.5c.5.5 0 1.5 0 1.5Z"/></svg>