<svg fill="none" viewBox="0 0 24 24"><path fill="currentColor" d="M11.7 17.2v-1a1 1 0 0 0-.7.3zm-5 5h-1a1 1 0 0 0 1.7.7zm0-5h1a1 1 0 0 0-1-1zm4.1-13.2a1 1 0 1 0 0-2zm11.8 8a1 1 0 1 0-2 0zm-11.6 4.5-5 5 1.4 1.4 5-5zm-3.3 5.7v-5h-2v5zm-1-6h-1.9v2h1.9zm-3.3-1.4v-9.4h-2v9.4zm15.8 1.4h-7.5v2h7.5zm-14.4-12.2h6v-2h-6zm15.8 8v2.8h2v-2.8zm-1.4 6.2a3.4 3.4 0 0 0 3.4-3.4h-2a1.4 1.4 0 0 1-1.4 1.4zm-15.8-12.8a1.4 1.4 0 0 1 1.4-1.4v-2a3.4 3.4 0 0 0-3.4 3.4zm1.4 10.8a1.4 1.4 0 0 1-1.4-1.4h-2a3.4 3.4 0 0 0 3.4 3.4zm15.8-10.8a2.6 2.6 0 0 1-2.6 2.6v2a4.6 4.6 0 0 0 4.6-4.6zm-2.6 2.6a2.6 2.6 0 0 1-2.6-2.6h-2a4.6 4.6 0 0 0 4.6 4.6zm-2.6-2.6a2.6 2.6 0 0 1 2.6-2.6v-2a4.6 4.6 0 0 0-4.6 4.6zm2.6-2.6a2.6 2.6 0 0 1 2.6 2.6h2a4.6 4.6 0 0 0-4.6-4.6z"/></svg>