<svg xmlns="http://www.w3.org/2000/svg" fill="none" viewBox="0 0 24 24">
  <path fill="#000" d="M13.004 3.6a1 1 0 1 0-2 0v7.185l-.693-.693a1 1 0 1 0-1.414 1.415l2.4 2.4a1 1 0 0 0 1.414 0l2.4-2.4a1 1 0 1 0-1.414-1.415l-.693.693V3.6Z"/>
  <path fill="#000" d="M7.164 6.799a2 2 0 0 0-1.703.952l-3.6 5.848c-.119.194-.361 1.4-.361 1.4s.002-.283.002.001v3a2.5 2.5 0 0 0 2.5 2.5h16a2.5 2.5 0 0 0 2.5-2.5v-3s-.242-1.207-.361-1.401L18.544 7.75a2 2 0 0 0-1.704-.952h-1.838a1 1 0 0 0 0 2h1.838l2.892 4.701h-2.98a1.5 1.5 0 0 0-1.5 1.5v.4a.5.5 0 0 1-.5.5h-5.5a.5.5 0 0 1-.5-.5V15a1.5 1.5 0 0 0-1.5-1.5H4.271l2.893-4.701h1.838a1 1 0 0 0 0-2H7.164Z"/>
</svg>
