<svg fill="none" viewBox="0 0 24 24"><path stroke="currentColor" stroke-linecap="round" stroke-linejoin="round" stroke-width="2" d="M12.9 6.3q1.8.3 3.1 1.7a6 6 0 0 1 1.7 3.1m-4.6-8.7a10 10 0 0 1 5.6 3 10 10 0 0 1 2.9 5.5m-1.7 8.5s-1.1 1.1-1.4 1.5q-.7.7-1.7.7-.2 0-.2 0c-1.4 0-2.7-.6-3.6-1a20 20 0 0 1-6.8-5.4q-2.2-2.7-3.3-5.4-.6-1.7-.5-2.9a2 2 0 0 1 .6-1.4l1.6-1.5q.3-.3.7-.3.4 0 .7.3l0 0q.4.4.8.8l.4.5 1.3 1.2q.8.8 0 1.4-.2.3-.4.4c-.4.4 0 .1-.5.5q0 0 0 0-.5.7-.2 1l0 0q.5 1.2 1.5 2.5l0 0q1.8 2.2 4 3.7.3 0 .6.3.3 0 .4.2 0 0 .1 0a1 1 0 0 0 .4.2q.6-.1.7-.4l1-.8q.2-.3.6-.4.5 0 .7.3l0 0 2.5 2.6c.5.4 0 1.4 0 1.4Z"/></svg>