<svg viewBox="0 0 24 24"><path fill="currentColor" d="M13 3.6a1 1 0 1 0-2 0v7.2l-.7-.7a1 1 0 1 0-1.4 1.4l2.4 2.4a1 1 0 0 0 1.4 0l2.4-2.4a1 1 0 1 0-1.4-1.4l-.7.7z"/><path fill="currentColor" d="M7.2 6.8a2 2 0 0 0-1.7 1l-3.6 5.8c-.2.2-.4 1.4-.4 1.4s0-.3 0 0v3a2.5 2.5 0 0 0 2.5 2.5h16a2.5 2.5 0 0 0 2.5-2.5v-3s-.2-1.2-.4-1.4l-3.6-5.8a2 2 0 0 0-1.7-1h-1.8a1 1 0 0 0 0 2h1.8l3 4.7h-3a1.5 1.5 0 0 0-1.5 1.5v.4a1 1 0 0 1-.5.5h-5.5a1 1 0 0 1-.5-.5v-.4a1.5 1.5 0 0 0-1.5-1.5h-3l2.9-4.7h1.8a1 1 0 0 0 0-2z"/></svg>