<svg xmlns="http://www.w3.org/2000/svg" fill="none" viewBox="0 0 24 24">
  <path stroke="currentColor" stroke-linecap="round" stroke-linejoin="round" stroke-width="2" d="M17.295 9.892 13.403 6m0 0 3.438-3.44M13.403 6h8.844m-2.459 13.18s-1.192 1.17-1.484 1.514c-.475.507-1.036.747-1.771.747-.07 0-.146 0-.217-.005-1.399-.089-2.7-.634-3.674-1.1a20.922 20.922 0 0 1-6.954-5.435c-1.607-1.932-2.68-3.719-3.392-5.637-.438-1.17-.599-2.083-.528-2.943.047-.55.26-1.006.65-1.397l1.607-1.603c.23-.216.476-.334.716-.334.297 0 .537.179.688.33l.014.013c.287.268.56.546.848.842.146.15.297.301.447.456l1.287 1.284c.499.498.499.959 0 1.457-.137.137-.269.273-.406.405-.395.404-.085.094-.494.46-.01.01-.02.014-.024.024-.405.404-.33.8-.245 1.067l.014.042c.335.81.806 1.57 1.522 2.478l.005.005c1.3 1.598 2.67 2.844 4.183 3.799.193.122.391.22.58.315.17.084.33.164.466.249l.057.033c.16.08.31.117.466.117.391 0 .636-.244.716-.324l.924-.922c.16-.16.414-.352.711-.352.292 0 .532.183.678.343l.01.01 2.596 2.59c.485.48.004 1.472.004 1.472Z"/>
</svg>
