<svg fill="none" viewBox="0 0 24 24"><path stroke="currentColor" stroke-linecap="round" stroke-linejoin="round" stroke-width="2" d="m18.4 2.3 3.8 4m0 0-3.4 3.4m3.4-3.5h-8.8m6.4 13.2s-1.2 1.2-1.5 1.5q-.7.8-1.8.8 0 0-.2 0-2.1-.3-3.7-1.1a21 21 0 0 1-7-5.5q-2.2-2.8-3.3-5.6-.6-1.6-.5-3 0-.8.6-1.3l1.6-1.7q.4-.3.7-.3.5 0 .7.3l0 0q.4.4.9.9.2.2.4.5l1.3 1.2q.8.8 0 1.5-.1.2-.4.4c-.4.4 0 0-.5.5q0 0 0 0-.5.7-.2 1l0 0q.4 1.3 1.5 2.6l0 0q2 2.3 4.2 3.8.3.2.6.3.2.1.4.2l0 0q.3.3.6.2.5-.1.7-.3l.9-1q.3-.2.7-.3.4 0 .7.3l0 0 2.6 2.6c.5.5 0 1.5 0 1.5Z"/></svg>