<svg xmlns="http://www.w3.org/2000/svg" width="24" height="24" fill="none" viewBox="0 0 24 24"><circle cx="12" cy="12" r="12" fill="#2081e2"/><path fill="#fff" d="m5.422 12.994.054-.085 3.271-5.135a.112.112 0 0 1 .196.014c.547 1.23 1.018 2.758.797 3.71-.094.39-.352.92-.643 1.41a3 3 0 0 1-.123.21.11.11 0 0 1-.093.049H5.518a.112.112 0 0 1-.096-.173"/><path fill="#fff" d="M20 13.948v.813a.12.12 0 0 1-.07.106c-.253.11-1.12.508-1.48 1.011C17.53 17.163 16.828 19 15.257 19H8.704C6.382 19 4.5 17.105 4.5 14.766v-.075c0-.062.05-.113.112-.113h3.653c.073 0 .125.068.119.139-.026.239.018.482.13.704.217.442.667.718 1.153.718h1.808v-1.417H9.687a.116.116 0 0 1-.093-.181l.065-.096c.17-.241.41-.616.65-1.042a8 8 0 0 0 .452-.904q.037-.085.067-.168c.035-.099.07-.191.097-.283.026-.078.046-.16.067-.236.06-.262.086-.54.086-.827q0-.171-.015-.343a4 4 0 0 0-.036-.37 4 4 0 0 0-.05-.33 6 6 0 0 0-.104-.492l-.014-.062c-.031-.113-.057-.22-.093-.333a13 13 0 0 0-.344-1.022q-.07-.19-.148-.374c-.076-.186-.154-.354-.225-.514l-.098-.206a7 7 0 0 0-.107-.225c-.026-.056-.056-.108-.077-.16l-.22-.41c-.031-.055.02-.121.08-.104l1.383.376h.009l.182.051.2.057.074.021v-.824c0-.398.318-.721.71-.721a.7.7 0 0 1 .503.211c.128.131.208.31.208.51v1.223l.147.042a.1.1 0 0 1 .034.017l.153.116q.076.064.175.144a11 11 0 0 1 .6.53c.224.21.476.456.716.728q.1.114.2.236c.067.083.138.164.2.246.082.109.17.222.246.34.036.055.077.112.112.168q.145.225.268.458c.034.071.07.149.102.225.091.206.164.416.21.626a1 1 0 0 1 .03.14v.01c.015.062.02.128.026.195a2.1 2.1 0 0 1-.113.918 3.6 3.6 0 0 1-.38.796 3 3 0 0 1-.117.19q-.07.099-.133.19c-.057.077-.118.16-.18.232a3 3 0 0 1-.174.22q-.129.153-.256.293a3 3 0 0 1-.164.179q-.084.092-.164.17a7 7 0 0 1-.22.21l-.141.13a.12.12 0 0 1-.077.03h-1.1v1.416h1.384c.31 0 .605-.11.843-.312.081-.072.436-.38.856-.845a.1.1 0 0 1 .053-.033l3.825-1.11a.113.113 0 0 1 .143.11Z"/></svg>