<svg xmlns="http://www.w3.org/2000/svg" width="24" height="24" fill="none" viewBox="0 0 24 24"><circle cx="12" cy="12" r="12" fill="#120c18"/><path fill="url(#a)" d="m15.336 9.546.938 1.146c.107.128.202.234.24.295.28.29.438.681.438 1.09-.027.48-.328.809-.608 1.16l-.655.801-.342.415a.1.1 0 0 0 .022.148.1.1 0 0 0 .053.014h3.418c.522 0 1.18.457 1.142 1.15a1.2 1.2 0 0 1-.341.84 1.15 1.15 0 0 1-.82.35h-5.353c-.352 0-1.299.039-1.564-.802a1 1 0 0 1-.022-.544 2.4 2.4 0 0 1 .36-.739c.269-.415.56-.83.848-1.233.37-.527.75-1.038 1.125-1.575a.1.1 0 0 0 0-.123l-1.36-1.66a.1.1 0 0 0-.076-.039.1.1 0 0 0-.076.039c-.364.504-1.959 2.738-2.299 3.19-.34.453-1.178.478-1.641 0l-2.128-2.19a.1.1 0 0 0-.106-.021.1.1 0 0 0-.043.036.1.1 0 0 0-.017.056v4.212c.005.299-.081.592-.247.838a1.4 1.4 0 0 1-.676.534 1.14 1.14 0 0 1-1.056-.154 1.2 1.2 0 0 1-.36-.425A1.2 1.2 0 0 1 4 15.81V8.236a1.3 1.3 0 0 1 .274-.749c.165-.214.393-.368.649-.442a1.26 1.26 0 0 1 1.251.348l3.27 3.359a.094.094 0 0 0 .146-.013l2.324-3.298a1.14 1.14 0 0 1 .883-.434h6.043a1.14 1.14 0 0 1 .873.408 1.2 1.2 0 0 1 .277.942 1.23 1.23 0 0 1-.406.748 1.17 1.17 0 0 1-.786.29h-3.384a.1.1 0 0 0-.083.052.1.1 0 0 0 .005.099"/><defs><linearGradient id="a" x1="-4" x2="-.441" y1="9.5" y2="20.888" gradientUnits="userSpaceOnUse"><stop stop-color="#7a00cc"/><stop offset="1" stop-color="#f72c87"/></linearGradient></defs></svg>