<svg xmlns="http://www.w3.org/2000/svg" width="24" height="24" fill="none" viewBox="0 0 24 24"><circle cx="12" cy="12" r="12" fill="#f7f9fb"/><path fill="#e17726" stroke="#e17726" stroke-linecap="round" stroke-linejoin="round" stroke-width=".25" d="m19.21 4.5-6.251 4.687 1.162-2.762z"/><path fill="#e27625" stroke="#e27625" stroke-linecap="round" stroke-linejoin="round" stroke-width=".25" d="m4.791 4.5 6.195 4.731-1.107-2.806zm12.167 10.869-1.663 2.575 3.561.993 1.02-3.512zm-12.829.056 1.014 3.512 3.555-.993-1.657-2.575z"/><path fill="#e27625" stroke="#e27625" stroke-linecap="round" stroke-linejoin="round" stroke-width=".25" d="m8.507 11.019-.99 1.512 3.524.163-.117-3.844zm6.987 0-2.455-2.213-.08 3.888 3.524-.163zM8.7 17.944l2.132-1.044-1.836-1.45-.297 2.494Z"/><path fill="#e27625" stroke="#e27625" stroke-linecap="round" stroke-linejoin="round" stroke-width=".25" d="m13.168 16.9 2.127 1.044-.29-2.494z" opacity=".8"/><path fill="#d5bfb2" stroke="#d5bfb2" stroke-linecap="round" stroke-linejoin="round" stroke-width=".25" d="M15.295 17.944 13.168 16.9l.173 1.4-.018.594zm-6.595 0 1.978.95-.013-.594.167-1.4z"/><path fill="#233447" stroke="#233447" stroke-linecap="round" stroke-linejoin="round" stroke-width=".25" d="M10.713 14.525 8.945 14l1.25-.581zm2.572 0 .52-1.106L15.06 14z"/><path fill="#cc6228" stroke="#cc6228" stroke-linecap="round" stroke-linejoin="round" stroke-width=".25" d="m8.698 17.944.309-2.575-1.966.056zm6.294-2.575.303 2.575 1.663-2.52zm1.491-2.838-3.524.163.328 1.831.519-1.106 1.255.581zM8.946 14l1.248-.581.52 1.106.327-1.831-3.523-.163z"/><path fill="#e27525" stroke="#e27525" stroke-linecap="round" stroke-linejoin="round" stroke-width=".25" d="m7.518 12.531 1.477 2.919-.05-1.45zM15.06 14l-.056 1.45 1.478-2.919zm-4.017-1.306-.328 1.831.414 2.163.093-2.85zm1.915 0-.173 1.137.087 2.856.414-2.162z"/><path fill="#f5841f" stroke="#f5841f" stroke-linecap="round" stroke-linejoin="round" stroke-width=".25" d="m13.285 14.525-.414 2.162.297.213 1.836-1.45.056-1.45zM8.945 14l.05 1.45 1.836 1.45.297-.212-.415-2.163z"/><path fill="#c0ac9d" stroke="#c0ac9d" stroke-linecap="round" stroke-linejoin="round" stroke-width=".25" d="m13.324 18.894.018-.594-.16-.137H10.82l-.155.137.013.594-1.979-.95.693.575 1.403.981H13.2l1.41-.981.686-.575z"/><path fill="#161616" stroke="#161616" stroke-linecap="round" stroke-linejoin="round" stroke-width=".25" d="m13.168 16.9-.297-.212h-1.743l-.297.212-.167 1.4.155-.137h2.361l.161.137z"/><path fill="#763e1a" stroke="#763e1a" stroke-linecap="round" stroke-linejoin="round" stroke-width=".25" d="M19.474 9.494 20 6.906 19.207 4.5l-6.04 4.531 2.325 1.988 3.282.969.724-.857-.316-.231.501-.463-.383-.3.5-.387zM4 6.906l.532 2.588-.34.256.507.387-.384.3.501.463-.315.231.723.857 3.283-.97 2.325-1.987L4.792 4.5z"/><path fill="#f5841f" stroke="#f5841f" stroke-linecap="round" stroke-linejoin="round" stroke-width=".25" d="m18.775 11.987-3.283-.968.99 1.512-1.478 2.919 1.954-.025h2.918zm-10.269-.968-3.283.968-1.094 3.438H7.04l1.953.025-1.477-2.919zm4.452 1.675.21-3.663.952-2.606H9.879l.952 2.606.21 3.663.08 1.15.007 2.844h1.743l.006-2.844z"/></svg>