<svg xmlns="http://www.w3.org/2000/svg" width="24" height="24" fill="none" viewBox="0 0 24 24"><circle cx="12" cy="12" r="12" fill="currentColor"/><path fill="#d81ffa" d="M20.519 12.491a13.03 13.03 0 0 1-7.429 6.139c-3.296 1.072-5.385.338-8.291-1.026 3.198.288 5.412.263 8.142-1.871a13 13 0 0 0 3.611-4.387 13.1 13.1 0 0 1 3.967 1.145"/><path fill="#e167ff" d="M16.562 11.346a13 13 0 0 1-3.613 4.385c-2.73 2.134-4.944 2.16-8.142 1.871 3.103-.822 5.176-1.605 7.01-4.544q.485-.776.859-1.613a13 13 0 0 1 3.886-.1Z"/><path fill="#0057ff" d="M16.562 11.346a13 13 0 0 0-3.884.101 13 13 0 0 0 1.038-3.745 13.1 13.1 0 0 1 4.11-.277 13 13 0 0 1-1.264 3.921"/><path fill="#189fff" d="M12.678 11.447q-.9.162-1.77.444c-3.296 1.073-4.554 2.9-6.1 5.713.49-3.176 1.048-5.32 3.778-7.454a13 13 0 0 1 5.13-2.448 13 13 0 0 1-1.038 3.745"/><path fill="#17ef97" d="M13.716 7.702a13 13 0 0 0-5.13 2.448c-2.73 2.134-3.288 4.278-3.777 7.454-.627-3.153-.834-5.358 1-8.297a13.05 13.05 0 0 1 7.75-5.72c.268 1.355.322 2.744.157 4.115"/><path fill="#fff" fill-rule="evenodd" d="M24 12c0-6.627-5.372-12-12-12C5.373 0 0 5.373 0 12c0 6.628 5.373 12 12 12 6.628 0 12-5.372 12-12M1.5 12C1.5 6.201 6.201 1.5 12 1.5S22.5 6.201 22.5 12 17.799 22.5 12 22.5 1.5 17.799 1.5 12" clip-rule="evenodd"/></svg>