<svg xmlns="http://www.w3.org/2000/svg" width="24" height="24" fill="none" viewBox="0 0 24 24"><circle cx="12" cy="12" r="12" fill="#fafafa"/><path fill="#f4a817" fill-rule="evenodd" d="M16.221 4.473q-.078.077-.157.153l-.094.105a14 14 0 0 0-1.068 1.318c-.066.093-.066.093-.165.056l-.005-.002a7.4 7.4 0 0 0-1.42-.378 8 8 0 0 0-1.634-.097 7.6 7.6 0 0 0-1.142.109 6.5 6.5 0 0 0-1.272.37c-.064.027-.103.019-.15-.037q-.35-.41-.71-.813a27 27 0 0 0-.344-.377l-.17-.184a.2.2 0 0 1-.024-.033l-.394-.388a6.6 6.6 0 0 0-1.057-.873c-.29-.187-.596-.338-.943-.392-.198-.03-.284.002-.39.171-.094.148-.15.31-.194.477a4.4 4.4 0 0 0-.113.937q-.014.383.007.768a15 15 0 0 0 .187 1.717c.019.105.038.21.045.318l.042.188q.046.205.09.412.091.414.21.822c.101.356.216.708.355 1.053.014.035.003.066-.012.099-.15.327-.295.656-.42.994-.021.058-.042.067-.082.013l-.004.012q-.005.009-.003.01c.055.058.033.117.011.176l-.008.021q-.184.522-.313 1.06a10 10 0 0 0-.141.675 9 9 0 0 0-.106.808l-.003.038a9 9 0 0 0-.034.582l.031-.005c.172-.03.343-.058.516-.072.372-.03.742-.027 1.112.03.995.153 1.789.656 2.453 1.39l.07.078.055-.129.11-.256c.113-.26.247-.508.393-.75l.076-.128c.08-.138.16-.276.267-.399.386-.44.84-.776 1.403-.953.285-.089.578-.15.876-.149.576.002 1.12.134 1.615.44.321.197.599.446.846.73q.105.121.175.265l.103.21a6 6 0 0 1 .418 1.008l.036.107.1-.1q.105-.106.212-.207a4.3 4.3 0 0 1 1.313-.865c.378-.157.773-.25 1.182-.29a5 5 0 0 1 1.058.018c.073.007.147.02.22.031l.101.017a.3.3 0 0 0 .003-.162 1 1 0 0 1-.008-.078 10.5 10.5 0 0 0-.126-1.333 9 9 0 0 0-.258-1.144c-.07-.23-.152-.454-.235-.68a5 5 0 0 0-.258-.556 8 8 0 0 1-.173-.355c-.049-.107-.076-.203-.035-.327.14-.424.26-.855.374-1.287.096-.367.19-.734.27-1.106l.013-.045.006-.02q.015-.1.038-.197l.026-.128.008-.043q.076-.406.138-.814.081-.544.104-1.093c.017-.448 0-.894-.117-1.33a2.2 2.2 0 0 0-.248-.604c-.027-.044-.055-.052-.1-.049-.32.025-.619.12-.908.25-.445.199-.837.479-1.205.795q-.218.192-.425.397m-.06 2.455a.3.3 0 0 0 .084.086q.03.022.055.046.087.089.174.175c.144.144.287.288.42.444a10 10 0 0 1 .828 1.128l.014.028c.01.024.02.049.048.05.011.001.03-.055.039-.088l.102-.336a15 15 0 0 0 .368-1.36c.073-.334.136-.67.174-1.01a9 9 0 0 0 .049-.68 4 4 0 0 0-.034-.55l-.005-.054-.005-.013-.008-.026a1.8 1.8 0 0 0-.16-.54c-.038-.085-.047-.085-.136-.05q-.467.185-.88.47a9.6 9.6 0 0 0-1.2 1.002q-.329.318-.633.658c-.031.034-.039.053.006.086l.061.045q.222.159.435.328l.06.054a.6.6 0 0 0 .143.107ZM5.501 4.252c.038-.085.047-.097.09-.092.112.034.225.083.333.137q.352.174.674.4c.205.144.4.302.591.464.265.223.513.462.758.706q.141.142.276.291l.146.156c.028.03.03.05-.008.076a8 8 0 0 0-.603.46 8 8 0 0 0-.59.562 8 8 0 0 0-.646.772 10 10 0 0 0-.451.67l-.004.007c-.006.01-.011.02-.024.02-.02 0-.026-.018-.031-.033l-.053-.168a23 23 0 0 1-.357-1.247 11.5 11.5 0 0 1-.275-1.547 5 5 0 0 1-.026-.634c.018-.343.058-.682.2-1m3.055 6.35c.093.007.196-.002.302-.01l.075-.007q.209-.014.405-.083c.08-.03.155-.077.187-.16a.75.75 0 0 0 .025-.476c-.07-.246-.25-.412-.446-.563a.7.7 0 0 0-.57-.15c-.362.061-.73.381-.774.758-.02.165-.03.323.066.473.065.1.132.184.264.195l.028.002c.14.012.281.023.438.021m7.045-.007.116-.01c.114-.007.222-.033.292-.141a.7.7 0 0 0 .113-.496c-.043-.311-.225-.529-.488-.683a.76.76 0 0 0-.67-.077 1 1 0 0 0-.352.24c-.184.172-.324.37-.345.633-.02.242.08.388.309.456.246.073.5.082.802.088.056.004.136-.003.223-.01m1.02 1.039v.022l-.005.083q-.008.098-.008.194c.001.07-.031.12-.075.17a2 2 0 0 1-.595.429c-.33.17-.68.29-1.04.378-.28.069-.563.12-.854.12a1 1 0 0 1-.225-.032c-.078-.019-.102-.061-.09-.134.035-.234.18-.404.34-.561.17-.165.366-.293.562-.42l.122-.08c.292-.193.588-.378.901-.534.22-.11.444-.215.694-.237.167-.015.167-.014.213.13l.014.041c.046.14.046.285.046.43Zm-9.192.06c.005.063.01.144.009.225-.002.103.048.172.116.238.283.273.63.433.992.57q.352.131.72.21c.246.055.494.094.746.101a.7.7 0 0 0 .266-.037c.073-.024.096-.06.084-.133a.6.6 0 0 0-.059-.182 1.45 1.45 0 0 0-.488-.535c-.52-.36-1.048-.708-1.631-.96a1.4 1.4 0 0 0-.56-.137c-.067 0-.096.028-.12.086-.056.131-.065.27-.076.442l-.003.05q0 .027.004.062" clip-rule="evenodd"/><path fill="#f00500" d="M19.337 14.382c.03-.08-.002-.16-.005-.24a11 11 0 0 0-.125-1.333 9 9 0 0 0-.26-1.144c-.068-.23-.15-.454-.234-.68-.117-.315-.293-.604-.431-.91-.048-.108-.076-.204-.034-.328.14-.424.26-.855.373-1.287.097-.367.19-.734.27-1.106q.008-.033.02-.066c.219.314.408.645.582.985q.337.66.561 1.365a9.6 9.6 0 0 1 .321 4.425 9.2 9.2 0 0 1-1.18 3.237 8.8 8.8 0 0 1-2.347 2.595 8.4 8.4 0 0 1-2.799 1.343 8.3 8.3 0 0 1-2.761.232 8 8 0 0 1-1.26-.214 8 8 0 0 1-1.638-.604 8.6 8.6 0 0 1-3.104-2.626 9.26 9.26 0 0 1-1.719-4.373 9.7 9.7 0 0 1-.038-1.902q.06-.775.249-1.527a9.2 9.2 0 0 1 1.228-2.815q.004-.006.009-.01.067.299.132.599.09.414.209.822.15.535.355 1.053c.015.035.004.066-.011.099-.15.327-.296.656-.42.994-.022.057-.042.067-.083.013-.003.012-.008.02-.006.023.062.064.026.13.003.196a10 10 0 0 0-.313 1.06q-.082.336-.142.675a9 9 0 0 0-.106.808c-.016.206-.034.413-.037.62a2.3 2.3 0 0 0 .075.76c.1.37.262.711.462 1.035.405.652.925 1.201 1.502 1.7q1.202 1.04 2.648 1.703c.19.087.377.176.573.25q.217.079.435.153.136.048.274.093.512.157 1.045.21a4.6 4.6 0 0 0 1.206-.052 7.5 7.5 0 0 0 1.055-.259 9 9 0 0 0 1.043-.41q.721-.332 1.384-.77a9 9 0 0 0 1.18-.917c.156-.145.313-.29.45-.455q.024-.008.03-.032h.005l.002-.004q.011-.008.021-.018c.251-.283.486-.577.68-.904.106-.181.22-.358.31-.55.162-.348.277-.712.334-1.093.021-.14.033-.279.027-.42Zm-3.273-9.756c-.176.196-.353.389-.52.592-.222.27-.44.545-.643.831-.067.095-.066.093-.17.054a7.4 7.4 0 0 0-1.42-.378 8 8 0 0 0-1.634-.097 7.6 7.6 0 0 0-1.141.109 6.5 6.5 0 0 0-1.272.37c-.065.027-.103.018-.15-.037q-.35-.41-.71-.813c-.169-.19-.343-.374-.514-.561q-.014-.016-.025-.033a8.13 8.13 0 0 1 6.087-.893c.729.18 1.417.462 2.071.83q.02.011.04.026Z"/><path fill="#fffefe" fill-rule="evenodd" d="M17.478 17.857a5 5 0 0 0 .45-.455l-.004-.005-.008-.002c-.009-.002-.017-.003-.014-.016q.002-.004.014-.007l.008-.003c.002-.03.022-.046.044-.064l.02-.017c.002.016-.006.028-.013.039-.008.012-.015.023-.01.039l.008-.006a6 6 0 0 0 .765-1.036 4 4 0 0 0 .573-1.523c.02-.14.032-.279.027-.42l-.1-.016a5.2 5.2 0 0 0-1.278-.05c-.41.042-.804.134-1.183.291a4.3 4.3 0 0 0-1.313.865q-.105.101-.212.207l-.1.1-.042-.128-.077-.23c-.088-.263-.212-.51-.335-.757q-.053-.105-.103-.21a1.2 1.2 0 0 0-.175-.265 3.7 3.7 0 0 0-.845-.73 3.03 3.03 0 0 0-1.615-.44c-.299 0-.591.06-.877.15-.563.176-1.017.512-1.402.952a2.5 2.5 0 0 0-.268.4l-.075.127a6 6 0 0 0-.393.75l-.11.257-.056.128-.07-.077c-.664-.735-1.458-1.238-2.453-1.391-.37-.057-.74-.06-1.112-.03a6 6 0 0 0-.516.072l-.031.005a2.3 2.3 0 0 0 .075.76c.1.37.261.711.462 1.035.404.652.925 1.201 1.502 1.7a11.1 11.1 0 0 0 2.713 1.733c.167.078.334.155.508.22a21 21 0 0 0 .49.172 5.3 5.3 0 0 0 1.263.283c.404.04.807.016 1.207-.051q.537-.091 1.055-.259a9 9 0 0 0 1.043-.41q.721-.332 1.384-.77a9 9 0 0 0 1.18-.917Zm-3.503-.945h.148l-.039.159-.103.427c-.009.04-.035.04-.067.04-.11-.001-.111 0-.151.104v.002l-.137.355V18l-.002.003-.079.205a1 1 0 0 0-.045-.073c-.037-.055-.072-.108-.071-.18l.003-.298q0-.183.004-.367c.001-.05-.008-.062-.06-.053a6.7 6.7 0 0 1-1.406.103 5.3 5.3 0 0 1-.873-.091 1 1 0 0 0-.07-.01l-.03-.002-.001.192q-.003.23.003.46c.004.117-.004.224-.094.315a1.2 1.2 0 0 1-.166-.347l-.002-.006c-.03-.089-.061-.179-.07-.273-.008-.071-.057-.065-.1-.052-.065.02-.085 0-.098-.065a2 2 0 0 1-.035-.238.17.17 0 0 0-.067-.136 1 1 0 0 1-.069-.064l-.031-.032c-.02-.018-.016-.041-.012-.063v-.002c.003-.019.017-.017.03-.015l.01.001.309.002.259.001c.035 0 .064.006.065.05 0 .028.018.029.039.03h.004c.247.013.494.014.741.014h.077c.029 0 .046-.009.06-.034l.047-.08.051-.086c.027-.05.053-.096.123-.079.032.008.038-.013.038-.04v-.014q-.002-.256 0-.513c0-.034-.019-.041-.04-.05l-.01-.004c-.265-.115-.515-.254-.719-.464-.167-.173-.27-.373-.256-.624q.006-.125.003-.25l-.002-.117c0-.26.173-.433.433-.433H12.8c.23 0 .464.236.456.466q-.003.09-.001.181c0 .131.002.262-.023.393a1.05 1.05 0 0 1-.424.654 1.3 1.3 0 0 1-.368.2c-.03.01-.038.024-.037.054v.52c-.001.037.011.05.046.044.056-.01.086.016.111.066l.02.04c.03.062.06.128.11.157.042.024.101.02.16.015q.036-.003.071-.004h.153q.153 0 .305.003c.052.001.088-.01.107-.06.008-.021.023-.039.052-.039h.437Zm-1.857.598v-.003h-.589c-.058 0-.087 0-.101.015s-.013.042-.01.099v.005c0 .03.015.045.037.059a1 1 0 0 0 .135.065l.052.021c.044.02.068.015.085-.037.034-.1.038-.099.137-.092h.01c.035.003.054.019.07.045l.045.077.064.106c.057.094.149.1.22.014l.053-.061.041-.05c.052-.06.077-.091.105-.093.029-.003.06.023.12.076l.01.01c.013.012.025.024.048.019.1-.024.174-.12.177-.218.002-.052-.02-.059-.064-.058zm.937 2.608h-.064c.024.015.043.01.064 0m-.088.015c-.037.019-.07.03-.119.015l.044-.01c.025-.007.048-.014.075-.005m4.902-2.707.011-.014-.007-.005-.006.017-.012.015q-.03-.002-.028.027l-.017.005.004.007.013-.012a.04.04 0 0 0 .028-.027z" clip-rule="evenodd"/><path fill="#f28f1f" d="M5.592 4.16c.112.034.225.083.333.137q.352.174.674.4c.205.144.4.302.591.464.265.223.513.462.758.706.145.145.28.298.422.447.028.03.03.05-.008.076-.21.142-.408.298-.603.46a8 8 0 0 0-.59.562 8 8 0 0 0-.646.772 10 10 0 0 0-.451.67c-.007.011-.012.027-.028.027-.021 0-.026-.018-.031-.033-.066-.212-.135-.424-.197-.637a23 23 0 0 1-.213-.777 11.5 11.5 0 0 1-.275-1.548 5 5 0 0 1-.026-.634c.018-.343.058-.682.2-1 .038-.085.047-.097.09-.092"/><path fill="#f28b20" d="M18.478 4.807c.022.2.047.403.04.604a9 9 0 0 1-.049.68c-.038.34-.101.676-.174 1.01-.066.304-.146.606-.232.906-.075.265-.16.527-.239.79-.01.032-.027.09-.038.089-.04-.003-.044-.05-.063-.08a10 10 0 0 0-.828-1.127c-.185-.219-.394-.414-.593-.619-.045-.046-.107-.074-.14-.132.012-.016.028-.031.037-.05q.132-.275.291-.537c.16-.265.336-.517.543-.746A2.6 2.6 0 0 1 17.788 5c.217-.11.444-.185.69-.193"/><path fill="#1f1712" d="M7.426 11.633c.013-.198.017-.35.078-.493.025-.058.054-.085.122-.086.199-.003.381.06.559.137.583.252 1.11.6 1.631.96.202.14.376.31.488.535q.044.086.06.182c.01.073-.012.109-.085.133a.8.8 0 0 1-.266.037 4 4 0 0 1-.745-.1 5 5 0 0 1-.721-.212c-.361-.136-.709-.296-.992-.57-.068-.065-.118-.134-.116-.237.002-.11-.01-.222-.013-.287Z"/><path fill="#1f1713" d="M16.622 11.656c-.005.093-.014.185-.013.277.001.071-.031.12-.075.17a2 2 0 0 1-.595.429c-.33.171-.68.29-1.04.379-.28.068-.563.12-.854.12a1 1 0 0 1-.225-.033c-.078-.018-.102-.061-.09-.134.035-.234.18-.404.34-.56.204-.2.449-.345.684-.501.292-.193.588-.377.901-.534.22-.11.444-.215.694-.237.182-.016.166-.014.227.171.048.147.046.3.046.453"/><path fill="#f2991d" d="M18.478 4.807a1.65 1.65 0 0 0-.69.193 2.6 2.6 0 0 0-.755.595 5 5 0 0 0-.542.746 6 6 0 0 0-.292.538c-.009.018-.024.033-.037.05-.08-.038-.136-.108-.203-.162-.161-.13-.329-.251-.496-.373-.045-.033-.037-.052-.006-.086q.305-.34.632-.658c.377-.363.77-.706 1.201-1.003q.413-.284.88-.469c.09-.035.098-.034.137.05.079.172.137.35.159.54.001.013.008.026.012.039"/><path fill="#fffefe" d="M15.38 10.604c-.302-.005-.555-.014-.801-.087-.23-.068-.328-.214-.31-.456.022-.264.162-.461.346-.634a1 1 0 0 1 .352-.239.76.76 0 0 1 .67.077c.263.154.445.372.488.683a.7.7 0 0 1-.113.495c-.07.11-.178.135-.292.143-.13.008-.258.024-.34.018m-6.823-.002a5 5 0 0 1-.466-.023c-.132-.01-.2-.095-.264-.195-.095-.15-.086-.308-.066-.473.044-.377.412-.697.773-.758a.7.7 0 0 1 .571.15c.195.152.375.317.446.563a.74.74 0 0 1-.025.475c-.032.085-.107.132-.187.16q-.197.07-.405.084c-.13.01-.262.025-.377.017"/><path fill="#f6d9a7" d="M17.922 17.37c.003-.04.036-.055.064-.082.004.033-.033.049-.022.077l-.001.005z"/><path fill="#fffefe" d="M17.923 17.37h.036c-.006.015-.014.028-.032.032l-.004-.005z"/><path fill="#1d1919" d="m14.123 16.912-.142.587c-.009.038-.035.038-.067.038-.111 0-.111 0-.152.107l-.216.564c-.047-.088-.119-.15-.117-.253.003-.222.002-.444.007-.665.001-.05-.008-.062-.06-.053a6.7 6.7 0 0 1-1.406.103 5.3 5.3 0 0 1-.873-.091c-.034-.007-.069-.008-.1-.012 0 .218-.005.435.002.652.004.117-.004.224-.094.315a1.2 1.2 0 0 1-.166-.347 1.3 1.3 0 0 1-.073-.28c-.007-.07-.056-.064-.099-.05-.065.02-.085 0-.098-.066a2 2 0 0 1-.035-.238.17.17 0 0 0-.067-.136c-.036-.029-.067-.064-.1-.096-.02-.018-.015-.042-.012-.065.004-.024.026-.014.04-.014q.283.002.568.003c.035 0 .064.006.065.05 0 .03.021.029.043.03.272.015.545.014.818.014.029 0 .046-.009.06-.034.031-.056.067-.11.098-.166.027-.05.053-.096.123-.079.032.008.038-.013.038-.04q-.002-.263 0-.527c0-.038-.024-.043-.05-.054-.265-.115-.515-.254-.719-.464-.167-.173-.27-.373-.256-.624.008-.122.001-.245.002-.367 0-.26.172-.433.432-.433H12.8c.23 0 .464.236.456.466-.007.191.012.384-.024.574a1.05 1.05 0 0 1-.424.654 1.3 1.3 0 0 1-.368.2c-.03.01-.038.024-.037.054v.52c-.001.037.011.05.046.044.056-.01.086.016.111.066.036.07.07.161.13.197.06.034.153.01.231.01.153.002.306 0 .458.004.052.001.088-.01.107-.06.008-.021.023-.039.052-.039h.585Z"/><path fill="#171413" d="m12.118 17.51.645-.001c.045 0 .066.006.064.058a.24.24 0 0 1-.177.218c-.029.007-.04-.015-.058-.03-.122-.104-.122-.104-.225.018l-.093.11c-.072.086-.164.08-.221-.014l-.11-.182c-.015-.027-.034-.043-.07-.045-.108-.007-.111-.01-.146.092-.017.052-.041.056-.085.037-.063-.027-.129-.048-.187-.086-.022-.014-.037-.028-.038-.06-.004-.118-.006-.118.112-.118h.59v.002Z"/><path fill="#f6d9a7" d="M12.846 20.148c.046-.005.076-.03.12-.015-.038.019-.07.03-.12.015m.209-.03c-.02.01-.04.015-.064 0zm4.868-2.749v.028c-.01-.004-.026 0-.022-.018.001-.005.014-.007.022-.01m-.098.097q0-.028.028-.027a.04.04 0 0 1-.027.028Z"/><path fill="#f7ddb0" d="m17.826 17.467-.012.01-.005-.006zm-.204.198v.005q-.004.001-.006.001-.01-.005 0-.008.003 0 .006.002"/><path fill="#f6d9a7" d="m17.866 17.424.006-.018.007.006-.011.013z"/><path fill="#f6d9a7" d="m17.853 17.439.013-.016.002.002z"/><path fill="#f7ddb0" d="m17.783 17.507.007-.01c.009.009 0 .01-.004.012zm.002.002-.008.006.006-.008zm-.035.031.002.004h-.005zm-.038.035c.003-.005.006-.012.012-.004l-.008.008z"/><path fill="#f7ddb0" d="m17.717 17.579-.01.005.006-.01zm-.037.022v-.004h.003l-.002.004Zm-.04.042-.002-.005h.004z"/></svg>