<svg xmlns="http://www.w3.org/2000/svg" width="24" height="24" fill="none" viewBox="0 0 24 24"><circle cx="12" cy="12" r="12" fill="currentColor"/><path fill="url(#a)" fill-rule="evenodd" d="M17.072 8.039a.6.6 0 0 1-.244.051H4.307a.3.3 0 0 1-.281-.186.32.32 0 0 1 .056-.336l2.638-2.87a.61.61 0 0 1 .447-.198h12.521a.3.3 0 0 1 .286.184.31.31 0 0 1-.058.339l-2.641 2.87a.6.6 0 0 1-.203.146m.203 2.113a.62.62 0 0 0-.447-.198H4.307a.3.3 0 0 0-.281.187.32.32 0 0 0 .056.336l2.638 2.871a.62.62 0 0 0 .447.198h12.521a.3.3 0 0 0 .28-.188.31.31 0 0 0-.056-.335zm2.641 5.78-2.641 2.87a.61.61 0 0 1-.447.198H4.307a.3.3 0 0 1-.281-.187.32.32 0 0 1 .056-.336l2.638-2.87a.61.61 0 0 1 .447-.197h12.521a.3.3 0 0 1 .286.184.31.31 0 0 1-.058.338" clip-rule="evenodd"/><defs><linearGradient id="a" x1="13.625" x2="25.207" y1="25.295" y2="9.185" gradientUnits="userSpaceOnUse"><stop offset=".08" stop-color="#9945ff"/><stop offset=".3" stop-color="#8752f3"/><stop offset=".5" stop-color="#5497d5"/><stop offset=".6" stop-color="#43b4ca"/><stop offset=".72" stop-color="#28e0b9"/><stop offset=".97" stop-color="#19fb9b"/></linearGradient></defs></svg>