<svg viewBox="0 0 24 24"><path fill="currentColor" d="M17.6 16.3q-.7-.6-1.4 0-.6.7 0 1.5zm2.1 4.8q.7.6 1.4 0 .6-.7 0-1.4zm-9.3-6.7q0 1 1 1 1 0 1-1zm2-6q0-1-1-1-1 0-1 1zm-4 2q-1 0-1 1 0 1 1 1zm6 2q1 0 1-1 0-1-1-1zm3.9-1c0 3.8-3 6.9-6.9 6.9v2c5 0 8.9-4 8.9-8.9zm-6.9 6.9c-3.7 0-6.8-3-6.8-6.9h-2c0 5 4 8.9 8.8 8.9zm-6.8-6.9c0-3.7 3-6.8 6.8-6.8v-2c-4.8 0-8.8 4-8.8 8.8zm6.8-6.8c3.8 0 6.9 3 6.9 6.8h2c0-4.8-4-8.8-8.9-8.8zm4.8 13.2 3.5 3.3 1.4-1.4-3.5-3.4zm-3.8-3.4v-3h-2v3zm0-3v-3h-2v3zm-4 1h3v-2h-3zm3 0h3v-2h-3z"/></svg>