<svg fill="none" viewBox="0 0 25 24"><path fill="currentColor" d="M20.3 13.9a1 1 0 1 0-1.9-.7zm-3 5.4 1 .3zM16 20.5l.2 1zM4 22.9l-1-.2a1 1 0 0 0 1.2 1.2zm2.2-12.1 1 .1zm1.3-1.5.3 1zm6.1-.8a1 1 0 0 0-.6-2zM3.6 22a1 1 0 1 0 1.3 1.4zm6.5-3.8a1 1 0 0 0-1.4-1.4zm12.8-9 .7-.7zm0 1.8.7.7zm-7-7-.7-.7zm1.8 0-.7.7zm-4 4-.6.6zm0-1.8.8.7zm5.3 7 .7-.8zm1.7 0-.7-.8zM3.6 6.5a1 1 0 0 0 2 0zm2-5.3a1 1 0 1 0-2 0zM2 3a1 1 0 0 0 0 2zm5.2 2a1 1 0 1 0 0-2zm11.2 8.2-2 5.8 1.9.6 2-5.7zm-2.6 6.3-12 2.4.4 2 12-2.4zM5 23.1l2.2-12.2-2-.3L3 22.7zm2.8-12.8 5.8-1.8-.6-2-5.8 1.9zm-.6.6.6-.6-.6-2a3 3 0 0 0-2 2.3zm9.2 8-.6.6.4 2a3 3 0 0 0 2.1-1.9zM5 23.5l5.2-5.2-1.4-1.4L3.5 22zm14.8-11-5.2-5.2L13 8.6l5.2 5.2zM14.5 7l2.1-2.2-1.4-1.4-2.1 2.2zM17 4.7l5 5.3 1.5-1.4-5.2-5.2zm5.1 5.6L20 12.4l1.4 1.4 2.2-2.1zm0-.4a.2.2 0 0 1 0 .4l1.5 1.4a2.2 2.2 0 0 0 0-3.2zm-5.5-5.2a.2.2 0 0 1 .4 0l1.4-1.4a2.2 2.2 0 0 0-3.2 0zm-2.1 2.5V7L13 5.5a2 2 0 0 0 0 3.1zm3.8 6.6a2 2 0 0 0 3.1 0L20 12.4h-.3zm-7.7.5a1.5 1.5 0 0 1 2 0l1.4-1.4a3.5 3.5 0 0 0-4.8 0zm2 0a1.5 1.5 0 0 1 0 2l1.4 1.4a3.5 3.5 0 0 0 0-4.8zm0 2a1.5 1.5 0 0 1-2 0l-1.4 1.4a3.5 3.5 0 0 0 4.8 0zm-2 0a1.5 1.5 0 0 1 0-2l-1.4-1.4a3.5 3.5 0 0 0 0 4.8zm-5-9.7V4h-2v2.6zm0-2.6V1.3h-2V4zM2 5h2.6V3H2zm2.6 0h2.6V3H4.6z"/></svg>