<svg fill="none" viewBox="0 0 25 24"><path fill="currentColor" d="M6.9 11.5a1 1 0 1 0 1.9.6zm3-5.4-1-.4zm1.3-1.2-.2-1zm12-2.4 1 .2A1 1 0 0 0 23 1.5zm-2.2 12h-1zM19.8 16l-.3-1zm-6.2.9a1 1 0 0 0 .6 2zM23.7 3.4A1 1 0 0 0 22.3 2zm-6.6 3.8a1 1 0 0 0 1.4 1.4zm-12.7 9-.7.6zm0-1.8.7.7zm6.9 7 .7.6zm-1.7 0 .7-.8zm3.9-4-.7.7zm0 1.8-.7-.8zm-5.2-7 .7-.7zm-1.8 0-.7-.7zm2.3 0 2-5.8L9 5.7l-2 5.8zm2.6-6.4 12-2.3-.4-2-12 2.4zm10.8-3.5L20 14.4l2 .4 2.2-12.1zm-2.7 12.8-5.9 1.8.6 2 5.9-2zm.5-.7-.5.7.5 1.9a3 3 0 0 0 2-2.2zm-9.2-8 .6-.6-.4-2a3 3 0 0 0-2 2zM22.3 2 17 7.2l1.4 1.4 5.2-5.2zM7.6 13l5.2 5.1 1.4-1.4L9 11.5zm5.2 5.4-2.2 2.2L12 22l2.2-2.1zm-2.5 2.2L5 15.4l-1.4 1.4L8.9 22zM5 15.1l2.1-2.2-1.4-1.4-2.1 2.2zm0 .3v-.3l-1.4-1.4a2 2 0 0 0 0 3.1zm5.5 5.2h-.3L8.9 22a2 2 0 0 0 3.1 0zm2.2-2.5v.3l1.4 1.5a2.2 2.2 0 0 0 0-3.2zM9 11.5a2.2 2.2 0 0 0-3.2 0L7.2 13a.2.2 0 0 1 .4 0zm7.7-.4a1.5 1.5 0 0 1-2 0l-1.5 1.4a3.5 3.5 0 0 0 4.9 0zm-2 0a1.5 1.5 0 0 1 0-2l-1.5-1.5a3.5 3.5 0 0 0 0 4.9zm0-2a1.5 1.5 0 0 1 2 0L18 7.5a3.5 3.5 0 0 0-5 0zm2 0a1.5 1.5 0 0 1 0 2l1.4 1.4a3.5 3.5 0 0 0 0-4.9z"/></svg>