<svg viewBox="0 0 24 24"><path fill="currentColor" d="M8.4 16.8h-1v1h1zm0-9.6v-1h-1v1zm4.9 8.6H8.4v2h4.9zm-3.9 1V12h-2v4.8zm7.2-2.4c0-1.9-1.5-3.4-3.3-3.4v2q1.2.1 1.3 1.4zm-3.3 3.4c1.8 0 3.3-1.5 3.3-3.4h-2q-.1 1.3-1.3 1.4zm-.8-6.8H8.4v2h4.1zm-3.1 1V7.2h-2V12zm3.1-5.8H8.4v2h4.1zM16 9.6c0-1.9-1.5-3.4-3.4-3.4v2q1.3.1 1.4 1.4zM12.5 13c2 0 3.4-1.5 3.4-3.4h-2q-.1 1.3-1.4 1.4zm.8-2H8.4v2h4.9zM4.8 3.4h14.4v-2H4.8zm15.8 1.4v14.4h2V4.8zm-1.4 15.8H4.8v2h14.4zM3.4 19.2V4.8h-2v14.4zm1.4 1.4q-1.3-.1-1.4-1.4h-2c0 1.9 1.5 3.4 3.4 3.4zm15.8-1.4q-.1 1.3-1.4 1.4v2c1.9 0 3.4-1.5 3.4-3.4zM19.2 3.4q1.3.1 1.4 1.4h2c0-1.9-1.5-3.4-3.4-3.4zm-14.4-2c-1.9 0-3.4 1.5-3.4 3.4h2q.1-1.3 1.4-1.4z"/></svg>