<svg xmlns="http://www.w3.org/2000/svg" width="24" height="24" fill="none" viewBox="0 0 24 24"><path fill="currentColor" d="M9.127 7.634a1 1 0 1 0 0-2zm-5.504-2a1 1 0 1 0 0 2zm16.777 2a1 1 0 1 0 0-2zm-5.77-2a1 1 0 0 0 0 2zm-4.113.166h2.714v-2h-2.714zm2.619-.095v2.714h2V5.705zm.095 2.62h-2.714v2h2.714zm-2.62.094V5.705h-2v2.714zm-.095-.095c.053 0 .096.043.096.095h-2c0 1.052.852 1.905 1.905 1.905zm2.62.095c0-.052.043-.095.095-.095v2a1.905 1.905 0 0 0 1.905-1.905zm.095-2.62a.095.095 0 0 1-.095-.094h2A1.905 1.905 0 0 0 13.23 3.8zm-2.714-2a1.905 1.905 0 0 0-1.905 1.906h2a.095.095 0 0 1-.095.095zM3.305 15.585H6.02v-2H3.305zm2.62-.095v2.714h2v-2.714zm.095 2.619H3.305v2H6.02zm-2.62.095v-2.714h-2v2.714zm-.095-.095c.053 0 .095.043.095.095h-2c0 1.052.853 1.905 1.905 1.905zm2.62.095c0-.052.042-.095.095-.095v2a1.905 1.905 0 0 0 1.905-1.905zm.095-2.62a.095.095 0 0 1-.095-.095h2a1.905 1.905 0 0 0-1.905-1.904zm-2.715-2A1.905 1.905 0 0 0 1.4 15.49h2a.095.095 0 0 1-.095.095zm14.676 2h2.714v-2h-2.714zm2.62-.095v2.715h2v-2.714zm.095 2.62H17.98v2h2.714zm-2.62.095v-2.714h-2v2.714zm-.095-.095c.052 0 .095.043.095.095h-2c0 1.052.853 1.905 1.905 1.905zm2.62.095c0-.052.042-.095.095-.095v2a1.905 1.905 0 0 0 1.904-1.905zm.095-2.62a.095.095 0 0 1-.096-.095h2a1.905 1.905 0 0 0-1.905-1.904zm-2.715-2a1.905 1.905 0 0 0-1.905 1.906h2a.095.095 0 0 1-.095.095zM9.127 5.635H3.623v2h5.504zm11.273 0h-5.77v2h5.77zM3.846 13.361v1.223h2V13.36zm14.676 0v1.223h2V13.36zm-12.676 0a6.34 6.34 0 0 1 3.17-5.49L8.015 6.138a8.34 8.34 0 0 0-4.169 7.222zm9.506-5.49a6.34 6.34 0 0 1 3.17 5.49h2a8.34 8.34 0 0 0-4.168-7.222z"/></svg>