<svg xmlns="http://www.w3.org/2000/svg" width="24" height="24" fill="none" viewBox="0 0 24 24"><path stroke="currentColor" stroke-width="2" d="M4.51 9.78a7.39 7.39 0 0 1 5.493-5.101m-.527 14.285a7.4 7.4 0 0 1-4.966-4.966m14.15 0a7.4 7.4 0 0 1-4.967 4.966M13.166 4.68a7.39 7.39 0 0 1 5.629 5.629M10.364 6.84h2.663c.49 0 .888-.398.888-.888V3.288a.89.89 0 0 0-.888-.888h-2.663a.89.89 0 0 0-.888.888v2.664c0 .49.397.888.888.888Zm0 14.76h2.663c.49 0 .888-.397.888-.888V18.05a.89.89 0 0 0-.888-.888h-2.663a.89.89 0 0 0-.888.888v2.663c0 .49.397.888.888.888Zm5.743-10.932v2.664c0 .49.397.888.888.888h2.663c.49 0 .888-.398.888-.888v-2.664a.89.89 0 0 0-.888-.888h-2.663a.89.89 0 0 0-.888.888Zm-13.707 0v2.664c0 .49.398.888.888.888h2.664c.49 0 .888-.398.888-.888v-2.664a.89.89 0 0 0-.888-.888H3.288a.89.89 0 0 0-.888.888Z"/></svg>