<svg xmlns="http://www.w3.org/2000/svg" width="24" height="24" fill="none" viewBox="0 0 24 24"><path stroke="currentColor" stroke-linecap="round" stroke-linejoin="round" stroke-width="2" d="M17.334 21.6a4.267 4.267 0 0 1-4.267-4.266v-12.8A2.133 2.133 0 0 1 15.2 2.4h4.267A2.133 2.133 0 0 1 21.6 4.534v12.8a4.266 4.266 0 0 1-4.266 4.266m0 0h-12.8A2.133 2.133 0 0 1 2.4 19.467V15.2a2.133 2.133 0 0 1 2.134-2.133h2.453m6.08-6.027-2.133-2.133a2.133 2.133 0 0 0-3.017 0L4.901 7.924a2.133 2.133 0 0 0 0 3.016l9.6 9.6m2.833-3.206v.01"/></svg>