<svg fill="none" viewBox="0 0 25 24"><path fill="currentColor" d="M6.9 11.5a1 1 0 1 0 1.9.6zm3-5.4-1-.4zm1.3-1.2-.2-1zm12-2.4 1 .2a1 1 0 0 0-1.2-1.2zm-2.2 12-1 0zm-1.2 1.5-.3-1zm-6.2.9a1 1 0 0 0 .6 2zm10.1-13.5a1 1 0 0 0-1.4-1.4zm-6.6 3.8a1 1 0 0 0 1.4 1.4zm-12.7 9-.7.6zm0-1.8.7.7zm6.9 7 .7.6zm-1.7 0 .7-.8zm3.9-4-.7.7zm0 1.8-.7-.8zm-5.2-7 .7-.7zm-1.8 0-.7-.7zm2.3 0 2-5.8-1.9-.7-2 5.8zm2.6-6.4 12-2.3-.4-2-12 2.4zm10.8-3.5-2.2 12.1 2 .4 2.2-12.1zm-2.7 12.8-5.9 1.8.6 2 5.9-2zm.5-.7a1 1 0 0 1-.5.7l.6 1.9a3 3 0 0 0 2-2.2zm-9.2-8a1 1 0 0 1 .6-.6l-.4-2a3 3 0 0 0-2 2zm11.5-4.4-5.2 5.2 1.4 1.4 5.2-5.2zm-14.7 11 5.2 5.1 1.4-1.4-5.2-5.2zm5.2 5.4-2.2 2.2 1.4 1.4 2.2-2.1zm-2.5 2.2-5.2-5.2-1.4 1.4 5.2 5.2zm-5.2-5.5 2.1-2.2-1.4-1.4-2.1 2.2zm0 .3a.2.2 0 0 1 0-.3l-1.4-1.4a2 2 0 0 0 0 3.1zm5.5 5.2a.2.2 0 0 1-.3 0l-1.4 1.4a2 2 0 0 0 3.1 0zm2.2-2.5a.2.2 0 0 1 0 .3l1.4 1.5a2.2 2.2 0 0 0 0-3.2zm-3.8-6.6a2.2 2.2 0 0 0-3.2 0l1.4 1.4a.2.2 0 0 1 .4 0zm7.7-.4a1.5 1.5 0 0 1-2 0l-1.5 1.4a3.5 3.5 0 0 0 4.9 0zm-2 0a1.5 1.5 0 0 1 0-2l-1.5-1.5a3.5 3.5 0 0 0 0 4.9zm0-2a1.5 1.5 0 0 1 2 0l1.4-1.5a3.5 3.5 0 0 0-5 0zm2 0a1.5 1.5 0 0 1 0 2l1.4 1.4a3.5 3.5 0 0 0 0-4.9z"/></svg>