<svg xmlns="http://www.w3.org/2000/svg" width="25" height="24" fill="none" viewBox="0 0 25 24"><path fill="currentColor" d="M19.832 13.897a1 1 0 0 0-1.885-.668zm-2.976 5.397.942.334zm-1.372 1.187.196.98zM3.513 22.875l-.984-.177a1 1 0 0 0 1.18 1.158zm2.185-12.114.984.177zm1.26-1.428.298.954zm6.166-.88a1 1 0 0 0-.597-1.908zM3.021 21.953a1 1 0 1 0 1.415 1.414zm6.612-3.784a1 1 0 1 0-1.414-1.414zm12.72-8.936.707-.708zm0 1.732.707.707zm-6.93-6.93-.707-.707zm1.733 0-.708.707zm-3.899 3.898-.707.707zm0-1.732.707.707zm5.198 6.93.707-.707zm1.732 0-.707-.707zM3.093 6.6a1 1 0 0 0 2 0zm2-5.288a1 1 0 0 0-2 0zM1.45 2.956a1 1 0 1 0 0 2zm5.289 2a1 1 0 1 0 0-2zm11.209 8.273-2.034 5.73 1.885.669 2.034-5.73zM15.288 19.5 3.317 21.895l.392 1.96 11.971-2.393zM4.497 23.053l2.185-12.115-1.969-.355L2.53 22.698zm2.76-12.766 5.867-1.833-.597-1.91L6.66 8.379zm-.575.65a.84.84 0 0 1 .574-.65L6.66 8.378a2.84 2.84 0 0 0-1.947 2.205zm9.231 8.022a.84.84 0 0 1-.625.541l.392 1.962a2.84 2.84 0 0 0 2.118-1.834zM4.437 23.366l5.197-5.198-1.414-1.414-5.198 5.197zm14.726-10.943-5.198-5.198-1.414 1.414 5.198 5.198zm-5.198-5.516 2.166-2.166-1.414-1.414-2.166 2.166zM16.45 4.74l5.198 5.198 1.414-1.415-5.197-5.197zm5.198 5.516-2.166 2.166 1.414 1.414 2.166-2.166zm0-.318a.225.225 0 0 1 0 .318l1.414 1.414a2.225 2.225 0 0 0 0-3.147zM16.131 4.74a.225.225 0 0 1 .318 0l1.415-1.414a2.225 2.225 0 0 0-3.147 0zm-2.166 2.484a.225.225 0 0 1 0-.318l-1.414-1.414a2.225 2.225 0 0 0 0 3.146zm3.784 6.612a2.225 2.225 0 0 0 3.146 0l-1.414-1.414a.225.225 0 0 1-.318 0zm-7.682.433a1.45 1.45 0 0 1 2.051 0l1.414-1.414a3.45 3.45 0 0 0-4.879 0zm2.051 0a1.45 1.45 0 0 1 0 2.05l1.414 1.415a3.45 3.45 0 0 0 0-4.88zm0 2.05a1.45 1.45 0 0 1-2.05 0l-1.415 1.415a3.45 3.45 0 0 0 4.88 0zm-2.05 0a1.45 1.45 0 0 1 0-2.05l-1.415-1.414a3.45 3.45 0 0 0 0 4.879zM5.092 6.6V3.956h-2V6.6zm0-2.644V1.312h-2v2.644zm-3.644 1h2.644v-2H1.45zm2.644 0h2.645v-2H4.093z"/></svg>