<svg fill="none" viewBox="0 0 24 24"><path fill="currentColor" d="M9.1 7.6a1 1 0 1 0 0-2zm-5.5-2a1 1 0 1 0 0 2zm16.8 2a1 1 0 1 0 0-2zm-5.8-2a1 1 0 1 0 0 2zm-4 .2h2.6v-2h-2.7zm2.5 0v2.6h2V5.7zm.1 2.5h-2.7v2h2.7zm-2.6.1V5.7h-2v2.7zm0 0h-2c0 1 .9 2 2 2zm2.5 0v2a2 2 0 0 0 2-2zm.1-2.6h2a2 2 0 0 0-2-2zm-2.7-2a2 2 0 0 0-1.9 2h2zM3.3 15.6H6v-2H3.3zm2.6-.1v2.7h2v-2.7zM6 18H3.3v2H6zm-2.6.1v-2.7h-2v2.7zm0 0h-2c0 1 .9 2 2 2zm2.5 0v2a2 2 0 0 0 2-2zm.1-2.6h2a2 2 0 0 0-2-2zm-2.7-2a2 2 0 0 0-1.9 1.9h2-.1zm14.7 2h2.7v-2H18zm2.6-.1v2.7h2v-2.7zm.1 2.6H18v2h2.7zm-2.6.1v-2.7h-2v2.7zm-.1 0h-2c0 1 1 2 2 2zm2.6 0v2a2 2 0 0 0 1.9-2zm.1-2.6h2a2 2 0 0 0-2-2zm-2.7-2a2 2 0 0 0-2 1.9h2zM9 5.6H3.6v2h5.5zm11.3 0h-5.8v2h5.8zM3.8 13.4v1.2h2v-1.2zm14.7 0v1.2h2v-1.2zm-12.7 0A6 6 0 0 1 9 7.9L8 6a8 8 0 0 0-4.2 7.3zm9.6-5.5a6 6 0 0 1 3.1 5.5h2A8 8 0 0 0 16.4 6z"/></svg>