<svg fill="none" viewBox="0 0 25 24"><path fill="currentColor" d="M20.3 12.7a1 1 0 1 0-1.9-.7zm-3 5.4 1 .3zM16 19.3l.2 1zM4 21.7l-1-.2a1 1 0 0 0 1.2 1.2zM6.2 9.6l1 .1zM7.5 8l.3 1zm6.1-.8a1 1 0 1 0-.6-2zm-10 13.5a1 1 0 1 0 1.3 1.4zM10 17a1 1 0 0 0-1.4-1.4zm13-9 .7-.7zm0 1.8L22 9zm-7-7-.7-.7zm1.8 0-.8.7zm-4 4 .8-.8zm0-1.8.8.7zm5.3 7-.8.6zm1.7 0 .7.6zm-2.3 0-2 5.8 1.9.6 2-5.7zm-2.6 6.3-12 2.4.4 2 12-2.4zM5 21.9 7.2 9.7l-2-.3L3 21.5zM7.8 9l5.8-1.8-.6-2-5.8 1.9zm-.6.6.6-.6-.6-2a3 3 0 0 0-2 2.3zm9.2 8-.6.6.4 2a3 3 0 0 0 2.1-1.9zM5 22.3l5.2-5.2-1.4-1.4-5.2 5.2zm14.8-11L14.5 6 13 7.4l5.1 5.2zm-5.2-5.5 2.1-2.2-1.4-1.4-2.1 2.2zM17 3.6l5.2 5.2 1.5-1.4-5.2-5.2zm5.2 5.6-2.2 2 1.4 1.4 2.2-2.1zm0-.4a.2.2 0 0 1 0 .4l1.5 1.4a2.2 2.2 0 0 0 0-3.2zm-5.5-5.2h.3l1.5-1.4a2.2 2.2 0 0 0-3.2 0zM14.5 6v-.3L13 4.3a2 2 0 0 0 0 3.1zm3.7 6.6a2.2 2.2 0 0 0 3.2 0L20 11.2h-.3zm-7.6.5a1.5 1.5 0 0 1 2 0l1.4-1.4a3.5 3.5 0 0 0-4.8 0zm2 0a1.5 1.5 0 0 1 0 2l1.4 1.4a3.5 3.5 0 0 0 0-4.8zm0 2a1.5 1.5 0 0 1-2 0l-1.4 1.4a3.5 3.5 0 0 0 4.8 0zm-2 0a1.5 1.5 0 0 1 0-2l-1.4-1.4a3.5 3.5 0 0 0 0 4.8z"/></svg>