<svg width="24" height="24" viewBox="0 0 24 24" fill="none" xmlns="http://www.w3.org/2000/svg">
<g id="contrast-filled">
<path id="Icon" fill-rule="evenodd" clip-rule="evenodd" d="M12.0004 21.6004C17.3023 21.6004 21.6004 17.3023 21.6004 12.0004C21.6004 6.69846 17.3023 2.40039 12.0004 2.40039C6.69846 2.40039 2.40039 6.69846 2.40039 12.0004C2.40039 17.3023 6.69846 21.6004 12.0004 21.6004ZM11.3961 19.1754C11.7281 19.203 11.9987 18.9296 11.998 18.5965C11.994 16.8513 12.0004 12.8627 12.0004 12.0004V5.40039C12.0004 5.06902 11.7308 4.79778 11.4006 4.82502C7.70477 5.12982 4.80039 8.22593 4.80039 12.0004C4.80039 15.7733 7.70242 18.8685 11.3961 19.1754Z" fill="black"/>
</g>
</svg>
