<svg xmlns="http://www.w3.org/2000/svg" width="24" height="24" fill="none" viewBox="0 0 24 24"><path stroke="currentColor" stroke-linecap="round" stroke-width="2" d="m17.873 16.548 2.4-9.095m-4.926 11.621h-8.59m-3.031-2.779 2.4-8.59m2.526-2.778h8.842M4.61 7.453H7.64a1.01 1.01 0 0 0 1.01-1.01V3.41a1.01 1.01 0 0 0-1.01-1.01H4.61A1.01 1.01 0 0 0 3.6 3.41v3.032c0 .558.452 1.01 1.01 1.01Zm14.147 0h3.032a1.01 1.01 0 0 0 1.01-1.01V3.41a1.01 1.01 0 0 0-1.01-1.01h-3.032a1.01 1.01 0 0 0-1.01 1.01v3.032c0 .558.452 1.01 1.01 1.01ZM2.21 21.6H5.24a1.01 1.01 0 0 0 1.01-1.01v-3.032a1.01 1.01 0 0 0-1.01-1.01H2.21a1.01 1.01 0 0 0-1.01 1.01v3.032c0 .558.452 1.01 1.01 1.01Zm14.147 0h3.032a1.01 1.01 0 0 0 1.01-1.01v-3.032a1.01 1.01 0 0 0-1.01-1.01h-3.032a1.01 1.01 0 0 0-1.01 1.01v3.032c0 .558.452 1.01 1.01 1.01Z"/></svg>