<svg xmlns="http://www.w3.org/2000/svg" fill="none" viewBox="0 0 25 24"><path stroke="currentColor" stroke-linecap="round" stroke-linejoin="round" stroke-width="2" d="M18.413 11.36a2 2 0 0 1-.584 1.463l-5.16 5.16c-.78.78-2.044.78-2.823 0l-5.161-5.16a2 2 0 0 1-.584-1.464m14.312 0a2 2 0 0 0-.487-1.255.8.8 0 0 0-.152-.22l-6.426-6.426m7.065 7.901H4.101m0 0A2 2 0 0 1 4.685 10c.132-.133 6.663-6.542 6.663-6.542m0 0L10.289 2.4M5.111 21.6h10.61m4.329-6.406a.34.34 0 0 0-.287-.163.34.34 0 0 0-.288.163c-.224.37-.95 1.631-.95 2.181 0 .685.556 1.244 1.238 1.244S21 18.061 21 17.375c0-.559-.726-1.812-.95-2.181"/></svg>