<svg viewBox="0 0 25 24"><path fill="currentColor" d="M19.8 12.7q.3-.8-.6-1.3-.8-.2-1.3.6zm-3 5.4 1 .3zm-1.3 1.2.2 1zm-12 2.4-1-.2q0 .5.3.9.4.3 1 .3zm2.2-12.1 1 .1h0zm1.3-1.5.3 1h0zm6.1-.8q.8-.4.7-1.3-.3-.8-1.3-.7zm-10 13.5q-.7.6 0 1.4.6.6 1.3 0zm6.5-3.8q.6-.7 0-1.4-.7-.6-1.4 0zm12.8-9 .7-.7v0zm0 1.8-.8-.7zm-7-7-.7-.7v0zm1.8 0-.8.7zm-4 4 .8-.8zm0-1.8.8.7zm5.3 7-.8.6zm1.7 0 .7.6zm-2.3 0-2 5.8 1.9.6 2-5.7zm-2.6 6.3-12 2.4.4 2 12-2.4zm-10.8 3.6 2.2-12.2-2-.3-2.2 12.1zm2.8-12.8 5.8-1.8-.6-2-5.8 1.9zm-.6.6q0-.5.6-.6l-.6-2q-1.6.6-2 2.3zm9.2 8q0 .4-.6.6l.4 2q1.6-.4 2.1-1.9zm-11.5 4.5 5.2-5.2-1.4-1.4-5.2 5.2zm14.8-11-5.2-5.2-1.4 1.4 5.1 5.2zm-5.2-5.5 2.1-2.2-1.4-1.4-2.1 2.2zm2.4-2.2 5.2 5.2 1.5-1.4-5.2-5.2zm5.2 5.6-2.1 2.1 1.4 1.4 2.2-2.1zm0-.4q.2.2 0 .4l1.5 1.4c.8-.9.8-2.3 0-3.2zm-5.5-5.2q.2 0 .3 0l1.5-1.4q-1.7-1.2-3.2 0zm-2.1 2.5q-.2 0 0-.3l-1.4-1.4c-1 .9-1 2.3 0 3.1zm3.7 6.6q1.7 1.5 3.2 0l-1.4-1.4q-.2.2-.3 0zm-7.6.5c.5-.6 1.5-.6 2 0l1.4-1.4c-1.3-1.4-3.5-1.4-4.8 0zm2 0c.6.5.6 1.5 0 2l1.4 1.4c1.4-1.3 1.4-3.5 0-4.8zm0 2c-.5.6-1.5.6-2 0l-1.4 1.4c1.3 1.4 3.5 1.4 4.8 0zm-2 0c-.6-.5-.6-1.5 0-2l-1.4-1.4c-1.4 1.3-1.4 3.5 0 4.8z"/></svg>