<svg fill="none" viewBox="0 0 24 24"><path fill="currentColor" d="M8.4 16.8h-1v1h1zm0-9.6v-1h-1v1zm4.9 8.6h-4.9v2h4.9zm-3.9 1v-4.8h-2v4.8zm7.2-2.4c0-1.9-1.5-3.4-3.3-3.4v2q1.2.1 1.3 1.4zm-3.3 3.4c1.8 0 3.3-1.5 3.3-3.4h-2q-.1 1.3-1.3 1.4zm-.8-6.8h-4.1v2h4.1zm-3.1 1v-4.8h-2v4.8zm3.1-5.8h-4.1v2h4.1zm3.4 3.4c0-1.9-1.5-3.4-3.4-3.4v2q1.3.1 1.4 1.4zm-3.4 3.4c2 0 3.4-1.5 3.4-3.4h-2q-.1 1.3-1.4 1.4zm.8-2h-4.9v2h4.9zm-8.5-7.6h14.4v-2h-14.4zm15.8 1.4v14.4h2v-14.4zm-1.4 15.8h-14.4v2h14.4zm-15.8-1.4v-14.4h-2v14.4zm1.4 1.4a1.4 1.4 0 0 1-1.4-1.4h-2a3.4 3.4 0 0 0 3.4 3.4zm15.8-1.4a1.4 1.4 0 0 1-1.4 1.4v2a3.4 3.4 0 0 0 3.4-3.4zm-1.4-15.8a1.4 1.4 0 0 1 1.4 1.4h2a3.4 3.4 0 0 0-3.4-3.4zm-14.4-2a3.4 3.4 0 0 0-3.4 3.4h2a1.4 1.4 0 0 1 1.4-1.4z"/></svg>