<svg fill="none" viewBox="0 0 24 24"><path fill="currentColor" d="M9.1 7.6a1 1 0 1 0 0-2zm-5.5-2a1 1 0 1 0 0 2zm16.8 2a1 1 0 1 0 0-2zm-5.8-2a1 1 0 1 0 0 2zm-4 .2h2.6v-2h-2.7zm2.5 0v2.6h2v-2.7zm.1 2.5h-2.7v2h2.7zm-2.6.1v-2.7h-2v2.7zm0 0q0 0 0 0h-2c0 1 .9 2 2 2zm2.5 0q0 0 .1 0v2a2 2 0 0 0 2-2zm.1-2.6a0 0 0 0 1 0 0h2a2 2 0 0 0-2-2zm-2.7-2a2 2 0 0 0-1.9 2h2a0 0 0 0 1 0 0zm-7.2 11.8h2.7v-2h-2.7zm2.6-.1v2.7h2v-2.7zm.1 2.6h-2.7v2h2.7zm-2.6.1v-2.7h-2v2.7zm0 0q0 0 0 0h-2c0 1 .9 2 2 2zm2.5 0q0 0 .1 0v2a2 2 0 0 0 2-2zm.1-2.6a.1.1 0 0 1 0-.1h2a2 2 0 0 0-2-2zm-2.7-2a2 2 0 0 0-1.9 1.9h2a.1.1 0 0 1-.1 0zm14.7 2h2.7v-2h-2.7zm2.6-.1v2.7h2v-2.7zm.1 2.6h-2.7v2h2.7zm-2.6.1v-2.7h-2v2.7zm-.1 0q0 0 0 0h-2c0 1 1 2 2 2zm2.6 0q0 0 .1 0v2a2 2 0 0 0 1.9-2zm.1-2.6a.1.1 0 0 1-.1-.1h2a2 2 0 0 0-2-2zm-2.7-2a2 2 0 0 0-2 1.9h2a0 0 0 0 1 0 0zm-8.9-8h-5.5v2h5.5zm11.3 0h-5.8v2h5.8zm-16.6 7.8v1.2h2v-1.2zm14.7 0v1.2h2v-1.2zm-12.7 0a6 6 0 0 1 3.2-5.5l-1-1.8a8 8 0 0 0-4.2 7.3zm9.6-5.5a6 6 0 0 1 3.1 5.5h2a8 8 0 0 0-4.1-7.3z"/></svg>