<svg xmlns="http://www.w3.org/2000/svg" width="25" height="24" fill="none" viewBox="0 0 25 24"><g fill="currentColor"><path d="M19.984 16.622a.57.57 0 0 0-.48-.272.57.57 0 0 0-.48.272c-.376.618-1.59 2.728-1.59 3.648 0 1.146.93 2.08 2.07 2.08a2.08 2.08 0 0 0 2.07-2.08c0-.935-1.215-3.03-1.59-3.648"/><path fill-rule="evenodd" d="M9.597 1.914a.9.9 0 0 1 1.273 0l9 9a.9.9 0 0 1 .183.264 2.4 2.4 0 0 1-.117 3.269l-6.205 6.206a2.4 2.4 0 0 1-3.395 0l-6.205-6.206a2.4 2.4 0 0 1 0-3.394l6.205-6.206q.241-.24.524-.397L9.597 3.187a.9.9 0 0 1 0-1.273m9.067 10.412L12.458 6.12a.6.6 0 0 0-.849 0l-6.206 6.206a.6.6 0 0 0-.172.361h13.605a.6.6 0 0 0-.172-.361" clip-rule="evenodd"/></g></svg>