<svg xmlns="http://www.w3.org/2000/svg" width="25" height="24" fill="none" viewBox="0 0 25 24"><path stroke="currentColor" stroke-linecap="round" stroke-linejoin="round" stroke-width="2" d="M9.012 16.8v-4.984m0 4.984H7.35m1.662 0h1.661m-1.661-4.984V6.83m0 4.985h7.477M9.012 6.83H7.35m1.662 0h1.661m5.816 4.985V16.8m0-4.984V6.83m0 9.97h-1.662m1.662 0h1.661M16.49 6.83h-1.662m1.662 0h1.661m-12.6 14.77h14.4a2.4 2.4 0 0 0 2.4-2.4V4.8a2.4 2.4 0 0 0-2.4-2.4H5.55a2.4 2.4 0 0 0-2.4 2.4v14.4a2.4 2.4 0 0 0 2.4 2.4"/></svg>