<svg xmlns="http://www.w3.org/2000/svg" width="24" height="24" fill="none" viewBox="0 0 24 24"><path fill="currentColor" fill-rule="evenodd" d="M4.8 2.4a2.4 2.4 0 0 0-2.4 2.4v14.4a2.4 2.4 0 0 0 2.4 2.4h14.4a2.4 2.4 0 0 0 2.4-2.4V4.8a2.4 2.4 0 0 0-2.4-2.4zm2.703 4.8h8.995c.17 0 .302.13.302.301v2.41c0 .171-.144.302-.302.302H15.09a.305.305 0 0 1-.303-.301v-.708H13v5.591h.71c.17 0 .302.144.302.302v1.402c0 .17-.144.3-.302.3h-3.42a.305.305 0 0 1-.302-.3v-1.402c0-.17.145-.302.303-.302H11v-5.59H9.212v.694c0 .17-.144.301-.302.301H7.503A.305.305 0 0 1 7.2 9.9V7.5c0-.17.145-.301.303-.301" clip-rule="evenodd"/></svg>