<svg xmlns="http://www.w3.org/2000/svg" width="25" height="24" fill="none" viewBox="0 0 25 24"><g fill="currentColor"><path d="M21.049 4.112c.351-.352.924-.181.778.293l-2.707 9.28a2.55 2.55 0 0 1-1.086 1.476l-4.854 3.293c-.28.182-.604.165-.823-.054l-6.505-6.502c-.219-.219-.21-.569-.054-.822l3.295-4.852c.338-.532.872-.92 1.476-1.085l9.26-2.73c.476-.08.632.44.29.78l-4.175 4.174c-.326.326-.812.377-1.276.413a1.804 1.804 0 1 0 1.808 1.609c.036-.41.117-.82.404-1.106zM4.846 13.044l6.365 6.362c.244.245.233.647-.026.906L10.098 21.4c-.259.258-.662.27-.906.025l-6.365-6.362c-.245-.244-.234-.647.025-.906L3.94 13.07c.26-.259.662-.27.907-.026"/></g></svg>