<svg fill="none" viewBox="0 0 25 24"><path fill="currentColor" d="M20.3 13.9a1 1 0 1 0-1.9-.7zm-3 5.4 1 .3zm-1.3 1.2.2 1zm-12 2.4-1-.2a1 1 0 0 0 1.2 1.2zm2.2-12.1 1 .1zm1.3-1.5.3 1zm6.1-.8a1 1 0 0 0-.6-2zm-10 13.5a1 1 0 1 0 1.3 1.4zm6.5-3.8a1 1 0 0 0-1.4-1.4zm12.8-9 .7-.7zm0 1.8.7.7zm-7-7-.7-.7zm1.8 0-.7.7zm-4 4-.6.6zm0-1.8.8.7zm5.3 7 .7-.8zm1.7 0-.7-.8zm-17.1-6.6a1 1 0 0 0 2 0zm2-5.3a1 1 0 1 0-2 0zm-3.6 1.7a1 1 0 0 0 0 2zm5.2 2a1 1 0 1 0 0-2zm11.2 8.2-2 5.8 1.9.6 2-5.7zm-2.6 6.3-12 2.4.4 2 12-2.4zm-10.8 3.6 2.2-12.2-2-.3-2.2 12.1zm2.8-12.8 5.8-1.8-.6-2-5.8 1.9zm-.6.6a1 1 0 0 1 .6-.6l-.6-2a3 3 0 0 0-2 2.3zm9.2 8a1 1 0 0 1-.6.6l.4 2a3 3 0 0 0 2.1-1.9zm-11.5 4.5 5.2-5.2-1.4-1.4-5.2 5.2zm14.8-11-5.2-5.2-1.4 1.4 5.2 5.2zm-5.2-5.5 2.1-2.2-1.4-1.4-2.1 2.2zm2.5-2.2 5.1 5.2 1.5-1.4-5.2-5.2zm5.1 5.6-2.1 2.1 1.4 1.4 2.2-2.1zm0-.4a.2.2 0 0 1 0 .4l1.5 1.4a2.2 2.2 0 0 0 0-3.2zm-5.5-5.2a.2.2 0 0 1 .4 0l1.4-1.4a2.2 2.2 0 0 0-3.2 0zm-2.1 2.5a.2.2 0 0 1 0-.3l-1.4-1.4a2 2 0 0 0 0 3.1zm3.8 6.6a2 2 0 0 0 3.1 0l-1.4-1.4a.2.2 0 0 1-.3 0zm-7.7.5a1.5 1.5 0 0 1 2 0l1.4-1.4a3.5 3.5 0 0 0-4.8 0zm2 0a1.5 1.5 0 0 1 0 2l1.4 1.4a3.5 3.5 0 0 0 0-4.8zm0 2a1.5 1.5 0 0 1-2 0l-1.4 1.4a3.5 3.5 0 0 0 4.8 0zm-2 0a1.5 1.5 0 0 1 0-2l-1.4-1.4a3.5 3.5 0 0 0 0 4.8zm-5-9.7v-2.6h-2v2.6zm0-2.6v-2.7h-2v2.7zm-3.6 1h2.6v-2h-2.6zm2.6 0h2.6v-2h-2.6z"/></svg>