<svg width="24" height="24" viewBox="0 0 24 24" fill="none" xmlns="http://www.w3.org/2000/svg">
<g id="color-swatch-01">
<path id="Icon" d="M6.00078 9.87394C3.56652 10.6385 1.80078 12.9127 1.80078 15.5993C1.80078 18.913 4.48707 21.5993 7.80078 21.5993C9.47922 21.5993 10.9967 20.9101 12.0856 19.7993C13.1466 18.717 13.8008 17.2345 13.8008 15.5993M18.0008 9.87394C20.4353 10.6384 22.2013 12.9127 22.2013 15.5994C22.2013 18.9131 19.515 21.5994 16.2013 21.5994C14.8503 21.5994 13.6037 21.1529 12.6008 20.3995M18.0008 8.39914C18.0008 11.7128 15.3145 14.3991 12.0008 14.3991C8.68707 14.3991 6.00078 11.7128 6.00078 8.39914C6.00078 5.08543 8.68707 2.39914 12.0008 2.39914C15.3145 2.39914 18.0008 5.08543 18.0008 8.39914Z" stroke="black" stroke-width="2" stroke-linecap="round" stroke-linejoin="round"/>
</g>
</svg>
