<svg viewBox="0 0 25 24"><path fill="currentColor" d="M19.8 12.7q.3-.8-.6-1.3-.8-.2-1.3.6zm-3 5.4 1 .3zm-1.3 1.2.2 1zm-12 2.4-1-.2q0 .5.3.9.4.3 1 .3zM5.7 9.6l1 .1zM7 8l.3 1zm6.1-.8q.8-.4.7-1.3-.3-.8-1.3-.7zm-10 13.5q-.7.6 0 1.4.6.6 1.3 0zM9.5 17q.6-.7 0-1.4t-1.4 0zm12.8-9 .7-.7zm0 1.8-.8-.7zm-7-7-.7-.7zm1.8 0-.8.7zm-4 4L14 6zm0-1.8.8.7zm5.3 7-.8.6zm1.7 0 .7.6zM1.4 1.7q-.9 0-1 1 .1.9 1 1zm5.3 2q1-.1 1-1t-1-1zM18 12l-2 5.8 1.9.6 2-5.7zm-2.6 6.3-12 2.4.4 2 12-2.4zM4.5 21.9 6.7 9.7l-2-.3-2.2 12.1zM7.3 9 13 7.3l-.6-2-5.8 1.9zm-.6.6q0-.5.6-.6l-.6-2q-1.6.6-2 2.3zm9.2 8q0 .4-.6.6l.4 2q1.6-.4 2.1-1.9zM4.4 22.3 9.6 17l-1.4-1.4L3 20.8zm14.8-11L14 6l-1.4 1.4 5.1 5.2zM14 5.7l2-2.2-1.4-1.4-2.1 2.2zm2.4-2.2 5.2 5.2 1.5-1.4-5.2-5.2zm5.2 5.6-2.1 2.1 1.4 1.4 2.2-2.1zm0-.4q.2.2 0 .4l1.5 1.4c.8-.9.8-2.3 0-3.2zm-5.5-5.2h.3L18 2.1q-1.7-1.2-3.2 0zM14 6v-.3l-1.4-1.4c-1 .9-1 2.3 0 3.1zm3.7 6.6q1.7 1.5 3.2 0l-1.4-1.4h-.3zm-7.6.5c.5-.6 1.5-.6 2 0l1.4-1.4c-1.3-1.4-3.5-1.4-4.8 0zm2 0c.6.5.6 1.5 0 2l1.4 1.4c1.4-1.3 1.4-3.5 0-4.8zm0 2c-.5.6-1.5.6-2 0l-1.4 1.4c1.3 1.4 3.5 1.4 4.8 0zm-2 0c-.6-.5-.6-1.5 0-2l-1.4-1.4c-1.4 1.3-1.4 3.5 0 4.8zM1.4 3.8h5.3v-2H1.4z"/></svg>