<svg viewBox="0 0 24 24"><path fill="currentColor" d="M9.1 7.6q1 0 1-1 0-.9-1-1zm-5.5-2q-.9.1-1 1 .1 1 1 1zm16.8 2q1 0 1-1 0-.9-1-1zm-5.8-2q-.9.1-1 1 .1 1 1 1zm-4 .2h2.6v-2h-2.7zm2.5-.1v2.7h2v-2.7zm.1 2.6h-2.7v2h2.7zm-2.6.1v-2.7h-2v2.7zm0 0q0 0 0 0h-2c0 1 .9 2 2 2zm2.5 0q0 0 .1 0v2c1 0 2-1 2-2zm.1-2.6q0 0 0-.1h2c0-1-1-1.9-2-1.9zm-2.7-2c-1 0-1.9.9-1.9 1.9h2q0 0 0 .1zm-7.2 11.8h2.7v-2h-2.7zm2.6-.1v2.7h2v-2.7zm.1 2.6h-2.7v2h2.7zm-2.6.1v-2.7h-2v2.7zm0 0q0 0 0 0h-2c0 1 .9 2 2 2zm2.5 0q0 0 .1 0v2c1 0 2-1 2-2zm.1-2.6q0 0 0-.1h2c0-1-1-2-2-2zm-2.7-2c-1 0-1.9.8-1.9 1.9h2q0 0 0 0zm14.7 2h2.7v-2h-2.7zm2.6-.1v2.7h2v-2.7zm.1 2.6h-2.7v2h2.7zm-2.6.1v-2.7h-2v2.7zm-.1 0q0 0 0 0h-2c0 1 1 2 2 2zm2.6 0q0 0 .1 0v2c1 0 1.9-1 1.9-2zm.1-2.6q0 0-.1-.1h2c0-1-.9-2-1.9-2zm-2.7-2c-1 0-2 .8-2 1.9h2q0 0 0 0zm-8.9-8h-5.5v2h5.5zm11.3 0h-5.8v2h5.8zm-16.6 7.8v1.2h2v-1.2zm14.7 0v1.2h2v-1.2zm-12.7 0q.2-3.7 3.2-5.5l-1-1.8c-2.5 1.5-4.2 4.2-4.2 7.3zm9.6-5.5q2.9 1.7 3.1 5.5h2c0-3.1-1.7-5.8-4.1-7.3z"/></svg>