<svg xmlns="http://www.w3.org/2000/svg" width="24" height="24" fill="none" viewBox="0 0 24 24"><path stroke="currentColor" stroke-linecap="round" stroke-width="2" d="M19.074 16.548V7.453m-2.526 11.621h-8.59m-3.031-2.779v-8.59m2.526-2.778h8.842M3.411 7.453h3.032a1.01 1.01 0 0 0 1.01-1.01V3.41a1.01 1.01 0 0 0-1.01-1.01H3.41A1.01 1.01 0 0 0 2.4 3.41v3.032c0 .558.452 1.01 1.01 1.01Zm14.147 0h3.032a1.01 1.01 0 0 0 1.01-1.01V3.41a1.01 1.01 0 0 0-1.01-1.01h-3.032a1.01 1.01 0 0 0-1.01 1.01v3.032c0 .558.452 1.01 1.01 1.01ZM3.411 21.6h3.032a1.01 1.01 0 0 0 1.01-1.01v-3.032a1.01 1.01 0 0 0-1.01-1.01H3.41a1.01 1.01 0 0 0-1.01 1.01v3.032c0 .558.452 1.01 1.01 1.01Zm14.147 0h3.032a1.01 1.01 0 0 0 1.01-1.01v-3.032a1.01 1.01 0 0 0-1.01-1.01h-3.032a1.01 1.01 0 0 0-1.01 1.01v3.032c0 .558.452 1.01 1.01 1.01Z"/></svg>