<svg fill="none" viewBox="0 0 24 24"><path fill="currentColor" d="M2.4 18.2a1 1 0 1 0 0 2zm19.2 2a1 1 0 1 0 0-2zM20.6 6q.1.1-.4.7l-1.8 1q-2.5.8-6.4.9v2q4.2 0 7.1-1.1 1.5-.6 2.4-1.4 1-.7 1.1-2.1zM12 8.6q-4 0-6.4-1-1.2-.4-1.8-1L3.4 6h-2q.1 1.3 1 2.2Q3.5 9 5 9.5q2.9 1 7.1 1.1zM3.4 6q-.1-.1.4-.7l1.8-1Q8 3.6 12 3.5v-2q-4.2 0-7.1 1.1-1.5.6-2.4 1.3-1 .9-1.1 2.2zM12 3.4q4 0 6.4 1 1.2.4 1.8 1l.4.6h2q-.1-1.3-1-2.1T19 2.5q-2.9-1-7.1-1.1zm8.6 7.4q.1.1-.4.7l-1.8 1q-2.5.8-6.4.9v2q4.2 0 7.1-1.1 1.5-.6 2.4-1.4 1-.7 1.1-2.1zM12 13.4q-4 0-6.4-1-1.2-.4-1.8-1l-.4-.6h-2q.1 1.3 1 2.1T5 14.4q2.9 1 7.1 1.1zm-8.6-2.6V6h-2v4.8zm19.2 0V6h-2v4.8zm-9.2 8.4a1.4 1.4 0 0 1-1.4 1.4v2a3.4 3.4 0 0 0 3.4-3.4zM12 20.6a1.4 1.4 0 0 1-1.4-1.4h-2a3.4 3.4 0 0 0 3.4 3.4zm-1.4-1.4a1.4 1.4 0 0 1 1.4-1.4v-2a3.4 3.4 0 0 0-3.4 3.4zm1.4-1.4a1.4 1.4 0 0 1 1.4 1.4h2a3.4 3.4 0 0 0-3.4-3.4zm-9.6 2.4h7.2v-2H2.4zm12 0h7.2v-2h-7.2zM11 14.4v2.4h2v-2.4z"/></svg>