<svg fill="none" viewBox="0 0 24 24"><path fill="currentColor" d="M9.7 16.5a1 1 0 0 0 1.4-1.4zm-1.3-2.7-.7-.7a1 1 0 0 0 0 1.4zm2.7-1.3a1 1 0 0 0-1.4-1.4zm3.2-1.4a1 1 0 0 0-1.4 1.4zm1.3 2.7.7.7a1 1 0 0 0 0-1.4zm-2.7 1.3a1 1 0 0 0 1.4 1.4zm-9.1-9.9h5.5v-2h-5.5zm5.8.4v2.4h2v-2.4zm0 2.4v.2h2v-.2zm-.3-2.8q.2 0 .3.4h2c0-1.3-1-2.4-2.3-2.4zm-5.5-2q-2.2.2-2.4 2.4h2q0-.3.4-.4zm-1.4 5.8h8.2v-2h-8.2zm8.2 0h9.6v-2h-9.6zm10 .4v9h2v-9zm-.4 9.4h-16.4v2h16.4zm-16.8-.4v-10.4h-2v10.4zm.4.4a.4.4 0 0 1-.4-.4h-2c0 1.3 1 2.4 2.4 2.4zm16.8-.4q0 .4-.4.4v2q2.3-.1 2.4-2.4zm-.4-9.4q.4 0 .4.4h2c0-1.3-1-2.4-2.4-2.4zm-9 6-2-2-1.5 1.5 2 2zm-2-.5 2-2-1.5-1.4-2 2zm3.7-2 2 2 1.4-1.4-2-2zm2 .6-2 2 1.4 1.4 2-2zm-11.5-5.1v-2.4h-2v2.4z"/></svg>