<svg xmlns="http://www.w3.org/2000/svg" fill="none" viewBox="0 0 24 24"><path fill="currentColor" d="M8.12 12a2.36 2.36 0 0 1-2.36 2.36v2A4.36 4.36 0 0 0 10.12 12zm-2.36 2.36A2.36 2.36 0 0 1 3.4 12h-2a4.36 4.36 0 0 0 4.36 4.36zM3.4 12a2.36 2.36 0 0 1 2.36-2.36v-2A4.36 4.36 0 0 0 1.4 12zm2.36-2.36A2.36 2.36 0 0 1 8.12 12h2a4.36 4.36 0 0 0-4.36-4.36zm4.196 2.14A2.36 2.36 0 0 1 12 10.6v-2a4.36 4.36 0 0 0-3.776 2.179zM12 10.6c.873 0 1.636.472 2.045 1.18l1.732-1.001A4.36 4.36 0 0 0 12 8.599zm8.6 1.4a2.36 2.36 0 0 1-2.36 2.36v2A4.36 4.36 0 0 0 22.6 12zm-2.36 2.36A2.36 2.36 0 0 1 15.88 12h-2a4.36 4.36 0 0 0 4.36 4.36zM15.88 12a2.36 2.36 0 0 1 2.36-2.36v-2A4.36 4.36 0 0 0 13.88 12zm2.36-2.36A2.36 2.36 0 0 1 20.6 12h2a4.36 4.36 0 0 0-4.36-4.36z"/></svg>