<svg xmlns="http://www.w3.org/2000/svg" fill="none" viewBox="0 0 24 24">
  <path fill="#000" d="M8.12 12a2.36 2.36 0 0 1-2.36 2.36v2A4.36 4.36 0 0 0 10.12 12h-2Zm-2.36 2.36A2.36 2.36 0 0 1 3.4 12h-2a4.36 4.36 0 0 0 4.36 4.36v-2ZM3.4 12a2.36 2.36 0 0 1 2.36-2.36v-2A4.36 4.36 0 0 0 1.4 12h2Zm2.36-2.36A2.36 2.36 0 0 1 8.12 12h2a4.36 4.36 0 0 0-4.36-4.36v2Zm4.196 2.14A2.359 2.359 0 0 1 12 10.6v-2a4.359 4.359 0 0 0-3.776 2.179l1.732 1.001ZM12 10.6c.873 0 1.636.472 2.045 1.18l1.732-1.001A4.359 4.359 0 0 0 12 8.599v2Zm8.6 1.4a2.36 2.36 0 0 1-2.36 2.36v2A4.36 4.36 0 0 0 22.6 12h-2Zm-2.36 2.36A2.36 2.36 0 0 1 15.88 12h-2a4.36 4.36 0 0 0 4.36 4.36v-2ZM15.88 12a2.36 2.36 0 0 1 2.36-2.36v-2A4.36 4.36 0 0 0 13.88 12h2Zm2.36-2.36A2.36 2.36 0 0 1 20.6 12h2a4.36 4.36 0 0 0-4.36-4.36v2Z"/>
</svg>
