<svg viewBox="0 0 24 24"><path fill="currentColor" d="m18.4 18.3-.5-1zm.5-1h-1zm-8 4.1-.5.8zm2.2 0 .5.9zm-11.2-13.3-.5-.8zm0 .9-.5.9zm10.6 5.7.5.9zm-1 0 .5-.9zm10.6-6.6.5-.8zm0 .9-.5-.9zm-16 9.3.5-.9zm6.4-15.9-.5.9zm-1 0 .5.9zm11.7 6.2a1 1 0 1 0-2 0zm-2 5.4a1 1 0 1 0 2 0zm-9.2-10.7 9.6 5.7 1-1.7-9.6-5.7zm9.6 4.8-9.6 5.7 1 1.8 9.6-5.7zm-19.2.9 9.6-5.7-1-1.7-9.6 5.7zm9.6 4.8-6-3.5-1 1.7 6 3.6zm-6-3.5-3.6-2.2-1 1.8 3.6 2.1zm-1.4.9v6.2h2v-6.2zm.9 7.9 5 3.1 1-1.6-5-3.2zm8 3.2 5.5-3.2-1-1.7-5.5 3.2zm6.4-5v-6.1h-2v6.2zm-1 1.8a2 2 0 0 0 1-1.7h-2zm-8.5 3.1a3 3 0 0 0 3.2.1l-1-1.7a1 1 0 0 1-1.1 0zm-9-15a1.5 1.5 0 0 0 0 2.7l1-1.8a.5.5 0 0 1 0 .9zm10.6 6.6-1 1.8a2 2 0 0 0 2 0zm9.6-4.8a.5.5 0 0 1 0-.9l1 1.8a1.5 1.5 0 0 0 0-2.6zm-17 8.4a2 2 0 0 0 .9 1.7l1-1.7zm8.4-15.8a2 2 0 0 0-2 0l1 1.7zm8.2 7v5.4h2v-5.4z"/></svg>