<svg viewBox="0 0 24 25"><path fill="currentColor" fill-rule="evenodd" d="M15.6 2.4h-8.4a3.6 3.6 0 0 0-3.6 3.6v12a3.6 3.6 0 0 0 3.6 3.6h3.7q.7-.1.5-.8a6.5 6.5 0 0 1 7.2-8.7q.5 0 .6-.5v-5.6a3.6 3.6 0 0 0-3.6-3.6Zm-8.6 2.6a1 1 0 1 0 0 2h8.5a1 1 0 1 0 0-2zm-1 5a1 1 0 0 1 1-1h6.5a1 1 0 1 1 0 2h-6.5a1 1 0 0 1-1-1Zm1 3a1 1 0 1 0 0 2h2a1 1 0 1 0 0-2z" clip-rule="evenodd"/><path fill="currentColor" d="M17.6 14.8q.8-.8 2-.8 1.2 0 1.8.9.6.7.6 1.7v3.7q-.1 1.6-1.3 2.7-1.1 1-2.7 1-1.6 0-2.7-1-1.2-1-1.3-2.7v-3a1 1 0 1 1 2 0v3q0 .5.6 1.2.7.5 1.4.6.7 0 1.4-.6.6-.7.6-1.2v-3.7a1 1 0 0 0-.1-.5.3.3 0 0 0-.1 0 1 1 0 0 0-.2-.1q-.4 0-.5.2a1 1 0 0 0 0 .4v3.5a1 1 0 1 1-2 0v-3.5q0-1 .5-1.8Z"/></svg>