<svg viewBox="0 0 22 23"><path fill="currentColor" fill-rule="evenodd" d="M16.4 9.6v7.6h2.6a2.4 2.4 0 0 0 2.4-2.4v-10.2a2 2 0 0 0-.7-1.7l-2.2-2.2a2 2 0 0 0-1.7-.7h-7.4a2.4 2.4 0 0 0-2.4 2.4v.6h2.8a4 4 0 0 1 3.1 1.3l2.2 2.2a4 4 0 0 1 1.3 3Zm.2-4.2h2.8a.6.6 0 0 0 .4-1l-2.8-2.8a.6.6 0 0 0-1 .4v2.8a1 1 0 0 0 .6.6Zm-4.6 16.8h-9.6a2.4 2.4 0 0 1-2.4-2.4v-12.4a2.4 2.4 0 0 1 2.4-2.4h7.4a2 2 0 0 1 1.7.7l2.2 2.2a2 2 0 0 1 .7 1.7v10.2a2.4 2.4 0 0 1-2.4 2.4Zm.4-11.8h-2.8a1 1 0 0 1-.6-.6v-2.8a.6.6 0 0 1 1-.4l2.8 2.8a.6.6 0 0 1-.4 1Z" clip-rule="evenodd"/></svg>