<svg xmlns="http://www.w3.org/2000/svg" width="26" height="32" fill="none" viewBox="0 0 26 32"><path fill="#e12121" d="m24.178 9.632-.545.516zm-7.29-7.695-.545.516.544-.516ZM5.25 22.853a.75.75 0 1 0 1.5 0zM6 18v-.75a.75.75 0 0 0-.75.75zm0 2.338a.75.75 0 0 0 0 1.5zM11.294 18v-.75a.75.75 0 0 0-.75.75zm0 4.853h-.75c0 .414.336.75.75.75zM17.912 18v-.75a.75.75 0 0 0-.75.75zm3.088.75a.75.75 0 0 0 0-1.5zm-3.838 4.103a.75.75 0 1 0 1.5 0zM21 20.956a.75.75 0 0 0 0-1.5zm0 9.294H5v1.5h16zM1.75 27V5H.25v22zM5 1.75h9.71V.25H5zm19.25 9.945V27h1.5V11.695zm.472-2.579-7.29-7.695-1.089 1.032 7.29 7.695 1.09-1.032Zm1.028 2.58a3.75 3.75 0 0 0-1.028-2.58l-1.089 1.032c.396.418.617.972.617 1.547zM14.71 1.75a2.25 2.25 0 0 1 1.633.703l1.089-1.032A3.75 3.75 0 0 0 14.71.25zM5 30.25A3.25 3.25 0 0 1 1.75 27H.25A4.75 4.75 0 0 0 5 31.75zm16 1.5A4.75 4.75 0 0 0 25.75 27h-1.5A3.25 3.25 0 0 1 21 30.25zM1.75 5A3.25 3.25 0 0 1 5 1.75V.25A4.75 4.75 0 0 0 .25 5zm12.5-4v8h1.5V1zM17 11.75h8v-1.5h-8zM14.25 9A2.75 2.75 0 0 0 17 11.75v-1.5c-.69 0-1.25-.56-1.25-1.25zm-7.5 13.853V18h-1.5v4.853zM6 18.75h1.544v-1.5H6zm1.544 1.588H6v1.5h1.544zm.794-.794a.794.794 0 0 1-.794.794v1.5a2.294 2.294 0 0 0 2.294-2.294zm-.794-.794c.439 0 .794.355.794.794h1.5a2.294 2.294 0 0 0-2.294-2.294zm3.75 0h1.985v-1.5h-1.985zm1.985 3.353h-1.985v1.5h1.985zm-1.235.75V18h-1.5v4.853zm2.912-2.427c0 .926-.75 1.677-1.677 1.677v1.5a3.176 3.176 0 0 0 3.177-3.177zm-1.677-1.676c.926 0 1.677.75 1.677 1.677h1.5a3.177 3.177 0 0 0-3.177-3.177zm4.633 0H21v-1.5h-3.088zm.75 4.103v-2.647h-1.5v2.647zm0-2.647V18h-1.5v2.206zm-.75.75H21v-1.5h-3.088z"/></svg>