<svg xmlns="http://www.w3.org/2000/svg" fill="none" viewBox="0 0 24 25"><path fill="currentColor" fill-rule="evenodd" d="M15.6 2.4H7.2A3.6 3.6 0 0 0 3.6 6v12a3.6 3.6 0 0 0 3.6 3.6h3.744c.38 0 .625-.409.489-.763a6.5 6.5 0 0 1 7.129-8.75c.325.053.638-.187.638-.516V6a3.6 3.6 0 0 0-3.6-3.6M7 5a1 1 0 1 0 0 2h8.5a1 1 0 1 0 0-2zm-1 5a1 1 0 0 1 1-1h6.5a1 1 0 1 1 0 2H7a1 1 0 0 1-1-1m1 3a1 1 0 1 0 0 2h2a1 1 0 1 0 0-2z" clip-rule="evenodd"/><path fill="currentColor" d="M17.647 14.822c.46-.517 1.13-.822 1.925-.822.789 0 1.436.327 1.864.861.404.506.564 1.129.564 1.69v3.72c0 1.081-.563 2.03-1.278 2.68s-1.696 1.11-2.716 1.11c-1.019 0-2-.458-2.72-1.108C14.57 22.303 14 21.355 14 20.27v-2.944a1 1 0 1 1 2 0v2.944c0 .371.206.817.628 1.199.421.38.942.59 1.378.59s.953-.209 1.37-.588c.418-.38.624-.827.624-1.2v-3.72a.72.72 0 0 0-.125-.44.26.26 0 0 0-.092-.074.5.5 0 0 0-.21-.038c-.26 0-.373.086-.432.152a.6.6 0 0 0-.135.4v3.564a1 1 0 1 1-2 0v-3.564c0-.597.198-1.232.641-1.73Z"/></svg>