<svg viewBox="0 0 26 32"><path fill="#e12121" d="m24.2 9.6-.6.5zm-7.3-7.7-.6.6zm-11.6 21a.8.8 0 1 0 1.5 0zm.7-4.9v-.7a1 1 0 0 0-.7.7zm0 2.3a.8.8 0 0 0 0 1.5zm5.3-2.3v-.7a1 1 0 0 0-.8.7zm0 4.9h-.8q.1.6.8.7zm6.6-4.9v-.7a1 1 0 0 0-.7.7zm3.1.8a.8.8 0 0 0 0-1.6zm-3.8 4a.8.8 0 1 0 1.5 0zm3.8-1.8a.8.8 0 0 0 0-1.5zm0 9.3h-16v1.4h16zm-19.2-3.3v-22h-1.5v22zm3.2-25.2h9.7v-1.5h-9.7zm19.3 9.9v15.3h1.4v-15.3zm.4-2.6-7.3-7.7-1 1 7.2 7.7zm1 2.6a4 4 0 0 0-1-2.6l-1 1q.5.7.6 1.6zm-11-10a2 2 0 0 1 1.6.8l1.1-1a4 4 0 0 0-2.7-1.2zm-9.7 28.6a3.3 3.3 0 0 1-3.2-3.3h-1.5a5 5 0 0 0 4.7 4.8zm16 1.4a5 5 0 0 0 4.8-4.7h-1.6a3.3 3.3 0 0 1-3.2 3.3zm-19.2-26.7a3.3 3.3 0 0 1 3.2-3.2v-1.5a5 5 0 0 0-4.7 4.7zm12.5-4v8h1.4v-8zm2.7 10.8h8v-1.6h-8zm-2.7-2.8a3 3 0 0 0 2.7 2.8v-1.6q-1.1 0-1.2-1.2zm-7.5 13.9v-4.9h-1.5v4.9zm-.8-4.1h1.5v-1.6h-1.5zm1.5 1.5h-1.5v1.5h1.5zm.8-.8a1 1 0 0 1-.8.8v1.5a2.3 2.3 0 0 0 2.3-2.3zm-.8-.7q.8 0 .8.7h1.5a2.3 2.3 0 0 0-2.3-2.2zm3.8 0h2v-1.6h-2zm2 3.3h-2v1.5h2zm-1.3.8v-4.9h-1.5v4.9zm3-2.5q-.2 1.6-1.7 1.7v1.5a3 3 0 0 0 3.2-3.2zm-1.7-1.6q1.5.1 1.7 1.6h1.5a3 3 0 0 0-3.2-3.1zm4.6 0h3.1v-1.5h-3zm.8 4v-2.6h-1.5v2.7zm0-2.6v-2.2h-1.5v2.2zm-.8.8h3.1v-1.5h-3z"/></svg>