<svg fill="none" viewBox="0 0 24 24"><path fill="currentColor" d="M9 20.2a1 1 0 1 0 0-2zM4.4 16h-1zm1-13.6a1 1 0 1 0-2 0zm3.8 6a1 1 0 1 0 0-2zm9.6 1.5v-1zm-4.8 0v1zm5.8-7.5h1a1 1 0 0 0-1-1zm0 6.4h1zm-6.9 0h-1zm0-4.3-.7-.7-.3.7zm2.4-2.1v-1l-.7.3zm3.5 19.2v-1zm-4.8 0v1zm5.8-7.5h1a1 1 0 0 0-1-1zm0 6.4h1zm-6.9 0h-1zm0-4.2-.7-.8-.3.8zm2.4-2.2v-1l-.7.3zm-6.1 4H7.5v2H9zM5.3 16V7.3h-2V16zm0-8.7V2.4h-2v5zm3.8-1H4.3v2H9zM7.5 18.2A2 2 0 0 1 5.3 16h-2a4 4 0 0 0 4.2 4.2zm11.2-9.3h-4.8v2h4.8zm0-6.5v6.4h2V2.4zm0 8.5a2 2 0 0 0 2-2.1h-2zm-6.9-2.1c0 1.1 1 2 2 2v-2zm2 0V4.5h-2v4.3zm1.4-5.4h4.5v-2h-4.5zm-.7-1.7-2.4 2 1.4 1.6L15.9 3zm4.2 18.9h-4.8v2h4.8zm0-6.5v6.4h2v-6.4zm0 8.5a2 2 0 0 0 2-2h-2zm-6.9-2c0 1 1 2 2 2v-2zm2 0v-4.3h-2v4.2zm1.4-5.5h4.5v-2h-4.5zm-.7-1.7-2.4 2.1 1.4 1.5 2.4-2.1z"/></svg>