<svg xmlns="http://www.w3.org/2000/svg" fill="none" viewBox="0 0 24 24">
  <path fill="#000" fill-rule="evenodd" d="M3.227.831a1 1 0 0 1 1.403.181l1.335 1.73A2.389 2.389 0 0 1 7.2 2.4h7.406a2.4 2.4 0 0 1 1.697.703l2.194 2.194a2.4 2.4 0 0 1 .703 1.697V19.2c0 .207-.026.408-.076.6l1.63 2.111a1 1 0 0 1-1.415 1.393L2.97 2.12A1 1 0 0 1 3.226.83ZM17.152 7.8h-2.751a.6.6 0 0 1-.6-.6V4.448a.6.6 0 0 1 1.024-.424l2.752 2.752a.6.6 0 0 1-.425 1.024Z" clip-rule="evenodd"/>
  <path fill="#000" d="M5.338 8.455a.3.3 0 0 0-.537.184v10.56a2.4 2.4 0 0 0 2.4 2.4h7.683a.3.3 0 0 0 .238-.483L5.338 8.456Z"/>
</svg>
