<svg viewBox="0 0 26 32"><path fill="#019939" d="m24.2 9.6-.6.5zM16.9 2l-.6.6zM11 17.1a.8.8 0 1 0-1.2.8zm3.3 6.9a.8.8 0 1 0 1.2-1zm1.1-6.1a.8.8 0 0 0-1.2-.9zM10 23a.8.8 0 0 0 1.2.9zm11 7.1H5v1.6h16zM1.8 27V5H.3v22zM5 1.8h9.7V.3H5zm19.3 9.9V27h1.4V11.7zm.4-2.6-7.3-7.7-1 1 7.2 7.7zm1 2.6a4 4 0 0 0-1-2.6l-1 1q.5.7.6 1.6zm-11-10a2 2 0 0 1 1.6.8l1.1-1A4 4 0 0 0 14.7.2zM5 30.4A3.3 3.3 0 0 1 1.8 27H.3A5 5 0 0 0 5 31.8zm16 1.4a5 5 0 0 0 4.8-4.7h-1.6a3.3 3.3 0 0 1-3.2 3.3zM1.8 5A3.3 3.3 0 0 1 5 1.8V.3A5 5 0 0 0 .3 5zm12.5-4v8h1.4V1zM17 11.8h7.5v-1.6H17zM14.3 9a3 3 0 0 0 2.7 2.8v-1.6q-1.1 0-1.2-1.2zm-4.4 9 4.5 6 1.2-1-4.5-6zm4.4-1L10 23.1l1.2.9 4.3-6.1z"/></svg>