<svg fill="none" viewBox="0 0 24 24"><path fill="currentColor" d="m16.6 2.8-.8.7zM18 4.2l.7-.7zm1.5 1.5-.8.6zm.3.8h-1zM4.2 4.8h-1zM2.4 14a1 1 0 1 0 0 2zm19.2 2a1 1 0 1 0 0-2zM3.2 10.2a1 1 0 1 0 2 0zm15.6 0a1 1 0 1 0 2 0zm-13.6 9a1 1 0 1 0-2 0zm-2 2.4a1 1 0 1 0 2 0zm10.4-2.4a1 1 0 1 0-2 0zm-2 2.4a1 1 0 1 0 2 0zM22 19.2a1 1 0 1 0-2 0zm-2 2.4a1 1 0 1 0 2 0zM9.4 19.2a1 1 0 1 0-2 0zm-2 1.2a1 1 0 1 0 2 0zm10.4-1.2a1 1 0 1 0-2 0zm-2 1.2a1 1 0 1 0 2 0zm-9.2-17H15v-2H6.6zm8.4 0h.7v-2H15zm.8 0L17.3 5l1.4-1.4L17.3 2zM17.3 5l1.5 1.4L20.2 5l-1.5-1.5zm3.5 1.6a2 2 0 0 0-.6-1.5l-1.4 1.3v.2zm-5.1-3.1h.1l1.5-1.3a2 2 0 0 0-1.6-.7zm-9.1-2a3.4 3.4 0 0 0-3.4 3.4h2a1.4 1.4 0 0 1 1.4-1.4zm7.4 1V6h2V2.4zm2.2 5.8h3.6v-2h-3.6zM14 6a2 2 0 0 0 2.2 2.2v-2L16 6zM2.4 16h19.2v-2H2.4zm.8-11.2v5.4h2V4.8zm15.6 1.7v.7h2v-.7zm0 .7v3h2v-3zm-15.6 12v2.4h2v-2.4zm8.4 0v2.4h2v-2.4zm8.4 0v2.4h2v-2.4zm-12.6 0v1.2h2v-1.2zm8.4 0v1.2h2v-1.2z"/></svg>