<svg xmlns="http://www.w3.org/2000/svg" fill="none" viewBox="0 0 24 24"><path fill="currentColor" d="M9.067 20.17a1 1 0 1 0 0-2zm-4.8-4.2h-1zm1-13.57a1 1 0 1 0-2 0zm3.8 5.917a1 1 0 1 0 0-2zm9.6 1.55v-1zm-4.8 0v1zM19.733 2.4h1a1 1 0 0 0-1-1zm0 6.4h1zm-6.933 0h-1zm0-4.267-.664-.747a1 1 0 0 0-.336.747zM15.2 2.4v-1a1 1 0 0 0-.664.253zm3.467 19.2v-1zm-4.8 0v1zm5.866-7.467h1a1 1 0 0 0-1-1zm0 6.4h1zm-6.933 0h-1zm0-4.266-.664-.748a1 1 0 0 0-.336.748zm2.4-2.134v-1a1 1 0 0 0-.664.253zM9.067 18.17h-1.6v2h1.6zm-3.8-2.2V7.317h-2v8.653zm0-8.653V2.4h-2v4.917zm3.8-1h-4.8v2h4.8zm-1.6 11.853a2.2 2.2 0 0 1-2.2-2.2h-2a4.2 4.2 0 0 0 4.2 4.2zm11.2-9.303h-4.8v2h4.8zm.066-6.467v6.4h2V2.4zm-.066 8.467A2.067 2.067 0 0 0 20.733 8.8h-2c0 .037-.03.067-.066.067zM11.8 8.8c0 1.141.925 2.066 2.067 2.066v-2A.067.067 0 0 1 13.8 8.8zm2 0V4.533h-2V8.8zm1.4-5.4h4.533v-2H15.2zm-.664-1.747-2.4 2.133 1.328 1.495 2.4-2.134zm4.13 18.947h-4.8v2h4.8zm.067-6.467v6.4h2v-6.4zm-.066 8.467a2.067 2.067 0 0 0 2.066-2.067h-2c0 .037-.03.067-.066.067zM11.8 20.533c0 1.142.925 2.067 2.067 2.067v-2a.067.067 0 0 1-.067-.067zm2 0v-4.266h-2v4.266zm1.4-5.4h4.533v-2H15.2zm-.664-1.747-2.4 2.133 1.328 1.495 2.4-2.133z"/></svg>