<svg viewBox="0 0 24 24"><path fill="currentColor" d="m16.6 2.8-.8.7zm1.4 1.4.7-.7zm1.5 1.5-.8.6zm.3.8h-1zm-15.6-1.7h-1zm-1.8 9.2a1 1 0 1 0 0 2zm19.2 2a1 1 0 1 0 0-2zm-18.4-5.8a1 1 0 1 0 2 0zm15.6 0a1 1 0 0 0 2 0zm-13.6 9a1 1 0 1 0-2 0zm-2 2.4a1 1 0 1 0 2 0zm10.4-2.4a1 1 0 0 0-2 0zm-2 2.4a1 1 0 1 0 2 0zm10.4-2.4a1 1 0 0 0-2 0zm-2 2.4a1 1 0 1 0 2 0zm-10.6-2.4a1 1 0 1 0-2 0zm-2 1.2a1 1 0 1 0 2 0zm10.4-1.2a1 1 0 0 0-2 0zm-2 1.2a1 1 0 1 0 2 0zm-9.2-17h8.4v-2h-8.4zm8.4 0h.7v-2h-.7zm.8 0q.7.8 1.5 1.5l1.4-1.4a26 26 0 0 1-1.4-1.4zm1.5 1.5q.7.7 1.5 1.4l1.4-1.3q-.7-.7-1.5-1.5zm3.5 1.6q0-.9-.6-1.5l-1.4 1.3q0 0 0 .2zm-5.1-3.1q0 0 .1 0l1.5-1.3a2 2 0 0 0-1.6-.7zm-9.1-2a3.4 3.4 0 0 0-3.4 3.4h2a1.4 1.4 0 0 1 1.4-1.4zm7.4 1v3.6h2v-3.6zm2.2 5.8h3.6v-2h-3.6zm-2.2-2.2a2 2 0 0 0 2.2 2.2v-2a.2.2 0 0 1-.2-.2zm-11.6 10h19.2v-2h-19.2zm.8-11.2v5.4h2v-5.4zm15.6 1.7v.7h2v-.7zm0 .7v3h2v-3zm-15.6 12v2.4h2v-2.4zm8.4 0v2.4h2v-2.4zm8.4 0v2.4h2v-2.4zm-12.6 0v1.2h2v-1.2zm8.4 0v1.2h2v-1.2z"/></svg>