<svg xmlns="http://www.w3.org/2000/svg" width="26" height="32" fill="none" viewBox="0 0 26 32"><path fill="#1751d0" d="m24.178 9.632-.545.516zm-7.29-7.695-.545.516.544-.516ZM11.5 24l-.692.288a.75.75 0 0 0 1.316.128zm2-3 .624-.416a.75.75 0 0 0-1.248 0zm2 3-.624.416a.75.75 0 0 0 1.336-.179zm-5.478-5.498a.75.75 0 1 0-1.385.577zm7.926.526a.75.75 0 1 0-1.423-.475zM21 30.25H5v1.5h16zM1.75 27V5H.25v22zM5 1.75h9.71V.25H5zm19.25 9.945V27h1.5V11.695zm.472-2.579-7.29-7.695-1.089 1.032 7.29 7.695 1.09-1.032Zm1.028 2.58a3.75 3.75 0 0 0-1.028-2.58l-1.089 1.032c.396.418.617.972.617 1.547zM14.71 1.75a2.25 2.25 0 0 1 1.633.703l1.089-1.032A3.75 3.75 0 0 0 14.71.25zM5 30.25A3.25 3.25 0 0 1 1.75 27H.25A4.75 4.75 0 0 0 5 31.75zm16 1.5A4.75 4.75 0 0 0 25.75 27h-1.5A3.25 3.25 0 0 1 21 30.25zM1.75 5A3.25 3.25 0 0 1 5 1.75V.25A4.75 4.75 0 0 0 .25 5zm12.5-3.986V9h1.5V1.014zM17 11.75h7.918v-1.5H17zM14.25 9A2.75 2.75 0 0 0 17 11.75v-1.5c-.69 0-1.25-.56-1.25-1.25zm-2.126 15.416 2-3-1.248-.832-2 3zm.752-3 2 3 1.248-.832-2-3zm-4.239-2.337 2.17 5.21 1.385-.578-2.17-5.209zm7.575 5.158 1.736-5.21-1.423-.474-1.736 5.21z"/></svg>