<svg viewBox="0 0 26 32"><path fill="#e12121" d="m24.2 9.6-.6.5zM16.9 2l-.6.6zM5.3 23a.8.8 0 1 0 1.5 0zm.7-5v-.7a1 1 0 0 0-.7.7zm0 2.3a.8.8 0 0 0 0 1.5zm5.3-2.3v-.7a1 1 0 0 0-.8.7zm0 4.9h-.8q.1.6.8.7zm6.6-4.9v-.7a1 1 0 0 0-.7.7zm3.1.8a.8.8 0 0 0 0-1.6zm-3.8 4a.8.8 0 1 0 1.5 0zM21 21a.8.8 0 0 0 0-1.5zm0 9.3H5v1.4h16zM1.8 27V5H.3v22zM5 1.8h9.7V.3H5zm19.3 9.9V27h1.4V11.7zm.4-2.6-7.3-7.7-1 1 7.2 7.7zm1 2.6a4 4 0 0 0-1-2.6l-1 1q.5.7.6 1.6zm-11-10a2 2 0 0 1 1.6.8l1.1-1A4 4 0 0 0 14.7.2zM5 30.4A3.3 3.3 0 0 1 1.8 27H.3A5 5 0 0 0 5 31.8zm16 1.4a5 5 0 0 0 4.8-4.7h-1.6a3.3 3.3 0 0 1-3.2 3.3zM1.8 5A3.3 3.3 0 0 1 5 1.8V.3A5 5 0 0 0 .3 5zm12.5-4v8h1.4V1zM17 11.8h8v-1.6h-8zM14.3 9a3 3 0 0 0 2.7 2.8v-1.6q-1.1 0-1.2-1.2zM6.8 22.9V18H5.3v4.9zM6 18.8h1.5v-1.6H6zm1.5 1.5H6v1.5h1.5zm.8-.8a1 1 0 0 1-.8.8v1.5a2.3 2.3 0 0 0 2.3-2.3zm-.8-.7q.8 0 .8.7h1.5a2.3 2.3 0 0 0-2.3-2.2zm3.8 0h2v-1.6h-2zm2 3.3h-2v1.5h2zm-1.3.8V18h-1.5v4.9zm3-2.5q-.2 1.6-1.7 1.7v1.5a3 3 0 0 0 3.2-3.2zm-1.7-1.6q1.5.1 1.7 1.6h1.5a3 3 0 0 0-3.2-3.1zm4.6 0H21v-1.5h-3zm.8 4v-2.6h-1.5V23zm0-2.6V18h-1.5v2.2zm-.8.8H21v-1.5h-3z"/></svg>