<svg viewBox="0 0 22 23"><path fill="currentColor" fill-rule="evenodd" d="M16.4 9.6v7.6H19a2.4 2.4 0 0 0 2.4-2.4V4.6a2 2 0 0 0-.7-1.7L18.5.7a2 2 0 0 0-1.7-.7H9.4A2.4 2.4 0 0 0 7 2.4V3h2.8A4 4 0 0 1 13 4.3l2.2 2.2a4 4 0 0 1 1.3 3m.2-4.2h2.8a.6.6 0 0 0 .4-1L17 1.6a.6.6 0 0 0-1 .4v2.8zM12 22.2H2.4A2.4 2.4 0 0 1 0 19.8V7.4A2.4 2.4 0 0 1 2.4 5h7.4a2 2 0 0 1 1.7.7l2.2 2.2a2 2 0 0 1 .7 1.7v10.2a2.4 2.4 0 0 1-2.4 2.4m.4-11.8H9.6L9 9.8V7a.6.6 0 0 1 1-.4l2.8 2.8a.6.6 0 0 1-.4 1" clip-rule="evenodd"/></svg>