<svg viewBox="0 0 24 24"><path fill="currentColor" fill-rule="evenodd" d="M7.2 2.4h8.4a3.6 3.6 0 0 1 3.6 3.6v5.6q0 .5-.6.5a6.5 6.5 0 0 0-7.2 8.7q.3.7-.5.8h-3.7a3.6 3.6 0 0 1-3.6-3.6v-12a3.6 3.6 0 0 1 3.6-3.6Zm-1.2 3.6a1 1 0 0 1 1-1h8.5a1 1 0 1 1 0 2h-8.5a1 1 0 0 1-1-1Zm1 3a1 1 0 1 0 0 2h6.5a1 1 0 1 0 0-2zm-1 5a1 1 0 0 1 1-1h2a1 1 0 1 1 0 2h-2a1 1 0 0 1-1-1Z" clip-rule="evenodd"/><path fill="currentColor" d="M22.7 15.7a1 1 0 0 0-1.4-1.4l-4.1 4-1.5-1.4a1 1 0 1 0-1.4 1.4l2.2 2.2a1 1 0 0 0 1.4 0z"/></svg>