<svg viewBox="0 0 24 24"><path fill="currentColor" fill-rule="evenodd" d="M15.6 2.4h-8.4a3.6 3.6 0 0 0-3.6 3.6v12a3.6 3.6 0 0 0 3.6 3.6h3.7q.7-.1.5-.8a6.5 6.5 0 0 1 7.2-8.7q.5 0 .6-.5v-5.6a3.6 3.6 0 0 0-3.6-3.6Zm-8.6 2.6a1 1 0 1 0 0 2h8.5a1 1 0 1 0 0-2zm-1 5a1 1 0 0 1 1-1h6.5a1 1 0 1 1 0 2h-6.5a1 1 0 0 1-1-1Zm1 3a1 1 0 1 0 0 2h2a1 1 0 1 0 0-2z" clip-rule="evenodd"/><path fill="currentColor" d="M18.8 14.8a1 1 0 0 0-2 0v2.4h-2.4a1 1 0 0 0 0 2h2.4v2.4a1 1 0 1 0 2 0v-2.4h2.3a1 1 0 0 0 0-2h-2.3z"/></svg>