<svg xmlns="http://www.w3.org/2000/svg" fill="none" viewBox="0 0 16 20"><path fill="currentColor" fill-rule="evenodd" d="M3.2 19.6h9.6a2.4 2.4 0 0 0 2.4-2.4V4.994a2.4 2.4 0 0 0-.702-1.697l-2.194-2.194A2.4 2.4 0 0 0 10.607.4H3.2A2.4 2.4 0 0 0 .8 2.8v14.4a2.4 2.4 0 0 0 2.4 2.4m7.2-13.8h2.752a.6.6 0 0 0 .425-1.025l-2.752-2.751a.6.6 0 0 0-1.024.424V5.2a.6.6 0 0 0 .6.6ZM9 7.4a1 1 0 1 0-2 0V16a1 1 0 1 0 2 0zm-3.6 5.8a1 1 0 1 0-2 0V16a1 1 0 1 0 2 0zm7.2-2a1 1 0 1 0-2 0V16a1 1 0 1 0 2 0z" clip-rule="evenodd"/></svg>