<svg xmlns="http://www.w3.org/2000/svg" fill="none" viewBox="0 0 24 24">
  <path fill="#000" fill-rule="evenodd" d="M4.266 1.4a1 1 0 0 1 1 1v3.917h3.8a1 1 0 0 1 0 2h-3.8v7.653a2.2 2.2 0 0 0 2.2 2.2h1.6a1 1 0 0 1 0 2h-1.6a4.2 4.2 0 0 1-4.2-4.2V2.4a1 1 0 0 1 1-1Z" clip-rule="evenodd"/>
  <path fill="#000" d="M13.864 9.867h4.8c.59 0 1.067-.478 1.067-1.067V3.4a1 1 0 0 0-1-1h-3.153a1 1 0 0 0-.664.252l-1.78 1.583a1 1 0 0 0-.336.747V8.8c0 .589.477 1.067 1.066 1.067Zm0 11.733h4.8c.59 0 1.067-.478 1.067-1.067v-5.4a1 1 0 0 0-1-1h-3.153a1 1 0 0 0-.664.253l-1.78 1.582a1 1 0 0 0-.336.748v3.817c0 .59.477 1.067 1.066 1.067Z"/>
</svg>
