<svg viewBox="0 0 26 32"><path fill="#1751d0" d="m24.2 9.6-.6.5zM16.9 2l-.6.6zM16 25.8a.8.8 0 0 0 0-1.6zm-9-1.6a.8.8 0 0 0 0 1.6zM19 22a.8.8 0 0 0 0-1.5zM7 20.5A.8.8 0 0 0 7 22zm12-1.8a.8.8 0 0 0 0-1.4zM7 17.4a.8.8 0 0 0 0 1.4zm14 13H5v1.4h16zM1.8 27V5H.3v22zM5 1.8h9.7V.3H5zm19.3 9.9V27h1.4V11.7zm.4-2.6-7.3-7.7-1 1 7.2 7.7zm1 2.6a4 4 0 0 0-1-2.6l-1 1q.5.7.6 1.6zm-11-10a2 2 0 0 1 1.6.8l1.1-1A4 4 0 0 0 14.7.2zM5 30.4A3.3 3.3 0 0 1 1.8 27H.3A5 5 0 0 0 5 31.8zm16 1.4a5 5 0 0 0 4.8-4.7h-1.6a3.3 3.3 0 0 1-3.2 3.3zM1.8 5A3.3 3.3 0 0 1 5 1.8V.3A5 5 0 0 0 .3 5zm12.5-4v8h1.4V1zM17 11.8h8v-1.6h-8zM14.3 9a3 3 0 0 0 2.7 2.8v-1.6q-1.1 0-1.2-1.2zM16 24.3H7v1.4h9zm3-3.8H7V22h12zm0-3.3H7v1.6h12z"/></svg>