<svg viewBox="0 0 26 32"><path fill="#1751d0" d="m24.2 9.6-.6.5zm-7.3-7.7-.6.6zm-.9 23.9a.8.8 0 0 0 0-1.6zm-9-1.6a.8.8 0 0 0 0 1.6zm12-2.2a.8.8 0 0 0 0-1.5zm-12-1.5a.8.8 0 0 0 0 1.5zm12-1.8a.8.8 0 0 0 0-1.4zm-12-1.4a.8.8 0 0 0 0 1.4zm14 13h-16v1.4h16zm-19.2-3.3v-22h-1.5v22zm3.2-25.2h9.7v-1.5h-9.7zm19.3 9.9v15.3h1.4v-15.3zm.4-2.6-7.3-7.7-1 1 7.2 7.7zm1 2.6a4 4 0 0 0-1-2.6l-1 1q.5.7.6 1.6zm-11-10a2 2 0 0 1 1.6.8l1.1-1a4 4 0 0 0-2.7-1.2zm-9.7 28.6a3.3 3.3 0 0 1-3.2-3.3h-1.5a5 5 0 0 0 4.7 4.8zm16 1.4a5 5 0 0 0 4.8-4.7h-1.6a3.3 3.3 0 0 1-3.2 3.3zm-19.2-26.7a3.3 3.3 0 0 1 3.2-3.2v-1.5a5 5 0 0 0-4.7 4.7zm12.5-4v8h1.4v-8zm2.7 10.8h8v-1.6h-8zm-2.7-2.8a3 3 0 0 0 2.7 2.8v-1.6q-1.1 0-1.2-1.2zm1.7 15.3h-9v1.4h9zm3-3.8h-12v1.5h12zm0-3.3h-12v1.6h12z"/></svg>