<svg xmlns="http://www.w3.org/2000/svg" fill="none" viewBox="0 0 24 24">
  <path fill="#000" d="M12 7a1.4 1.4 0 1 0 0 2.8A1.4 1.4 0 0 0 12 7Z"/>
  <path fill="#000" fill-rule="evenodd" d="M19.8 2.4H4.2a1.8 1.8 0 0 0-1.8 1.8v8.4a1.8 1.8 0 0 0 1.8 1.8H11v3.208L9.313 15.92a1 1 0 0 0-1.415 1.414l3.395 3.394a1 1 0 0 0 1.414 0l3.165-3.165a1 1 0 1 0-1.414-1.415L13 17.608V14.4h6.8a1.8 1.8 0 0 0 1.8-1.8V4.2a1.8 1.8 0 0 0-1.8-1.8ZM6 5a1 1 0 0 1 1 1v4.2a1 1 0 1 1-2 0V6a1 1 0 0 1 1-1Zm2.6 3.4a3.4 3.4 0 1 1 6.8 0 3.4 3.4 0 0 1-6.8 0ZM18 5a1 1 0 0 1 1 1v4.2a1 1 0 1 1-2 0V6a1 1 0 0 1 1-1Z" clip-rule="evenodd"/>
</svg>
