<svg viewBox="0 0 24 24"><path fill="currentColor" fill-rule="evenodd" d="M18 2.5a3 3 0 0 0-4-1q-.5.2-.8.7l-.7 1-.7 1.1-.8-1.1-.7-1-.8-.8a3 3 0 0 0-4 1A3 3 0 0 0 6 6H4.4A2.4 2.4 0 0 0 2 8.4v3.7h8.8V7.5l.5-.5h1l.5.5V12h8.4V8.4A2.4 2.4 0 0 0 18.8 6h-1.3a3 3 0 0 0 .5-3.5m-3 .7a1 1 0 0 1 1.3.3 1 1 0 0 1-.4 1.2h-.1l-.3.2h-1l-.8.1.4-.7.6-.8zm-7.8.3a1 1 0 0 1 1.3-.3l.3.3.6.8.4.7H9l-1-.1-.3-.1h-.1a1 1 0 0 1-.4-1.3" clip-rule="evenodd"/><path fill="currentColor" d="M2 19.2v-5.1h8.8v5.4l.5.5h1l.5-.5V14h8.4v5.1a2.4 2.4 0 0 1-2.4 2.4H4.4A2.4 2.4 0 0 1 2 19.2"/></svg>