<svg fill="none" viewBox="0 0 24 24"><path fill="currentColor" d="M21.6 16.6v1a1 1 0 0 0 1-1zm0-5.3h1a1 1 0 0 0-1-1zm-14.5-5.2a1 1 0 0 0 1.1 1.7zm7.3-3.5.8-.6a1 1 0 0 0-1.3-.2zm2.6 5a1 1 0 0 0 1.5-1.3zm4.6 8h-3.1v2h3.1zm-3.1-3.3h3.1v-2h-3.1zm2.1-1v5.3h2v-5.3zm-3.8 2.6q.2-1.5 1.7-1.6v-2a3.6 3.6 0 0 0-3.7 3.6zm1.7 1.7a1.6 1.6 0 0 1-1.7-1.7h-2a3.6 3.6 0 0 0 3.7 3.7zm-10.3-7.8 6.7-4.3-1-1.7-6.8 4.3zm5.4-4.5 3.4 4.3 1.5-1.3-3.3-4.3zm-10.2 4.7h16.3v-2h-16.3zm16.3 12.4h-16.3v2h16.3zm-16.3 0v-12.5h-2v12.5zm0 0a0 0 0 0 1 0 0h-2a2 2 0 0 0 2 2zm16.2 0a0 0 0 0 1 0 0v2a2 2 0 0 0 2-2zm0-12.4a0 0 0 0 1 0 0h2a2 2 0 0 0-2-2zm-16.2-2a2 2 0 0 0-2 2h2a0 0 0 0 1 0 0zm16.2 11.3v3.1h2v-3.1zm0-9.4v2.5h2v-2.5z"/></svg>