<svg xmlns="http://www.w3.org/2000/svg" fill="none" viewBox="0 0 24 24">
  <path fill="#000" d="M19.2 5.1H4.8a2.4 2.4 0 0 0-2.4 2.4V8a.3.3 0 0 0 .3.3h18.4a.5.5 0 0 0 .5-.5v-.3a2.4 2.4 0 0 0-2.4-2.4ZM2.4 10.6a.3.3 0 0 1 .3-.3h18.4a.5.5 0 0 1 .5.5v2.31a5.5 5.5 0 0 0-6.586 5.79H4.801a2.4 2.4 0 0 1-2.4-2.4v-5.9Z"/>
  <path fill="#000" fill-rule="evenodd" d="M17.459 18.098v-.786a2.49 2.49 0 1 1 4.979 0v.752h.02a1 1 0 0 1 1 1V21.4a1 1 0 0 1-1 1h-4.743a1 1 0 0 1-1-1v-2.336a1 1 0 0 1 .744-.966Zm2-.786a.49.49 0 1 1 .979 0v.752h-.979v-.752Z" clip-rule="evenodd"/>
</svg>
