<svg xmlns="http://www.w3.org/2000/svg" fill="none" viewBox="0 0 24 24">
  <path fill="#000" fill-rule="evenodd" d="M21.2 11.6a9.6 9.6 0 1 1-19.2 0 9.6 9.6 0 0 1 19.2 0ZM12.5 6a1 1 0 1 0-2 0v.833h-.2c-.749 0-1.463.303-1.986.837A2.85 2.85 0 0 0 7.5 9.667c0 .745.29 1.464.814 1.997a2.784 2.784 0 0 0 1.986.836h2.4c.206 0 .408.083.56.238a.85.85 0 0 1 .24.595.85.85 0 0 1-.24.596.784.784 0 0 1-.56.238h-2.373a.78.78 0 0 1-.418-.157.831.831 0 0 1-.284-.393 1 1 0 1 0-1.89.654c.184.531.52.997.969 1.335a2.78 2.78 0 0 0 1.596.56h.2V17a1 1 0 1 0 2 0v-.833h.2c.749 0 1.463-.303 1.986-.837a2.85 2.85 0 0 0 .814-1.997 2.85 2.85 0 0 0-.814-1.997A2.784 2.784 0 0 0 12.7 10.5h-2.4a.784.784 0 0 1-.56-.238.85.85 0 0 1-.24-.595.85.85 0 0 1 .24-.596.784.784 0 0 1 .56-.238h2.373a.78.78 0 0 1 .418.157.832.832 0 0 1 .284.393 1 1 0 1 0 1.89-.654 2.831 2.831 0 0 0-.969-1.336 2.78 2.78 0 0 0-1.596-.56h-.2V6Z" clip-rule="evenodd"/>
</svg>
