<svg viewBox="0 0 24 24"><path fill="currentColor" fill-rule="evenodd" d="M5.9.5a1 1 0 0 1 1.4 0l2.4 2.4a1 1 0 0 1 0 1.4l-2.4 2.4a1 1 0 0 1-1.4-1.4l.7-.7h-1.6a2 2 0 0 0-2.2 2.2v1.6a1 1 0 1 1-2 0v-1.6a4 4 0 0 1 4.2-4.2h1.6l-.7-.7a1 1 0 0 1 0-1.4Zm16.3 14.1a1 1 0 0 1 1 1v1.6a4 4 0 0 1-4.2 4.2h-1.6l.7.7a1 1 0 0 1-1.4 1.4l-2.4-2.4a1 1 0 0 1 0-1.4l2.4-2.4a1 1 0 0 1 1.4 1.4l-.7.7h1.6a2 2 0 0 0 2.2-2.2v-1.6a1 1 0 0 1 1-1Z" clip-rule="evenodd"/><path fill="currentColor" d="M2 15.5a5.5 5.5 0 0 1 6-5.5.2.2 0 0 1 .1.2 7 7 0 0 0 4.7 5.5.2.2 0 0 1 .2.2 5.5 5.5 0 0 1-11-.4Zm8-7a5.5 5.5 0 1 1 11 0 5.5 5.5 0 0 1-11 0Z"/></svg>