<svg viewBox="0 0 24 24"><path fill="currentColor" fill-rule="evenodd" d="M17.2 3.3a3 3 0 0 0-4 0l-.7 1-.4 1-.1.4-.2-.4-.4-1-.6-1a3 3 0 0 0-4 0 3 3 0 0 0 0 4q0 .3.3.4h-4a1 1 0 0 0-.7.7v2.9q0 .7.7.7h17.8a1 1 0 0 0 .7-.7v-3a1 1 0 0 0-.7-.6h-4.1l.4-.3a3 3 0 0 0 0-4.1m-2.6 1.4a1 1 0 0 1 1.2 0 1 1 0 0 1 0 1.2l-.1.1-.3.2-.9.3-.8.3.3-.8.3-.9zM8 4.7a1 1 0 0 1 1.3 0v.1l.2.3.3.9.3.8-.8-.3-.9-.3-.3-.2a1 1 0 0 1 0-1.3" clip-rule="evenodd"/><path fill="currentColor" d="M4.1 21v-6a1 1 0 0 1 1-1H10a1 1 0 0 1 1 1v5.7a1 1 0 0 1-1 1H4.8a1 1 0 0 1-.7-.7m15 .7H14a1 1 0 0 1-1-1V15a1 1 0 0 1 1-1h4.9a1 1 0 0 1 1 1v6a1 1 0 0 1-.7.7"/></svg>