<svg xmlns="http://www.w3.org/2000/svg" fill="none" viewBox="0 0 24 24"><path fill="currentColor" fill-rule="evenodd" d="M12 21.7a9.6 9.6 0 1 0 0-19.2 9.6 9.6 0 0 0 0 19.2" clip-rule="evenodd"/><path fill="#fff" fill-rule="evenodd" d="M13.451 7.64a1.85 1.85 0 0 0-2.554 1.7v1.848h2.493a1 1 0 1 1 0 2h-2.493v1.495a1 1 0 0 1-.017.197 5.3 5.3 0 0 1 1.482.284q.046.015.09.036a3.28 3.28 0 0 0 2.732 0 1 1 0 1 1 .833 1.818 5.28 5.28 0 0 1-4.348.022 3.28 3.28 0 0 0-2.226.061q-.303.19-.644.31a1 1 0 0 1-.834-1.808q.25-.147.512-.265a1.14 1.14 0 0 0 .42-.72v-1.43H8.4a1 1 0 1 1 0-2h.497V9.33a3.851 3.851 0 0 1 7.174-1.925 1 1 0 1 1-1.725 1.012 1.85 1.85 0 0 0-.895-.777" clip-rule="evenodd"/></svg>