<svg xmlns="http://www.w3.org/2000/svg" fill="currentColor" viewBox="0 0 24 24"><path d="M2.4 1.993a1 1 0 1 0 0 2zm2.293 1 .965-.262a1 1 0 0 0-.965-.738zm3.725 13.755-.965.261a1 1 0 0 0 1.089.731zm11.463-1.433.124.992a1 1 0 0 0 .855-.79l-.98-.202Zm1.719-8.31.98.202a1 1 0 0 0-.98-1.202zm-15.82 0-.966.261zM2.4 3.993h2.293v-2H2.4zM8.542 17.74l11.463-1.433-.248-1.984-11.463 1.433zm12.318-2.222 1.72-8.31-1.96-.406-1.719 8.31zM3.727 3.254l1.087 4.012 1.93-.523-1.086-4.012zm1.087 4.012 2.639 9.743 1.93-.523-2.639-9.743zM21.6 6.005H5.78v2H21.6zM11 20.5a.5.5 0 0 1-.5.5v2a2.5 2.5 0 0 0 2.5-2.5zm-.5.5a.5.5 0 0 1-.5-.5H8a2.5 2.5 0 0 0 2.5 2.5zm-.5-.5a.5.5 0 0 1 .5-.5v-2A2.5 2.5 0 0 0 8 20.5zm.5-.5a.5.5 0 0 1 .5.5h2a2.5 2.5 0 0 0-2.5-2.5zm8.5.5a.5.5 0 0 1-.5.5v2a2.5 2.5 0 0 0 2.5-2.5zm-.5.5a.5.5 0 0 1-.5-.5h-2a2.5 2.5 0 0 0 2.5 2.5zm-.5-.5a.5.5 0 0 1 .5-.5v-2a2.5 2.5 0 0 0-2.5 2.5zm.5-.5a.5.5 0 0 1 .5.5h2a2.5 2.5 0 0 0-2.5-2.5z"/></svg>