<svg fill="none" viewBox="0 0 24 24"><path fill="currentColor" d="M7.4 20.2a1 1 0 1 0 .7 1.9zm6.6 1.4-.1-1zm3.7-.9.5 1zm3.6-3.2-.8-.7zm-2.4-2 .7.6zM17.2 17l.7.7zm-4.5-.3a1 1 0 1 0 0 2zm8.2-1.6-.5.9zM9 14.7l.5.9zm4.5-.4.3-1zm1.7.5-.2 1zm.6 2-.7-.7zm-1.7.3a1 1 0 0 0 1.4 1.4zm-6 5h.8l1.5.1q1.8.4 3.7.3l-.2-2q-1.4.1-3.2-.2L9 20H7.4zm6 .4 2-.2q1 0 2-.7l-.8-1.8q-1 .5-1.6.6t-1.8.2zm4-.9q1.3-.6 2.3-1.6l1.7-1.9-1.6-1.3-1.5 1.8-1.7 1.2zm0-6.9-1.6 1.7 1.4 1.4 1.7-1.7zm-2.6 2.1h-2.8v2h2.8zm1-.4q-.5.4-1 .4v2q1.4 0 2.4-1zm5-2a3 3 0 0 0-3.3.3l1.4 1.4h.8zm.6 3.7c1-1.2.6-2.9-.6-3.7l-1.1 1.7q.4.3.1.7zM3 14.7h3.4v-2H3.2zm3.2-.2V22h2v-7.5zm.2 7.3H3.2v2h3.3zm-3.1.2v-7.5h-2V22zm-.2-.2.2.2h-2q.1 1.6 1.8 1.8zm3.1.2.2-.2v2A2 2 0 0 0 8.3 22zm.2-7.3-.2-.2h2a2 2 0 0 0-1.8-1.8zm-3.3-2a2 2 0 0 0-1.8 1.8h2l-.2.2zm5 3.5 1.3-.6-1-1.8-1.2.6zm3.4-1.1h.4v-2h-.4zm1.6.1 1.8.5.5-2-1.7-.4zm1.9 1-1 1 1.4 1.3 1-1zm-.1-.5q.3.1 0 .4l1.5 1.4c1.2-1.2.7-3.3-1-3.7zm-3-.6 1.2.1.6-1.9-1.8-.2zm-2.5.5a5 5 0 0 1 2.1-.5v-2a7 7 0 0 0-3 .7zM17 7.8a2.3 2.3 0 0 1-2.3 2.4v2A4.3 4.3 0 0 0 19 7.8zm-2.3 2.4a2.3 2.3 0 0 1-2.3-2.4h-2a4.3 4.3 0 0 0 4.3 4.4zm-2.3-2.4a2.3 2.3 0 0 1 2.3-2.3v-2a4.3 4.3 0 0 0-4.3 4.3zm2.3-2.3A2.3 2.3 0 0 1 17 7.8h2a4.3 4.3 0 0 0-4.3-4.3zm-3.3 1.3a2.3 2.3 0 0 1-2.3-2.3h-2a4.3 4.3 0 0 0 4.3 4.3zM9.2 4.5a2.3 2.3 0 0 1 2.3-2.3v-2a4.3 4.3 0 0 0-4.3 4.3zm2.3-2.3a2.3 2.3 0 0 1 2.3 2.3h2A4.3 4.3 0 0 0 11.5.2z"/></svg>