<svg xmlns="http://www.w3.org/2000/svg" fill="none" viewBox="0 0 24 24"><path fill="currentColor" fill-rule="evenodd" d="M17.206 3.293a2.877 2.877 0 0 0-4.063.007c-.274.273-.48.645-.63.962a10 10 0 0 0-.43 1.077q-.068.196-.128.386-.061-.194-.13-.39a10 10 0 0 0-.43-1.077c-.149-.314-.354-.686-.626-.958a2.877 2.877 0 0 0-4.063-.007 2.877 2.877 0 0 0 .006 4.063c.126.125.271.236.422.334H3.1a.7.7 0 0 0-.699.698v2.914c0 .385.313.698.699.698h17.803a.7.7 0 0 0 .698-.698V8.388a.7.7 0 0 0-.698-.698h-4.126a2.6 2.6 0 0 0 .424-.334 2.877 2.877 0 0 0 .006-4.063Zm-2.648 1.42a.877.877 0 0 1 1.234-.006.877.877 0 0 1-.007 1.235s-.008.008-.025.02a1 1 0 0 1-.083.057q-.111.07-.295.158a9 9 0 0 1-.87.345 17 17 0 0 1-.784.249c.07-.245.154-.515.246-.782a9 9 0 0 1 .344-.868 3 3 0 0 1 .216-.379zM8.12 4.708a.877.877 0 0 1 1.234.007s.008.007.021.025q.023.03.057.084.07.111.157.294c.117.245.235.547.346.87.092.268.176.539.248.785a17 17 0 0 1-.78-.247 9 9 0 0 1-.869-.344 3 3 0 0 1-.295-.158 1 1 0 0 1-.084-.058q-.029-.023-.028-.023a.877.877 0 0 1-.007-1.235" clip-rule="evenodd"/><path fill="currentColor" d="M4.146 20.955V15a1 1 0 0 1 1-1H10a1 1 0 0 1 1 1v5.654a1 1 0 0 1-1 1H4.844a.7.7 0 0 1-.698-.699m15.011.699H14a1 1 0 0 1-1-1V15a1 1 0 0 1 1-1h4.855a1 1 0 0 1 1 1v5.955a.7.7 0 0 1-.698.699"/></svg>