<svg xmlns="http://www.w3.org/2000/svg" fill="none" viewBox="0 0 24 24"><path fill="currentColor" fill-rule="evenodd" d="M21.5 12a9.6 9.6 0 1 1-19.2 0 9.6 9.6 0 0 1 19.2 0M10.729 9.349a3 3 0 0 1 1.154-.228 3 3 0 0 1 2.01.763 1.146 1.146 0 0 0 1.607-.08 1.12 1.12 0 0 0-.08-1.591 5.3 5.3 0 0 0-2.4-1.223v-.363A1.13 1.13 0 0 0 11.883 5.5c-.628 0-1.139.503-1.14 1.126v.365a5.33 5.33 0 0 0-2.601 1.411 5.2 5.2 0 0 0-1.146 1.697 5.2 5.2 0 0 0-.401 2.001c0 2.502 1.776 4.595 4.149 5.11v.364c0 .623.511 1.126 1.139 1.126s1.138-.504 1.138-1.127v-.363a5.3 5.3 0 0 0 2.395-1.219c.467-.417.504-1.13.082-1.592a1.147 1.147 0 0 0-1.607-.081 3 3 0 0 1-2.008.76h-.002c-1.643 0-2.982-1.354-3.01-2.979a2.95 2.95 0 0 1 .881-2.104c.28-.277.612-.497.977-.646" clip-rule="evenodd"/></svg>