<svg xmlns="http://www.w3.org/2000/svg" fill="none" viewBox="0 0 24 24"><path fill="currentColor" fill-rule="evenodd" d="M18 2.495a2.905 2.905 0 0 0-3.964-1.056c-.338.196-.637.504-.867.775-.247.289-.488.621-.704.942-.273.405-.523.816-.711 1.14-.19-.325-.441-.737-.715-1.143a11 11 0 0 0-.704-.942c-.229-.268-.526-.577-.862-.771a2.905 2.905 0 0 0-3.966 1.055A2.9 2.9 0 0 0 5.98 6H4.4A2.4 2.4 0 0 0 2 8.4v3.682a.5.5 0 0 1 .1-.01h8.686V7.495a.5.5 0 0 1 .5-.5h1a.5.5 0 0 1 .5.5v4.577H21.1q.051 0 .1.01V8.4A2.4 2.4 0 0 0 18.8 6h-1.27A2.9 2.9 0 0 0 18 2.495m-2.964.676a.905.905 0 0 1 1.233.324.905.905 0 0 1-.337 1.23l-.032.014q-.035.015-.098.034a3 3 0 0 1-.331.078c-.272.05-.6.086-.946.11-.298.021-.595.032-.863.038.138-.228.295-.48.461-.726.193-.286.388-.551.567-.761q.135-.157.234-.25a1 1 0 0 1 .112-.09Zm-7.796.324a.905.905 0 0 1 1.233-.323s.01.005.028.02q.03.023.079.068.098.092.233.248c.18.21.374.477.568.764.167.247.326.5.465.728a18 18 0 0 1-.86-.036 9 9 0 0 1-.943-.11 3 3 0 0 1-.332-.078 1 1 0 0 1-.126-.047l-.009-.005a.905.905 0 0 1-.336-1.229" clip-rule="evenodd"/><path fill="currentColor" d="M2 19.2v-5.138q.048.01.1.01h8.686v5.423a.5.5 0 0 0 .5.5h1a.5.5 0 0 0 .5-.5v-5.423H21.1a.5.5 0 0 0 .1-.01V19.2a2.4 2.4 0 0 1-2.4 2.4H4.4A2.4 2.4 0 0 1 2 19.2"/></svg>