<svg xmlns="http://www.w3.org/2000/svg" fill="none" viewBox="0 0 24 24">
  <path fill="#000" d="M13.91 10.314h-3.582V8.2h3.582c.375 0 .716.135.952.347a.958.958 0 0 1 .339.71.958.958 0 0 1-.34.71 1.43 1.43 0 0 1-.951.347Z"/>
  <path fill="#000" fill-rule="evenodd" d="M21.6 12.1a9.6 9.6 0 1 1-19.2 0 9.6 9.6 0 0 1 19.2 0ZM9.328 6.2a1 1 0 0 0-1 1v3.114h-.527a1 1 0 0 0 0 2h.527v.743h-.527a1 1 0 1 0 0 2h.527V16.8a1 1 0 1 0 2 0v-1.743h3.582a1 1 0 1 0 0-2h-3.582v-.743h3.582a3.43 3.43 0 0 0 2.288-.858A2.956 2.956 0 0 0 17.2 9.257c0-.848-.376-1.636-1.003-2.199A3.43 3.43 0 0 0 13.91 6.2H9.328Z" clip-rule="evenodd"/>
</svg>
