<svg viewBox="0 0 24 24"><path fill="currentColor" d="m13.2 3.1-4.6 2c-.3 0-.2.4 0 .4h8.4a.2.2 0 0 0 .1-.4l-1.8-1.6a2 2 0 0 0-2-.4Zm5.3 14.5h1.6a1 1 0 0 1 .5.5v2.3q0 .9-1 1h-16.2a1 1 0 0 1-1-1v-12.5q0-.9 1-1h16.3q.9.1 1 1v1.9a.5.5 0 0 1-.6.5h-1.6c-1.5 0-3.7 1.2-3.7 3.6s2.2 3.7 3.7 3.7Z"/><path fill="currentColor" d="M18.5 12a2 2 0 1 0 0 4h2a2 2 0 1 0 0-4zm-5.3-8.9-4.6 2c-.3 0-.2.4 0 .4h8.4a.2.2 0 0 0 .1-.4l-1.8-1.6a2 2 0 0 0-2-.4Z"/><path fill="currentColor" d="M18.5 17.6h1.6a1 1 0 0 1 .5.5v2.3q0 .9-1 1h-16.2a1 1 0 0 1-1-1v-12.5q0-.9 1-1h16.3q.9.1 1 1v1.9a.5.5 0 0 1-.6.5h-1.6c-1.5 0-3.7 1.2-3.7 3.6s2.2 3.7 3.7 3.7Z"/><path fill="currentColor" d="M18.5 12a2 2 0 1 0 0 4h2a2 2 0 1 0 0-4z"/></svg>