<svg viewBox="0 0 24 24"><path fill="currentColor" fill-rule="evenodd" d="M5.9.5a1 1 0 0 1 1.4 0l2.4 2.4a1 1 0 0 1 0 1.4L7.3 6.7A1 1 0 0 1 6 5.3l.7-.7H5a2 2 0 0 0-2.2 2.2v1.6a1 1 0 1 1-2 0V6.8A4 4 0 0 1 5 2.6h1.6l-.7-.7a1 1 0 0 1 0-1.4m16.3 14.1a1 1 0 0 1 1 1v1.6a4 4 0 0 1-4.2 4.2h-1.6l.7.7a1 1 0 0 1-1.4 1.4l-2.4-2.4a1 1 0 0 1 0-1.4l2.4-2.4a1 1 0 0 1 1.4 1.4l-.7.7H19a2 2 0 0 0 2.2-2.2v-1.6a1 1 0 0 1 1-1" clip-rule="evenodd"/><path fill="currentColor" d="M2 15.5A5.5 5.5 0 0 1 8 10l.1.2a7 7 0 0 0 4.7 5.5l.2.2a5.5 5.5 0 0 1-11-.4m8-7a5.5 5.5 0 1 1 11 0 5.5 5.5 0 0 1-11 0"/></svg>