<svg viewBox="0 0 24 24"><path fill="currentColor" fill-rule="evenodd" d="M15.4 2.9a1 1 0 0 0-1.2-.4l-1.9 1.1h-.8l-2-1a1 1 0 0 0-1 .4l-1 2-.6.5-2.2.5Q4 6 4 6.9L4.5 9l-.3.8-1.5 1.6a1 1 0 0 0 0 1.3l1.6 1.5.2.8-.3 2.2q-.1.9.7 1l2.1.3.7.5 1 2q.4.7 1.1.4l1.9-1.1h.8l2 1a1 1 0 0 0 1-.4l1-2 .6-.5 2.2-.4q.8-.1.7-1l-.5-2.2.3-.8 1.5-1.6a1 1 0 0 0 0-1.3l-1.6-1.5-.2-.8.3-2.2q.1-.9-.7-1L17 5.4l-.7-.5zM9 10a1.5 1.5 0 1 0 0-3 1.5 1.5 0 0 0 0 3m6 6.5a1.5 1.5 0 1 0 0-3 1.5 1.5 0 0 0 0 3m1.3-7.4A1 1 0 0 0 15 7.7l-7.2 7.2A1 1 0 1 0 9 16.3z" clip-rule="evenodd"/></svg>