<svg viewBox="0 0 24 24"><path fill="currentColor" d="m13.2 3.1-4.6 2c-.3 0-.2.4 0 .4H17a.2.2 0 0 0 .1-.4l-1.8-1.6a2 2 0 0 0-2-.4m5.3 14.5H20l.5.5v2.3q0 .9-1 1h-16a1 1 0 0 1-1-1V7.9q0-.9 1-1h16.3q.9.1 1 1v1.9a.5.5 0 0 1-.6.5h-1.6c-1.5 0-3.7 1.2-3.7 3.6s2.2 3.7 3.7 3.7"/><path fill="currentColor" d="M18.5 12a2 2 0 1 0 0 4h2a2 2 0 1 0 0-4zm-5.3-8.9-4.6 2c-.3 0-.2.4 0 .4H17a.2.2 0 0 0 .1-.4l-1.8-1.6a2 2 0 0 0-2-.4"/><path fill="currentColor" d="M18.5 17.6H20l.5.5v2.3q0 .9-1 1h-16a1 1 0 0 1-1-1V7.9q0-.9 1-1h16.3q.9.1 1 1v1.9a.5.5 0 0 1-.6.5h-1.6c-1.5 0-3.7 1.2-3.7 3.6s2.2 3.7 3.7 3.7"/><path fill="currentColor" d="M18.5 12a2 2 0 1 0 0 4h2a2 2 0 1 0 0-4z"/></svg>