<svg viewBox="0 0 24 24"><path fill="currentColor" fill-rule="evenodd" d="M13.7 3a2.6 2.6 0 0 0-3.4 0l-.8.7a3 3 0 0 1-1.6.7H7A2.6 2.6 0 0 0 4.5 7l-.1 1a3 3 0 0 1-.7 1.6l-.6.8a2.6 2.6 0 0 0 0 3.4l.6.8q.7.7.7 1.6v1A2.6 2.6 0 0 0 7 19.6h1q1 0 1.6.7l.8.6a2.6 2.6 0 0 0 3.4 0l.8-.6a3 3 0 0 1 1.6-.7h1a2.6 2.6 0 0 0 2.5-2.5v-1a3 3 0 0 1 .7-1.6l.6-.8a2.6 2.6 0 0 0 0-3.4l-.6-.8a3 3 0 0 1-.7-1.6V7A2.6 2.6 0 0 0 17 4.4h-1a3 3 0 0 1-1.6-.7zM9 10a1.5 1.5 0 1 0 0-3 1.5 1.5 0 0 0 0 3m6 6.5a1.5 1.5 0 1 0 0-3 1.5 1.5 0 0 0 0 3m1.3-7.4A1 1 0 0 0 15 7.7l-7.2 7.2A1 1 0 1 0 9 16.3z" clip-rule="evenodd"/></svg>