<svg xmlns="http://www.w3.org/2000/svg" fill="none" viewBox="0 0 24 24">
  <path fill="#000" d="M13.234 3.123 8.567 5.058c-.232.096-.163.442.088.442h8.325a.23.23 0 0 0 .154-.401l-1.796-1.616a2 2 0 0 0-2.104-.36ZM18.48 17.56h1.66a.5.5 0 0 1 .5.5v2.34c0 .53-.43.96-.96.96H3.36a.96.96 0 0 1-.96-.96V7.92c0-.53.43-.96.96-.96h16.32c.53 0 .96.43.96.96v1.86a.5.5 0 0 1-.5.5h-1.66c-1.458 0-3.64 1.26-3.64 3.64s2.182 3.64 3.64 3.64Z"/>
  <path fill="#000" d="M18.5 12a2 2 0 1 0 0 4h2a2 2 0 1 0 0-4h-2Zm-5.266-8.877L8.567 5.058c-.232.096-.163.442.088.442h8.325a.23.23 0 0 0 .154-.401l-1.796-1.616a2 2 0 0 0-2.104-.36Z"/>
  <path fill="#000" d="M18.48 17.56h1.66a.5.5 0 0 1 .5.5v2.34c0 .53-.43.96-.96.96H3.36a.96.96 0 0 1-.96-.96V7.92c0-.53.43-.96.96-.96h16.32c.53 0 .96.43.96.96v1.86a.5.5 0 0 1-.5.5h-1.66c-1.458 0-3.64 1.26-3.64 3.64s2.182 3.64 3.64 3.64Z"/>
  <path fill="#000" d="M18.5 12a2 2 0 1 0 0 4h2a2 2 0 1 0 0-4h-2Z"/>
</svg>
