<svg xmlns="http://www.w3.org/2000/svg" fill="none" viewBox="0 0 24 24">
  <path fill="#000" fill-rule="evenodd" d="M13.997 6.676A2.5 2.5 0 0 0 10.55 8.97v2.495h3.4a1.5 1.5 0 1 1 0 3h-3.4v2a1.487 1.487 0 0 1-.011.185c.68.04 1.353.174 2 .397.047.016.092.034.136.055a4.5 4.5 0 0 0 3.75 0 1.5 1.5 0 0 1 1.25 2.727 7.499 7.499 0 0 1-6.175.034 4.498 4.498 0 0 0-3.044.082 4.53 4.53 0 0 1-.915.438 1.5 1.5 0 0 1-1.251-2.71c.232-.138.472-.261.717-.372a1.501 1.501 0 0 0 .543-.934v-1.902h-.6a1.5 1.5 0 0 1 0-3h.6V8.956a5.5 5.5 0 0 1 10.244-2.75 1.5 1.5 0 1 1-2.588 1.518 2.5 2.5 0 0 0-1.208-1.048Z" clip-rule="evenodd"/>
</svg>
