<svg viewBox="0 0 24 24"><path fill="currentColor" fill-rule="evenodd" d="M17.2 3.3a3 3 0 0 0-4 0q-.4.4-.7 1a10 10 0 0 0-.4 1q0 .3-.1.4 0-.1-.2-.4a10 10 0 0 0-.4-1q-.3-.6-.6-1a3 3 0 0 0-4 0 3 3 0 0 0 0 4q0 .3.3.4h-4a1 1 0 0 0-.7.7v2.9q0 .7.7.7h17.8a1 1 0 0 0 .7-.7v-3a1 1 0 0 0-.7-.6h-4.1a3 3 0 0 0 .4-.3 3 3 0 0 0 0-4.1Zm-2.6 1.4a1 1 0 0 1 1.2 0 1 1 0 0 1 0 1.2s0 0 0 0a1 1 0 0 1-.1.1q-.1 0-.3.2a9 9 0 0 1-.9.3 17 17 0 0 1-.8.3q.1-.4.3-.8a9 9 0 0 1 .3-.9 3 3 0 0 1 .2-.4 0 0 0 0 1 0 0Zm-6.5 0a1 1 0 0 1 1.3 0s0 0 0 0q0 0 0 .1 0 .2.2.3.1.4.3.9.2.4.3.8a17 17 0 0 1-.8-.3 9 9 0 0 1-.9-.3 3 3 0 0 1-.3-.2 1 1 0 0 1 0 0q0 0 0 0a1 1 0 0 1 0-1.3Z" clip-rule="evenodd"/><path fill="currentColor" d="M4.1 21v-6a1 1 0 0 1 1-1h4.9a1 1 0 0 1 1 1v5.7a1 1 0 0 1-1 1h-5.2a1 1 0 0 1-.7-.7Zm15 .7h-5.1a1 1 0 0 1-1-1v-5.7a1 1 0 0 1 1-1h4.9a1 1 0 0 1 1 1v6a1 1 0 0 1-.7.7Z"/></svg>