<svg fill="none" viewBox="0 0 24 24"><path stroke="currentColor" stroke-linecap="round" stroke-linejoin="round" stroke-width="2" d="M12.2 21.7v-14m-1.7-.8a1 1 0 0 0 .5-.2 1 1 0 0 0 .2-.5c-.2-.6-.8-2.7-1.4-3.3a2 2 0 0 0-2.6 0 2 2 0 0 0 0 2.6c.6.6 2.7 1.2 3.4 1.4Zm1.8-.7a1 1 0 0 0 .2.5 1 1 0 0 0 .4.2c.7-.2 2.8-.8 3.4-1.4a2 2 0 0 0 0-2.6 2 2 0 0 0-2.7 0c-.6.6-1.1 2.7-1.3 3.3Zm-9.2 6.4h17.8a1 1 0 0 0 .7-.7v-3.5a1 1 0 0 0-.7-.7h-17.8a1 1 0 0 0-.7.7v3.5q0 .6.7.7Zm16.8 0v8.4a1 1 0 0 1-.7.7h-14.4a1 1 0 0 1-.7-.7v-8.4z"/></svg>