<svg xmlns="http://www.w3.org/2000/svg" fill="none" viewBox="0 0 24 24">
  <path fill="#000" fill-rule="evenodd" d="M12 21.7a9.6 9.6 0 1 0 0-19.2 9.6 9.6 0 0 0 0 19.2Z" clip-rule="evenodd"/>
  <path fill="#fff" fill-rule="evenodd" d="M13.451 7.64a1.851 1.851 0 0 0-2.554 1.7v1.848h2.493a1 1 0 1 1 0 2h-2.493v1.495a1.014 1.014 0 0 1-.017.197 5.275 5.275 0 0 1 1.482.284c.031.01.061.022.09.036a3.278 3.278 0 0 0 2.732 0 1 1 0 1 1 .833 1.818 5.278 5.278 0 0 1-4.348.022 3.276 3.276 0 0 0-2.226.061c-.202.127-.417.23-.644.31a1 1 0 0 1-.834-1.808c.166-.098.337-.186.512-.265a1.14 1.14 0 0 0 .42-.72v-1.43H8.4a1 1 0 1 1 0-2h.497V9.33a3.851 3.851 0 0 1 7.174-1.925 1 1 0 1 1-1.725 1.012 1.852 1.852 0 0 0-.895-.777Z" clip-rule="evenodd"/>
</svg>
