<svg fill="none" viewBox="0 0 24 24"><path stroke="currentColor" stroke-linecap="round" stroke-width="2" d="m8.4 15.6 7.2-7.2m-6.6.5 0 0m6 6.2 0 0m-5.4-11-2-.5a1 1 0 0 0-.7.4l-.6 2a1 1 0 0 1-.4.3l-1.9.6a1 1 0 0 0-.4.7l.4 2a1 1 0 0 1-.1.5l-1.3 1.5a1 1 0 0 0 0 .8l1.3 1.5q.2.2.1.5l-.4 2q0 .5.4.7l2 .6q.2 0 .3.4l.6 1.9a1 1 0 0 0 .7.4l2-.4a1 1 0 0 1 .5.1l1.5 1.3a1 1 0 0 0 .8 0l1.5-1.3a1 1 0 0 1 .5-.1l2 .4q.5 0 .7-.4l.6-2a1 1 0 0 1 .4-.3l1.9-.6a1 1 0 0 0 .4-.7l-.4-2a1 1 0 0 1 .1-.5l1.3-1.5a1 1 0 0 0 0-.8l-1.3-1.5a1 1 0 0 1-.1-.5l.4-2a1 1 0 0 0-.4-.7l-2-.6a1 1 0 0 1-.3-.4l-.6-1.9a1 1 0 0 0-.7-.4l-2 .4a1 1 0 0 1-.5-.1l-1.5-1.3a1 1 0 0 0-.8 0l-1.5 1.3a1 1 0 0 1-.5.1Z"/></svg>