<svg viewBox="0 0 24 24"><path fill="currentColor" fill-rule="evenodd" d="M18 2.5a3 3 0 0 0-4-1q-.5.2-.8.7-.4.4-.7 1-.5.6-.7 1.1-.3-.5-.8-1.1a11 11 0 0 0-.7-1q-.3-.5-.8-.8a3 3 0 0 0-4 1 3 3 0 0 0 .5 3.6h-1.6a2.4 2.4 0 0 0-2.4 2.4v3.7a1 1 0 0 1 .1 0h8.7v-4.6a1 1 0 0 1 .5-.5h1a1 1 0 0 1 .5.5v4.6h8.3q0 0 .1 0v-3.7a2.4 2.4 0 0 0-2.4-2.4h-1.3a3 3 0 0 0 .5-3.5Zm-3 .7a1 1 0 0 1 1.3.3 1 1 0 0 1-.4 1.2l0 0q0 0-.1 0a3 3 0 0 1-.3.2q-.4 0-1 0-.5 0-.8.1.2-.3.4-.7.3-.5.6-.8.1-.1.2-.2a1 1 0 0 1 .1-.1Zm-7.8.3a1 1 0 0 1 1.3-.3s0 0 0 0q0 0 0 0 .1.2.3.3.3.3.6.8.2.3.4.7a18 18 0 0 1-.8 0 9 9 0 0 1-1-.1 3 3 0 0 1-.3-.1 1 1 0 0 1-.1 0l0 0a1 1 0 0 1-.4-1.3Z" clip-rule="evenodd"/><path fill="currentColor" d="M2 19.2v-5.1q0 0 .1 0h8.7v5.4a1 1 0 0 0 .5.5h1a1 1 0 0 0 .5-.5v-5.4h8.3a1 1 0 0 0 .1 0v5.1a2.4 2.4 0 0 1-2.4 2.4h-14.4a2.4 2.4 0 0 1-2.4-2.4Z"/></svg>