<svg xmlns="http://www.w3.org/2000/svg" fill="none" viewBox="0 0 24 24">
  <path fill="#000" d="M19.2 5.1H4.8a2.4 2.4 0 0 0-2.4 2.4V8a.3.3 0 0 0 .3.3h18.4a.5.5 0 0 0 .5-.5v-.3a2.4 2.4 0 0 0-2.4-2.4ZM2.4 10.6a.3.3 0 0 1 .3-.3h18.4a.5.5 0 0 1 .5.5v2.31a5.5 5.5 0 0 0-6.586 5.79H4.801a2.4 2.4 0 0 1-2.4-2.4v-5.9Z"/>
  <path fill="#000" fill-rule="evenodd" d="M18.288 15.775a1 1 0 0 1 1.414 0l1.08 1.08 1.078-1.08a1 1 0 1 1 1.415 1.414l-1.08 1.08 1.08 1.079a1 1 0 1 1-1.415 1.414l-1.079-1.08-1.079 1.08a1 1 0 0 1-1.414-1.414l1.08-1.08-1.08-1.079a1 1 0 0 1 0-1.414Z" clip-rule="evenodd"/>
</svg>
