<svg fill="none" viewBox="0 0 24 24"><path fill="currentColor" d="M13.9 10a1 1 0 1 0 1.9-.7zm-.7-1.6v-1zm-2.4 3.7v1zm2.4 3.7v1zm-2.4 0v1zm-.7-1.6a1 1 0 1 0-1.9.7zM13 6.6a1 1 0 1 0-2 0zm-2 1.8a1 1 0 1 0 2 0zm2 7.4a1 1 0 1 0-2 0zm-2 1.8a1 1 0 1 0 2 0zm4.8-8.3a3 3 0 0 0-1-1.3l-1.2 1.6.3.4zm-1-1.3a3 3 0 0 0-1.6-.6v2l.4.2zm-1.6-.6h-2.4v2h2.4zm-2.4 0q-1.1 0-2 .9l1.4 1.4.6-.3zm-2 .9a3 3 0 0 0-.8 2h2l.2-.6zm-.8 2q0 1 .8 2l1.4-1.4-.2-.6zm.8 2a3 3 0 0 0 2 .8v-2l-.6-.2zm2 .8h2.4v-2h-2.4zm2.4 0 .6.2 1.4-1.4a3 3 0 0 0-2-.8zm.6.2.2.6h2a3 3 0 0 0-.8-2zm.2.6-.2.6 1.4 1.4a3 3 0 0 0 .8-2zm-.2.6-.6.3v2q1.1 0 2-.9zm-.6.3h-2.4v2h2.4zm-2.4 0-.4-.2-1.2 1.6q.7.4 1.6.6zm-.4-.2-.3-.4-1.9.7q.3.8 1 1.3zm.6-8v1.8h2V6.6zm0 9.2v1.8h2v-1.8zm9.6-3.8a8.6 8.6 0 0 1-8.6 8.6v2c5.9 0 10.6-4.7 10.6-10.6zM12 20.6A8.6 8.6 0 0 1 3.4 12h-2c0 5.9 4.7 10.6 10.6 10.6zM3.4 12A8.6 8.6 0 0 1 12 3.4v-2C6.1 1.4 1.4 6.1 1.4 12zM12 3.4a8.6 8.6 0 0 1 8.6 8.6h2c0-5.9-4.7-10.6-10.6-10.6z"/></svg>