<svg viewBox="0 0 24 24"><path fill="currentColor" d="M12 7a1.4 1.4 0 1 0 0 2.8 1.4 1.4 0 0 0 0-2.8Z"/><path fill="currentColor" fill-rule="evenodd" d="M19.8 2.4h-15.6a2 2 0 0 0-1.8 1.8v8.4a2 2 0 0 0 1.8 1.8h6.8v3.2l-1.7-1.7a1 1 0 0 0-1.4 1.4l3.4 3.4a1 1 0 0 0 1.4 0l3.2-3.1a1 1 0 1 0-1.4-1.5l-1.5 1.5v-3.2h6.8a2 2 0 0 0 1.8-1.8v-8.4a2 2 0 0 0-1.8-1.8Zm-13.8 2.6a1 1 0 0 1 1 1v4.2a1 1 0 1 1-2 0v-4.2a1 1 0 0 1 1-1Zm2.6 3.4a3.4 3.4 0 1 1 6.8 0 3.4 3.4 0 0 1-6.8 0Zm9.4-3.4a1 1 0 0 1 1 1v4.2a1 1 0 1 1-2 0v-4.2a1 1 0 0 1 1-1Z" clip-rule="evenodd"/></svg>