<svg fill="none" viewBox="0 0 24 24"><path fill="currentColor" d="M21.6 16.6v1a1 1 0 0 0 1-1zm0-5.3h1a1 1 0 0 0-1-1zM7.1 6a1 1 0 0 0 1.1 1.7zm7.3-3.5.8-.6a1 1 0 0 0-1.3-.2zm2.6 5a1 1 0 0 0 1.5-1.3zm4.6 8h-3.1v2h3.1zm-3.1-3.3h3.1v-2h-3.1zm2.1-1v5.3h2v-5.3zm-3.8 2.6q.2-1.5 1.7-1.6v-2a3.6 3.6 0 0 0-3.7 3.6zm1.7 1.7a1.6 1.6 0 0 1-1.7-1.7h-2a3.6 3.6 0 0 0 3.7 3.7zM8.2 7.8 15 3.5l-1-1.7-7 4.3zm5.4-4.5L17 7.6l1.5-1.3L15.2 2zM3.4 8h16.3V6H3.4zm16.3 12.4H3.4v2h16.3zm-16.3 0V7.9h-2v12.5zm0 0h-2a2 2 0 0 0 2 2zm16.2 0v2a2 2 0 0 0 2-2zm0-12.4h2a2 2 0 0 0-2-2zM3.5 6a2 2 0 0 0-2 2h2zm16.2 11.3v3.1h2v-3.1zm0-9.4v2.5h2V8z"/></svg>