<svg fill="none" viewBox="0 0 24 24"><path fill="currentColor" d="M1.5 15.7h-1zm0-9h1zm10.2 12.4a1 1 0 0 0 0-2zm-7.8-1v-1zm16.8-11.4h-1zm-18.6.8a1 1 0 1 0 0 2zm18 2a1 1 0 1 0 0-2zm-4.8 7.4-.7-.7a1 1 0 0 0-.3.7zm4.3-4.4.7-.7a1 1 0 0 0-1.4 0zm2.9 3 .7.6a1 1 0 0 0 0-1.4zm-4.3 4.2v1a1 1 0 0 0 .7-.3zm-2.9 0h-1a1 1 0 0 0 1 1zm-11.4-14.4h14.4v-2h-14.4zm-1.4 10.4v-9h-2v9zm9.2 1.4h-7.8v2h7.8zm8-10.4v2.4h2v-2.4zm-15.8-3.4a3.4 3.4 0 0 0-3.4 3.4h2a1.4 1.4 0 0 1 1.4-1.4zm14.4 2a1.4 1.4 0 0 1 1.4 1.4h2a3.4 3.4 0 0 0-3.4-3.4zm-17.8 10.4a3.4 3.4 0 0 0 3.4 3.4v-2a1.4 1.4 0 0 1-1.4-1.4zm1.6-6.2h18v-2h-18zm14 8 4.2-4.3-1.4-1.4-4.3 4.4zm2.8-4.3 2.9 3 1.4-1.5-2.9-2.9zm2.9 1.5-4.3 4.3 1.4 1.4 4.3-4.3zm-3.6 4h-2.9v2h2.9zm-1.9 1v-2.8h-2v2.8z"/></svg>