<svg fill="none" viewBox="0 0 24 24"><path stroke="currentColor" stroke-linecap="round" stroke-width="2" d="m8.4 15.6 7.2-7.2M9 8.9h0m6 6.2h0M8 4.4H7A2.6 2.6 0 0 0 4.3 7v1a3 3 0 0 1-.7 1.6l-.6.8a2.6 2.6 0 0 0 0 3.4l.6.8q.7.7.7 1.6v1A2.6 2.6 0 0 0 7 19.6h1a3 3 0 0 1 1.6.7l.8.6a2.6 2.6 0 0 0 3.4 0l.8-.6a3 3 0 0 1 1.6-.7h1a2.6 2.6 0 0 0 2.5-2.5v-1a3 3 0 0 1 .7-1.6l.6-.8a2.6 2.6 0 0 0 0-3.4l-.6-.8a3 3 0 0 1-.7-1.6V7A2.6 2.6 0 0 0 17 4.4h-1a3 3 0 0 1-1.6-.7l-.8-.6a2.6 2.6 0 0 0-3.4 0l-.8.6a3 3 0 0 1-1.6.7Z"/></svg>