<svg viewBox="0 0 24 24"><path fill="currentColor" d="M12.8 4q0-.1-.2-.2h-1q-.2 0-.2.2a1 1 0 0 1 0 .1l-1.6 4a.2.2 0 0 0 .2.3h4.2a.2.2 0 0 0 .1-.3l-1.4-4a1 1 0 0 1 0 0Zm-3.3.1a.2.2 0 0 0-.2-.3h-2.7a.2.2 0 0 0-.2.1l-3 4.1a.2.2 0 0 0 0 .4h4.3a.2.2 0 0 0 .2-.2zm-5.9 6a.2.2 0 0 0-.1.3l6.8 7.8q.3.2.4-.2l-2.8-7.8a.2.2 0 0 0-.2 0zm9.8 8q0 .3.3.1l6.8-7.8a.2.2 0 0 0-.1-.3h-4a.2.2 0 0 0-.2.1zm7.2-9.7a.2.2 0 0 0 .1-.4l-3-4a.2.2 0 0 0-.2-.2h-2.6a.2.2 0 0 0-.2.3l1.6 4.1a.2.2 0 0 0 .2.2zm-10.8 2a.2.2 0 0 1 .2-.3h4.1a.2.2 0 0 1 .2.3l-2.1 7q-.1.2-.4 0z"/></svg>