<svg xmlns="http://www.w3.org/2000/svg" fill="none" viewBox="0 0 24 24"><path fill="currentColor" d="M10.747 11.058V9.019h3.038a1.02 1.02 0 0 1 0 2.039zm0 2h3.038a1.02 1.02 0 0 1 0 2.038h-3.038z"/><path fill="currentColor" fill-rule="evenodd" d="M21.5 12a9.6 9.6 0 1 1-19.2 0 9.6 9.6 0 0 1 19.2 0M11.42 6a1 1 0 0 0-2 0v1.02H8.4a1 1 0 0 0 0 2h.347v6.076H8.4a1 1 0 1 0 0 2h1.02v1.02a1 1 0 0 0 2 0v-1.02h.692v1.02a1 1 0 1 0 2 0v-1.037a3.02 3.02 0 0 0 1.918-5.021 3.02 3.02 0 0 0-1.918-5.021V6a1 1 0 1 0-2 0v1.02h-.692z" clip-rule="evenodd"/></svg>