<svg viewBox="0 0 24 24"><path fill="currentColor" d="M12 7a1.4 1.4 0 1 0 0 2.8A1.4 1.4 0 0 0 12 7"/><path fill="currentColor" fill-rule="evenodd" d="M19.8 2.4H4.2a2 2 0 0 0-1.8 1.8v8.4a2 2 0 0 0 1.8 1.8H11v3.2L9.3 16A1 1 0 0 0 8 17.3l3.4 3.4a1 1 0 0 0 1.4 0l3.2-3.1a1 1 0 1 0-1.4-1.5L13 17.6v-3.2h6.8a2 2 0 0 0 1.8-1.8V4.2a2 2 0 0 0-1.8-1.8M6 5a1 1 0 0 1 1 1v4.2a1 1 0 1 1-2 0V6a1 1 0 0 1 1-1m2.6 3.4a3.4 3.4 0 1 1 6.8 0 3.4 3.4 0 0 1-6.8 0M18 5a1 1 0 0 1 1 1v4.2a1 1 0 1 1-2 0V6a1 1 0 0 1 1-1" clip-rule="evenodd"/></svg>