<svg fill="none" viewBox="0 0 24 24"><path fill="currentColor" d="M2.4 2a1 1 0 1 0 0 2zm2.3 1 1-.3a1 1 0 0 0-1-.7zm3.7 13.7-1 .3a1 1 0 0 0 1.1.7zM20 15.3l.1 1a1 1 0 0 0 .9-.8zM21.6 7l1 .2a1 1 0 0 0-1-1.2zM5.8 7l-1 .3zM2.4 4h2.3V2H2.4zm6.1 13.7L20 16.3l-.2-2-11.5 1.5zM21 15.5l1.7-8.3-2-.4-1.7 8.3zM3.7 3.3l1.1 4 2-.6-1.1-4zm1.1 4L7.5 17l1.9-.5-2.7-9.8zM21.6 6H5.8v2h15.8zM11 20.5l-.5.5v2a2.5 2.5 0 0 0 2.5-2.5zm-.5.5-.5-.5H8a2.5 2.5 0 0 0 2.5 2.5zm-.5-.5.5-.5v-2A2.5 2.5 0 0 0 8 20.5zm.5-.5.5.5h2a2.5 2.5 0 0 0-2.5-2.5zm8.5.5-.5.5v2a2.5 2.5 0 0 0 2.5-2.5zm-.5.5-.5-.5h-2a2.5 2.5 0 0 0 2.5 2.5zm-.5-.5.5-.5v-2a2.5 2.5 0 0 0-2.5 2.5zm.5-.5.5.5h2a2.5 2.5 0 0 0-2.5-2.5z"/></svg>