<svg xmlns="http://www.w3.org/2000/svg" fill="none" viewBox="0 0 24 24"><path fill="currentColor" fill-rule="evenodd" d="M11.444 2.5a1.5 1.5 0 0 1 1.5 1.5v.28a4.61 4.61 0 0 1 4.254 3.292 1.5 1.5 0 0 1-2.876.856 1.61 1.61 0 0 0-1.378-1.142v3.251a4.594 4.594 0 0 1 0 9.183V20a1.5 1.5 0 1 1-3 0v-.294a4.84 4.84 0 0 1-4.362-3.931 1.5 1.5 0 1 1 2.95-.55 1.84 1.84 0 0 0 1.412 1.455v-3.149a4.629 4.629 0 0 1 0-9.25V4a1.5 1.5 0 0 1 1.5-1.5m-1.5 4.788a1.629 1.629 0 0 0 0 3.236zm3 6.254v3.173a1.594 1.594 0 0 0 0-3.173" clip-rule="evenodd"/></svg>