<svg fill="none" viewBox="0 0 24 24"><path fill="currentColor" d="M2.4 2a1 1 0 1 0 0 2zm2.3 1 1-.3a1 1 0 0 0-1-.7zm3.7 13.7-1 .3a1 1 0 0 0 1.1.7zm11.5-1.4.1 1a1 1 0 0 0 .9-.8zm1.7-8.3 1 .2a1 1 0 0 0-1-1.2zm-15.8 0-1 .3zm-3.4-3h2.3v-2h-2.3zm6.1 13.7 11.5-1.4-.2-2-11.5 1.5zm12.4-2.2 1.7-8.3-2-.4-1.7 8.3zm-17.2-12.2 1.1 4 2-.6-1.1-4zm1.1 4 2.7 9.7 1.9-.5-2.7-9.8zm16.8-1.3h-15.8v2h15.8zm-10.6 14.5a1 1 0 0 1-.5.5v2a2.5 2.5 0 0 0 2.5-2.5zm-.5.5a1 1 0 0 1-.5-.5h-2a2.5 2.5 0 0 0 2.5 2.5zm-.5-.5a1 1 0 0 1 .5-.5v-2a2.5 2.5 0 0 0-2.5 2.5zm.5-.5a1 1 0 0 1 .5.5h2a2.5 2.5 0 0 0-2.5-2.5zm8.5.5a1 1 0 0 1-.5.5v2a2.5 2.5 0 0 0 2.5-2.5zm-.5.5a1 1 0 0 1-.5-.5h-2a2.5 2.5 0 0 0 2.5 2.5zm-.5-.5a1 1 0 0 1 .5-.5v-2a2.5 2.5 0 0 0-2.5 2.5zm.5-.5a1 1 0 0 1 .5.5h2a2.5 2.5 0 0 0-2.5-2.5z"/></svg>