<svg fill="none" viewBox="0 0 24 24"><path stroke="currentColor" stroke-linecap="round" stroke-width="2" d="m8.4 15.6 7.2-7.2m-6.6.5 0 0m6 6.2 0 0m-7-10.7-1 0a2.6 2.6 0 0 0-2.6 2.5l0 1a3 3 0 0 1-.7 1.6l-.6.8a2.6 2.6 0 0 0 0 3.4l.6.8q.7.7.7 1.6l0 1a2.6 2.6 0 0 0 2.5 2.5l1 0a3 3 0 0 1 1.6.7l.8.6a2.6 2.6 0 0 0 3.4 0l.8-.6a3 3 0 0 1 1.6-.7l1 0a2.6 2.6 0 0 0 2.5-2.5l0-1a3 3 0 0 1 .7-1.6l.6-.8a2.6 2.6 0 0 0 0-3.4l-.6-.8a3 3 0 0 1-.7-1.6l0-1a2.6 2.6 0 0 0-2.5-2.5l-1 0a3 3 0 0 1-1.6-.7l-.8-.6a2.6 2.6 0 0 0-3.4 0l-.8.6a3 3 0 0 1-1.6.7Z"/></svg>