<svg viewBox="0 0 24 24"><path fill="currentColor" fill-rule="evenodd" d="M21.6 12.1a9.6 9.6 0 1 1-19.2 0 9.6 9.6 0 0 1 19.2 0Zm-8.5-5.7a5 5 0 0 0-3 .3q-1.5.8-2.3 2.2a6 6 0 0 0-.4.8h-.8a1 1 0 1 0 0 2h.4a7 7 0 0 0 0 .7h-.4a1 1 0 1 0 0 2h.8q.2.5.4.8.8 1.5 2.3 2.2 1.5.7 3 .4 1.6-.4 2.7-1.6a1 1 0 0 0-1.6-1.4q-.7.9-1.5 1a3 3 0 0 1-1.8-.2 3 3 0 0 1-1.2-1.2h2.4a1 1 0 1 0 0-2h-3.1a5 5 0 0 1 0-.7h3.1a1 1 0 1 0 0-2h-2.4q.5-.8 1.2-1.2.9-.4 1.8-.2.8.2 1.5 1a1 1 0 1 0 1.6-1.3q-1.2-1.2-2.7-1.6Z" clip-rule="evenodd"/></svg>