<svg xmlns="http://www.w3.org/2000/svg" fill="none" viewBox="0 0 24 24">
  <path fill="#000" fill-rule="evenodd" d="M6 3.248h12c.828 0 1.5.791 1.5 1.766V19.91c0 .582-.65.924-1.122.59l-1.977-1.4-1.759 1.371a.676.676 0 0 1-.825.006L12 19.1l-1.995 1.396a.676.676 0 0 1-.82-.034L7.537 19.1l-1.91 1.379a.712.712 0 0 1-1.127-.587V5.014c0-.975.672-1.766 1.5-1.766Zm10.207 5.96a1 1 0 0 0-1.414-1.415L11 11.586l-.793-.793a1 1 0 0 0-1.414 1.414l1.5 1.5a1 1 0 0 0 1.414 0l4.5-4.5Z" clip-rule="evenodd"/>
</svg>
