<svg fill="none" viewBox="0 0 24 24"><path fill="currentColor" d="M1.8 15.4h-1zm0-9h1zM12 18.8a1 1 0 1 0 0-2zm-7.8-1v-1zM21 6.4h-1zm-18.6.8a1 1 0 1 0 0 2zm18 2a1 1 0 1 0 0-2zm-4.2 4.3-.4-1a1 1 0 0 0-.6 1zm3 6.5-.5.8a1 1 0 0 0 1 0zm3-6.5h1a1 1 0 0 0-.6-1zm-4.6-.7.4.9zm3.2 0-.4.9zM4.2 5h14.4V3H4.2zM2.8 15.4v-9h-2v9zm9.2 1.4H4.2v2H12zm8-10.4v1.8h2V6.4zM4.2 3A3.4 3.4 0 0 0 .8 6.4h2A1.4 1.4 0 0 1 4.2 5zm14.4 2A1.4 1.4 0 0 1 20 6.4h2A3.4 3.4 0 0 0 18.6 3zM.8 15.4a3.4 3.4 0 0 0 3.4 3.4v-2a1.4 1.4 0 0 1-1.4-1.4zm1.6-6.2h18v-2h-18zM17.1 12l-1.3.7.8 1.8 1.4-.7zm-1.9 1.6v3.3h2v-3.3zm0 3.3q.1 1.3 1 2.2t2.5 1.8l1-1.7q-1.5-.8-2-1.5t-.5-.8zm4.5 4q1.5-.9 2.4-1.7 1-.9 1.1-2.3h-2q.1.3-.5.9l-2 1.4zm3.5-4v-3.3h-2v3.3zm-.6-4.2-1.3-.7-1 1.8 1.5.7zm-4.6 1a3 3 0 0 1 2.4 0l.9-1.7a5 5 0 0 0-4.2 0z"/></svg>