<svg xmlns="http://www.w3.org/2000/svg" fill="none" viewBox="0 0 24 24"><path fill="currentColor" d="M10.6 14.999v-2.203h2.502a1.1 1.1 0 0 1 1.102 1.101v.1A1 1 0 0 1 13.202 15zm2.602-4.203H10.6V8.593h2.502a1.1 1.1 0 0 1 1.102 1.101v.1a1 1 0 0 1-1.002 1.002"/><path fill="currentColor" fill-rule="evenodd" d="M21.5 12a9.6 9.6 0 1 1-19.2 0 9.6 9.6 0 0 1 19.2 0m-8.799-6a1 1 0 1 0-2 0v.593H9.6a1 1 0 0 0-1 1v8.406a1 1 0 0 0 1 1h1.1V18a1 1 0 1 0 2 0v-1.001h.501a3 3 0 0 0 3.002-3.002v-.1a3.1 3.1 0 0 0-.793-2.07 3 3 0 0 0 .793-2.033v-.1a3.1 3.1 0 0 0-3.102-3.101h-.4z" clip-rule="evenodd"/></svg>