<svg fill="none" viewBox="0 0 24 24"><path fill="currentColor" d="M13.9 10a1 1 0 1 0 1.9-.7zm-.7-1.6 0-1a1 1 0 0 0 0 0zm-2.4 3.7v1zm2.4 3.7v1zm-2.4 0 0 1h0zm-.7-1.6a1 1 0 1 0-1.9.7zm2.9-7.6a1 1 0 1 0-2 0zm-2 1.8a1 1 0 1 0 2 0zm2 7.4a1 1 0 1 0-2 0zm-2 1.8a1 1 0 1 0 2 0zm4.8-8.3a3 3 0 0 0-1-1.3l-1.2 1.6a1 1 0 0 1 .3.4zm-1-1.3a3 3 0 0 0-1.6-.6l0 2a1 1 0 0 1 .4.2zm-1.6-.6h-2.4v2h2.4zm-2.4 0q-1.1 0-2 .9l1.4 1.4a1 1 0 0 1 .6-.3zm-2 .9a3 3 0 0 0-.8 2h2a1 1 0 0 1 .2-.6zm-.8 2q0 1 .8 2l1.4-1.4a1 1 0 0 1-.2-.6zm.8 2a3 3 0 0 0 2 .8v-2a1 1 0 0 1-.6-.2zm2 .8h2.4v-2h-2.4zm2.4 0q.3 0 .6.2l1.4-1.4a3 3 0 0 0-2-.8zm.6.2a1 1 0 0 1 .2.6h2a3 3 0 0 0-.8-2zm.2.6a1 1 0 0 1-.2.6l1.4 1.4a3 3 0 0 0 .8-2zm-.2.6a1 1 0 0 1-.6.3v2q1.1 0 2-.9zm-.6.3h-2.4v2h2.4zm-2.4 0a1 1 0 0 1-.4-.2l-1.2 1.6q.7.4 1.6.6zm-.4-.2a1 1 0 0 1-.3-.4l-1.9.7q.3.8 1 1.3zm.6-8v1.8h2v-1.8zm0 9.2v1.8h2v-1.8zm9.6-3.8a8.6 8.6 0 0 1-8.6 8.6v2c5.9 0 10.6-4.7 10.6-10.6zm-8.6 8.6a8.6 8.6 0 0 1-8.6-8.6h-2c0 5.9 4.7 10.6 10.6 10.6zm-8.6-8.6a8.6 8.6 0 0 1 8.6-8.6v-2c-5.9 0-10.6 4.7-10.6 10.6zm8.6-8.6a8.6 8.6 0 0 1 8.6 8.6h2c0-5.9-4.7-10.6-10.6-10.6z"/></svg>