<svg xmlns="http://www.w3.org/2000/svg" fill="none" viewBox="0 0 24 24">
  <path fill="#000" fill-rule="evenodd" d="M21.601 7.608a.3.3 0 0 0-.3-.3h-18.6a.3.3 0 0 0-.3.3v12.008c0 1.262 1.041 2.284 2.327 2.284h14.545c1.285 0 2.327-1.022 2.327-2.284l.001-12.008ZM8.401 8.9a1 1 0 0 1 1 1 2.6 2.6 0 0 0 5.2 0 1 1 0 1 1 2 0 4.6 4.6 0 1 1-9.2 0 1 1 0 0 1 1-1Z" clip-rule="evenodd"/>
  <path fill="#000" d="M20.872 4.767a.3.3 0 0 1-.179.541H3.308a.3.3 0 0 1-.179-.54l3.12-2.316a1.2 1.2 0 0 1 .848-.352h9.806a1.2 1.2 0 0 1 .849.352l3.12 2.315Z"/>
</svg>
