<svg viewBox="0 0 24 24"><path fill="currentColor" fill-rule="evenodd" d="M15.4 2.9a1 1 0 0 0-1.2-.4l-1.9 1.1a1 1 0 0 1-.8 0l-2-1a1 1 0 0 0-1 .4l-1 2a1 1 0 0 1-.6.5l-2.2.4q-.7.1-.7 1l.5 2.2a1 1 0 0 1-.3.8l-1.5 1.6a1 1 0 0 0 0 1.3l1.6 1.5a1 1 0 0 1 .2.8l-.3 2.2q-.1.9.7 1l2.1.3a1 1 0 0 1 .7.5l1 2q.4.7 1.1.4l1.9-1.1a1 1 0 0 1 .8 0l2 1a1 1 0 0 0 1-.4l1-2a1 1 0 0 1 .6-.5l2.2-.4q.8-.1.7-1l-.5-2.2a1 1 0 0 1 .3-.8l1.5-1.6a1 1 0 0 0 0-1.3l-1.6-1.5a1 1 0 0 1-.2-.8l.3-2.2q.1-.9-.7-1l-2.1-.3a1 1 0 0 1-.7-.5zm-6.4 7.1a1.5 1.5 0 1 0 0-3 1.5 1.5 0 0 0 0 3Zm6 6.5a1.5 1.5 0 1 0 0-3 1.5 1.5 0 0 0 0 3Zm1.3-7.4a1 1 0 0 0-1.4-1.4l-7.2 7.2a1 1 0 1 0 1.4 1.4z" clip-rule="evenodd"/></svg>