<svg viewBox="0 0 24 24"><path fill="currentColor" fill-rule="evenodd" d="M12.4 2.6a1 1 0 0 0-.8 0l-1.5 1.3a1 1 0 0 1-.5.1l-2-.4a1 1 0 0 0-.7.4l-.6 2a1 1 0 0 1-.4.3l-1.9.6a1 1 0 0 0-.4.7l.4 2a1 1 0 0 1-.1.5l-1.3 1.5a1 1 0 0 0 0 .8l1.3 1.5q.2.2.1.5l-.4 2q0 .5.4.7l2 .6q.2 0 .3.4l.6 1.9a1 1 0 0 0 .7.4l2-.4a1 1 0 0 1 .5.1l1.5 1.3a1 1 0 0 0 .8 0l1.5-1.3a1 1 0 0 1 .5-.1l2 .4q.5 0 .7-.4l.6-2a1 1 0 0 1 .4-.3l1.9-.6a1 1 0 0 0 .4-.7l-.4-2a1 1 0 0 1 .1-.5l1.3-1.5a1 1 0 0 0 0-.8l-1.3-1.5a1 1 0 0 1-.1-.5l.4-2a1 1 0 0 0-.4-.7l-2-.6a1 1 0 0 1-.3-.4l-.6-1.9a1 1 0 0 0-.7-.4l-2 .4a1 1 0 0 1-.5-.1zm-3.4 7.4a1.5 1.5 0 1 0 0-3 1.5 1.5 0 0 0 0 3Zm6 6.5a1.5 1.5 0 1 0 0-3 1.5 1.5 0 0 0 0 3Zm1.3-7.4a1 1 0 0 0-1.4-1.4l-7.2 7.2a1 1 0 1 0 1.4 1.4z" clip-rule="evenodd"/></svg>