<svg xmlns="http://www.w3.org/2000/svg" fill="none" viewBox="0 0 24 24"><path fill="currentColor" fill-rule="evenodd" d="M15.352 2.887a.816.816 0 0 0-1.156-.375l-1.898 1.116a.8.8 0 0 1-.798.01L9.575 2.573a.817.817 0 0 0-1.146.405l-.907 2.066a.84.84 0 0 1-.64.498l-2.157.318c-.474.07-.794.541-.699 1.03l.431 2.228a.89.89 0 0 1-.237.795l-1.566 1.58a.893.893 0 0 0 .015 1.261l1.604 1.538a.89.89 0 0 1 .256.789l-.376 2.237c-.083.492.248.955.724 1.012l2.164.26a.83.83 0 0 1 .652.482l.956 2.041c.21.448.739.62 1.156.375l1.898-1.116a.8.8 0 0 1 .798-.01l1.925 1.065a.817.817 0 0 0 1.146-.405l.907-2.066a.84.84 0 0 1 .64-.498l2.157-.318c.474-.07.793-.541.699-1.03l-.431-2.228a.89.89 0 0 1 .237-.795l1.566-1.58a.893.893 0 0 0-.016-1.261l-1.603-1.538a.89.89 0 0 1-.257-.789l.377-2.238c.083-.491-.248-.954-.724-1.011l-2.164-.261a.83.83 0 0 1-.652-.481zM9 10a1.5 1.5 0 1 0 0-3 1.5 1.5 0 0 0 0 3m6 6.5a1.5 1.5 0 1 0 0-3 1.5 1.5 0 0 0 0 3m1.308-7.393a1 1 0 0 0-1.415-1.414l-7.2 7.2a1 1 0 1 0 1.415 1.414z" clip-rule="evenodd"/></svg>