<svg viewBox="0 0 24 24"><path fill="currentColor" fill-rule="evenodd" d="M13.7 3a2.6 2.6 0 0 0-3.4 0l-.8.7a3 3 0 0 1-1.6.7l-1 0a2.6 2.6 0 0 0-2.4 2.5l-.1 1a3 3 0 0 1-.7 1.6l-.6.8a2.6 2.6 0 0 0 0 3.4l.6.8q.7.7.7 1.6l0 1a2.6 2.6 0 0 0 2.5 2.5l1 0q1 0 1.6.7l.8.6a2.6 2.6 0 0 0 3.4 0l.8-.6a3 3 0 0 1 1.6-.7l1 0a2.6 2.6 0 0 0 2.5-2.5l0-1a3 3 0 0 1 .7-1.6l.6-.8a2.6 2.6 0 0 0 0-3.4l-.6-.8a3 3 0 0 1-.7-1.6l0-1a2.6 2.6 0 0 0-2.5-2.5l-1 0a3 3 0 0 1-1.6-.7zm-4.7 7a1.5 1.5 0 1 0 0-3 1.5 1.5 0 0 0 0 3Zm6 6.5a1.5 1.5 0 1 0 0-3 1.5 1.5 0 0 0 0 3Zm1.3-7.4a1 1 0 0 0-1.4-1.4l-7.2 7.2a1 1 0 1 0 1.4 1.4z" clip-rule="evenodd"/></svg>