<svg viewBox="0 0 24 24"><path fill="currentColor" fill-rule="evenodd" d="M11 4.2a7 7 0 0 1 4.4-.5q2.2.5 3.8 2.3a1.5 1.5 0 0 1-2.2 2q-1-1.2-2.3-1.4a4 4 0 0 0-2.5.3q-1 .5-1.8 1.6h3.5a1.5 1.5 0 0 1 0 3h-4.5a7 7 0 0 0 0 1h4.5a1.5 1.5 0 0 1 0 3h-3.5q.8 1.1 1.8 1.6 1.3.6 2.5.3 1.2-.2 2.3-1.4a1.5 1.5 0 0 1 2.2 2q-1.6 1.8-3.8 2.3a7 7 0 0 1-4.5-.5q-2.1-1-3.3-3.2a9 9 0 0 1-.5-1.1h-1.2a1.5 1.5 0 1 1 0-3h.5a10 10 0 0 1 0-1h-.5a1.5 1.5 0 1 1 0-3h1.2a9 9 0 0 1 .5-1.1q1.3-2.1 3.3-3.2Z" clip-rule="evenodd"/></svg>