<svg xmlns="http://www.w3.org/2000/svg" fill="none" viewBox="0 0 24 24">
  <path fill="#000" fill-rule="evenodd" d="M11 2.5A1.5 1.5 0 0 1 12.5 4v.5h.5A4.5 4.5 0 0 1 17.5 9v.143a4.357 4.357 0 0 1-1.107 2.901A4.5 4.5 0 0 1 17.5 15v.143a4.357 4.357 0 0 1-4.357 4.357H12.5v.5a1.5 1.5 0 0 1-3 0v-.5H8A1.5 1.5 0 0 1 6.5 18V6A1.5 1.5 0 0 1 8 4.5h1.5V4A1.5 1.5 0 0 1 11 2.5Zm-1.5 11v3h3.643a1.357 1.357 0 0 0 1.357-1.357V15a1.5 1.5 0 0 0-1.5-1.5H9.5Zm0-3h3.643A1.357 1.357 0 0 0 14.5 9.143V9A1.5 1.5 0 0 0 13 7.5H9.5v3Z" clip-rule="evenodd"/>
</svg>
