<svg viewBox="0 0 24 24"><path fill="currentColor" fill-rule="evenodd" d="M21.2 11.6a9.6 9.6 0 1 1-19.2 0 9.6 9.6 0 0 1 19.2 0Zm-8.7-5.6a1 1 0 1 0-2 0v.8h-.2q-1.1 0-2 .9a3 3 0 0 0-.8 2q0 1 .8 2a3 3 0 0 0 2 .8h2.4q.3 0 .6.2a1 1 0 0 1 .2.6 1 1 0 0 1-.2.6 1 1 0 0 1-.6.3h-2.4a1 1 0 0 1-.4-.2 1 1 0 0 1-.3-.4 1 1 0 1 0-1.9.7q.4.8 1 1.3a3 3 0 0 0 1.6.6h.2v.8a1 1 0 1 0 2 0v-.8h.2q1.1 0 2-.9a3 3 0 0 0 .8-2 3 3 0 0 0-.8-2 3 3 0 0 0-2-.8h-2.4a1 1 0 0 1-.6-.2 1 1 0 0 1-.2-.6 1 1 0 0 1 .2-.6 1 1 0 0 1 .6-.3h2.4a1 1 0 0 1 .4.2 1 1 0 0 1 .3.4 1 1 0 1 0 1.9-.7 3 3 0 0 0-1-1.3 3 3 0 0 0-1.6-.6h-.2z" clip-rule="evenodd"/></svg>