<svg fill="none" viewBox="0 0 24 24"><path stroke="currentColor" stroke-linecap="round" stroke-width="2" d="m8.4 15.6 7.2-7.2m-6.6.5 0 0m6 6.2 0 0m-3.5-11.5-2-1a1 1 0 0 0-1 .4l-1 2a1 1 0 0 1-.6.5l-2.2.4q-.7.1-.7 1l.5 2.2a1 1 0 0 1-.3.8l-1.5 1.6a1 1 0 0 0 0 1.3l1.6 1.5a1 1 0 0 1 .2.8l-.3 2.2q-.1.9.7 1l2.1.3a1 1 0 0 1 .7.5l1 2q.4.7 1.1.4l1.9-1.1a1 1 0 0 1 .8 0l2 1a1 1 0 0 0 1-.4l1-2a1 1 0 0 1 .6-.5l2.2-.4q.7-.1.7-1l-.5-2.2a1 1 0 0 1 .3-.8l1.5-1.6a1 1 0 0 0 0-1.3l-1.6-1.5a1 1 0 0 1-.2-.8l.3-2.2q.1-.9-.7-1l-2.1-.3a1 1 0 0 1-.7-.5l-1-2a1 1 0 0 0-1.1-.4l-1.9 1.1a1 1 0 0 1-.8 0Z"/></svg>