<svg fill="none" viewBox="0 0 24 24"><path stroke="currentColor" stroke-linecap="round" stroke-linejoin="round" stroke-width="2" d="M2.4 14.1v-5.3a2.4 2.4 0 0 1 2.4-2.4h14.4a2.4 2.4 0 0 1 2.4 2.4v5.3m-19.2 0h19.2m-19.2 0v5.5a2.4 2.4 0 0 0 2.4 2.4h14.4a2.4 2.4 0 0 0 2.4-2.4v-5.5m-9.4 8v-15.7m-1.2-.5a1 1 0 0 0 .4-.2 1 1 0 0 0 0-.5c-.3-.6-1.4-2.6-2.2-3a2 2 0 0 0-2.6.7 2 2 0 0 0 .7 2.6c.8.4 3 .4 3.7.4Zm1.6-.7a1 1 0 0 0 0 .5q.2.2.5.2c.6 0 2.9 0 3.6-.4a2 2 0 0 0 .7-2.6 2 2 0 0 0-2.6-.7c-.7.5-1.8 2.4-2.2 3Z"/></svg>