<svg xmlns="http://www.w3.org/2000/svg" fill="none" viewBox="0 0 24 24">
  <path fill="#000" fill-rule="evenodd" d="M5.894.493a1 1 0 0 1 1.414 0l2.4 2.4a1 1 0 0 1 0 1.414l-2.4 2.4a1 1 0 0 1-1.414-1.414l.693-.693H5a2.2 2.2 0 0 0-2.2 2.2v1.6a1 1 0 1 1-2 0V6.8A4.2 4.2 0 0 1 5 2.6h1.586l-.693-.693a1 1 0 0 1 0-1.414ZM22.2 14.6a1 1 0 0 1 1 1v1.6a4.2 4.2 0 0 1-4.2 4.2h-1.586l.693.693a1 1 0 0 1-1.414 1.414l-2.4-2.4a1 1 0 0 1 0-1.414l2.4-2.4a1 1 0 0 1 1.414 1.414l-.693.693H19a2.2 2.2 0 0 0 2.2-2.2v-1.6a1 1 0 0 1 1-1Z" clip-rule="evenodd"/>
  <path fill="#000" d="M2 15.5a5.5 5.5 0 0 1 5.921-5.484.2.2 0 0 1 .18.167 7.009 7.009 0 0 0 4.748 5.48.2.2 0 0 1 .14.2A5.5 5.5 0 0 1 2 15.5Zm8-7a5.5 5.5 0 1 1 11 0 5.5 5.5 0 0 1-11 0Z"/>
</svg>
