<svg viewBox="0 0 24 24"><path fill="currentColor" fill-rule="evenodd" d="M12 21.7a9.6 9.6 0 1 0 0-19.2 9.6 9.6 0 0 0 0 19.2Z" clip-rule="evenodd"/><path fill="#fff" fill-rule="evenodd" d="M13.5 7.6a2 2 0 0 0-2.6 1.7v1.9h2.5a1 1 0 1 1 0 2h-2.5v1.5a1 1 0 0 1 0 .2 5 5 0 0 1 1.5.3q0 0 0 0a3 3 0 0 0 2.8 0 1 1 0 1 1 .8 1.8 5 5 0 0 1-4.3 0 3 3 0 0 0-2.3.1q-.3.1-.6.3a1 1 0 0 1-.8-1.8q.2-.1.5-.3a1 1 0 0 0 .4-.7v-1.4h-.5a1 1 0 1 1 0-2h.5v-1.9a3.9 3.9 0 0 1 7.2-1.9 1 1 0 1 1-1.8 1 2 2 0 0 0-.8-.8Z" clip-rule="evenodd"/></svg>