<svg viewBox="0 0 24 24"><path fill="currentColor" fill-rule="evenodd" d="M12.4 2.6h-.8L10 3.9l-.5.1-2-.4L7 4l-.6 2-.4.3L4 7l-.4.7.4 2-.1.5-1.3 1.5v.8L3.9 14q.2.2.1.5l-.4 2q0 .5.4.7l2 .6q.2 0 .3.4L7 20l.7.4 2-.4.5.1 1.5 1.3h.8l1.5-1.3.5-.1 2 .4q.5 0 .7-.4l.6-2 .4-.3L20 17l.4-.7-.4-2 .1-.5 1.3-1.5v-.8L20.1 10l-.1-.5.4-2L20 7l-2-.6-.3-.4-.7-2-.7-.4-2 .4H14zM9 10a1.5 1.5 0 1 0 0-3 1.5 1.5 0 0 0 0 3m6 6.5a1.5 1.5 0 1 0 0-3 1.5 1.5 0 0 0 0 3m1.3-7.4A1 1 0 0 0 15 7.7l-7.2 7.2A1 1 0 1 0 9 16.3z" clip-rule="evenodd"/></svg>