<svg viewBox="0 0 24 24"><path fill="currentColor" fill-rule="evenodd" d="M21.5 12a9.6 9.6 0 1 1-19.2 0 9.6 9.6 0 0 1 19.2 0Zm-10.8-2.7a3 3 0 0 1 1.2-.2 3 3 0 0 1 2 .8 1 1 0 0 0 1.6-.1 1 1 0 0 0 0-1.6 5 5 0 0 0-2.5-1.2v-.4a1 1 0 0 0-1.1-1.1q-1 .1-1.2 1.1v.4a5 5 0 0 0-2.6 1.4 5 5 0 0 0-1.1 1.7 5 5 0 0 0-.4 2c0 2.5 1.8 4.6 4.1 5.1v.4q.1 1 1.2 1.1c1 .1 1.1-.5 1.1-1.1v-.4a5 5 0 0 0 2.4-1.2q.7-.7.1-1.6a1 1 0 0 0-1.6 0 3 3 0 0 1-2 .7h0c-1.7 0-3-1.4-3-3a3 3 0 0 1 .9-2.1q.3-.4 1-.7Z" clip-rule="evenodd"/></svg>