<svg xmlns="http://www.w3.org/2000/svg" width="24" height="25" fill="none" viewBox="0 0 24 25"><g clip-path="url(#a)"><path fill="#338af3" d="M10.957 13.079s-7.434-9.53-7.441-9.53A11.96 11.96 0 0 1 12 .036c6.627 0 12 5.373 12 12z"/><path fill="#6da544" d="M10.957 12.035s-7.434 8.487-7.441 8.485A11.96 11.96 0 0 0 12 24.035c6.627 0 12-5.372 12-12z"/><path fill="#f0f0f0" d="M3.515 3.55c-4.687 4.686-4.687 12.284 0 16.97L12 12.035z"/><path fill="#d80027" d="m4.856 8.905.777 2.391h2.515l-2.035 1.478.777 2.392-2.034-1.478-2.034 1.478.777-2.392-2.035-1.478H4.08l.777-2.391Z"/></g><defs><clipPath id="a"><path fill="#fff" d="M0 .035h24v24H0z"/></clipPath></defs></svg>