<svg xmlns="http://www.w3.org/2000/svg" width="24" height="25" fill="none" viewBox="0 0 24 25"><g clip-path="url(#a)"><path fill="#f0f0f0" d="M12 24.49c6.627 0 12-5.372 12-12 0-6.627-5.373-12-12-12s-12 5.373-12 12c0 6.628 5.373 12 12 12"/><path fill="#338af3" d="M12 24.49a12 12 0 0 0 10.81-6.782H1.191a12 12 0 0 0 10.81 6.782Zm0-24A12 12 0 0 0 1.192 7.273H22.81A12 12 0 0 0 12 .49M7.386 8.316l.389 1.196h1.257l-1.017.739.388 1.196-1.017-.74-1.017.74.388-1.196-1.017-.739h1.257zm0 5.218.389 1.195h1.257l-1.017.74.388 1.195-1.017-.739-1.017.74.388-1.197-1.017-.739h1.257zm9.23-5.218.389 1.196h1.257l-1.017.739.389 1.196-1.018-.74-1.017.74.389-1.196-1.017-.739h1.257zm0 5.218.389 1.195h1.257l-1.017.74.389 1.195-1.018-.739-1.017.74.389-1.197-1.017-.739h1.257zm-4.615-2.609.389 1.196h1.257l-1.017.739.388 1.196-1.017-.74-1.017.74.389-1.196-1.018-.74h1.258z"/></g><defs><clipPath id="a"><path fill="#fff" d="M0 .49h24v24H0z"/></clipPath></defs></svg>