<svg xmlns="http://www.w3.org/2000/svg" width="24" height="25" fill="none" viewBox="0 0 24 25"><g clip-path="url(#a)"><path fill="#338af3" d="M10.957 11.003s-7.434 9.53-7.441 9.53A11.96 11.96 0 0 0 12 24.046c6.627 0 12-5.373 12-12l-13.044-1.044Z"/><path fill="#6da544" d="M10.957 12.047S3.523 3.56 3.516 3.562A11.96 11.96 0 0 1 12 .047c6.627 0 12 5.373 12 12z"/><path fill="#d80027" d="M3.515 3.562c-4.687 4.686-4.687 12.284 0 16.97 0 .002 20.485-8.485 20.485-8.485z"/><path fill="#ffda44" d="M6.262 7.09a4.18 4.18 0 0 0-4.174 4.174v1.565a4.18 4.18 0 0 0 4.174 4.174 4.18 4.18 0 0 0 4.174-4.174v-1.565A4.18 4.18 0 0 0 6.262 7.09m2.608 5.74a2.61 2.61 0 0 1-1.826 2.488v-1.706l1.108-1.107-1.107-1.107v-.916H5.478v1.565l-1.106 1.106 1.106 1.107v1.058a2.61 2.61 0 0 1-1.826-2.489v-1.565a2.61 2.61 0 0 1 2.609-2.608 2.61 2.61 0 0 1 2.608 2.608z"/></g><defs><clipPath id="a"><path fill="#fff" d="M0 .047h24v24H0z"/></clipPath></defs></svg>