<svg xmlns="http://www.w3.org/2000/svg" width="24" height="25" fill="none" viewBox="0 0 24 25"><g clip-path="url(#a)"><path fill="#ffda44" d="M16.174.818A12 12 0 0 0 12 .07c-1.467 0-2.874.264-4.174.747L7.305 12.07l.521 11.254c1.3.482 2.707.746 4.174.746s2.874-.264 4.174-.746l.522-11.254z"/><path fill="#d80027" d="M0 12.071c0 5.16 3.256 9.558 7.826 11.254V.818C3.256 2.513 0 6.912 0 12.07Z"/><path fill="#6da544" d="M24 12.071c0-5.16-3.257-9.558-7.826-11.253v22.507C20.744 21.629 24 17.23 24 12.07Z"/></g><defs><clipPath id="a"><path fill="#fff" d="M0 .071h24v24H0z"/></clipPath></defs></svg>