<svg xmlns="http://www.w3.org/2000/svg" width="24" height="24" fill="none" viewBox="0 0 24 24"><g clip-path="url(#a)"><path fill="#0052b4" d="M0 12c0 .822.083 1.624.24 2.4l11.76.73 11.76-.73a12.05 12.05 0 0 0 0-4.8L12 8.87.24 9.6C.083 10.375 0 11.178 0 12"/><path fill="#f0f0f0" d="M23.76 14.4H.24C1.352 19.877 6.194 24 12 24c5.805 0 10.648-4.123 11.76-9.6"/><path fill="currentColor" d="M.24 9.6h23.52C22.648 4.123 17.805 0 12 0 6.194 0 1.352 4.123.24 9.6"/><path fill="#ffda44" d="M17.218 9.6H6.783l2.132-1.003L7.78 6.533l2.315.442.293-2.338 1.613 1.72 1.612-1.72.293 2.338 2.315-.442-1.135 2.064z"/><path fill="#a2001d" d="M0 12c0 6.627 5.373 12 12 12L2.4 4.8A11.95 11.95 0 0 0 0 12m12 12c6.627 0 12-5.373 12-12 0-2.702-.893-5.195-2.4-7.2z"/></g><defs><clipPath id="a"><path fill="#fff" d="M0 0h24v24H0z"/></clipPath></defs></svg>