<svg xmlns="http://www.w3.org/2000/svg" width="35" height="24" fill="none" viewBox="0 0 35 24"><g clip-path="url(#a)"><path fill="#d80027" d="M0 0h35v24H0z"/><path fill="#0052b4" d="M0 0h17.5v12H0z"/><path fill="#fff" d="m12.745 6-1.632.79.869 1.626-1.772-.35-.225 1.843L8.75 8.554 7.516 9.91 7.29 8.067l-1.772.349.87-1.626L4.755 6l1.632-.79-.869-1.626 1.772.35.225-1.842L8.75 3.446l1.235-1.354.225 1.841 1.772-.349-.87 1.626z"/><path fill="#0052b4" d="M8.75 8.04c1.095 0 1.983-.913 1.983-2.04 0-1.126-.888-2.04-1.983-2.04S6.768 4.874 6.768 6c0 1.127.887 2.04 1.982 2.04"/><path fill="#fff" d="M8.75 7.364c-.732 0-1.326-.612-1.326-1.364s.595-1.363 1.325-1.363c.731 0 1.326.611 1.326 1.363S9.48 7.364 8.749 7.364Z"/></g><defs><clipPath id="a"><rect width="35" height="24" fill="#fff" rx="4"/></clipPath></defs></svg>