<svg xmlns="http://www.w3.org/2000/svg" width="24" height="25" fill="none" viewBox="0 0 24 25"><g clip-path="url(#a)"><path fill="#f0f0f0" d="M12 24.059c6.627 0 12-5.373 12-12 0-6.628-5.373-12-12-12s-12 5.372-12 12c0 6.627 5.373 12 12 12"/><path fill="currentColor" d="M23.064 7.406C21.247 3.09 16.978.06 12.001.06a11.96 11.96 0 0 0-8.485 3.515L6.52 7.406h16.543Z"/><path fill="#496e2d" d="m6.555 16.667-3.04 3.877a11.96 11.96 0 0 0 8.486 3.515c4.994 0 9.275-3.052 11.082-7.392z"/><path fill="#a2001d" d="M2.61 8.885v6.304h20.977c.27-.998.414-2.047.414-3.13 0-1.1-.148-2.163-.425-3.174z"/><path fill="#0052b4" d="M3.515 3.573c-4.687 4.687-4.687 12.284 0 16.97L12 12.06z"/><path fill="#ffda44" d="m3.909 9.075 1.465 2.044 2.396-.762-1.491 2.025 1.465 2.044-2.387-.793-1.49 2.025.015-2.514-2.386-.793 2.397-.762z"/></g><defs><clipPath id="a"><path fill="#fff" d="M0 .059h24v24H0z"/></clipPath></defs></svg>