<svg xmlns="http://www.w3.org/2000/svg" width="35" height="25" fill="none" viewBox="0 0 35 25"><g clip-path="url(#a)"><path fill="#fff" d="M0 .333h32.667v24H0z"/><path fill="#073ab6" d="M0 .333h35v24H0z"/><path fill="#fff" d="M0 .333h17.578v12H0z"/><path fill="#f44653" d="M11.045.333h5.6v11.2h-5.6z"/><path fill="#1035bb" d="M0 .333h5.6v11.2H0z"/><path fill="#fff" d="M5.6.333h5.6v11.2H5.6zm16.955 9.6h7.778l-.778 1.6h-2.333v.8h1.555l-.777 1.6h-.778v2.4h-1.556v-4.8h-2.333zm6.222 4 1.556 2.4h-3.111zm-4.666 0 1.555 2.4h-3.11zm2.333 4.8-1.555-2.4h3.11zm4.667-5.6c-.467 0-.778-.32-.778-.8s.311-.8.778-.8c.466 0 .777.32.777.8s-.31.8-.777.8m-9.334 0c-.466 0-.777-.32-.777-.8s.31-.8.777-.8.778.32.778.8-.311.8-.778.8m1.556 6.4c-.467 0-.778-.32-.778-.8s.311-.8.778-.8.778.32.778.8-.311.8-.778.8m6.222 0c-.466 0-.778-.32-.778-.8s.311-.8.778-.8.778.32.778.8-.311.8-.778.8m-3.111 1.6c-.467 0-.778-.32-.778-.8s.311-.8.778-.8.778.32.778.8-.311.8-.778.8"/></g><defs><clipPath id="a"><rect width="35" height="24" y=".333" fill="#fff" rx="4"/></clipPath></defs></svg>