<svg xmlns="http://www.w3.org/2000/svg" width="35" height="25" fill="none" viewBox="0 0 35 25"><g clip-path="url(#a)"><path fill="#fff" d="M0 .334h35v24H0z"/><path fill="currentColor" d="M0 .334h35v8.003H0z"/><path fill="#428823" d="M0 16.34h35v8.002H0v-8.003Z"/><path fill="#d80027" d="M17.5 12.338 0 24.334v-24zm3.63 0c0-1.61.895-2.96 2.365-3.291a3.3 3.3 0 0 0-.704-.077c-1.805 0-3.274 1.505-3.274 3.368 0 1.864 1.463 3.368 3.274 3.368.24 0 .479-.028.704-.077-1.47-.338-2.365-1.68-2.365-3.291"/><path fill="#d80027" d="m24.95 9.42.704 2.229h2.277l-1.846 1.378.704 2.23-1.839-1.38-1.845 1.38.704-2.23-1.846-1.378h2.283z"/></g><defs><clipPath id="a"><rect width="35" height="24" y=".334" fill="#fff" rx="4"/></clipPath></defs></svg>