<svg xmlns="http://www.w3.org/2000/svg" width="35" height="24" fill="none" viewBox="0 0 35 24"><g clip-path="url(#a)"><path fill="#fff" d="M0 0h35v24H0z"/><path fill="currentColor" d="m5.77 7.52 3.204-4.95zm1.215.834 3.205-4.95zM8.2 9.19l3.205-4.95zm15.393 10.57 3.205-4.95zm1.216.835 3.204-4.95zm1.215.834 3.205-4.95z"/><path stroke="currentColor" stroke-width="25" d="m26.024 21.43 3.205-4.95M5.769 7.52l3.205-4.95zm1.216.834 3.205-4.95zM8.2 9.19l3.205-4.95zm15.393 10.57 3.205-4.95zm1.216.835 3.204-4.95z"/><path fill="currentColor" d="m24.375 16.714 4.045 2.774z"/><path stroke="#fff" stroke-width="12.5" d="m24.375 16.714 4.045 2.774"/><path fill="#ca163a" d="M22.373 15.35c1.776-2.745 1.034-6.47-1.658-8.32a5.72 5.72 0 0 0-8.09 1.619c-1.775 2.745-1.033 6.47 1.66 8.32a5.72 5.72 0 0 0 8.088-1.62Z"/><path fill="#0e4896" d="M12.623 8.658a3.06 3.06 0 0 0 .829 4.157 2.86 2.86 0 0 0 4.042-.81 2.86 2.86 0 0 1 4.042-.808 3.06 3.06 0 0 1 .828 4.157 5.72 5.72 0 0 1-8.083 1.618c-2.689-1.848-3.431-5.573-1.658-8.314"/><path fill="currentColor" d="M9.005 21.43 5.77 16.436l3.235 4.992Zm1.214-.833-3.236-4.992zm1.213-.832-3.236-4.992zm15.37-10.54-3.236-4.992 3.236 4.993Zm1.213-.831L24.78 3.4l3.236 4.993Zm1.214-.832-3.236-4.993z"/><path stroke="currentColor" stroke-width="25" d="m29.229 7.562-3.236-4.993M9.005 21.43 5.77 16.437zm1.214-.832-3.236-4.992zm1.213-.832-3.236-4.992zm15.37-10.54-3.236-4.992zm1.213-.831L24.78 3.4l3.236 4.993Z"/><path fill="currentColor" d="m7.996 18.516 1.213-.832zm16.38-11.232 1.417-.971-1.418.971Zm2.63-1.804 1.213-.832z"/><path stroke="#fff" stroke-width="12.5" d="m27.006 5.48 1.213-.832M7.997 18.516l1.213-.832zm16.38-11.232 1.417-.971z"/></g><defs><clipPath id="a"><rect width="35" height="24" fill="#fff" rx="4"/></clipPath></defs></svg>