<svg xmlns="http://www.w3.org/2000/svg" width="35" height="25" fill="none" viewBox="0 0 35 25"><g clip-path="url(#a)"><path fill="currentColor" d="M0 .073h35v24H0z"/><path fill="#a2001d" d="M0 .073h35v24"/><path fill="#fff" d="m13.988 17.03.189.597h.61l-.494.37.19.597-.495-.37-.495.37.19-.598-.495-.369h.61zm-1.561-5.74.315.997h1.018l-.824.615.315.997-.824-.616-.824.616.315-.997-.825-.615h1.02zm0 7.304.315.997h1.018l-.824.616.315.996-.824-.616-.824.616.315-.996-.825-.616h1.019zm2.978-4.695.315.996h1.018l-.824.616.315.996-.824-.615-.824.615.315-.996-.824-.616h1.018zm-5.956 0 .314.996h1.019l-.824.616.315.996-.824-.615-.824.615.314-.996-.824-.616h1.019z"/><path fill="#ffda44" d="M25.74 8.428a2.98 2.98 0 0 0-1.928-.908l2.18-1.743a3.98 3.98 0 0 0-3.167-1.21 3.14 3.14 0 0 0-.779-1.372l-.86 1.77a1.3 1.3 0 0 0-.216-.295 1.243 1.243 0 0 0-1.793 0 1.33 1.33 0 0 0 0 1.845q.128.131.287.221l-1.722.886c.37.381.83.657 1.334.801a4.23 4.23 0 0 0 1.177 3.257l1.904-2.518a.745.745 0 0 1 1.072.004.78.78 0 0 1 .223.553c0 .21-.08.406-.223.554l.717.738a1.84 1.84 0 0 0 .52-1.292 1.85 1.85 0 0 0-.352-1.092c.343.094.657.28.908.539a2.13 2.13 0 0 1 0 2.951l.718.738a3.16 3.16 0 0 0 .89-2.213c0-.837-.316-1.623-.89-2.214"/></g><defs><clipPath id="a"><rect width="35" height="24" y=".073" fill="#fff" rx="4"/></clipPath></defs></svg>