<svg xmlns="http://www.w3.org/2000/svg" width="24" height="25" fill="none" viewBox="0 0 24 25"><g clip-path="url(#a)"><path fill="#f0f0f0" d="M12 24.91c6.627 0 12-5.372 12-12 0-6.627-5.373-12-12-12s-12 5.373-12 12c0 6.628 5.373 12 12 12"/><path fill="#0052b4" d="M2.481 5.604A12 12 0 0 0 .414 9.78h6.243zM23.586 9.78a12 12 0 0 0-2.067-4.176L17.344 9.78zM.414 16.04a12 12 0 0 0 2.067 4.176l4.176-4.175H.414ZM19.306 3.39a12 12 0 0 0-4.175-2.067v6.243l4.175-4.175ZM4.695 22.43a12 12 0 0 0 4.176 2.067v-6.243l-4.176 4.175ZM8.87 1.323a12 12 0 0 0-4.175 2.068l4.176 4.175zm6.26 23.174a12 12 0 0 0 4.176-2.068l-4.175-4.175zm2.214-8.457 4.175 4.176a12 12 0 0 0 2.067-4.175h-6.242Z"/><path fill="#d80027" d="M23.898 11.345H13.565V1.012a12.1 12.1 0 0 0-3.13 0v10.333H.102a12.1 12.1 0 0 0 0 3.13h10.333V24.81a12.1 12.1 0 0 0 3.13 0V14.475h10.333a12.1 12.1 0 0 0 0-3.13"/><path fill="#d80027" d="m15.13 16.04 5.356 5.355q.368-.37.705-.77l-4.584-4.584H15.13Zm-6.26 0-5.354 5.355q.37.37.77.706l4.584-4.585zm-.001-6.26L3.514 4.425a12 12 0 0 0-.705.77L7.393 9.78zm6.261 0 5.356-5.355a12 12 0 0 0-.77-.705L15.13 8.304z"/></g><defs><clipPath id="a"><path fill="#fff" d="M0 .91h24v24H0z"/></clipPath></defs></svg>