<svg xmlns="http://www.w3.org/2000/svg" width="24" height="25" fill="none" viewBox="0 0 24 25"><g clip-path="url(#a)"><path fill="#f0f0f0" d="M1.19 6.853A11.95 11.95 0 0 0 0 12.07c0 1.87.428 3.64 1.19 5.218L12 18.33l10.81-1.043A11.95 11.95 0 0 0 24 12.07c0-1.87-.428-3.64-1.19-5.217L12 5.809z"/><path fill="currentColor" d="M1.191 17.288a12 12 0 0 0 10.81 6.782 12 12 0 0 0 10.808-6.782z"/><path fill="#d80027" d="M1.191 6.853H22.81A12 12 0 0 0 12 .07 12 12 0 0 0 1.191 6.853"/><path fill="#496e2d" d="M3.515 3.585c-4.687 4.686-4.687 12.284 0 16.97L12 12.07z"/></g><defs><clipPath id="a"><path fill="#fff" d="M0 .07h24v24H0z"/></clipPath></defs></svg>