<svg xmlns="http://www.w3.org/2000/svg" width="35" height="24" fill="none" viewBox="0 0 35 24"><g clip-path="url(#a)"><path fill="#d80027" d="M0 0h35v24H0z"/><path fill="#47a644" d="M14.73 11.979 0 22.077V1.881zM35 1.88v20.196L20.27 11.98z"/><path fill="#0052b4" d="m34.932 1.88-14.73 10.1 14.73 10.098v1.874h-2.736l-14.73-10.098L2.736 23.95H0v-1.874L14.73 11.98 0 1.88V0h2.736l14.73 10.098L32.196 0h2.736z"/><path fill="#fff" d="m35 1.88-14.73 10.1L35 22.077V24h-2.729L17.466 13.853 2.66 24H0v-1.923L14.73 11.98 0 1.88V0h2.736l14.73 10.098L32.196 0H35z"/><path fill="#fff" d="M17.166 19.01c3.776 0 6.837-3.148 6.837-7.031 0-3.884-3.061-7.032-6.837-7.032s-6.836 3.148-6.836 7.032 3.06 7.031 6.836 7.031"/><path fill="#d80027" stroke="#47a644" stroke-width="3" d="m17.152 7.27.505.906h1.01l-.505.898.505.898h-1.01l-.505.905-.505-.905h-1.01l.505-.898-.505-.898h1.01zm2.647 4.681.505.905h1.01l-.505.899.505.898h-1.01l-.505.905-.505-.905h-1.016l.505-.899-.505-.898h1.016zm-5.267 0 .505.905h1.017l-.505.899.505.898h-1.017l-.505.905-.505-.905h-1.01l.506-.899-.505-.898h1.01z"/></g><defs><clipPath id="a"><rect width="35" height="24" fill="#fff" rx="4"/></clipPath></defs></svg>