<svg xmlns="http://www.w3.org/2000/svg" width="24" height="24" fill="none" viewBox="0 0 24 24"><g clip-path="url(#a)"><path fill="#d80027" d="M24 12c0 6.627-5.373 12-12 12S0 18.627 0 12C0 12.003 12 .001 12 0c6.627 0 12 5.373 12 12"/><path fill="#0052b4" d="M12 5.74v4.046L7.826 5.74zM6.26 12h3.526L6.26 7.304l-.522 3.652z"/><path fill="#f0f0f0" d="M11.969 12H12v-.032z"/><path fill="#f0f0f0" d="M12 6.26V0h-.002C5.371.001 0 5.373 0 12h6.26V8.474L9.787 12h2.182l.032-.032V9.786L8.474 6.261H12Z"/><path fill="#d80027" d="M6.07 1.565a12.06 12.06 0 0 0-4.506 4.506v6.45h3.13V4.697h7.827v-3.13h-6.45Z"/><path fill="#d80027" d="m12.476 11.001-4.74-4.74H6.26l6.216 6.216z"/><path fill="#f3f3f3" d="M13.565 6.26V12c0 2.796 7.304 2.796 7.304 0V6.26z"/><path fill="#6da544" d="M13.565 12c0 2.796 3.652 3.652 3.652 3.652s3.652-.856 3.652-3.652z"/><path fill="#a2001d" d="m17.217 9.704-1.695.73V12l1.695 1.043L18.913 12v-1.565z"/><path fill="#338af3" d="M15.521 8.87h3.392v1.565H15.52V8.87Z"/></g><defs><clipPath id="a"><path fill="#fff" d="M0 0h24v24H0z"/></clipPath></defs></svg>