<svg xmlns="http://www.w3.org/2000/svg" width="24" height="25" fill="none" viewBox="0 0 24 25"><g clip-path="url(#a)"><path fill="#ffda44" d="M16.174.781a12 12 0 0 0-4.173-.746c-1.468 0-2.874.264-4.174.746L6.783 12.035 7.827 23.29c1.3.482 2.706.746 4.174.746a12 12 0 0 0 4.173-.746l1.044-11.254z"/><path fill="#d80027" d="M24 12.035c0-5.16-3.257-9.558-7.826-11.254V23.29C20.744 21.593 24 17.195 24 12.035"/><path fill="#0052b4" d="M0 12.035c0 5.16 3.256 9.558 7.826 11.254V.782C3.256 2.477 0 6.876 0 12.035"/></g><defs><clipPath id="a"><path fill="#fff" d="M0 .035h24v24H0z"/></clipPath></defs></svg>