<svg xmlns="http://www.w3.org/2000/svg" width="24" height="25" fill="none" viewBox="0 0 24 25"><g clip-path="url(#a)"><path fill="#f0f0f0" d="M12 24.49c6.627 0 12-5.372 12-12 0-6.627-5.373-12-12-12s-12 5.373-12 12c0 6.628 5.373 12 12 12"/><path fill="#ffda44" d="M5.236 2.577A11.94 11.94 0 0 1 12 .49c2.509 0 4.837.77 6.763 2.087L12 3.1l-6.764-.522Z"/><path fill="#d80027" d="m3.515 20.975 5.534-5.533L12 10.403l2.951 5.038 5.534 5.534A11.96 11.96 0 0 0 24 12.49c0-4.118-2.075-7.752-5.236-9.913H5.237A11.99 11.99 0 0 0 0 12.49a11.96 11.96 0 0 0 3.515 8.485"/><path fill="#0052b4" d="m23.088 17.085-8.774-3.636.636 1.992 5.534 5.534a12 12 0 0 0 2.604-3.89M24 12.49c0-1.628-.324-3.18-.912-4.595L12 12.49zm-3.515-8.484a12 12 0 0 0-1.721-1.429h-2.656L12 12.49zM12 2.577H7.893L12 12.49zM3.516 4.005a12 12 0 0 0-2.604 3.89L12 12.49zM0 12.49c0 1.628.324 3.18.912 4.595L12 12.49z"/><path fill="#ffda44" d="M5.236 22.403A11.94 11.94 0 0 0 12 24.49c2.509 0 4.837-.77 6.763-2.087zM12 12.49l2.951 2.952a4.174 4.174 0 1 0-5.903 0zm1.826 6c0 1.009-.818 1.305-1.826 1.305s-1.826-.296-1.826-1.305a1.826 1.826 0 0 1 3.652 0"/><path fill="#0052b4" d="M13.826 18.49a1.826 1.826 0 0 1-3.652 0"/></g><defs><clipPath id="a"><path fill="#fff" d="M0 .49h24v24H0z"/></clipPath></defs></svg>