<svg xmlns="http://www.w3.org/2000/svg" width="24" height="24" fill="none" viewBox="0 0 24 24"><g clip-path="url(#a)"><path fill="#f0f0f0" d="M.567 8.348A12 12 0 0 0 0 12c0 1.274.199 2.5.567 3.652L12 16.174l11.433-.522C23.801 14.5 24 13.273 24 12s-.2-2.5-.567-3.652L12 7.826z"/><path fill="currentColor" d="M24 12q-.001-1.07-.181-2.087H.18a12 12 0 0 0 0 4.174h23.64q.18-1.018.181-2.087Z"/><path fill="#338af3" d="M12 24c5.354 0 9.888-3.506 11.433-8.348H.566C2.112 20.493 6.646 24 12 24m0-24C6.646 0 2.112 3.506.566 8.348h22.867C21.888 3.506 17.353 0 12 0"/></g><defs><clipPath id="a"><path fill="#fff" d="M0 0h24v24H0z"/></clipPath></defs></svg>