<svg xmlns="http://www.w3.org/2000/svg" width="24" height="24" fill="none" viewBox="0 0 24 24"><g clip-path="url(#a)"><path fill="#ffda44" d="M20.485 20.485c-4.686 4.687-12.284 4.687-16.97 0-4.687-4.686-4.687-12.284 0-16.97.001 0 10.784-3.186 15.47 1.5s1.503 15.467 1.5 15.47"/><path fill="#d80027" d="M20.486 20.485c4.686-4.686 4.686-12.284 0-16.97-4.686-4.687-12.284-4.687-16.97 0z"/><path fill="#ff9811" d="M15.137 15.138a1.824 1.824 0 0 1-2.26-2.592l-.15-.084a3.4 3.4 0 0 0 2.595-3.337 3.38 3.38 0 0 0-1.159-2.51l-1.095 1.123c.414.33.683.836.69 1.406a1.83 1.83 0 0 1-1.804 1.848l.002.171a3.4 3.4 0 0 0-4.188-.58 3.38 3.38 0 0 0-1.594 2.26l1.52.387c.079-.524.383-1.01.873-1.3a1.83 1.83 0 0 1 2.502.638l.147-.088a3.396 3.396 0 0 0 1.593 3.917c.873.49 1.872.55 2.753.251zm-3.17-3.103"/><path fill="#ffeacf" d="m16.444 8.127-.848 3.027-2.545-.47-1.638-3.376-4.426 1.57-.349-.984-1.158-.142.873 2.458 3.045-.779.866 2.44-2.106 3.106 3.573 3.047-.677.794.455 1.074 1.693-1.984-2.197-2.248 1.68-1.97 3.743.27.852-4.617 1.027.19.702-.932zM12 12.082"/></g><defs><clipPath id="a"><path fill="#fff" d="M0 0h24v24H0z"/></clipPath></defs></svg>