<svg xmlns="http://www.w3.org/2000/svg" width="24" height="24" fill="none" viewBox="0 0 24 24"><g clip-path="url(#a)"><path fill="#0052b4" d="M24 12c0 6.627-5.373 12-12 12S0 18.627 0 12C0 12.003 12 .001 12 0c6.627 0 12 5.373 12 12"/><path fill="#f0f0f0" d="M11.969 12H12v-.032z"/><path fill="#f0f0f0" d="M12 6.26V0h-.002C5.371.001 0 5.373 0 12h6.26V8.474L9.787 12h2.182l.032-.032V9.786L8.474 6.261H12Z"/><path fill="#d80027" d="M6.07 1.565a12.06 12.06 0 0 0-4.506 4.506V12h3.13V4.696H12v-3.13z"/><path fill="#d80027" d="M11.999 10.524 7.735 6.261H6.26L11.999 12z"/><path fill="#f3f3f3" d="M20.293 13.757A2.93 2.93 0 0 0 20.87 12V6.783a2.605 2.605 0 0 1-3.652-.522 2.605 2.605 0 0 1-3.652.522V12c0 .702.23 1.282.575 1.757z"/><path fill="#ff9811" d="M19.208 11.032c.166-.405.295-.998.295-1.292 0-.474-.617-.858-.617-.858s-.618.384-.618.858c0 .294.13.887.296 1.292l-.357.805a1.8 1.8 0 0 0 1.358 0zm-2.413-2.606c-.434.059-1.012.243-1.267.39-.41.237-.434.964-.434.964s.641.343 1.051.106c.256-.147.704-.555.972-.902l.875-.094a1.8 1.8 0 0 0-.679-1.175zm-1.05 3.394c.267.346.716.754.971.901.41.237 1.052-.106 1.052-.106s-.024-.727-.434-.963c-.256-.148-.833-.332-1.267-.39l-.52-.712a1.8 1.8 0 0 0-.678 1.176z"/><path fill="#338af3" d="M14.012 13.565c.974 1.564 3.206 2.087 3.206 2.087s2.23-.523 3.205-2.087z"/></g><defs><clipPath id="a"><path fill="#fff" d="M0 0h24v24H0z"/></clipPath></defs></svg>