<svg xmlns="http://www.w3.org/2000/svg" width="24" height="25" fill="none" viewBox="0 0 24 25"><g clip-path="url(#a)"><path fill="#f0f0f0" d="M12 24.91c6.627 0 12-5.372 12-12 0-6.627-5.373-12-12-12s-12 5.373-12 12c0 6.628 5.373 12 12 12"/><path fill="#0052b4" d="M16.52 10.301h-3.013L12 7.693 10.495 10.3H7.482l1.507 2.61-1.507 2.608h3.013L12 18.128l1.506-2.61h3.012l-1.506-2.608 1.506-2.609Zm-2.669 2.61-.925 1.602h-1.85l-.926-1.603.926-1.602h1.85zm-1.85-3.206.344.596h-.688zm-2.776 1.603h.689l-.344.596zm0 3.205.345-.597.344.597zm2.776 1.602-.345-.596h.69zm2.776-1.602h-.69l.345-.597zm-.69-3.205h.69l-.345.596zm5.383-7.789H4.53a12 12 0 0 0-2.768 3.13h20.477a12 12 0 0 0-2.769-3.13M4.53 22.302h14.94a12 12 0 0 0 2.77-3.131H1.761a12 12 0 0 0 2.769 3.13Z"/></g><defs><clipPath id="a"><path fill="#fff" d="M0 .91h24v24H0z"/></clipPath></defs></svg>