<svg xmlns="http://www.w3.org/2000/svg" width="24" height="24" fill="none" viewBox="0 0 24 24"><g clip-path="url(#a)"><path fill="#ffda44" d="M12 24c6.627 0 12-5.373 12-12S18.627 0 12 0 0 5.373 0 12s5.373 12 12 12"/><path fill="#338af3" d="M12 24c3.638 0 6.897-1.618 9.098-4.174H2.904A11.97 11.97 0 0 0 12.001 24Zm12-12c0-6.627-5.373-12-12-12S0 5.373 0 12c0 1.083.144 2.132.413 3.13h23.174A12 12 0 0 0 24 12M.953 16.696q.348.815.808 1.565h20.477q.46-.75.808-1.565z"/><path fill="#f0f0f0" d="M5.499 7.569 3.154 6.534 5.5 5.499l1.034-2.344 1.035 2.344 2.345 1.035-2.345 1.035-1.035 2.344L5.5 7.569Z"/><path fill="#d80027" d="m6.534 4.447.64 1.448 1.447.639-1.448.639-.639 1.448-.639-1.448-1.448-.64 1.448-.638z"/></g><defs><clipPath id="a"><path fill="#fff" d="M0 0h24v24H0z"/></clipPath></defs></svg>