<svg xmlns="http://www.w3.org/2000/svg" width="24" height="25" fill="none" viewBox="0 0 24 25"><g clip-path="url(#a)"><path fill="currentColor" d="M20.485 20.509c-4.686 4.686-12.284 4.686-16.97 0-4.687-4.687-4.687-12.285 0-16.97C8.2-1.149 15.06-.412 19.747 4.275c4.687 4.686 5.425 11.546.738 16.233Z"/><path fill="#a2001d" d="M3.516 3.538c4.686-4.686 12.284-4.686 16.97 0s4.686 12.284 0 16.97"/><path fill="#f0f0f0" d="m9.17 16.197.195.598h.628l-.508.37.194.598-.508-.37-.51.37.195-.598-.508-.37h.628zm-1.605-5.739.324.997h1.047l-.847.615.323.997-.847-.616-.848.616.324-.997-.848-.615h1.048zm0 7.305.324.996h1.047l-.847.616.323.996-.847-.615-.848.615.324-.996-.848-.616h1.048zm3.065-4.696.323.996h1.048l-.848.616.324.997-.848-.616-.847.616.323-.997-.847-.616h1.048l.323-.996Zm-6.128 0 .324.996h1.048l-.848.616.324.997-.848-.616-.847.616.324-.997-.848-.616h1.048z"/><path fill="#ffda44" d="M20.089 8.91a3.1 3.1 0 0 0-1.982-.908l2.242-1.744a4.16 4.16 0 0 0-3.257-1.21 3.1 3.1 0 0 0-.802-1.372l-.885 1.77a1.303 1.303 0 0 0-2.066-.295 1.304 1.304 0 0 0 .295 2.066l-1.77.886c.394.395.87.662 1.372.801a4.16 4.16 0 0 0 1.21 3.257l1.958-2.518a.78.78 0 0 1 .55-.225c.208 0 .405.081.552.229a.78.78 0 0 1 0 1.107l.738.738c.345-.345.535-.804.535-1.292 0-.399-.127-.778-.362-1.092a2.09 2.09 0 0 1 .934 3.49l.738.738a3.1 3.1 0 0 0 .917-2.213 3.1 3.1 0 0 0-.917-2.214Z"/></g><defs><clipPath id="a"><path fill="#fff" d="M0 .023h24v24H0z"/></clipPath></defs></svg>