<svg xmlns="http://www.w3.org/2000/svg" width="24" height="25" fill="none" viewBox="0 0 24 25"><g clip-path="url(#a)"><path fill="#ffda44" d="M12 24.91c6.627 0 12-5.372 12-12 0-6.627-5.373-12-12-12s-12 5.373-12 12c0 6.628 5.373 12 12 12"/><path fill="#6da544" d="M19.305 3.39A11.95 11.95 0 0 0 11.999.91c-2.75 0-5.282.925-7.306 2.48L12 10.698l7.306-7.306Z"/><path fill="currentColor" d="M2.48 5.604A11.95 11.95 0 0 0 0 12.91c0 2.75.925 5.282 2.48 7.306l7.306-7.306z"/><path fill="#6da544" d="M4.693 22.43A11.95 11.95 0 0 0 12 24.91c2.75 0 5.283-.925 7.306-2.48L12 15.124 4.694 22.43Z"/><path fill="currentColor" d="M21.519 20.216a11.95 11.95 0 0 0 2.48-7.306c0-2.75-.925-5.282-2.48-7.306l-7.306 7.306z"/></g><defs><clipPath id="a"><path fill="#fff" d="M0 .91h24v24H0z"/></clipPath></defs></svg>