<svg xmlns="http://www.w3.org/2000/svg" width="24" height="24" fill="none" viewBox="0 0 24 24"><g clip-path="url(#a)"><path fill="#0052b4" d="M24 12c0 6.627-5.373 12-12 12S0 18.627 0 12C0 12.003 12 .001 12 0c6.627 0 12 5.373 12 12"/><path fill="#f0f0f0" d="M11.969 12H12v-.032z"/><path fill="#f0f0f0" d="M12 6.26V0h-.002C5.371.001 0 5.373 0 12h6.26V8.474L9.787 12h2.182l.032-.032V9.786L8.474 6.261H12Z"/><path fill="#d80027" d="M6.07 1.565a12.06 12.06 0 0 0-4.506 4.506V12h3.13V4.696H12v-3.13z"/><path fill="#d80027" d="M11.999 10.524 7.735 6.261H6.26L11.999 12z"/><path fill="#338af3" d="M13.565 6.26V12c0 2.796 3.652 3.652 3.652 3.652s3.652-.856 3.652-3.652V6.26z"/><path fill="#a2001d" d="M13.565 12c0 2.796 3.652 3.652 3.652 3.652s3.652-.856 3.652-3.652z"/><path fill="currentColor" d="M18.783 8.87h-1.044V7.826h-1.043V8.87h-1.044v1.043h1.044v3.13h1.043v-3.13h1.044z"/></g><defs><clipPath id="a"><path fill="#fff" d="M0 0h24v24H0z"/></clipPath></defs></svg>