<svg xmlns="http://www.w3.org/2000/svg" width="24" height="25" fill="none" viewBox="0 0 24 25"><g clip-path="url(#a)"><path fill="#496e2d" d="M12 .91c-.896 0-1.77.1-2.61.285L8.87 12.91l.52 11.715c.84.186 1.714.285 2.61.285 6.627 0 12-5.372 12-12 0-6.627-5.373-12-12-12M3.13 4.828A11.96 11.96 0 0 0 0 12.91a11.96 11.96 0 0 0 3.13 8.083l.522-8.083z"/><path fill="#f0f0f0" d="M17.552 9.962a3.65 3.65 0 0 0-1.496-4.327 3.652 3.652 0 1 1-2.41 6.715 3.65 3.65 0 0 0 3.906-2.388m-3.275-4.778-.513.663-.79-.283.473.692-.513.663.804-.234.472.692.025-.838.805-.234-.789-.283z"/><path fill="#f0f0f0" d="m15.663 7.344-.513.663-.789-.283.472.692-.513.663.805-.235.472.693.025-.838.805-.234-.789-.284zM11.835 5.97l-.513.663-.789-.283.472.693-.513.663.805-.235.472.693.025-.838.805-.235-.79-.283zm-.056 2.475-.513.663-.79-.283.473.692-.514.663.805-.235.472.693.026-.838.804-.234-.789-.284zm2.353.845-.513.662-.789-.283.472.693-.513.663.805-.235.472.693.025-.838.805-.235-.79-.283z"/><path fill="#d80027" d="M3.13 4.828v16.165a12 12 0 0 0 6.262 3.632V1.195A12 12 0 0 0 3.13 4.828"/><path fill="#f0f0f0" d="m5.519 7.228-1.048-.78V5.342l1.048-.78H7l1.048.78v1.104L7 7.227z"/><path fill="#ff9811" d="M6.26 4.562h-.74l-1.048.781v.54h1.79v-1.32Zm0 2.666H7l1.05-.78v-.564H6.26z"/><path fill="#f0f0f0" d="m5.519 21.258-1.048-.78v-1.105l1.048-.781H7l1.048.78v1.105L7 21.257z"/><path fill="#ff9811" d="M6.26 18.592h-.74l-1.048.78v.54h1.79v-1.32Zm0 2.666H7l1.05-.78v-.564H6.26z"/><path fill="#496e2d" d="m5.52 14.243-1.047-.78v-1.105l1.048-.78h1.482l1.048.78v1.104l-1.048.781H5.521Zm2.568 1.717H7.63v-.456h-.8l-.567-.567-.568.567h-.802v.457h-.456v.913h.456v.457h.802l.568.567.567-.567h.802v-.457h.457v-.913Zm0-7.014H7.63V8.49h-.8l-.567-.568-.568.568h-.802v.456h-.456v.913h.456v.457h.802l.568.567.567-.567h.802v-.457h.457v-.913Z"/><path fill="#d80027" d="M5.738 12.388h1.044v1.044H5.738zm.522-2.464a.522.522 0 1 0 0-1.043.522.522 0 0 0 0 1.043m0 7.016a.522.522 0 1 0 0-1.044.522.522 0 0 0 0 1.043Z"/></g><defs><clipPath id="a"><path fill="#fff" d="M0 .91h24v24H0z"/></clipPath></defs></svg>