<svg xmlns="http://www.w3.org/2000/svg" width="24" height="25" fill="none" viewBox="0 0 24 25"><g clip-path="url(#a)"><path fill="#f0f0f0" d="M12 24.49c6.627 0 12-5.372 12-12 0-6.627-5.373-12-12-12s-12 5.373-12 12c0 6.628 5.373 12 12 12"/><path fill="#d80027" d="M12 24.49c3.044 0 5.822-1.133 7.937-3H4.064c2.116 1.867 4.894 3 7.937 3Z"/><path fill="#0052b4" d="M.379 15.49a11.9 11.9 0 0 0 1.228 3h20.788c.537-.928.954-1.935 1.228-3L12 14.577zm23.244-6a12 12 0 0 0-1.228-3l-10.394-.26V.49c-.891 0-1.76.098-2.596.282-.016.003-7.839 6.174-7.839 11.718.2.035 10.435 1.044 10.435 1.044V9.49z"/><path fill="#f0f0f0" d="M12 7.977v-6H8.2L9.404.773C4.46 1.863.66 6.003.078 11.12q-.076.675-.078 1.37h6.078v-2.392l2.416 2.391h4.293L8.2 7.977z"/><path fill="#d80027" d="M12.005 12.49 7.492 7.977H6.078l4.513 4.513H4.565v-6h17.83a12 12 0 0 0-2.459-3H4.566v-.418a12.1 12.1 0 0 0-3 3.491v5.927H0c0 1.036.131 2.041.378 3h23.244c.247-.959.378-1.964.378-3z"/></g><defs><clipPath id="a"><path fill="#fff" d="M0 .49h24v24H0z"/></clipPath></defs></svg>