<svg xmlns="http://www.w3.org/2000/svg" width="24" height="25" fill="none" viewBox="0 0 24 25"><g clip-path="url(#a)"><path fill="#0052b4" d="M24 12.012c0 6.627-5.373 12-12 12s-12-5.373-12-12c0 .003 12-11.999 12-12 6.627 0 12 5.372 12 12"/><path fill="#f0f0f0" d="M11.969 12.012H12v-.032zM12 6.273V.012h-.002C5.371.012 0 5.385 0 12.012h6.26V8.486l3.526 3.526h2.182L12 11.98V9.798L8.474 6.273z"/><path fill="#6da544" d="M17.218 8.881a2.087 2.087 0 1 0 0-4.174 2.087 2.087 0 0 0 0 4.174"/><path fill="#d80027" d="M6.07 1.577a12.06 12.06 0 0 0-4.506 4.506v5.929h3.13V4.707H12v-3.13z"/><path fill="#d80027" d="M11.999 10.536 7.735 6.273H6.26l5.739 5.739zm1.566-4.263h7.304v3.13h-7.304z"/><path fill="#ffda44" d="M13.565 14.099v2.087h1.098a3.64 3.64 0 0 0 2.554 1.043 3.64 3.64 0 0 0 2.554-1.043h1.098v-2.087z"/><path fill="#338af3" d="M13.565 8.881v3.13c0 2.796 3.652 3.653 3.652 3.653s3.652-.857 3.652-3.652v-3.13h-7.304Z"/><path fill="#f3f3f3" d="M17.216 10.553c-.913 0-.913.835-1.826.835s-.913-.835-1.825-.835v1.461c.912 0 .912.835 1.825.835s.913-.835 1.826-.835.913.835 1.827.835.913-.835 1.826-.835v-1.46c-.913 0-.913.834-1.826.834s-.913-.835-1.827-.835m0-2.923c-.913 0-.913.834-1.826.834s-.913-.835-1.825-.835V9.09c.912 0 .912.835 1.825.835s.913-.835 1.826-.835.913.835 1.827.835.913-.835 1.826-.835V7.63c-.913 0-.913.834-1.826.834s-.913-.835-1.827-.835Z"/></g><defs><clipPath id="a"><path fill="#fff" d="M0 .012h24v24H0z"/></clipPath></defs></svg>