<svg xmlns="http://www.w3.org/2000/svg" width="24" height="25" fill="none" viewBox="0 0 24 25"><g clip-path="url(#a)"><path fill="#ffda44" d="M23.254 16.233c.482-1.3.746-2.707.746-4.174s-.264-2.874-.746-4.174L12 6.84.746 7.885A12 12 0 0 0 0 12.059c0 1.467.264 2.873.746 4.174L12 17.276z"/><path fill="#0052b4" d="M12 24.059c5.16 0 9.558-3.257 11.253-7.826H.746C2.442 20.803 6.84 24.059 12 24.059"/><path fill="#6da544" d="M12 .059C6.84.059 2.442 3.315.746 7.885h22.507C21.558 3.315 17.16.059 12 .059"/></g><defs><clipPath id="a"><path fill="#fff" d="M0 .059h24v24H0z"/></clipPath></defs></svg>