<svg xmlns="http://www.w3.org/2000/svg" width="35" height="25" fill="none" viewBox="0 0 35 25"><g clip-path="url(#a)"><path fill="#fff" d="M0 .668h35v24H0z"/><path fill="#338af3" d="M0 .668h11.667v24H0zm23.333 0H35v24H23.333z"/><path fill="#dcc26d" d="M17.466 13.39c.961 0 1.74-.8 1.74-1.789s-.779-1.79-1.74-1.79c-.96 0-1.74.802-1.74 1.79s.78 1.79 1.74 1.79Z"/><path fill="#628a40" d="M13.25 11.608c0 1.551.805 2.983 2.101 3.755a.833.833 0 0 0 1.153-.316.883.883 0 0 0-.307-1.186 2.61 2.61 0 0 1-1.262-2.253.86.86 0 0 0-.846-.87c-.47 0-.839.386-.839.87m6.488 3.656a4.35 4.35 0 0 0 1.945-3.656.86.86 0 0 0-.846-.87.86.86 0 0 0-.846.87c0 .891-.444 1.72-1.167 2.197a.88.88 0 0 0-.28 1.193.83.83 0 0 0 1.16.287c.014-.007.02-.014.034-.02Z"/></g><defs><clipPath id="a"><rect width="35" height="24" y=".668" fill="#fff" rx="4"/></clipPath></defs></svg>