<svg xmlns="http://www.w3.org/2000/svg" width="24" height="25" fill="none" viewBox="0 0 24 25"><g clip-path="url(#a)"><path fill="#d80027" d="M5.236 21.96A11.94 11.94 0 0 0 12 24.047c2.509 0 4.837-.77 6.763-2.087L12 20.916zM18.763 2.134A11.94 11.94 0 0 0 12 .047c-2.51 0-4.838.77-6.764 2.087L12 3.177z"/><path fill="#d80027" d="M5.236 21.96A11.94 11.94 0 0 0 12 24.047c2.509 0 4.837-.77 6.763-2.087L12 20.916zM18.763 2.134A11.94 11.94 0 0 0 12 .047c-2.51 0-4.838.77-6.764 2.087L12 3.177z"/><path fill="#0052b4" d="M23.97 11.264c-.285-3.703-2.535-7.304-5.206-9.13H5.237a11.99 11.99 0 0 0-5.212 9.13L12 12.047z"/><path fill="#0052b4" d="M.025 12.83a11.99 11.99 0 0 0 5.212 9.13h13.527a11.99 11.99 0 0 0 5.21-9.13L12 12.046l-11.975.782Z"/><path fill="#d80027" d="M23.97 11.264H12.782V1.612h-1.566v9.652H.025a12 12 0 0 0 0 1.565h11.192v9.653h1.566v-9.653h11.192q.024-.388.025-.782 0-.391-.03-.783"/><path fill="#f0f0f0" d="M4.695 12.047 12 7.456l7.304 4.59L12 16.639z"/><path fill="#6da544" d="M7.826 14.134h9.391l-2.086-3.13-1.044 1.043-1.043-.522L12 13.09H9.913L8.87 12.047z"/><path fill="#ffda44" d="m12 8.916.258.797h.839l-.678.493.258.797-.678-.492-.678.492.26-.797-.679-.493h.838z"/><path fill="#d80027" d="m12 6.144-9.39 5.903L12 17.95l9.392-5.903zm-6.45 5.903L12 7.993l6.45 4.054L12 16.1z"/></g><defs><clipPath id="a"><path fill="#fff" d="M0 .047h24v24H0z"/></clipPath></defs></svg>