<svg xmlns="http://www.w3.org/2000/svg" width="35" height="25" fill="none" viewBox="0 0 35 25"><g clip-path="url(#a)"><path fill="#20aa46" d="M0 .638h35v8H0z"/><path fill="#e92f3b" d="M0 16.638h35v8H0z"/><path fill="#fadf50" d="M0 8.638h35v8H0z"/><path fill="#205cca" d="M17.577 20.958c4.467 0 8.09-3.725 8.09-8.32s-3.623-8.32-8.09-8.32-8.089 3.725-8.089 8.32 3.622 8.32 8.09 8.32Z"/><path stroke="#ffdb3d" stroke-width=".5" d="m17.112 15.038 2.489-1.76m-2.022 1.44-3.267 2.4 1.244-3.84-3.11-2.4h3.888l1.245-3.68 1.244 3.68h4.044l-3.266 2.4 1.244 3.84zm-1.556-3.84h2.956zm-.622 2.24 2.022 1.6zm3.267-2.56 1.088 2.88zm-3.112 2.72.934-2.88z"/><path stroke="#ffdb3d" stroke-width=".25" d="m24.112 15.038-2.8-1.12m-7.778-7.04 1.71 2.56zm7.933-.16-1.555 2.56zm-3.889 10.08v3.04zm-3.733-2.88-2.8 1.12z"/></g><defs><clipPath id="a"><rect width="35" height="24" y=".638" fill="#fff" rx="4"/></clipPath></defs></svg>