<svg xmlns="http://www.w3.org/2000/svg" width="24" height="25" fill="none" viewBox="0 0 24 25"><g clip-path="url(#a)"><path fill="#ffda44" d="M0 12.07c0 1.468.264 2.874.746 4.174L12 16.766l11.254-.522c.482-1.3.746-2.706.746-4.174s-.264-2.874-.746-4.174L12 7.375.746 7.896A12 12 0 0 0 0 12.07"/><path fill="#d80027" d="M12 .07C6.84.07 2.442 3.327.746 7.896h22.507C21.558 3.326 17.16.07 12 .07"/><path fill="#496e2d" d="M23.253 16.244H.746C2.442 20.814 6.84 24.07 12 24.07s9.558-3.256 11.253-7.826"/><path fill="currentColor" d="m12 7.896 1.036 3.189h3.353l-2.713 1.97 1.036 3.19L12 14.272l-2.712 1.971 1.036-3.188-2.713-1.971h3.353z"/></g><defs><clipPath id="a"><path fill="#fff" d="M0 .07h24v24H0z"/></clipPath></defs></svg>