<svg xmlns="http://www.w3.org/2000/svg" width="24" height="24" fill="none" viewBox="0 0 24 24"><g clip-path="url(#a)"><path fill="#ffda44" d="M12 24c6.627 0 12-5.373 12-12S18.627 0 12 0 0 5.373 0 12s5.373 12 12 12"/><path fill="#a2001d" d="M24 12c0-4.119-2.075-7.752-5.236-9.913H5.237A11.99 11.99 0 0 0 0 12c0 4.119 2.075 7.752 5.237 9.913h13.526A11.99 11.99 0 0 0 24 12"/><path fill="#ffda44" d="M9.393 8.87h5.217V6.783l-1.043.521L12 5.74l-1.565 1.565-1.043-.521zM16.696 12h-2.608a1.204 1.204 0 1 0-2.104-1.169A1.204 1.204 0 1 0 9.882 12H7.305c0 .798.695 1.445 1.493 1.445H8.75c0 .654.435 1.207 1.032 1.384l-1.173 1.173 1.107 1.107 1.57-1.57q.092.034.19.053l-.948 2.142a3.9 3.9 0 0 0 2.945 0l-.949-2.142a1 1 0 0 0 .191-.053l1.57 1.57 1.107-1.107-1.173-1.172a1.445 1.445 0 0 0 1.032-1.385h-.048c.798 0 1.493-.647 1.493-1.445"/><path fill="#6da544" d="m12 12.783-1.695.782v1.565L12 16.174l1.696-1.044v-1.565z"/><path fill="#0052b4" d="M10.305 12h3.391v2.087h-3.391z"/></g><defs><clipPath id="a"><path fill="#fff" d="M0 0h24v24H0z"/></clipPath></defs></svg>