<svg xmlns="http://www.w3.org/2000/svg" width="35" height="25" fill="none" viewBox="0 0 35 25"><g clip-path="url(#a)"><path fill="#338af3" d="M0 .501h35v24H0z"/><path fill="#56af35" d="M0 .501h35v12.004H0z"/><path fill="#d80027" d="m0 24.502 35-12.004L0 .5v24Z"/><path fill="#ffc945" d="M9.207 16.78c2.297 0 4.156-1.912 4.156-4.275S11.503 8.23 9.207 8.23c-2.297 0-4.156 1.912-4.156 4.275s1.86 4.275 4.156 4.275m0 1.71c-3.213 0-5.824-2.68-5.824-5.992s2.604-5.991 5.824-5.991 5.824 2.679 5.824 5.991-2.611 5.991-5.824 5.991Z"/><path fill="#ffc945" d="M8.169 12.16c.66 0 1.196-.55 1.196-1.23S8.83 9.7 8.169 9.7s-1.196.55-1.196 1.23.535 1.23 1.196 1.23"/><path fill="#ffc945" d="M10.177 12.878c.66 0 1.196-.551 1.196-1.23 0-.68-.535-1.232-1.196-1.232s-1.197.551-1.197 1.231.536 1.23 1.197 1.23Z"/><path fill="#ffc945" d="M9.206 11.24c.66 0 1.196-.552 1.196-1.231 0-.68-.535-1.23-1.196-1.23s-1.196.55-1.196 1.23.535 1.23 1.196 1.23Zm-1.037 2.636c.66 0 1.196-.55 1.196-1.23s-.535-1.231-1.196-1.231-1.196.551-1.196 1.23c0 .68.535 1.231 1.196 1.231"/><path fill="#ffc945" d="M10.245 14.586c.66 0 1.196-.55 1.196-1.23s-.535-1.23-1.196-1.23-1.196.55-1.196 1.23.535 1.23 1.196 1.23"/><path fill="#ffc945" d="M8.372 15.655c.66 0 1.196-.55 1.196-1.23s-.535-1.23-1.196-1.23-1.196.55-1.196 1.23.535 1.23 1.196 1.23"/><path fill="#ffc945" d="M9.972 16.162c.66 0 1.196-.551 1.196-1.231s-.536-1.23-1.196-1.23c-.661 0-1.197.55-1.197 1.23s.536 1.23 1.197 1.23Z"/></g><defs><clipPath id="a"><rect width="35" height="24" y=".501" fill="#fff" rx="4"/></clipPath></defs></svg>