<svg xmlns="http://www.w3.org/2000/svg" width="35" height="25" fill="none" viewBox="0 0 35 25"><g clip-path="url(#a)"><path fill="#fff" d="M0 .102h35v24H0z"/><path fill="#338af3" d="M0 .102h35v8H0zm0 16h35v8H0z"/><path fill="#ffda44" d="M17.5 9.18c-1.568 0-2.84 1.308-2.84 2.922s1.272 2.922 2.84 2.922c1.57 0 2.841-1.308 2.841-2.922S19.07 9.18 17.501 9.18Zm0 4.592c-.896 0-1.623-.748-1.623-1.67s.727-1.67 1.624-1.67c.896 0 1.623.748 1.623 1.67s-.727 1.67-1.623 1.67Z"/><path fill="#0052b4" d="m18.905 12.52-1.406-.418-1.405.417-.469.835h3.749l-.469-.835Z"/><path fill="#338af3" d="m17.5 10.015-.938 1.67.938.417.937-.417z"/><path fill="#6da544" d="M16.094 12.52h2.811l-.468-.835h-1.875z"/></g><defs><clipPath id="a"><rect width="35" height="24" y=".102" fill="#fff" rx="4"/></clipPath></defs></svg>