<svg xmlns="http://www.w3.org/2000/svg" width="24" height="25" fill="none" viewBox="0 0 24 25"><g clip-path="url(#a)"><path fill="#f0f0f0" d="M12 24.012c6.627 0 12-5.373 12-12 0-6.628-5.373-12-12-12s-12 5.372-12 12c0 6.627 5.373 12 12 12"/><path fill="#0052b4" d="M0 12.012c0 6.627 5.373 12 12 12v-12z"/><path fill="#d80027" d="M12 .012c6.627 0 12 5.372 12 12H12z"/><path fill="#0052b4" d="m7.143 4.186.777 2.391h2.515L8.4 8.055l.777 2.392-2.034-1.478-2.034 1.478.777-2.392-2.034-1.478h2.514z"/><path fill="#d80027" d="m16.856 13.577.777 2.391h2.515l-2.035 1.478.777 2.392-2.034-1.478-2.034 1.478.777-2.392-2.034-1.478h2.514z"/></g><defs><clipPath id="a"><path fill="#fff" d="M0 .012h24v24H0z"/></clipPath></defs></svg>