<svg xmlns="http://www.w3.org/2000/svg" width="24" height="25" fill="none" viewBox="0 0 24 25"><g clip-path="url(#a)"><path fill="#f0f0f0" d="M12 24.012c6.627 0 12-5.373 12-12 0-6.628-5.373-12-12-12s-12 5.372-12 12c0 6.627 5.373 12 12 12"/><path fill="#d80027" d="M2.904 4.186A12 12 0 0 0 1.762 5.75h20.477a12 12 0 0 0-1.142-1.565zm0 15.652h18.193q.633-.735 1.142-1.565H1.762a12 12 0 0 0 1.142 1.565m7.561-10.021.984 1.357 1.595-.517-.986 1.356.984 1.357-1.594-.52-.986 1.356.001-1.676-1.594-.52 1.595-.516z"/><path fill="#d80027" d="M7.777 15.403A3.391 3.391 0 1 1 9.39 9.028a4.174 4.174 0 1 0 0 5.967c-.48.26-1.029.408-1.613.408"/></g><defs><clipPath id="a"><path fill="#fff" d="M0 .012h24v24H0z"/></clipPath></defs></svg>