<svg xmlns="http://www.w3.org/2000/svg" width="24" height="25" fill="none" viewBox="0 0 24 25"><g clip-path="url(#a)"><path fill="#ffda44" d="M12 24.07c6.627 0 12-5.372 12-12 0-6.627-5.373-12-12-12s-12 5.373-12 12c0 6.628 5.373 12 12 12"/><path fill="#a2001d" d="M5.236 2.157A11.94 11.94 0 0 1 12 .07c2.509 0 4.837.77 6.763 2.087L12 2.68l-6.764-.522Z"/><path fill="#0052b4" d="m12 12.07-.765-.766-.204.365z"/><path fill="#496e2d" d="M3.515 3.585c-4.687 4.686-4.687 12.284 0 16.97L12 12.07zm16.97 0c4.687 4.686 4.687 12.284 0 16.97L12 12.07z"/><path fill="#a2001d" d="M12 16.244a4.174 4.174 0 1 0 0-8.348 4.174 4.174 0 0 0 0 8.348"/><path fill="#ffda44" d="m12 7.896.936 2.88h3.028l-2.45 1.78.936 2.88-2.45-1.78-2.45 1.78.937-2.88-2.45-1.78h3.028zM12 .07h-.004.008z"/><path fill="#a2001d" d="M12.004.07h-.008a11.96 11.96 0 0 0-8.48 3.514h16.969A11.96 11.96 0 0 0 12.005.07ZM3.516 20.556A11.96 11.96 0 0 0 12 24.07c3.314 0 6.313-1.343 8.485-3.514z"/><path fill="#ffda44" d="m11.999 1.375.194.597h.629l-.509.37.194.598L12 2.57l-.509.37.194-.598-.508-.37h.628zm-2.91 0 .194.597h.628l-.508.37.194.598-.508-.37-.509.37.194-.598-.508-.37h.628zm5.82 0 .194.597h.629l-.509.37.194.598-.508-.37-.509.37.195-.598-.51-.37h.63zM11.999 21.2l.194.599h.629l-.509.369.194.598-.508-.37-.509.37.194-.598-.508-.37h.628zm-2.91 0 .194.599h.628l-.508.369.194.598-.508-.37-.509.37.194-.598-.508-.37h.628zm5.82 0 .194.599h.629l-.509.369.194.598-.508-.37-.509.37.195-.598-.51-.37h.63zM3.656 11.872a1.043 1.043 0 0 1-1.764 1.116c-.558-.881-.234-2.321-.234-2.321s1.44.323 1.998 1.205"/><path fill="#a2001d" d="M3.053 13.393a.522.522 0 1 0 0-1.044.522.522 0 0 0 0 1.044"/></g><defs><clipPath id="a"><path fill="#fff" d="M0 .07h24v24H0z"/></clipPath></defs></svg>