<svg xmlns="http://www.w3.org/2000/svg" width="24" height="25" fill="none" viewBox="0 0 24 25"><g clip-path="url(#a)"><path fill="#f0f0f0" d="M12 24.035c6.627 0 12-5.372 12-12 0-6.627-5.373-12-12-12s-12 5.373-12 12c0 6.628 5.373 12 12 12"/><path fill="#d80027" d="M10.957 12.035s-7.434 8.487-7.441 8.485A11.96 11.96 0 0 0 12 24.035c6.627 0 12-5.372 12-12z"/><path fill="#0052b4" d="M3.515 3.55c-4.687 4.686-4.687 12.284 0 16.97L12 12.035z"/></g><defs><clipPath id="a"><path fill="#fff" d="M0 .035h24v24H0z"/></clipPath></defs></svg>