<svg xmlns="http://www.w3.org/2000/svg" width="24" height="25" fill="none" viewBox="0 0 24 25"><g clip-path="url(#a)"><path fill="#f0f0f0" d="M12 24.035c6.627 0 12-5.372 12-12 0-6.627-5.373-12-12-12s-12 5.373-12 12c0 6.628 5.373 12 12 12"/><path fill="#0052b4" d="M12 .035a11.98 11.98 0 0 0-9.6 4.8h19.201a11.98 11.98 0 0 0-9.6-4.8Zm0 24a11.98 11.98 0 0 0 9.601-4.8h-19.2a11.98 11.98 0 0 0 9.6 4.8Zm-12-12c0 .822.083 1.625.24 2.4h23.52a12.05 12.05 0 0 0 0-4.8H.24c-.157.776-.24 1.578-.24 2.4"/><path fill="#d80027" d="M3.515 3.55c-4.687 4.686-4.687 12.284 0 16.97L12 12.035z"/><path fill="#f0f0f0" d="m4.856 8.905.777 2.391h2.515l-2.035 1.478.777 2.392-2.034-1.478-2.034 1.478.777-2.392-2.035-1.478H4.08l.777-2.391Z"/></g><defs><clipPath id="a"><path fill="#fff" d="M0 .035h24v24H0z"/></clipPath></defs></svg>