<svg xmlns="http://www.w3.org/2000/svg" width="24" height="24" fill="none" viewBox="0 0 24 24"><g clip-path="url(#a)"><path fill="#0052b4" d="M12 24c1.468 0 2.874-.264 4.174-.746L16.696 12 16.174.746A12 12 0 0 0 12 0c-1.467 0-2.874.264-4.174.746L7.305 12l.521 11.254c1.3.482 2.707.746 4.174.746"/><path fill="#a2001d" d="M0 12c0 5.16 3.256 9.558 7.826 11.254V.746C3.256 2.442 0 6.84 0 12M16.174.746v22.508C20.744 21.558 24 17.159 24 12c0-5.16-3.257-9.558-7.826-11.254"/><path fill="#ffda44" d="M5.738 12h1.044v4.174H5.738zm-4.174 0h1.044v4.174H1.564zm2.608 2.609a1.044 1.044 0 1 0 0-2.087 1.044 1.044 0 0 0 0 2.087m.002-4.174a.522.522 0 1 0 0-1.044.522.522 0 0 0 0 1.044M3.129 15.13h2.087v1.044H3.129zm0-4.173h2.087V12H3.129zM4.173 6.26l.37 1.138h1.195l-.967.703.369 1.137-.967-.703-.968.703.37-1.137-.968-.703h1.196z"/></g><defs><clipPath id="a"><path fill="#fff" d="M0 0h24v24H0z"/></clipPath></defs></svg>