<svg xmlns="http://www.w3.org/2000/svg" width="24" height="24" fill="none" viewBox="0 0 24 24"><g clip-path="url(#a)"><path fill="#ffda44" d="M24 12c0 6.627-5.373 12-12 12S0 18.627 0 12C0 12.003 12 .001 12 0c6.627 0 12 5.373 12 12"/><path fill="#0052b4" d="M12 5.74v4.046L7.826 5.74zM6.26 12h3.526L6.26 7.304l-.522 3.652z"/><path fill="#f0f0f0" d="M11.969 12H12v-.032z"/><path fill="#f0f0f0" d="M12 6.26V0h-.002C5.371.001 0 5.373 0 12h6.26V8.474L9.787 12h2.182l.032-.032V9.786L8.474 6.261H12Z"/><path fill="#d80027" d="M11.999 10.524 7.735 6.261H6.26L11.999 12z"/><path fill="#d80027" d="M6.07 1.565q-.694.396-1.327.878h.492l-1.301.945.497 1.53-1.301-.945-.139.1c-.54.614-1.02 1.283-1.427 1.998V12h3.13V4.696H12v-3.13z"/><path fill="#0052b4" d="M5.127 2.163q-.194.135-.383.28l-.809.945-.804.585-.14.101q-.441.503-.827 1.052a2.217 2.217 0 0 0 2.963-2.963"/><path fill="#ffda44" d="m2.99 4.074.14-.101 1.301.945-.497-1.53 1.301-.945h-.492A12 12 0 0 0 2.99 4.074m5.305-1.987.259.797h.838l-.678.493.259.797-.678-.493-.679.493.26-.797-.679-.493h.838zM3.13 7.304l.26.797h.838l-.678.493.258.797L3.13 8.9l-.678.492.26-.797-.679-.493h.838z"/></g><defs><clipPath id="a"><path fill="#fff" d="M0 0h24v24H0z"/></clipPath></defs></svg>