<svg xmlns="http://www.w3.org/2000/svg" width="35" height="25" fill="none" viewBox="0 0 35 25"><g clip-path="url(#a)"><path fill="#d01920" d="M0 .333h35v24H0z"/><path fill="#017c3b" d="M9.89 6.594h15.218v11.479H9.891z"/><path fill="#fff" d="M19.379 15.724c-1.821 0-3.297-1.518-3.297-3.39 0-1.874 1.476-3.392 3.297-3.392a3.2 3.2 0 0 1 1.568.407 3.99 3.99 0 0 0-2.836-1.19c-2.241 0-4.058 1.869-4.058 4.174s1.817 4.174 4.058 4.174a3.99 3.99 0 0 0 2.836-1.19c-.466.26-1 .407-1.568.407"/></g><defs><clipPath id="a"><rect width="35" height="24" y=".333" fill="#fff" rx="4"/></clipPath></defs></svg>