<svg xmlns="http://www.w3.org/2000/svg" width="35" height="24" fill="none" viewBox="0 0 35 24"><g clip-path="url(#a)"><path fill="#009543" d="M0 16.48h35V24H0z"/><path fill="#ed4135" d="M0 7.424h35v9.073H0z"/><path fill="#0035ad" d="M0 0h35v7.498H0z"/><path fill="#fae600" stroke="currentColor" stroke-width="5.3" d="M13.126 20.845c4.75 0 8.602-3.962 8.602-8.848S17.877 3.15 13.126 3.15s-8.603 3.96-8.603 8.847 3.852 8.848 8.603 8.848Z"/><path fill="currentColor" d="m16.837 19.939-1.739.675-1.974.236-2.067-.135-1.963-.872s1.564-1.648 2.226-1.884c.47-.169 1.224-.208 1.224-.208V6.861l-.016-3.711h.924l-.027 3.796V17.73s.837.067 1.209.23c.618.276 2.203 1.98 2.203 1.98Z"/><path fill="currentColor" d="m11.633 5.758 2.349-1.205.305.63-2.35 1.204zm1.372 11.509c.507 0 .918-.667.918-1.49s-.41-1.49-.918-1.49-.92.667-.92 1.49.412 1.49.92 1.49m-.022-8.026c.631 0 1.143-.526 1.143-1.175 0-.65-.512-1.176-1.143-1.176s-1.143.526-1.143 1.176.512 1.175 1.143 1.175m.054 3.313c.601 0 1.089-.305 1.089-.68s-.487-.681-1.088-.681-1.089.305-1.089.68.488.681 1.088.681m-1.346-2.598h2.57v.562h-2.57zm0 3.206h2.57v.562h-2.57z"/></g><defs><clipPath id="a"><rect width="35" height="24" fill="#fff" rx="4"/></clipPath></defs></svg>