<svg xmlns="http://www.w3.org/2000/svg" width="35" height="25" fill="none" viewBox="0 0 35 25"><g clip-path="url(#a)"><path fill="#496e2d" d="M0 .033h35v24H0z"/><path fill="#0052b4" d="M0 24.033v-24h35"/><path fill="#ffda44" d="M0 21.912v2.121h3.094L35 2.154V.033h-3.094z"/><path fill="#fff" d="m5.858 1.682.35 1.108H7.34l-.916.685.35 1.108-.916-.685-.917.685.35-1.108-.916-.685h1.133zm5.784 0 .35 1.108h1.133l-.916.685.35 1.108-.917-.685-.916.685.35-1.108-.916-.685h1.132zM5.858 7.483l.35 1.108H7.34l-.916.685.35 1.108-.916-.685-.917.685.35-1.108-.916-.685h1.133zm5.784 0 .35 1.108h1.133l-.916.685.35 1.108-.917-.685-.916.685.35-1.108-.916-.685h1.132zm-2.892-2.9L9.1 5.69h1.133l-.917.684.35 1.108L8.75 6.8l-.916.684.35-1.108-.917-.684H8.4z"/></g><defs><clipPath id="a"><rect width="35" height="24" y=".033" fill="#fff" rx="4"/></clipPath></defs></svg>