<svg xmlns="http://www.w3.org/2000/svg" width="24" height="25" fill="none" viewBox="0 0 24 25"><g clip-path="url(#a)"><path fill="#f0f0f0" d="M23.254 16.504c.482-1.3.746-2.706.746-4.174s-.264-2.874-.746-4.174L12 7.113.746 8.156A12 12 0 0 0 0 12.33c0 1.468.264 2.874.746 4.174L12 17.547z"/><path fill="#d80027" d="M12 24.33c5.16 0 9.558-3.256 11.253-7.826H.746C2.442 21.074 6.84 24.33 12 24.33"/><path fill="#6da544" d="M12 .33C6.84.33 2.442 3.587.746 8.156h22.507C21.558 3.586 17.16.33 12 .33"/><path fill="currentColor" d="M3.515 3.845c-4.687 4.686-4.687 12.284 0 16.97l4.311-4.311V8.156z"/></g><defs><clipPath id="a"><path fill="#fff" d="M0 .33h24v24H0z"/></clipPath></defs></svg>