<svg xmlns="http://www.w3.org/2000/svg" width="35" height="24" fill="none" viewBox="0 0 35 24"><g clip-path="url(#a)"><path fill="#c60a0a" d="M0 0h35v24H0z"/><path fill="#3e8446" d="M17.501 12.004 3.043 20.87V3.129z"/><path fill="#ffda44" d="m17.501 12.004 14.458 8.867H3.043zm14.458-8.875-14.458 8.875L3.043 3.129z"/><path fill="#3e8446" d="M31.958 3.13v17.74L17.5 12.005z"/><path fill="#ffda44" d="m17.501.731.226.718h.731l-.588.443.226.717-.595-.443-.595.443.226-.717-.588-.443h.731zm-5.872 0 .226.718h.73l-.587.443.226.717-.595-.443-.595.443.226-.717-.588-.443h.731L11.63.73Zm11.744 0 .226.718h.738l-.595.443.226.717-.595-.443-.595.443.226-.717-.588-.443h.732zm-5.872 20.66.226.717h.731l-.588.443.226.718-.595-.443-.595.443.226-.718-.588-.443h.731zm-5.872 0 .226.717h.73l-.587.443.226.718-.595-.443-.595.443.226-.718-.588-.443h.731zm11.744 0 .226.717h.738l-.595.443.226.718-.595-.443-.595.443.226-.718-.588-.443h.732z"/><path fill="#c60a0a" d="M16.713 17.362c2.877 0 5.209-2.4 5.209-5.358 0-2.96-2.332-5.359-5.21-5.359-2.876 0-5.208 2.4-5.208 5.359s2.332 5.358 5.209 5.358"/><path fill="#ffda44" d="m16.714 7.742.93 2.94h3.008l-2.434 1.814.93 2.94-2.434-1.815-2.427 1.814.93-2.94-2.434-1.813h3.008zM7.363 11.8c.3.485.157 1.132-.315 1.441a1 1 0 0 1-1.401-.323c-.54-.88-.226-2.32-.226-2.32s1.395.323 1.941 1.202Z"/><path fill="#a2001d" d="M6.773 13.325c.28 0 .506-.232.506-.52a.513.513 0 0 0-.506-.52.513.513 0 0 0-.505.52c0 .287.226.52.505.52"/></g><defs><clipPath id="a"><rect width="35" height="24" fill="#fff" rx="4"/></clipPath></defs></svg>