<svg xmlns="http://www.w3.org/2000/svg" width="35" height="24" fill="none" viewBox="0 0 35 24"><g clip-path="url(#a)"><path fill="#2b5dea" d="M0 0h35v24H0z"/><path fill="#ffdf29" d="M0 4h35v16H0z"/><path fill="#d70000" d="M0 6h35v12H0z"/><path fill="#fff" d="M17.5 6.856v10.288c4.445 0 6.666-3.428 8.334-5.144-1.668-1.716-3.889-5.144-8.334-5.144"/><path fill="currentColor" d="M17.5 6.856c-3.889 0-6.666 3.428-8.334 5.144 1.668 1.716 4.445 5.144 8.334 5.144z"/><path fill="#fff" d="M13.467 10.172h.816v3.652h-.816zm2.018 0h.817v3.652h-.817z"/><path fill="currentColor" d="M18.582 10.172h.817v3.652h-.817zm2.018 0h.817v3.652H20.6z"/></g><defs><clipPath id="a"><rect width="35" height="24" fill="#fff" rx="4"/></clipPath></defs></svg>