<svg xmlns="http://www.w3.org/2000/svg" width="35" height="24" fill="none" viewBox="0 0 35 24"><g clip-path="url(#a)"><path fill="#0052b4" d="M0 0h35v24H0z"/><path fill="#fff" d="M30.026 12.709c-.007 2.75-.437 5.712-3.916 7.122-3.487-1.41-3.91-4.371-3.917-7.122z"/><path fill="#29dbff" d="M29.992 13.874c-.191 2.449-.846 4.73-3.89 5.965-3.029-1.235-3.718-3.593-3.881-5.958"/><path fill="#fff" d="M29.87 15.024c-.218 1.706-1.14 3.755-3.76 4.815-2.62-1.06-3.445-2.983-3.758-4.8"/><path fill="#29dbff" d="M29.624 16.161c-.389 1.242-1.317 2.765-3.5 3.706-2.183-.885-3.084-2.372-3.507-3.72"/><path fill="#fff" d="M29.111 17.326c-.443.793-1.207 1.783-3.002 2.52-1.876-.807-2.551-1.776-3.002-2.534"/><path fill="#29dbff" d="M28.137 18.604c-.553.505-.819.786-2.02 1.256-1.371-.555-1.542-.814-1.992-1.228"/><path fill="#5cc85c" d="M26.15 16.253c-.013-.014-1.903 2.505-1.903 2.505-.123-.091-.682-.667-.907-1.053l2.818-3.515 2.742 3.487c-.266.456-.777.955-.9 1.053zm-.047-10.267-1.808 3.158h3.616z"/><path fill="#f7a226" d="M20.945 15.988c.246-1.87-.03-3.453-.616-3.535-.586-.081-1.261 1.369-1.507 3.24-.246 1.87.03 3.452.616 3.534.587.081 1.261-1.37 1.507-3.24Z"/><path fill="#ddc7ab" d="M21.137 11.744c.165-.42.094-.846-.158-.95s-.59.152-.753.573c-.165.421-.094.846.158.95.251.105.589-.152.753-.573M20.124 19.1c.062-.438.012-.807-.111-.825-.123-.019-.273.32-.335.758-.062.437-.012.807.111.825s.273-.321.335-.758m.357.577c.124-.007.207-.358.185-.784-.023-.425-.141-.765-.265-.758s-.207.358-.185.783.14.766.265.759m1.32-4.669c.144-.059.107-.506-.082-1-.19-.494-.46-.848-.603-.79-.144.059-.107.507.082 1 .19.495.46.848.603.79m-.037-2.242c.48-.195.824-.472.767-.62s-.492-.11-.972.085c-.48.194-.824.472-.767.62s.492.11.972-.085"/><path fill="#f7a226" d="M32.758 19.241c.587-.081.863-1.664.617-3.534s-.92-3.32-1.507-3.24c-.586.082-.862 1.665-.616 3.535s.92 3.32 1.506 3.24Z"/><path fill="#ddc7ab" d="M31.819 12.335c.252-.104.322-.53.158-.95-.165-.421-.502-.678-.754-.574-.251.104-.322.53-.158.95.165.421.502.678.754.574m.591 7.536c.123-.018.172-.388.11-.825s-.211-.777-.334-.758c-.123.018-.173.387-.111.825s.211.777.334.758Zm-.428-.941c.022-.425-.06-.776-.185-.783-.124-.007-.242.333-.265.759-.022.425.06.776.185.783.124.007.243-.333.265-.759m-.984-4.706c.19-.494.226-.942.083-1s-.414.295-.603.789c-.19.494-.227.941-.083 1 .144.058.414-.295.603-.79Zm.41-1.362c.057-.148-.287-.425-.767-.62s-.915-.233-.972-.085.287.425.767.62.915.233.972.085"/><path fill="#b0c6cc" d="m25.468 9.144-1.173 1.733 1.214 1.832h1.508l.32-1.783-.368-1.782h-1.5Z"/><path fill="#fff" d="M17.466 0v8.239H14.32l3.145 2.154v1.586h-1.542l-5.008-3.432v3.432H6.55V8.547L1.542 11.98H0v-1.586L3.145 8.24H0V3.747h3.145L0 1.593V0h1.542L6.55 3.432V0h4.366v3.432L15.924 0z"/><path fill="#d80027" d="M9.825 0H7.64v4.87H0v2.246h7.641v4.863h2.184V7.116h7.64V4.87h-7.64z"/><path fill="#2e52b2" d="M17.465 1.593v2.154H14.32z"/><path fill="#d80027" d="M0 11.979v-.772L4.264 8.24h1.542L.498 11.98H0ZM.498.007 5.806 3.74H4.264L0 .78V.007zm16.968 0v.772l-4.264 2.968H11.66l5.308-3.74zm-.498 11.972-5.308-3.74h1.542l4.264 2.968v.772z"/></g><defs><clipPath id="a"><rect width="35" height="24" fill="#fff" rx="4"/></clipPath></defs></svg>