<svg xmlns="http://www.w3.org/2000/svg" width="24" height="25" fill="none" viewBox="0 0 24 25"><g clip-path="url(#a)"><path fill="#f0f0f0" d="M12 24.33c6.627 0 12-5.373 12-12 0-6.628-5.373-12-12-12s-12 5.372-12 12c0 6.626 5.373 12 12 12"/><path fill="#d80027" d="M11.479 12.33H24a12 12 0 0 0-.413-3.131H11.479zm0-6.262h10.76a12 12 0 0 0-2.769-3.13h-7.991zm.522 18.261c2.824 0 5.42-.976 7.47-2.609H4.53A11.95 11.95 0 0 0 12 24.329ZM1.762 18.59h20.477a12 12 0 0 0 1.348-3.13H.414a11.9 11.9 0 0 0 1.348 3.13"/><path fill="#0052b4" d="M5.559 2.203h1.093l-1.017.74.389 1.195-1.018-.74-1.017.74.336-1.033c-.896.746-1.68 1.62-2.328 2.594h.35l-.647.47q-.15.253-.29.513l.31.951-.578-.419q-.214.457-.392.932l.34 1.048h1.258l-1.017.74.388 1.195-1.017-.739-.61.443q-.091.736-.092 1.496h12v-12c-2.37 0-4.58.688-6.441 1.874m.465 8.926-1.018-.739-1.017.74.389-1.197-1.017-.739h1.257L5.006 8l.389 1.195h1.257l-1.017.74.389 1.195Zm-.389-4.691.389 1.195-1.018-.739-1.017.74.389-1.196-1.017-.74h1.257l.388-1.195.389 1.196h1.257zm4.693 4.691L9.31 10.39l-1.017.74.388-1.197-1.017-.739h1.257L9.311 8l.388 1.195h1.258l-1.018.74.389 1.195Zm-.389-4.691.389 1.195-1.017-.739-1.017.74.388-1.196-1.017-.74h1.257l.389-1.195.388 1.196h1.258zm0-3.496.389 1.196-1.017-.74-1.017.74.388-1.196-1.017-.739h1.257l.389-1.196.388 1.196h1.258l-1.018.74Z"/></g><defs><clipPath id="a"><path fill="#fff" d="M0 .33h24v24H0z"/></clipPath></defs></svg>