<svg xmlns="http://www.w3.org/2000/svg" width="24" height="25" fill="none" viewBox="0 0 24 25"><g clip-path="url(#a)"><path fill="#f0f0f0" d="M24 12.024c0-1.467-.264-2.874-.746-4.173L12 7.329.746 7.85A12 12 0 0 0 0 12.024c0 1.468.264 2.874.746 4.174L12 16.72l11.254-.522c.482-1.3.746-2.706.746-4.174"/><path fill="#0052b4" d="M12 24.024c5.16 0 9.558-3.256 11.253-7.826H.746C2.442 20.768 6.84 24.024 12 24.024"/><path fill="#d80027" d="M.746 7.85h22.507C21.558 3.28 17.16.025 12 .025 6.84.024 2.442 3.281.746 7.851Z"/><path fill="#338af3" d="M15.13 8.372h-2.087l.348-2.608 1.391-1.044 1.391 1.044V7.85zm-6.26 0h2.087l-.348-2.608L9.217 4.72l-1.39 1.044V7.85z"/><path fill="#0052b4" d="M13.392 8.372H10.61V5.764l1.392-1.044 1.391 1.044z"/><path fill="#f0f0f0" d="M7.826 7.85v5.74a4.17 4.17 0 0 0 1.678 3.343l.73-.182.923.927a4.2 4.2 0 0 0 1.682 0l1.052-.875.605.129a4.17 4.17 0 0 0 1.678-3.342V7.85z"/><path fill="#d80027" d="M7.826 7.85h1.67v1.67h-1.67zm3.34 0h1.67v1.67h-1.67zm3.338 0h1.67v1.67h-1.67zM9.496 9.52h1.67v1.67h-1.67zm3.338 0h1.67v1.67h-1.67zm-5.008 1.67h1.67v1.669h-1.67zm1.67 1.669h1.67v1.67h-1.67zM11.166 11.19h1.67v1.669h-1.67zm3.338 0h1.67v1.669h-1.67zm-1.67 1.669h1.67v1.67h-1.67z"/><path fill="#d80027" d="M11.166 14.528h1.67v1.67h-1.67zm-1.671 0H7.934c.143.62.424 1.189.81 1.67h.751zm5.009 1.67h.75a4.2 4.2 0 0 0 .812-1.67h-1.562zm-5.008 0v.728a4.16 4.16 0 0 0 1.67.754v-1.482z"/><path fill="#d80027" d="M12.834 16.198v1.482a4.16 4.16 0 0 0 1.67-.754v-.728z"/></g><defs><clipPath id="a"><path fill="#fff" d="M0 .024h24v24H0z"/></clipPath></defs></svg>