<svg xmlns="http://www.w3.org/2000/svg" width="24" height="25" fill="none" viewBox="0 0 24 25"><g clip-path="url(#a)"><path fill="#0052b4" d="M24 12.023c0 6.628-5.373 12-12 12s-12-5.372-12-12c0 .003 12-11.998 12-12 6.627 0 12 5.373 12 12"/><path fill="#f0f0f0" d="M11.969 12.023H12v-.032zM12 6.284V.024h-.002C5.371.023 0 5.396 0 12.023h6.26V8.497l3.526 3.525h2.182L12 11.99V9.81L8.474 6.284z"/><path fill="#d80027" d="M6.07 1.589a12.06 12.06 0 0 0-4.506 4.505v5.93h3.13V4.718H12V1.59z"/><path fill="#d80027" d="M11.999 10.548 7.735 6.284H6.26l5.739 5.74z"/><path fill="#acabb1" d="m18.783 7.328-1.565.522-1.565-.522-.522-1.305.522-1.304h3.13l-.522 1.304z"/><path fill="#338af3" d="M13.565 7.328v5.739c0 2.796 3.652 3.652 3.652 3.652s3.652-.857 3.652-3.652v-5.74h-7.304Z"/><path fill="#6da544" d="M13.895 14.427c.897 1.723 3.323 2.292 3.323 2.292s2.425-.569 3.323-2.292l-3.323-5.534z"/><path fill="#ffda44" d="m20.869 13.009-3.652-5.681-3.652 5.68v.059c0 .517.125.968.329 1.36l3.323-5.17 3.323 5.17c.204-.392.329-.843.329-1.36z"/></g><defs><clipPath id="a"><path fill="#fff" d="M0 .023h24v24H0z"/></clipPath></defs></svg>