<svg xmlns="http://www.w3.org/2000/svg" width="35" height="24" fill="none" viewBox="0 0 35 24"><g clip-path="url(#a)"><path fill="currentColor" d="M0 0h35v24H0z"/><path fill="#ffda44" d="M0 3.436h35v3.436H0zM0 17.18h35v3.436H0z"/><path fill="#057f44" d="M0 0h35v3.436H0z"/><path fill="#d80027" d="M0 6.872h35v3.436H0zm0 6.872h35v3.436H0z"/><path fill="#057f44" d="M0 20.616h35V24H0z"/><path fill="#fff" d="M18.935 12 7.269 24H0V0h7.269z"/><path fill="currentColor" d="M17.5 12 5.835 24H7.27l11.666-12L7.27 0H5.834z"/><path fill="#d80027" d="m7.004 8.243.907 2.87h2.933l-2.373 1.774.907 2.87-2.374-1.774-2.373 1.773.906-2.87-2.373-1.773h2.934z"/><path fill="#ffda44" d="m9.499 12.235-2.363-.861s-.174-1.685-.185-1.742a.92.92 0 0 0-.897-.763.926.926 0 0 0-.913.94 1 1 0 0 0 .033.248l-.662.685h1.177c0 1.258-.912 1.258-.912 2.51l.506 1.252h3.044l.507-1.252q.075-.176.094-.368c.438-.182.57-.65.57-.65Z"/></g><defs><clipPath id="a"><rect width="35" height="24" fill="#fff" rx="4"/></clipPath></defs></svg>