<svg xmlns="http://www.w3.org/2000/svg" width="35" height="25" fill="none" viewBox="0 0 35 25"><g clip-path="url(#a)"><path fill="#ffda44" d="M0 .063h35v24H0z"/><path fill="#fff" d="M17.5.063H35v24H17.5z"/><path fill="#acabb1" d="m21.968 10.505 2.192 2.983a1.6 1.6 0 0 0 .056 1.807c.507.69 1.461.826 2.132.304.67-.52.803-1.502.296-2.192a1.5 1.5 0 0 0-1.674-.548l-3.418-4.65-.809.63-1.214.943 1.224 1.665zm3.156 3.43a.5.5 0 0 1 .563-.034.51.51 0 0 1 .234.318.54.54 0 0 1-.185.548.497.497 0 0 1-.71-.101.533.533 0 0 1 .098-.731"/><path fill="#ffda44" d="m25.729 11.447 1.223-1.665-1.214-.944-.81-.629-3.416 4.65a1.5 1.5 0 0 0-1.675.548 1.595 1.595 0 0 0 .297 2.193c.67.52 1.624.384 2.131-.305.4-.544.401-1.269.056-1.807l2.192-2.983zm-4.273 3.218a.497.497 0 0 1-.71.102.533.533 0 0 1 .05-.866.5.5 0 0 1 .692.186.53.53 0 0 1-.032.578"/></g><defs><clipPath id="a"><rect width="35" height="24" y=".063" fill="#fff" rx="4"/></clipPath></defs></svg>