<svg xmlns="http://www.w3.org/2000/svg" width="24" height="25" fill="none" viewBox="0 0 24 25"><g clip-path="url(#a)"><path fill="#f0f0f0" d="M23.254 16.22c.482-1.3.746-2.706.746-4.174s-.264-2.874-.746-4.174L12 6.828.746 7.872A12 12 0 0 0 0 12.046c0 1.468.264 2.874.746 4.174L12 17.263z"/><path fill="#338af3" d="M12 24.046c5.16 0 9.558-3.256 11.253-7.826H.746C2.442 20.79 6.84 24.046 12 24.046"/><path fill="#6da544" d="M12 .046C6.84.046 2.442 3.302.746 7.872h22.507C21.558 3.302 17.16.046 12 .046"/></g><defs><clipPath id="a"><path fill="#fff" d="M0 .046h24v24H0z"/></clipPath></defs></svg>