<svg xmlns="http://www.w3.org/2000/svg" width="24" height="25" fill="none" viewBox="0 0 24 25"><g clip-path="url(#a)"><path fill="#ffda44" d="M12 24.07c6.627 0 12-5.373 12-12 0-6.628-5.373-12-12-12s-12 5.372-12 12c0 6.627 5.373 12 12 12"/><path fill="#0052b4" d="M9.39 10.504h14.508C23.13 4.616 18.096.07 11.999.07c-.896 0-1.768.1-2.608.286v10.15Zm-3.13 0V1.528a12 12 0 0 0-6.158 8.976zm0 3.13H.103A12 12 0 0 0 6.26 22.61zm3.13.001v10.15c.84.185 1.713.284 2.61.284 6.096 0 11.13-4.547 11.898-10.434z"/></g><defs><clipPath id="a"><path fill="#fff" d="M0 .07h24v24H0z"/></clipPath></defs></svg>