<svg xmlns="http://www.w3.org/2000/svg" width="24" height="25" fill="none" viewBox="0 0 24 25"><g clip-path="url(#a)"><path fill="#f0f0f0" d="M12 24.047c6.627 0 12-5.373 12-12 0-6.628-5.373-12-12-12s-12 5.372-12 12c0 6.627 5.373 12 12 12"/><path fill="#ffda44" d="M20.1 3.194A11.96 11.96 0 0 0 12 .047q-.769 0-1.51.094L4.695 6.83.379 15.053a12 12 0 0 0 1.255 3.043l10.365-6.05 8.1-8.852Z"/><path fill="#6da544" d="m21.99 18.696-16.789 3.24A11.94 11.94 0 0 0 12 24.046c4.168 0 7.84-2.125 9.99-5.35"/><path fill="#d80027" d="M20.103 3.196 1.643 18.108a12 12 0 0 0 1.719 2.267l20.639-8.328c0-3.504-1.503-6.658-3.898-8.851"/><path fill="#0052b4" d="M0 12.047c0 1.038.132 2.045.38 3.006L10.49.141C4.577.883 0 5.931 0 12.047"/></g><defs><clipPath id="a"><path fill="#fff" d="M0 .047h24v24H0z"/></clipPath></defs></svg>