<svg xmlns="http://www.w3.org/2000/svg" width="24" height="25" fill="none" viewBox="0 0 24 25"><g clip-path="url(#a)"><path fill="#f0f0f0" d="M.567 8.678A12 12 0 0 0 0 12.33c0 1.274.2 2.5.567 3.652L12 16.504l11.433-.522c.368-1.151.567-2.378.567-3.652s-.2-2.5-.567-3.652L12 8.156z"/><path fill="#d80027" d="M23.433 8.678 12 8.156.566 8.678q-.162.512-.28 1.043h23.428a12 12 0 0 0-.28-1.043ZM.285 14.939q.118.531.281 1.043h.002L12 16.504l11.433-.522q.164-.512.281-1.043z"/><path fill="#6da544" d="M12 24.33c5.354 0 9.888-3.506 11.433-8.348H.566C2.112 20.824 6.646 24.33 12 24.33"/><path fill="#338af3" d="M12 .33C6.646.33 2.112 3.837.566 8.678h22.867C21.888 3.836 17.353.33 12 .33"/><path fill="#f0f0f0" d="M5.483 5.287a2.35 2.35 0 0 1 1.845-2.294 2.348 2.348 0 1 0 0 4.586 2.35 2.35 0 0 1-1.845-2.292m3.231 1.067.16.489h.514l-.417.302.16.49-.417-.303-.416.302.16-.489-.417-.302h.514l.16-.49Zm1.643 0 .159.489h.514l-.416.302.159.49-.416-.303-.416.302.159-.489-.416-.302h.514l.159-.49Zm1.641 0 .158.489h.515l-.416.302.159.49-.416-.303-.417.302.16-.489-.417-.302h.515l.159-.49Zm1.642 0 .16.489h.513l-.416.302.16.49-.417-.303-.416.302.159-.489-.416-.302h.514l.16-.49Zm1.64 0 .16.489h.514l-.416.302.159.49-.416-.303-.417.302.16-.489-.417-.302h.515l.159-.49Zm-4.923-1.708.159.49h.514l-.416.302.159.489-.416-.302-.416.302.159-.49-.416-.302h.514zm1.641 0 .158.49h.515l-.416.302.159.489-.416-.302-.417.302.16-.49-.417-.302h.515zm1.642 0 .16.49h.513l-.416.302.16.489-.417-.302-.416.302.159-.49-.416-.302h.514zm1.64 0 .16.49h.514l-.416.302.159.489-.416-.302-.417.302.16-.49-.417-.302h.515l.159-.489Zm-3.282-1.707.158.489h.515l-.416.302.159.49-.416-.303-.417.302.16-.489-.417-.302h.515l.159-.49Zm1.642 0 .16.489h.513l-.416.302.16.49-.417-.303-.416.302.159-.489-.416-.302h.514l.16-.49Zm1.64 0 .16.489h.514l-.416.302.159.49-.416-.303-.417.302.16-.489-.417-.302h.515l.159-.49Z"/></g><defs><clipPath id="a"><path fill="#fff" d="M0 .33h24v24H0z"/></clipPath></defs></svg>