<svg xmlns="http://www.w3.org/2000/svg" width="24" height="25" fill="none" viewBox="0 0 24 25"><g clip-path="url(#a)"><path fill="#d80027" d="M23.254 16.186c.482-1.3.746-2.707.746-4.174s-.264-2.874-.746-4.174L12 6.794.746 7.838A12 12 0 0 0 0 12.012c0 1.467.264 2.874.746 4.174L12 17.229z"/><path fill="#ffda44" d="M12 24.012c5.16 0 9.558-3.257 11.253-7.826H.746C2.442 20.756 6.84 24.012 12 24.012"/><path fill="#f0f0f0" d="M12 .012C6.84.012 2.442 3.268.746 7.838h22.507C21.558 3.268 17.16.012 12 .012"/></g><defs><clipPath id="a"><path fill="#fff" d="M0 .012h24v24H0z"/></clipPath></defs></svg>