<svg xmlns="http://www.w3.org/2000/svg" width="24" height="24" fill="none" viewBox="0 0 24 24"><g clip-path="url(#a)"><path fill="#f0f0f0" d="M12 24c6.627 0 12-5.373 12-12S18.627 0 12 0 0 5.373 0 12s5.373 12 12 12"/><path fill="#6da544" d="M20.398 3.429A11.96 11.96 0 0 0 12.001 0c-1.043 0-4.096 1.308-6.26 3.429zM12 10.286h11.878a12 12 0 0 0-1.033-3.429H11.479zM1.156 17.143h21.69a12 12 0 0 0 1.032-3.429H.123a12 12 0 0 0 1.033 3.429m2.448 3.428A11.96 11.96 0 0 0 12 24a11.96 11.96 0 0 0 8.397-3.429z"/><path fill="#d80027" d="M12 0C5.956 0 .956 4.47.124 10.286h11.878V0Z"/><path fill="#f0f0f0" d="m6 9.2-.52-1.043V6.07l1.304-1.044L8.087 6.07v1.565l.522-.522v1.044L7.565 9.2zM3.195 6l.138.425h.447l-.362.263.138.425-.361-.263-.362.263.138-.425-.362-.263h.447zm1.042-1.043.139.425h.447l-.362.263.138.425-.362-.263-.361.263.138-.425-.362-.263H4.1zm1.045-1.044.139.425h.446l-.361.263.138.425-.362-.263-.361.263.138-.425-.362-.263h.447zM10.372 6l-.138.425h-.447l.362.263-.138.425.361-.263.362.263-.138-.425.361-.263h-.447zM9.33 4.957l-.139.425h-.447l.362.263-.138.425.361-.263.362.263-.138-.425.361-.263h-.447zM8.284 3.913l-.138.425H7.7l.362.263-.138.425.361-.263.362.263-.138-.425.361-.263h-.447l-.138-.425Zm-1.502-.522-.138.426h-.447l.362.262-.138.425.361-.262.362.262-.138-.425.361-.262h-.446z"/></g><defs><clipPath id="a"><path fill="#fff" d="M0 0h24v24H0z"/></clipPath></defs></svg>