<svg xmlns="http://www.w3.org/2000/svg" width="24" height="25" fill="none" viewBox="0 0 24 25"><g clip-path="url(#a)"><path fill="#f0f0f0" d="M12 24.49c6.627 0 12-5.372 12-12 0-6.627-5.373-12-12-12s-12 5.373-12 12c0 6.628 5.373 12 12 12"/><path fill="#0052b4" d="M.414 15.62a12 12 0 0 0 4.282 6.39v-6.39zm10.543 8.825q.516.045 1.043.045c5.545 0 10.21-3.76 11.587-8.87h-12.63zM23.587 9.36C22.21 4.25 17.545.49 12.001.49q-.528 0-1.044.046V9.36zM4.696 2.97A12 12 0 0 0 .414 9.36h4.282z"/><path fill="#d80027" d="M23.898 10.925H9.391V.775a12 12 0 0 0-3.13 1.174v8.976H.1a12 12 0 0 0 0 3.13h6.16v8.976c.97.53 2.021.928 3.13 1.174v-10.15h14.507a12.1 12.1 0 0 0 0-3.13Z"/></g><defs><clipPath id="a"><path fill="#fff" d="M0 .49h24v24H0z"/></clipPath></defs></svg>