<svg xmlns="http://www.w3.org/2000/svg" width="35" height="25" fill="none" viewBox="0 0 35 25"><g clip-path="url(#a)"><path fill="#d80027" d="M0 .7h35v24H0z"/><path fill="#6da544" d="M34.932.7H0v24"/><path fill="#ffda44" d="M20.993.7 0 14.35V24.7h14.116L35 11.123V.7z"/><path fill="currentColor" d="M35 .7h-8.72L0 18.203v6.428l8.61.07L35 7.13z"/><path fill="#fff" d="m9.626 13.824 2.129 1.684 2.203-1.558-.893 2.596 2.122 1.678-2.675-.078-.9 2.597-.758-2.639-2.674-.077 2.203-1.558zM21.19 5.669l2.13 1.677 2.203-1.558-.894 2.597 2.122 1.677-2.675-.077-.9 2.597-.757-2.64-2.675-.076 2.21-1.558z"/></g><defs><clipPath id="a"><rect width="35" height="24" y=".701" fill="#fff" rx="4"/></clipPath></defs></svg>