<svg xmlns="http://www.w3.org/2000/svg" width="35" height="25" fill="none" viewBox="0 0 35 25"><g clip-path="url(#a)"><path fill="#0052b4" d="M0 .3h35v24H0z"/><path fill="#d80027" d="M35 .3v11.72l-35 .293V.3z"/><path fill="#fff" d="M17.5 12.3 0 24.3V.3z"/><path fill="#ffda44" d="M4.076 12.3a4 4 0 0 0-.013.322c0 2.307 1.818 4.178 4.062 4.178s4.063-1.87 4.063-4.178q-.001-.163-.014-.322zm4.049-1.928c.69 0 1.25-.576 1.25-1.286S8.815 7.8 8.125 7.8s-1.25.576-1.25 1.286.56 1.286 1.25 1.286"/><path fill="#d80027" d="M5.313 8.765v4.178c0 2.215 2.812 2.893 2.812 2.893s2.813-.678 2.813-2.893V8.765z"/><path fill="#338af3" d="M8.126 14.49c-.521-.193-1.563-.686-1.563-1.547V10.05h3.125v2.893c0 .864-1.043 1.356-1.562 1.547"/><path fill="#f3f3f3" d="M8.75 11.657v-.642l-.625-.322-.625.322v.642l-.313.322v1.286h1.875v-1.286z"/></g><defs><clipPath id="a"><rect width="35" height="24" y=".3" fill="#fff" rx="4"/></clipPath></defs></svg>