<svg xmlns="http://www.w3.org/2000/svg" width="24" height="25" fill="none" viewBox="0 0 24 25"><g clip-path="url(#a)"><path fill="#f0f0f0" d="M12 24.06c6.627 0 12-5.373 12-12 0-6.628-5.373-12-12-12s-12 5.372-12 12c0 6.627 5.373 12 12 12"/><path fill="#0052b4" d="M12 24.06c6.627 0 12-5.373 12-12 0-1.468-.264-2.874-.746-4.174H.746A12 12 0 0 0 0 12.059c0 6.628 5.373 12 12 12Z"/><path fill="#d80027" d="M12 24.06c5.16 0 9.558-3.257 11.253-7.826H.746C2.442 20.803 6.84 24.06 12 24.06"/><path fill="#f0f0f0" d="M3.104 6.842v5.986c0 3.406 4.448 4.449 4.448 4.449S12 16.234 12 12.828V6.842z"/><path fill="#d80027" d="M4.146 6.842v5.986q.001.6.265 1.132h6.28a2.5 2.5 0 0 0 .265-1.132V6.842z"/><path fill="#f0f0f0" d="M9.639 11.016H8.074V9.973h1.043V8.929H8.074V7.886H7.03v1.043H5.987v1.044H7.03v1.043H5.465v1.043H7.03v1.044h1.044V12.06h1.565z"/><path fill="#0052b4" d="M5.835 15.416a7.5 7.5 0 0 0 1.717.777 7.5 7.5 0 0 0 1.717-.777q1.018-.64 1.424-1.456a1.82 1.82 0 0 0-1.469-.287 1.826 1.826 0 0 0-3.343 0 1.83 1.83 0 0 0-1.469.287q.406.816 1.423 1.456"/></g><defs><clipPath id="a"><path fill="#fff" d="M0 .06h24v24H0z"/></clipPath></defs></svg>