<svg xmlns="http://www.w3.org/2000/svg" width="35" height="25" fill="none" viewBox="0 0 35 25"><g clip-path="url(#a)"><path fill="#fff" d="M0 .167h35v24H0z"/><path fill="#0052b4" d="M0 .167h35v8H0zm0 16h35v8H0z"/><path fill="#ffda44" d="m15.625 12.584 1.874-3.339 1.875 3.34z"/><path fill="#6da544" d="m19.934 13.687-2.435 1.252-2.434-1.252v-1.67h4.869z"/><path fill="#ffda44" d="m19.796 9.389-.861.885c.367.378.594.9.594 1.476 0 1.152-.908 2.087-2.029 2.087s-2.029-.935-2.029-2.087c0-.576.227-1.098.595-1.476l-.861-.885a3.38 3.38 0 0 0-.951 2.36c0 1.845 1.453 3.34 3.246 3.34s3.247-1.495 3.247-3.34c0-.921-.364-1.756-.951-2.36"/></g><defs><clipPath id="a"><rect width="35" height="24" y=".167" fill="#fff" rx="4"/></clipPath></defs></svg>