<svg xmlns="http://www.w3.org/2000/svg" width="24" height="25" fill="none" viewBox="0 0 24 25"><g clip-path="url(#a)"><path fill="#f0f0f0" d="M12 24.023c6.627 0 12-5.372 12-12 0-6.627-5.373-12-12-12s-12 5.373-12 12c0 6.628 5.373 12 12 12"/><path fill="#ffda44" d="M22.851 6.895a12 12 0 0 0-2.447-3.436L12 2.632l-8.405.827-.08.08 3.357 3.356L12 7.052zM3.516 20.508l.133.132 8.351.775 8.351-.775a12 12 0 0 0 2.476-3.437L7.304 16.72l-3.788 3.789Z"/><path fill="currentColor" d="M23.88 10.332 9.912 9.937 12 12.024 9.912 14.11l13.96-.343a12 12 0 0 0 .008-3.437Z"/><path fill="#6da544" d="M12 .023A11.96 11.96 0 0 0 3.596 3.46h16.81A11.96 11.96 0 0 0 12 .023"/><path fill="#d80027" d="M10.31 10.332h13.572a12 12 0 0 0-1.03-3.436H6.873zm-3.49 6.872h16.008c.511-1.068.87-2.223 1.046-3.436H10.256z"/><path fill="#6da544" d="M12 24.023c3.246 0 6.19-1.29 8.35-3.383H3.649A11.96 11.96 0 0 0 12 24.023"/><path fill="currentColor" d="M4.286 2.833q-.4.336-.77.705L12 12.024l-8.485 8.485q.37.368.77.705l9.19-9.19z"/><path fill="#d80027" d="m4.825 8.893.777 2.391h2.514l-2.034 1.478.777 2.392-2.034-1.478-2.035 1.478.777-2.392-2.034-1.478h2.515z"/><path fill="#ffda44" d="m6.962 12.22-2.025-.718s-.15-1.404-.159-1.451a.783.783 0 1 0-1.523.353l-.567.572h1.009c0 1.047-.782 1.047-.782 2.091l.434 1.043h2.609l.434-1.043q.065-.15.081-.307c.375-.151.489-.54.489-.54"/></g><defs><clipPath id="a"><path fill="#fff" d="M0 .023h24v24H0z"/></clipPath></defs></svg>