<svg xmlns="http://www.w3.org/2000/svg" width="35" height="25" fill="none" viewBox="0 0 35 25"><g clip-path="url(#a)"><path fill="#fff" d="M0 .77h35v24H0z"/><path fill="#d80027" d="M0 .77h35v8H0z"/><path fill="#0052b4" d="M0 16.77h35v8H0z"/><path fill="#338af3" d="M21.102 8.714V5.627l1.194-1.01 1.208 1.01v3.087zm-7.204 0V5.627l-1.18-1.01-1.222 1.01v3.087zm2.401 0V5.627l1.201-1.01 1.2 1.01v3.087h-2.4Z"/><path fill="#0052b4" d="M21.103 8.714h-2.401V5.627l1.193-1.01 1.208 1.01zm-4.803 0h-2.402V5.627l1.194-1.01 1.208 1.01z"/><path fill="#fff" stroke="#d80027" d="M11.496 8.714v7.151c0 1.705.982 3.242 2.415 4.169 1.454.94 2.873 1.031 3.589 1.031s2.142-.12 3.589-1.038c1.432-.913 2.415-2.463 2.415-4.162v-7.15z"/><path fill="#d80027" d="M11.496 8.714h2.402v2.47h-2.402zm4.803 0h2.402v2.47h-2.402zm4.803 0h2.402v2.47h-2.402zm-7.204 2.47h2.401v2.47h-2.401zm4.803 0h2.401v2.47h-2.401zm-7.205 2.47h2.402v2.47h-2.402zm2.402 2.47h2.401v2.471h-2.401v-2.47Zm2.401-2.47h2.402v2.47h-2.402zm4.803 0h2.402v2.47h-2.402zm-2.401 2.47h2.401v2.471h-2.401v-2.47Zm2.401 3.896a5.5 5.5 0 0 0 1.501-1.425h-1.5v1.425Zm-8.705-1.425a5.5 5.5 0 0 0 1.5 1.432v-1.432zm3.902 0v2.365c.491.084.908.105 1.201.105s.71-.02 1.2-.112v-2.358h-2.4Z"/></g><defs><clipPath id="a"><rect width="35" height="24" y=".771" fill="#fff" rx="4"/></clipPath></defs></svg>