<svg xmlns="http://www.w3.org/2000/svg" width="24" height="25" fill="none" viewBox="0 0 24 25"><g clip-path="url(#a)"><path fill="#fcfcfc" d="M12 24.33c6.627 0 12-5.373 12-12 0-6.628-5.373-12-12-12s-12 5.372-12 12c0 6.626 5.373 12 12 12"/><path fill="#ffda44" d="M14.038 8.712a2.038 2.038 0 0 0-4.076 0H5.48c0 1.109.965 2.007 2.073 2.007h-.067c0 1.108.899 2.007 2.007 2.007 0 .981.705 1.796 1.635 1.97l-.005.012h1.756l-.005-.011a2.006 2.006 0 0 0 1.636-1.971 2.007 2.007 0 0 0 2.006-2.007h-.067c1.109 0 2.074-.898 2.074-2.007z"/><path fill="#ffda44" d="M11.104 14.5 9.84 17.354a5.7 5.7 0 0 0 2.16.422 5.7 5.7 0 0 0 2.159-.422L12.895 14.5z"/><path fill="#f0f0f0" d="M9.39 9.715v3.51c0 1.997 2.61 2.609 2.61 2.609s2.608-.612 2.608-2.609v-3.51z"/><path fill="#338af3" d="m2.91 12.414 1.41 3.946 1.396-3.946h1.066L4.746 17.63h-.852l-2.05-5.217zm16.393 5.216v-5.216h1.014v5.217z"/><path fill="#d80027" d="M10.435 10.848v4.254c.36.264.745.446 1.044.562v-4.816h-1.043Zm3.132 0v4.254a4.6 4.6 0 0 1-1.044.562v-4.816z"/><path fill="#0052b4" d="M9.39 9.715h5.218v1.655H9.391z"/></g><defs><clipPath id="a"><path fill="#fff" d="M0 .33h24v24H0z"/></clipPath></defs></svg>