<svg xmlns="http://www.w3.org/2000/svg" width="24" height="24" fill="none" viewBox="0 0 24 24"><g clip-path="url(#a)"><path fill="#f0f0f0" d="M12 24c6.627 0 12-5.373 12-12S18.627 0 12 0 0 5.373 0 12s5.373 12 12 12"/><path fill="#0052b4" d="M17.822 1.505A11.95 11.95 0 0 0 12 0C5.373 0 0 5.372 0 11.999l8.348-4.173 9.474-6.32ZM0 12.002C0 18.628 5.373 24 12 24c2.113 0 4.097-.547 5.822-1.505l-9.474-6.321z"/><path fill="#d80027" d="M18.822 2.127a12 12 0 0 0-1-.622L0 12v.003l17.821 10.493q.517-.288 1-.622L2.055 12l16.768-9.873Z"/><path fill="#a2001d" d="M20.87 11.552h-1.43a1.135 1.135 0 0 0-.07-1.528 1.136 1.136 0 0 0 0-1.607l-.027.027c.444-.443.47-1.19.027-1.633l-6.425 6.425a1.12 1.12 0 0 0 1.594-.005l.123-.113 3.077-.28v1.323h1.043v-1.418l1.566-.142.521-1.049Z"/><path fill="#ffda44" d="M13.044 14.609 12 14.087l1.044-.522h6.782v1.044z"/></g><defs><clipPath id="a"><path fill="#fff" d="M0 0h24v24H0z"/></clipPath></defs></svg>