<svg xmlns="http://www.w3.org/2000/svg" width="24" height="25" fill="none" viewBox="0 0 24 25"><g clip-path="url(#a)"><path fill="#d80027" d="M12 24.33c6.627 0 12-5.372 12-12 0-6.627-5.373-12-12-12s-12 5.373-12 12 5.373 12 12 12"/><path fill="#ffda44" d="m17.868 12.33-2.398 1.128 1.277 2.322-2.604-.498-.33 2.63L12 15.979l-1.813 1.935-.33-2.63-2.604.497 1.277-2.322-2.4-1.129 2.398-1.128L7.252 8.88l2.604.498.33-2.63 1.813 1.934 1.814-1.935.33 2.63 2.604-.497-1.277 2.322z"/><path fill="#d80027" d="M12 15.982a3.652 3.652 0 1 0 0-7.304 3.652 3.652 0 0 0 0 7.304"/><path fill="#ffda44" d="M10.175 12.33a3 3 0 0 0-.26.013c.002.506.185.969.488 1.329a3.7 3.7 0 0 1 .705-1.169 2.6 2.6 0 0 0-.933-.173m1.124 1.966a2.08 2.08 0 0 0 1.404 0A2.6 2.6 0 0 0 12 13.078a2.6 2.6 0 0 0-.702 1.218Zm2.509-3.009a2.086 2.086 0 0 0-3.615 0 3.6 3.6 0 0 1 1.808.491 3.63 3.63 0 0 1 1.807-.491m-.915 1.217c.303.338.544.734.705 1.168.302-.36.485-.823.489-1.329a2.6 2.6 0 0 0-1.194.16Z"/></g><defs><clipPath id="a"><path fill="#fff" d="M0 .33h24v24H0z"/></clipPath></defs></svg>