<svg xmlns="http://www.w3.org/2000/svg" width="35" height="24" fill="none" viewBox="0 0 35 24"><g clip-path="url(#a)"><path fill="#fff" d="M0 0h35v24H0z"/><path fill="currentColor" d="M0 0h35v6.369H0v-6.37Z"/><path fill="#496e2d" d="M0 17.631h35V24H0z"/><path fill="#a2001d" d="M0 7.965h35v8.071H0z"/><path fill="#fff" d="M22.099 3.83 20.349 3 17.5 9.636 14.651 3l-1.749.83L16.44 12l-3.538 8.17 1.75.83 2.848-6.637L20.35 21l1.749-.83L18.56 12z"/><path fill="#fff" d="M18.688 4.612c-.677-.76-1.188-1.197-1.188-1.197s-.51.437-1.188 1.197v14.775a14 14 0 0 0 1.188 1.197s.511-.437 1.188-1.197z"/><path fill="#a2001d" d="M14.29 7.446v9.108c.714 1.303 1.59 2.372 2.246 3.08V4.365c-.656.71-1.532 1.778-2.247 3.082Zm6.42 0c-.716-1.304-1.592-2.373-2.248-3.081v15.27c.656-.709 1.532-1.778 2.247-3.081V7.446Z"/><path fill="currentColor" d="M20.71 7.446v9.107c.724-1.32 1.284-2.88 1.284-4.553s-.56-3.234-1.284-4.554m-6.42 0v9.107c-.724-1.32-1.284-2.88-1.284-4.553s.56-3.234 1.284-4.554"/></g><defs><clipPath id="a"><rect width="35" height="24" fill="#fff" rx="4"/></clipPath></defs></svg>