<svg xmlns="http://www.w3.org/2000/svg" width="35" height="24" fill="none" viewBox="0 0 35 24"><g clip-path="url(#a)"><path fill="#fff" d="M0 0h35v24H0z"/><path fill="#0052b4" d="M0 7.826h35v8.348H0z"/><path fill="#d80027" d="M0 16.174h35V24H0z"/><path fill="#fff" d="M8.85 6.783v5.986c0 3.405 4.325 4.448 4.325 4.448s4.324-1.043 4.324-4.448V6.783z"/><path fill="#d80027" d="M9.988 6.958v5.762q0 .577.248 1.088h5.877q.247-.51.247-1.088V6.958z"/><path fill="#fff" d="M15.128 10.975h-1.464V9.971h.976V8.967h-.976V7.962h-.977v1.005h-.976V9.97h.976v1.004h-1.464v1.005h1.464v1.004h.977V11.98h1.464z"/><path fill="#0052b4" d="M11.568 15.21a7 7 0 0 0 1.607.748c.33-.105.977-.34 1.606-.748q.953-.616 1.332-1.402a1.67 1.67 0 0 0-1.374-.276 1.71 1.71 0 0 0-1.564-1.05c-.7 0-1.3.432-1.565 1.05a1.67 1.67 0 0 0-1.374.277q.38.785 1.332 1.401"/></g><defs><clipPath id="a"><rect width="35" height="24" fill="#fff" rx="4"/></clipPath></defs></svg>