<svg xmlns="http://www.w3.org/2000/svg" width="35" height="25" fill="none" viewBox="0 0 35 25"><g clip-path="url(#a)"><path fill="#fff" d="M0 .342h35v24H0z"/><path fill="#d80027" d="M0 .342h35v8H0zm0 16h35v8H0z"/><path fill="#ffda44" d="M20.096 12.342c0 1.475-1.162 2.337-2.597 2.337-1.434 0-2.597-.862-2.597-2.337S16.065 9.67 17.5 9.67s2.596 1.196 2.596 2.672"/><path fill="#0052b4" d="M20.097 12.342c0 1.475-1.163 2.671-2.598 2.671s-2.597-1.196-2.597-2.671"/><path fill="#d80027" d="M15.877 11.674h.65v1.336h-.65zm2.597 0h.65v1.336h-.65zm-1.299-1.001h.65v2.337h-.65z"/></g><defs><clipPath id="a"><rect width="35" height="24" y=".342" fill="#fff" rx="4"/></clipPath></defs></svg>