<svg xmlns="http://www.w3.org/2000/svg" width="24" height="25" fill="none" viewBox="0 0 24 25"><g clip-path="url(#a)"><path fill="#0052b4" d="M22.81 17.547A11.95 11.95 0 0 0 24 12.33c0-1.87-.428-3.64-1.19-5.217L12 6.069 1.19 7.113A11.95 11.95 0 0 0 0 12.33c0 1.87.428 3.64 1.19 5.217L12 18.591z"/><path fill="#d80027" d="M12 24.33a12 12 0 0 0 10.81-6.782H1.191a12 12 0 0 0 10.81 6.782Z"/><path fill="#f0f0f0" d="m20.782 14.685-.633.496.275.756-.667-.45-.634.495.221-.773-.666-.45.804-.028.221-.773.276.756zm-1.622-2.811-.427.683.517.616-.78-.195-.426.682-.056-.802-.781-.195.746-.301-.056-.802.517.616.745-.302Zm-2.488-2.086-.167.787.697.402-.8.084-.167.787-.328-.735-.8.084.598-.538-.327-.735.697.402zm-3.049-1.11.112.796.792.14-.723.353.112.796-.559-.578-.723.352.378-.71-.559-.579.792.14zm-3.246 0 .377.71.792-.14-.558.58.377.71-.723-.353-.558.578.112-.796-.723-.353.792-.14zm-3.051 1.11.598.538.696-.402-.327.735.598.538-.8-.084-.327.735-.167-.787-.8-.084.696-.402zM4.84 11.874l.747.302.516-.616-.055.802.745.302-.78.194-.056.802-.426-.682-.781.195.517-.616-.426-.683Zm-1.623 2.812.804.028.275-.756.222.773.803.028-.666.45.221.773-.633-.495-.667.45.275-.756z"/><path fill="#ffda44" d="M22.81 7.113A12 12 0 0 0 12 .33 12 12 0 0 0 1.192 7.113z"/></g><defs><clipPath id="a"><path fill="#fff" d="M0 .33h24v24H0z"/></clipPath></defs></svg>