<svg xmlns="http://www.w3.org/2000/svg" width="24" height="24" fill="none" viewBox="0 0 24 24"><g clip-path="url(#a)"><path fill="#f0f0f0" d="M12 24c6.627 0 12-5.373 12-12S18.627 0 12 0 0 5.373 0 12s5.373 12 12 12"/><path fill="#0052b4" d="M22 13.436c-1 0-1-.914-2-.914s-1 .914-2 .914-1-.914-2-.914-1 .914-2 .914-1-.914-2-.914-1 .914-2 .914-1-.914-2-.914-1 .914-2 .914-1-.914-2-.914-1 .914-2 .914c-.995 0-1-.904-1.984-.914q.042.824.192 1.615c.797.117.867.899 1.792.899 1 0 1-.914 2-.914s1 .914 2 .914 1-.914 2-.914 1 .914 2 .914 1-.914 2-.914 1 .914 2 .914 1-.914 2-.914 1 .914 2 .914 1-.914 2-.914 1 .914 2 .914c.925 0 .995-.782 1.792-.9q.15-.79.192-1.614c-.984.01-.99.914-1.984.914m-2 2.216c-1 0-1 .915-2 .915s-1-.915-2-.915-1 .915-2 .915-1-.915-2-.915-1 .915-2 .915-1-.915-2-.915-1 .915-2 .915-1-.915-2-.915-1 .915-2 .915c-.737 0-.932-.496-1.383-.758a12 12 0 0 0 1.066 2.322q.14.035.316.036c1 0 1-.915 2-.915s1 .915 2 .915 1-.915 2-.915 1 .915 2 .915 1-.915 2-.915 1 .915 2 .915 1-.915 2-.915 1 .915 2 .915 1-.915 2-.915 1 .915 2 .915q.177-.002.317-.036c.434-.728.793-1.505 1.066-2.321-.452.26-.646.757-1.383.757-1 0-1-.915-2-.915Zm3.721-6.232c-.73.15-.824.886-1.72.886-1 0-1-.915-2-.915s-1 .915-2 .915-1-.915-2-.915-1 .915-2 .915-1-.915-2-.915c-.541 0-.79.267-1.061.513v1.6c.271-.246.52-.513 1.06-.513 1 0 1 .915 2 .915s1-.915 2-.915 1 .915 2 .915 1-.915 2-.915 1 .915 2 .915c.925 0 .995-.782 1.792-.9h.167q-.067-.81-.238-1.587Zm-.876-2.563a1.21 1.21 0 0 1-.845.318c-1 0-1-.914-2-.914s-1 .914-2 .914-1-.914-2-.914-1 .914-2 .914-1-.914-2-.914c-.54 0-.789.267-1.06.512v1.6c.271-.245.52-.512 1.06-.512 1 0 1 .914 2 .914s1-.914 2-.914 1 .914 2 .914 1-.914 2-.914 1 .914 2 .914c.71 0 .916-.46 1.334-.727a12 12 0 0 0-.49-1.191Zm-2.759-3.724L20 3.13c-1 0-1 .915-2 .915s-1-.915-2-.915-1 .915-2 .915-1-.915-2-.915c-.54 0-.789.267-1.06.513v1.6c.271-.246.52-.512 1.06-.512 1 0 1 .914 2 .914s1-.914 2-.914 1 .914 2 .914 1-.914 2-.914 1 .914 2 .914q.093 0 .174-.01a12 12 0 0 0-2.088-2.502M15.068.396c-.275.247-.523.518-1.067.518-1 0-1-.914-2-.914-.518 0-.768.245-1.026.48v1.601c.258-.236.508-.48 1.026-.48 1 0 1 .913 2 .913s1-.914 2-.914 1 .914 2 .914c.42 0 .663-.16.878-.347a12 12 0 0 0-3.811-1.77ZM14 22.827c-1 0-1-.914-2-.914s-1 .914-2 .914-1-.914-2-.914c-.767 0-.946.536-1.438.787 1.355.69 2.858 1.13 4.45 1.26.245-.226.495-.447.987-.447s.742.221.988.446c1.591-.13 3.094-.57 4.45-1.259-.492-.25-.672-.787-1.438-.787-1 0-1 .914-2 .914Zm4-3.13c-1 0-1-.914-2-.914s-1 .914-2 .914-1-.914-2-.914-1 .914-2 .914-1-.914-2-.914-1 .914-2 .914-1-.914-2-.914c-.719 0-.92.473-1.35.738q.405.501.857.956c.135-.058.294-.094.493-.094 1 0 1 .914 2 .914s1-.914 2-.914 1 .914 2 .914 1-.914 2-.914 1 .914 2 .914 1-.914 2-.914 1 .914 2 .914 1-.914 2-.914c.2 0 .358.036.494.094q.453-.455.856-.956c-.428-.265-.63-.738-1.35-.738-1 0-1 .914-2 .914"/><path fill="#f0f0f0" d="M11.969 12H12v-.032z"/><path fill="#0052b4" d="M12 6.26v3.526L7.826 5.74 12 6.261ZM6.26 12h3.526L6.26 7.304l-.522 3.652z"/><path fill="#f0f0f0" d="M12 6.26V0h-.002C5.372.001 0 5.373 0 12h6.26V8.474L9.787 12h2.182l.032-.032V9.786L8.474 6.261H12Z"/><path fill="#d80027" d="M6.07 1.565a12.06 12.06 0 0 0-4.506 4.506V12h3.13V4.696H12v-3.13z"/><path fill="#d80027" d="M11.999 10.524 7.735 6.261H6.26L11.999 12z"/><path fill="#6da544" d="M15.652 6.26h4.696L18 8.61z"/><path fill="#a2001d" d="M17.479 8.087h1.043v2.87h-1.043zm0 7.565h1.043v2.87h-1.043z"/><path fill="#ffda44" d="M21.13 14.087a1.565 1.565 0 0 0-2.609-1.166V12h.522v-1.043h-.522v-.522h-1.043v.521h-.522V12h.522v.92a1.565 1.565 0 0 0-2.087 2.333v.921h5.217v-.92a1.56 1.56 0 0 0 .522-1.167"/><path fill="#d80027" d="M19.564 13.565a.52.52 0 0 0-.347.133l-.696.623h-1.044l-.696-.623a.522.522 0 0 0-.695.778l.348.311v.343h3.13v-.343l.348-.311a.522.522 0 0 0-.348-.91Z"/></g><defs><clipPath id="a"><path fill="#fff" d="M0 0h24v24H0z"/></clipPath></defs></svg>