<svg xmlns="http://www.w3.org/2000/svg" width="24" height="25" fill="none" viewBox="0 0 24 25"><g clip-path="url(#a)"><path fill="#338af3" d="M12 24.91c6.627 0 12-5.372 12-12 0-6.627-5.373-12-12-12s-12 5.373-12 12c0 6.628 5.373 12 12 12"/><path fill="#f0f0f0" d="M11.967 8.736a4.174 4.174 0 1 0 0 8.348 4.174 4.174 0 0 0 0-8.348m-1.044 4.174a1.043 1.043 0 1 1 2.087 0 1.043 1.043 0 0 1-2.087 0m2.126-1.785a2 2 0 0 0-.526-.226V9.83a3.1 3.1 0 0 1 1.277.543zm-1.57-.244q-.294.071-.55.219l-.755-.755a3.1 3.1 0 0 1 1.306-.527zm-.55 3.84q.256.146.55.218v1.064a3.1 3.1 0 0 1-1.305-.527zm1.594.2q.282-.077.526-.226l.751.752c-.372.27-.806.459-1.277.543zm1.254-.973q.14-.24.211-.516h1.065c-.078.467-.26.899-.52 1.271zm.211-1.56a2 2 0 0 0-.21-.516l.754-.755c.261.373.443.804.521 1.271zM9.43 11.077l.752.751q-.159.259-.236.56H8.88c.08-.484.273-.93.55-1.311m-.55 2.355h1.066q.078.301.236.56l-.752.752a3.1 3.1 0 0 1-.55-1.312"/><path fill="#f0f0f0" d="M18.749 12.91a6.76 6.76 0 0 0-1.952-4.76L15.69 9.255a5.217 5.217 0 1 1-7.413-.035L7.17 8.114a6.786 6.786 0 0 0 2.944 11.323 1.74 1.74 0 0 0 .181 1.895l1.706-1.367 1.706 1.367c.45-.562.494-1.317.171-1.913a6.785 6.785 0 0 0 4.87-6.509Z"/></g><defs><clipPath id="a"><path fill="#fff" d="M0 .91h24v24H0z"/></clipPath></defs></svg>