<svg xmlns="http://www.w3.org/2000/svg" width="24" height="25" fill="none" viewBox="0 0 24 25"><g clip-path="url(#a)"><path fill="#f0f0f0" d="M12 24.047c6.627 0 12-5.373 12-12 0-6.628-5.373-12-12-12s-12 5.372-12 12c0 6.627 5.373 12 12 12"/><path fill="#d80027" d="M23.898 10.482H13.565V.148a12.1 12.1 0 0 0-3.13 0v10.334H.102a12.1 12.1 0 0 0 0 3.13h10.333v10.333a12.1 12.1 0 0 0 3.13 0V13.612h10.333a12.1 12.1 0 0 0 0-3.13"/></g><defs><clipPath id="a"><path fill="#fff" d="M0 .047h24v24H0z"/></clipPath></defs></svg>