<svg xmlns="http://www.w3.org/2000/svg" width="24" height="24" fill="none" viewBox="0 0 24 24"><g clip-path="url(#a)"><path fill="#f0f0f0" d="M12 24c6.627 0 12-5.373 12-12S18.627 0 12 0 0 5.373 0 12s5.373 12 12 12"/><path fill="#0052b4" d="M23.898 10.435a11.95 11.95 0 0 0-3.412-6.92 11.95 11.95 0 0 0-6.92-3.412v10.332zM10.435.103a11.95 11.95 0 0 0-6.92 3.412 11.95 11.95 0 0 0-3.411 6.92h10.331zM.104 13.565a11.95 11.95 0 0 0 3.411 6.92 11.95 11.95 0 0 0 6.92 3.412V13.565zm13.462 10.332a11.95 11.95 0 0 0 6.92-3.412 11.95 11.95 0 0 0 3.412-6.92H13.566z"/><path fill="#f0f0f0" d="M16.095 7.614c0-.16.13-.289.29-.289h.62a1.78 1.78 0 0 0 1.776-1.777 1.78 1.78 0 0 0-1.777-1.777h-.588a1.22 1.22 0 0 0-.735-.233c-.593 0-1.073.384-1.073.859 0 .47.471.85 1.056.858v.004h1.34a.29.29 0 0 1 0 .578h-.62c-.98 0-1.777.797-1.777 1.777s.798 1.777 1.777 1.777h2.397V7.903h-2.397a.29.29 0 0 1-.289-.289m-9.391 0c0-.16.13-.289.29-.289h.62A1.78 1.78 0 0 0 9.39 5.548a1.78 1.78 0 0 0-1.777-1.777h-.59a1.23 1.23 0 0 0-.733-.233c-.593 0-1.074.384-1.074.859 0 .47.471.85 1.057.858v.004h1.34a.29.29 0 0 1 0 .578h-.62c-.98 0-1.777.797-1.777 1.777s.797 1.777 1.777 1.777H9.39V7.903H6.994a.29.29 0 0 1-.29-.289m9.391 11.071c0-.16.13-.289.29-.289h.62a1.78 1.78 0 0 0 1.776-1.777c0-.98-.797-1.777-1.777-1.777h-.588a1.23 1.23 0 0 0-.735-.233c-.593 0-1.073.384-1.073.859 0 .47.471.85 1.056.858v.004h1.34a.29.29 0 0 1 0 .578h-.62c-.98 0-1.777.797-1.777 1.777s.798 1.777 1.777 1.777h2.397v-1.488h-2.396a.29.29 0 0 1-.29-.289m-9.391 0c0-.16.13-.289.29-.289h.62a1.78 1.78 0 0 0 1.777-1.777c0-.98-.797-1.777-1.777-1.777h-.589a1.23 1.23 0 0 0-.734-.233c-.593 0-1.074.384-1.074.859 0 .47.471.85 1.057.858v.004h1.34a.29.29 0 0 1 0 .578h-.62c-.98 0-1.777.797-1.777 1.777s.797 1.777 1.777 1.777H9.39v-1.488H6.994a.29.29 0 0 1-.29-.289"/></g><defs><clipPath id="a"><path fill="#fff" d="M0 0h24v24H0z"/></clipPath></defs></svg>