<svg xmlns="http://www.w3.org/2000/svg" width="35" height="25" fill="none" viewBox="0 0 35 25"><g clip-path="url(#a)"><path fill="#00745a" d="M0 .033h35v24H0z"/><path fill="#fff" d="M19.53 11.533c-.287 0-.558.058-.81.152.138-.317.23-.67.23-1.047 0-1.49-1.45-2.609-1.45-2.609s-1.448 1.118-1.448 2.61c0 .376.092.729.23 1.046a2.3 2.3 0 0 0-.81-.152c-1.45 0-2.537 1.49-2.537 1.49s1.088 1.49 2.537 1.49c.85 0 1.574-.511 2.029-.935.454.424 1.18.936 2.029.936 1.45 0 2.536-1.49 2.536-1.49s-1.087-1.491-2.536-1.491"/><path fill="#ffda44" d="m17.5 4.729.3.947h.968l-.784.586.3.947-.784-.585-.784.585.3-.947-.784-.586h.968zm-3.684 1.657.576.533.671-.398-.315.728.576.533-.771-.083-.315.728-.161-.78-.771-.083.671-.398zM11.119 9.16l.758.165.388-.69.08.793.759.166-.708.324.08.793-.518-.593-.708.324.388-.69zm10.064-2.774-.575.533-.672-.398.316.728-.576.533.77-.083.316.728.16-.78.772-.083-.672-.398zM23.88 9.16l-.758.165-.387-.69-.081.793-.758.166.708.324-.081.793.518-.593.708.324-.387-.69z"/><path fill="#fff" d="M17.5 18.688a4.96 4.96 0 0 0 3.063-1.06h-6.127a4.96 4.96 0 0 0 3.064 1.06m-4.65-3.13q.241.566.605 1.06h8.09q.362-.494.605-1.06z"/></g><defs><clipPath id="a"><rect width="35" height="24" y=".033" fill="#fff" rx="4"/></clipPath></defs></svg>