<svg xmlns="http://www.w3.org/2000/svg" width="24" height="24" fill="none" viewBox="0 0 24 24"><g clip-path="url(#a)"><path fill="#d80027" d="M0 12c0 1.468.264 2.874.746 4.174L12 16.696l11.254-.522c.482-1.3.746-2.706.746-4.174s-.264-2.874-.746-4.174L12 7.304.746 7.826A12 12 0 0 0 0 12"/><path fill="currentColor" d="M12 0C6.84 0 2.442 3.256.746 7.826h22.507C21.558 3.256 17.16 0 12 0"/><path fill="#496e2d" d="M23.253 16.174H.746C2.442 20.744 6.84 24 12 24s9.558-3.256 11.253-7.826"/><path fill="#d80027" d="m15.587 5.74-1.465-.69.78-1.42-1.591.305-.202-1.608-1.108 1.183-1.109-1.183-.201 1.608-1.592-.305.78 1.42-1.465.69z"/></g><defs><clipPath id="a"><path fill="#fff" d="M0 0h24v24H0z"/></clipPath></defs></svg>