<svg fill="none" viewBox="0 0 24 24"><path fill="currentColor" d="m8.5 12.9-.7-.8zm0 0-.7-.8zm-2.2 1.8-.6-.7zm-.1.1.8.6zM17.7 13l-.7.7zm-1.9-1.8-.7.7zm-.6 0-.7-.8zm-3.5 3.2.7.7zm-.7 0-.7.7zm0 0-.7.7zm0 0 .6-.8zm-1.7-1.5.7-.8zm0 0 .7-.8zm0 0 .7-.8zm-.8 0-.7-.8zm7.8-6.3v-1a1 1 0 0 0-1 1zm.4 0h1a1 1 0 0 0-1-1zm0 .3v1a1 1 0 0 0 1-1zm-.4 0h-1a1 1 0 0 0 1 1zM1.4 6v12h2V6zM6 22.6h12v-2H6zM22.6 18V6h-2v12zM18 1.4H6v2h12zM22.6 6A4.6 4.6 0 0 0 18 1.4v2A2.6 2.6 0 0 1 20.6 6zM18 22.6a4.6 4.6 0 0 0 4.6-4.6h-2a2.6 2.6 0 0 1-2.6 2.6zM1.4 18A4.6 4.6 0 0 0 6 22.6v-2A2.6 2.6 0 0 1 3.4 18zm2-12A2.6 2.6 0 0 1 6 3.4v-2A4.6 4.6 0 0 0 1.4 6zm5.7 7.6L7.8 12zM7 15.5l2.2-1.9-1.3-1.5L5.7 14zm.1 0L5.6 14l-.3.3zm0 0-1.6-1.2-.4 1.1zm0 2v-2H5v2zm-.5-.5.5.5H5A1.5 1.5 0 0 0 6.5 19zm11 0h-11v2h11zm-.5.5.5-.5v2a1.5 1.5 0 0 0 1.5-1.5zm0-3.8v3.8h2v-3.8zm0 0h2a2 2 0 0 0-.6-1.5zm-1.9-1.8 1.9 1.8 1.4-1.5-1.9-1.7zm.7 0h-.7l1.4-1.4a1.5 1.5 0 0 0-2 0zm-3.4 3.2 3.4-3.2-1.3-1.5-3.5 3.3zm-2 0a1.5 1.5 0 0 0 2 0L11 13.7h.7zm-.1 0 1.4-1.4zm0 0 1.4-1.4v-.1zm-1.7-1.5 1.7 1.5 1.3-1.5L10 12zm0 0 1.4-1.5zm0 0L10 12zm.6 0h-.7L10 12a1.5 1.5 0 0 0-2.2 0zm0 0L7.8 12zm7.1-6h.4v-2h-.4zm-.6-1v.3h2v-.3zm1-.7h-.4v2h.4zm.6 1v-.3h-2v.3z"/></svg>