<svg xmlns="http://www.w3.org/2000/svg" fill="none" viewBox="0 0 20 20">
  <path fill="#000" fill-rule="evenodd" d="M4 19.6A3.6 3.6 0 0 1 .4 16V4A3.6 3.6 0 0 1 4 .4h12A3.6 3.6 0 0 1 19.6 4v12a3.6 3.6 0 0 1-3.6 3.6H4ZM9 16a1 1 0 1 0 2 0v-5.943l2.006 1.925a1 1 0 0 0 1.385-1.443l-3.7-3.55a1 1 0 0 0-1.384 0l-3.7 3.55a1 1 0 0 0 1.385 1.443l2.007-1.925V16Zm6.288-10.817a1 1 0 0 0 1.424-1.405A2.608 2.608 0 0 0 14.855 3h-9.71c-.7 0-1.367.281-1.857.778a1 1 0 1 0 1.424 1.405A.608.608 0 0 1 5.144 5h9.712c.16 0 .315.064.432.183Z" clip-rule="evenodd"/>
</svg>
