<svg xmlns="http://www.w3.org/2000/svg" fill="none" viewBox="0 0 24 24"><path fill="currentColor" fill-rule="evenodd" d="M18.1 2.3a3.6 3.6 0 0 1 3.6 3.6v12a3.6 3.6 0 0 1-3.6 3.6h-12a3.6 3.6 0 0 1-3.6-3.6v-12a3.6 3.6 0 0 1 3.6-3.6zm-11.557 3A1.03 1.03 0 0 0 5.5 6.315c0 .561.467 1.016 1.043 1.016H17.5a1.03 1.03 0 0 0 1.043-1.016A1.03 1.03 0 0 0 17.5 5.3zm3.957 4.908c0-.384-.223-.736-.576-.908a1.07 1.07 0 0 0-1.092.096L6.33 11.224a1 1 0 0 0-.209 1.422c.346.448 1 .54 1.46.203l.834-.61v5.045A1.03 1.03 0 0 0 9.457 18.3a1.03 1.03 0 0 0 1.043-1.016zm7.183 0c0-.384-.223-.736-.576-.908a1.07 1.07 0 0 0-1.092.096l-2.502 1.828a1 1 0 0 0-.209 1.422c.346.448 1 .54 1.46.203l.834-.61v5.045A1.03 1.03 0 0 0 16.64 18.3a1.03 1.03 0 0 0 1.043-1.016z" clip-rule="evenodd"/></svg>