<svg viewBox="0 0 24 24"><path fill="currentColor" d="M15.1 7.7q-.5.5-1.3.2L12 7.5q-1 0-1.8.4-.8.3-1.3-.2L6.6 5.4Q6 4.7 6.7 4A10 10 0 0 1 12 2.4q3 0 5.3 1.6.8.6 0 1.4zm1.2 7.4q-.5-.5-.2-1.3.4-.8.4-1.8t-.4-1.8.2-1.3l2.3-2.3q.7-.6 1.4.1a10 10 0 0 1 1.6 5.3 10 10 0 0 1-1.6 5.3q-.6.8-1.4 0zM9 16.3q.5-.5 1.3-.2l1.8.4 1.8-.4q.8-.3 1.3.2l2.3 2.3q.6.7-.1 1.4a10 10 0 0 1-5.3 1.6A10 10 0 0 1 6.7 20q-.7-.6 0-1.4zm-1.2-1.2q.5-.5.2-1.3L7.5 12q0-1 .4-1.8.3-.8-.2-1.3L5.4 6.6Q4.7 6 4 6.7A10 10 0 0 0 2.4 12q0 3 1.6 5.3.6.8 1.4 0z"/></svg>