<svg xmlns="http://www.w3.org/2000/svg" fill="none" viewBox="0 0 24 24">
  <path fill="#000" fill-rule="evenodd" d="M5.247 14.64a.276.276 0 0 0 .275-.277V4.145c0-.152.124-.276.276-.276h1.97c.153 0 .276.124.276.276v10.22c0 .152.124.275.276.275h2.294c.473 0 .727.558.415.915L7.2 19.943a.552.552 0 0 1-.831 0l-3.83-4.39a.552.552 0 0 1 .415-.914h2.294Z" clip-rule="evenodd"/>
  <path fill="#000" d="M12.773 6.627c0-.305.247-.552.552-.552h7.724c.304 0 .551.247.551.552V7.73a.552.552 0 0 1-.551.552h-7.724a.552.552 0 0 1-.552-.552V6.627Zm0 4.413c0-.304.247-.551.552-.551h5.517c.305 0 .552.246.552.551v1.104a.552.552 0 0 1-.552.551h-5.517a.552.552 0 0 1-.552-.551V11.04Zm0 4.414c0-.305.247-.552.552-.552h3.31c.305 0 .552.247.552.552v1.103a.552.552 0 0 1-.552.552h-3.31a.552.552 0 0 1-.552-.552v-1.103Z"/>
</svg>
