<svg fill="none" viewBox="0 0 24 24"><path fill="currentColor" d="M12 12v-1a1 1 0 0 0-1 1zm0 0h1a1 1 0 0 0-1-1zm0 0v1a1 1 0 0 0 1-1zm0 0h-1a1 1 0 0 0 1 1zm8.6 0a8.6 8.6 0 0 1-8.6 8.6v2c5.9 0 10.6-4.7 10.6-10.6zM12 20.6A8.6 8.6 0 0 1 3.4 12h-2c0 5.9 4.7 10.6 10.6 10.6zM3.4 12A8.6 8.6 0 0 1 12 3.4v-2C6.1 1.4 1.4 6.1 1.4 12zM12 3.4a8.6 8.6 0 0 1 8.6 8.6h2c0-5.9-4.7-10.6-10.6-10.6zm3.8 8.6a4 4 0 0 1-3.8 3.8v2a6 6 0 0 0 5.8-5.8zM12 15.8A4 4 0 0 1 8.2 12h-2a6 6 0 0 0 5.8 5.8zM8.2 12A4 4 0 0 1 12 8.2v-2A6 6 0 0 0 6.2 12zM12 8.2a4 4 0 0 1 3.8 3.8h2A6 6 0 0 0 12 6.2zm0 4.8v-2zm-1-1h2zm1-1v2zm1 1h-2z"/></svg>