<svg xmlns="http://www.w3.org/2000/svg" fill="none" viewBox="0 0 24 24"><path fill="currentColor" fill-rule="evenodd" d="M18 2.4A3.6 3.6 0 0 1 21.6 6v12a3.6 3.6 0 0 1-3.6 3.6H6A3.6 3.6 0 0 1 2.4 18V6A3.6 3.6 0 0 1 6 2.4zm-4.5 2.486a1 1 0 1 0-2 0V7.43a1 1 0 1 0 2 0zm-5.25.76a1 1 0 1 0-1.467 1.36l2.226 2.4a1 1 0 0 0 1.466-1.36l-2.226-2.4Zm8.607 2.58a1 1 0 0 0-1.467-1.36l-1.095 1.18a1 1 0 0 0 1.467 1.36zM5.5 10.576a1 1 0 1 0 0 2h3.148a1 1 0 0 0 0-2zm10.623 0a1 1 0 1 0 0 2H17.5a1 1 0 0 0 0-2zm-.361 3.17a1 1 0 1 0-1.467 1.36l1.095 1.18a1 1 0 1 0 1.466-1.36zm-5.287 1.36a1 1 0 1 0-1.466-1.36l-2.226 2.4a1 1 0 0 0 1.466 1.36zm3.025.5a1 1 0 0 0-2 0V19a1 1 0 1 0 2 0z" clip-rule="evenodd"/></svg>