<svg viewBox="0 0 24 24"><path fill="currentColor" fill-rule="evenodd" d="M18 2a3.6 3.6 0 0 1 3.6 3.6v12a3.6 3.6 0 0 1-3.6 3.6h-12a3.6 3.6 0 0 1-3.6-3.6v-12a3.6 3.6 0 0 1 3.6-3.6zm-7.6 6.3a1 1 0 0 1 0-1.3l1-1a4 4 0 0 1 3-1.2 4 4 0 0 1 3 1.2 4 4 0 0 1 1.4 3 4 4 0 0 1-1.3 3.1l-1 1a1 1 0 0 1-1.3 0 1 1 0 0 1 0-1.3l1-1a2.4 2.4 0 0 0 0-3.4l0 0a2 2 0 0 0-1.8-.8 2 2 0 0 0-1.6.7l-1 1a1 1 0 0 1-1.4 0Zm-5.6 6.1a4 4 0 0 1 1.2-3l1-1a1 1 0 0 1 1.3 0 1 1 0 0 1 0 1.3l-1 1a2.4 2.4 0 0 0 0 3.4l0 0 0 0q.8.8 1.8.8a2 2 0 0 0 1.7-.7l1-1a1 1 0 0 1 1.3 0 1 1 0 0 1 0 1.3l-1 1a4 4 0 0 1-3 1.3 4 4 0 0 1-3-1.3 4 4 0 0 1-1.3-3Zm0-6.5a1 1 0 0 1 1-1h1.1v-1.1a1 1 0 1 1 2 0v2.1a1 1 0 0 1-1 1h-2.1a1 1 0 0 1-1-1Zm13.2 9a1 1 0 1 0 0-2h-2.2a1 1 0 0 0-1 1v2.1a1 1 0 1 0 2 0v-1.2z" clip-rule="evenodd"/></svg>