<svg xmlns="http://www.w3.org/2000/svg" fill="none" viewBox="0 0 24 24"><path fill="currentColor" d="M16.101 9.313a1 1 0 0 0-1.414-1.414zM7.9 14.687A1 1 0 1 0 9.313 16.1zm6.788 1.414a1 1 0 0 0 1.414-1.414L14.687 16.1ZM9.313 7.9a1 1 0 0 0-1.414 1.414zM20.6 12a8.6 8.6 0 0 1-8.6 8.6v2c5.854 0 10.6-4.745 10.6-10.6zM12 20.6A8.6 8.6 0 0 1 3.4 12h-2c0 5.855 4.746 10.6 10.6 10.6zM3.4 12A8.6 8.6 0 0 1 12 3.4v-2C6.146 1.4 1.4 6.147 1.4 12zM12 3.4a8.6 8.6 0 0 1 8.6 8.6h2c0-5.853-4.746-10.6-10.6-10.6zm2.687 4.5-3.394 3.394 1.414 1.414 3.394-3.394zm-3.394 3.394-3.394 3.394L9.313 16.1l3.394-3.394-1.414-1.414Zm4.808 3.394-3.394-3.394-1.414 1.414 3.394 3.394zm-3.394-3.394L9.313 7.899 7.899 9.313l3.394 3.394z"/></svg>