<svg fill="none" viewBox="0 0 24 24"><path fill="currentColor" d="M22.1 12.6a1 1 0 1 0-2 0zm-10.6-8.6a1 1 0 1 0 0-2zm5.8 8.6a1 1 0 1 0-2 0zm-5.8-3.8a1 1 0 1 0 0-2zm5 0a1 1 0 1 0-1.5-1.3zm-5.7 2.9a1 1 0 0 0 1.4 1.4zm11.3-6.5.7.7a1 1 0 0 0-.6-1.7zm-3.8 3.8-.3 1a1 1 0 0 0 1-.3zm-3.4-3.4-.7-.7a1 1 0 0 0-.3 1zm3.8-3.8 1-.1a1 1 0 0 0-1.7-.6zm-3 6.4-1 .3a1 1 0 0 0 .7.6zm3.4-3.4-1 .1a1 1 0 0 0 .9.9zm1 7.8a8.6 8.6 0 0 1-8.6 8.6v2c5.9 0 10.6-4.7 10.6-10.6zm-8.6 8.6a8.6 8.6 0 0 1-8.6-8.6h-2c0 5.9 4.7 10.6 10.6 10.6zm-8.6-8.6a8.6 8.6 0 0 1 8.6-8.6v-2c-5.9 0-10.6 4.7-10.6 10.6zm12.4 0a4 4 0 0 1-3.8 3.8v2a6 6 0 0 0 5.8-5.8zm-3.8 3.8a4 4 0 0 1-3.8-3.8h-2a6 6 0 0 0 5.8 5.8zm-3.8-3.8a4 4 0 0 1 3.8-3.8v-2a6 6 0 0 0-5.8 5.8zm7.3-5.1-4.2 4.2 1.4 1.4 4.2-4.2zm6.4-3-3.8 3.8 1.4 1.4 3.8-3.8zm-5.8 1.8 3.8-3.8-1.4-1.4-3.8 3.8zm3 1.8-2.5-.9-.7 2 2.6.8zm-2-.3-.8-2.5-1.9.6.9 2.6zm1.1-5.9.4 3 2-.3-.4-3zm1.3 3.9 3 .4.2-2-3-.4z"/></svg>