<svg fill="none" viewBox="0 0 24 24"><path fill="currentColor" d="M22.1 12.6a1 1 0 1 0-2 0zM11.5 4a1 1 0 1 0 0-2zm5.8 8.6a1 1 0 1 0-2 0zm-5.8-3.8a1 1 0 1 0 0-2zm5 0A1 1 0 1 0 15 7.6zm-5.7 2.9a1 1 0 0 0 1.4 1.4zM22 5.2l.7.7a1 1 0 0 0-.6-1.7zM18.3 9l-.3 1a1 1 0 0 0 1-.3zm-3.4-3.4-.7-.7a1 1 0 0 0-.3 1zm3.8-3.8 1-.1A1 1 0 0 0 18 1zm-3 6.4-1 .3a1 1 0 0 0 .7.6zm3.4-3.4-1 .1a1 1 0 0 0 .9.9zm1 7.8a8.6 8.6 0 0 1-8.6 8.6v2c5.9 0 10.6-4.7 10.6-10.6zm-8.6 8.6a8.6 8.6 0 0 1-8.6-8.6h-2c0 5.9 4.7 10.6 10.6 10.6zm-8.6-8.6A8.6 8.6 0 0 1 11.5 4V2C5.6 2 .9 6.7.9 12.6zm12.4 0a4 4 0 0 1-3.8 3.8v2a6 6 0 0 0 5.8-5.8zm-3.8 3.8a4 4 0 0 1-3.8-3.8h-2a6 6 0 0 0 5.8 5.8zm-3.8-3.8a4 4 0 0 1 3.8-3.8v-2a6 6 0 0 0-5.8 5.8zM15 7.5l-4.2 4.2 1.4 1.4L16.4 9zm6.4-3-3.8 3.8L19 9.7 22.8 6zm-5.8 1.8 3.8-3.8L18 1.1l-3.8 3.8zm3 1.8-2.5-.9-.7 2 2.6.8zm-2-.3-.8-2.5-1.9.6.9 2.6zM17.8 2l.4 3 2-.3-.4-3zM19 5.8l3 .4.2-2-3-.4z"/></svg>