<svg viewBox="0 0 24 24"><path fill="currentColor" fill-rule="evenodd" d="M21.6 6A3.6 3.6 0 0 0 18 2.4H6A3.6 3.6 0 0 0 2.4 6v12A3.6 3.6 0 0 0 6 21.6h12a3.6 3.6 0 0 0 3.6-3.6zM10 7.8a1 1 0 1 0 1.4 1.4l1-1a3 3 0 0 1 1.9-.8 3 3 0 0 1 1.8.8 2.5 2.5 0 0 1 0 3.6l-1 1a1 1 0 0 0 1.4 1.5l1-1.1a4.5 4.5 0 0 0 0-6.5 5 5 0 0 0-3.2-1.3 5 5 0 0 0-3.2 1.3zM6.7 11a4.5 4.5 0 0 0 0 6.5 5 5 0 0 0 3.2 1.3 5 5 0 0 0 3.3-1.3l1-1a1 1 0 0 0-1.4-1.4l-1 1a3 3 0 0 1-1.8.7 3 3 0 0 1-1.9-.7 2.5 2.5 0 0 1 0-3.7l1-1A1 1 0 0 0 7.8 10zm8-.2-3.9 4a1 1 0 0 1-1.4-1.5l4-3.9a1 1 0 1 1 1.4 1.4" clip-rule="evenodd"/></svg>