<svg xmlns="http://www.w3.org/2000/svg" fill="none" viewBox="0 0 24 24"><path fill="currentColor" fill-rule="evenodd" d="M18 2a3.6 3.6 0 0 1 3.6 3.6v12a3.6 3.6 0 0 1-3.6 3.6H6a3.6 3.6 0 0 1-3.6-3.6v-12A3.6 3.6 0 0 1 6 2zm-7.554 6.326a.946.946 0 0 1 0-1.331l.998-1.004a4.2 4.2 0 0 1 3.018-1.23 4.3 4.3 0 0 1 3.014 1.26 4.28 4.28 0 0 1 1.284 3.042 4.26 4.26 0 0 1-1.244 3.036l-.998 1.003a.93.93 0 0 1-1.324 0 .945.945 0 0 1 0-1.331l.998-1.004a2.39 2.39 0 0 0-.024-3.4l-.01-.01a2.43 2.43 0 0 0-1.71-.714 2.33 2.33 0 0 0-1.68.68l-.998 1.003a.93.93 0 0 1-1.324 0M4.76 14.437a4.26 4.26 0 0 1 1.244-3.036l.998-1.003a.93.93 0 0 1 1.324 0 .945.945 0 0 1 0 1.331l-.998 1.004a2.39 2.39 0 0 0 .024 3.4l.012.01.009.01c.45.466 1.056.72 1.699.724a2.3 2.3 0 0 0 1.68-.68l.998-1.003a.93.93 0 0 1 1.324 0 .945.945 0 0 1 0 1.332l-.998 1.003a4.16 4.16 0 0 1-3.018 1.231 4.23 4.23 0 0 1-3.02-1.286 4.28 4.28 0 0 1-1.278-3.037m0-6.517a1 1 0 0 1 1-1h1.16V5.76a1 1 0 1 1 2 0v2.16a1 1 0 0 1-1 1H5.76a1 1 0 0 1-1-1M18 16.84a1 1 0 1 0 0-2h-2.16a1 1 0 0 0-1 1V18a1 1 0 1 0 2 0v-1.16z" clip-rule="evenodd"/></svg>