<svg xmlns="http://www.w3.org/2000/svg" fill="currentColor" viewBox="0 0 24 25"><path stroke="currentColor" stroke-linejoin="round" stroke-width="2" d="M21.6 17.32v3.6q0 .45-.323.765-.324.315-.785.315H3.508q-.462 0-.785-.315a1.03 1.03 0 0 1-.323-.765v-3.6q0-.45.323-.765t.785-.315H7.61c.497 0 .92.33 1.254.697q.169.185.384.338.57.405 1.275.405h2.954q.704 0 1.275-.405.215-.152.384-.338c.335-.366.757-.697 1.254-.697h4.102q.462 0 .785.315t.323.765Zm-3.9-9.53q-.197.45-.681.45h-2.954v5.04a.68.68 0 0 1-.22.506.72.72 0 0 1-.519.214h-2.953a.72.72 0 0 1-.52-.214.68.68 0 0 1-.219-.506V8.24H6.68q-.485 0-.68-.45-.196-.439.161-.777l5.17-5.04a.7.7 0 0 1 .519-.213q.31 0 .519.214l5.17 5.04q.356.336.16.776Z"/></svg>