<svg xmlns="http://www.w3.org/2000/svg" fill="none" viewBox="0 0 24 24">
  <path fill="#000" d="M5.143 11.28c0-.398.307-.72.686-.72h12.343c.378 0 .686.322.686.72v1.44c0 .398-.308.72-.686.72H5.829c-.379 0-.686-.322-.686-.72v-1.44ZM2.4 5.52c0-.398.307-.72.686-.72h17.829c.378 0 .685.322.685.72v1.44c0 .398-.307.72-.685.72H3.086c-.379 0-.686-.322-.686-.72V5.52Zm6.858 11.52c0-.398.307-.72.685-.72h4.114c.38 0 .686.322.686.72v1.44c0 .398-.307.72-.686.72H9.944c-.378 0-.685-.322-.685-.72v-1.44Z"/>
</svg>
