<svg xmlns="http://www.w3.org/2000/svg" fill="none" viewBox="0 0 24 24">
  <path fill="#000" fill-rule="evenodd" d="M12 18.599c5.94.093 8.56-4.232 9.338-5.868.187-.393.19-.841.011-1.238C20.596 9.83 18.024 5.4 12 5.4c-6.01 0-8.584 4.411-9.344 6.083a1.45 1.45 0 0 0 .02 1.254c.793 1.605 3.416 5.769 9.324 5.862Zm0-2.536c2.38 0 4.308-1.807 4.308-4.035S14.38 7.994 12 7.994c-2.379 0-4.307 1.806-4.307 4.034 0 2.228 1.928 4.035 4.307 4.035Z" clip-rule="evenodd"/>
  <path fill="#000" d="M14.4 12.028c0 1.242-1.074 2.248-2.4 2.248-1.325 0-2.4-1.006-2.4-2.248 0-1.241 1.075-2.248 2.4-2.248 1.326 0 2.4 1.007 2.4 2.248Z"/>
</svg>
