<svg xmlns="http://www.w3.org/2000/svg" fill="none" viewBox="0 0 24 24">
  <path fill="#000" fill-rule="evenodd" d="M18 2.4A3.6 3.6 0 0 1 21.6 6v12a3.6 3.6 0 0 1-3.6 3.6H6A3.6 3.6 0 0 1 2.4 18V6A3.6 3.6 0 0 1 6 2.4h12ZM9.035 7.5A4.533 4.533 0 0 0 4.5 12.087a4.533 4.533 0 0 0 1.316 3.246A4.46 4.46 0 0 0 9.02 16.69h1.508a1 1 0 0 0 0-2H9.02a2.462 2.462 0 0 1-1.78-.76 2.533 2.533 0 0 1-.74-1.858A2.533 2.533 0 0 1 9.036 9.5h1.508a1 1 0 1 0 0-2H9.035Zm4.665.046a1 1 0 1 0 0 2h1.507c.66 0 1.297.27 1.78.76a2.6 2.6 0 0 1 .754 1.827v.015a2.533 2.533 0 0 1-2.534 2.572H13.7a1 1 0 1 0 0 2h1.507a4.533 4.533 0 0 0 4.534-4.595 4.601 4.601 0 0 0-1.33-3.223 4.497 4.497 0 0 0-3.204-1.356H13.7Zm-4.348 5.53h5.522a1 1 0 0 0 0-2H9.352a1 1 0 1 0 0 2Z" clip-rule="evenodd"/>
</svg>
