<svg xmlns="http://www.w3.org/2000/svg" fill="none" viewBox="0 0 24 24"><path fill="currentColor" fill-rule="evenodd" d="M10.058 18.3c0 .557.223 1.091.62 1.485s.936.615 1.498.615h7.411c.562 0 1.1-.221 1.498-.615s.62-.928.62-1.485V5.7c0-.557-.223-1.091-.62-1.485a2.13 2.13 0 0 0-1.498-.615h-7.411c-.562 0-1.1.221-1.498.615s-.62.928-.62 1.485V11h-3.63L7.88 9.56a1 1 0 1 0-1.41-1.42l-3.176 3.15a1 1 0 0 0 0 1.42l3.176 3.15a1 1 0 0 0 1.409-1.42L6.428 13h3.63zm.002-5.3h6.645a1 1 0 1 0 0-2h-6.63v2z" clip-rule="evenodd"/></svg>