<svg xmlns="http://www.w3.org/2000/svg" fill="none" viewBox="0 0 24 24">
  <path fill="#000" fill-rule="evenodd" d="M18 2.4A3.6 3.6 0 0 1 21.6 6v12a3.6 3.6 0 0 1-3.6 3.6H6A3.6 3.6 0 0 1 2.4 18V6A3.6 3.6 0 0 1 6 2.4h12Zm-1.748 4.317 1.428 1.428a1 1 0 0 1 .006 1.408l-.74.753a.3.3 0 0 1-.426.002l-2.432-2.432a.3.3 0 0 1 .002-.426l.755-.74a1 1 0 0 1 1.407.007Zm-.977 5.495-4.674 4.41a.954.954 0 0 1-.486.26l-2.616.61a.5.5 0 0 1-.601-.597l.592-2.625a.954.954 0 0 1 .26-.485l4.677-4.444a.3.3 0 0 1 .419.006l2.435 2.435a.3.3 0 0 1-.006.43Z" clip-rule="evenodd"/>
</svg>
