<svg fill="none" viewBox="0 0 24 24"><path stroke="currentColor" stroke-width="2" d="M8.8 4.3 10 2.4a1 1 0 0 1 .8-.4h1.9a1 1 0 0 1 .8.4l1.2 1.8m-6 0q-.5.8-1.5.7m1.6-.6Q8 5 7.2 5m0 0L5 4.8a1 1 0 0 0-.9.4L3 6.6a1 1 0 0 0-.2.9l.7 2m0 0v1m0-1v1m0 0-.4.7m0 0-1.5 1.6a1 1 0 0 0-.2 1l.4 1.6a1 1 0 0 0 .6.7l2 .7.8.5M3 11.2l.4-.8m1.7 7q.3.3.3.7m-.3-.8q.3.4.3.8m0 0 .4 2.2.5.7 1.7.8a1 1 0 0 0 .9 0l1.9-1.1m0 0 .8-.3m-.8.3.8-.3m0 0 1 .3m-1-.3 1 .3m0 0 2 1h.8L17 21a1 1 0 0 0 .6-.7l.3-2.1m0 0 .4-.8m-.4.8q0-.5.4-.8m0 0 .7-.5m-.7.5q.2-.4.7-.5m0 0 2-.8a1 1 0 0 0 .6-.8l.4-1.6a1 1 0 0 0-.2-1l-1.5-1.6m0 0-.4-.7m.4.7-.4-.7m0 0v-.9l.6-2a1 1 0 0 0-.1-1l-1.2-1.4-.8-.3-2.2.1m0 0-.9-.1m.9.1-.9-.1m0 0-.7-.6m.7.6-.7-.6M15 12c0 1.9-1.5 3.4-3.4 3.4-2 0-3.5-1.5-3.5-3.4s1.6-3.4 3.5-3.4S15 10.1 15 12Z"/></svg>