<svg xmlns="http://www.w3.org/2000/svg" fill="none" viewBox="0 0 24 24"><path fill="currentColor" fill-rule="evenodd" d="M18 2.4A3.6 3.6 0 0 1 21.6 6v12a3.6 3.6 0 0 1-3.6 3.6H6A3.6 3.6 0 0 1 2.4 18V6A3.6 3.6 0 0 1 6 2.4zM13 5a1 1 0 1 0-2 0v3.2a1 1 0 1 0 2 0zM7.757 6.343a1 1 0 0 0-1.414 1.414l2.262 2.263a1 1 0 0 0 1.415-1.414zm9.9 1.415a1 1 0 0 0-1.414-1.415L13.98 8.606a1 1 0 1 0 1.414 1.414zM5 11a1 1 0 1 0 0 2h3.2a1 1 0 1 0 0-2zm10.8 0a1 1 0 1 0 0 2H19a1 1 0 1 0 0-2zm-.406 2.98a1 1 0 1 0-1.414 1.414l2.263 2.263a1 1 0 0 0 1.414-1.415zm-5.374 1.414a1 1 0 0 0-1.415-1.414l-2.262 2.263a1 1 0 0 0 1.414 1.414zM13 15.8a1 1 0 1 0-2 0V19a1 1 0 1 0 2 0z" clip-rule="evenodd"/></svg>