<svg xmlns="http://www.w3.org/2000/svg" fill="none" viewBox="0 0 24 24"><path fill="currentColor" d="M12 17a5 5 0 1 0 0-10 5 5 0 0 0 0 10"/><path fill="currentColor" fill-rule="evenodd" d="M12 .5a1 1 0 0 1 1 1v.951A9.6 9.6 0 0 1 21.549 11h.951a1 1 0 1 1 0 2h-.951A9.6 9.6 0 0 1 13 21.549v.951a1 1 0 1 1-2 0v-.952A9.6 9.6 0 0 1 2.452 13H1.5a1 1 0 1 1 0-2h.952A9.6 9.6 0 0 1 11 2.451V1.5a1 1 0 0 1 1-1M4.466 13H5a1 1 0 1 0 0-2h-.534A7.604 7.604 0 0 1 11 4.465V5a1 1 0 1 0 2 0v-.535A7.604 7.604 0 0 1 19.535 11H19a1 1 0 1 0 0 2h.535A7.604 7.604 0 0 1 13 19.535V19a1 1 0 1 0-2 0v.535A7.604 7.604 0 0 1 4.466 13" clip-rule="evenodd"/></svg>