<svg fill="none" viewBox="0 0 24 24"><path stroke="currentColor" stroke-width="2" d="m8.8 4.3 1.2-1.9a1 1 0 0 1 .8-.4h1.9a1 1 0 0 1 .8.4l1.2 1.8m-6 0q-.5.8-1.5.7m1.6-.6q-.7.7-1.6.7m0 0-2.2-.2a1 1 0 0 0-.9.4l-1.1 1.4a1 1 0 0 0-.2.9l.7 2m0 0q0 .4 0 1m0-1q0 .4 0 1m0 0q0 .3-.4.7m.4-.8v0m-.4.8-1.5 1.6a1 1 0 0 0-.2 1l.4 1.6a1 1 0 0 0 .6.7l2 .7q.5.2.8.5m-2.1-6.1q.3-.3.4-.8m1.7 7q.3.3.3.7m-.3-.8q.3.4.3.8m-.3-.8 0 0a2 2 0 0 0 0 0m.3.8.4 2.2a1 1 0 0 0 .5.7l1.7.8a1 1 0 0 0 .9 0l1.9-1.1m0 0a2 2 0 0 1 .8-.3m-.8.3a2 2 0 0 1 .8-.3m0 0a2 2 0 0 1 1 .3m-1-.3q.4 0 1 .3m0 0 2 1a1 1 0 0 0 .8 0l1.6-.7a1 1 0 0 0 .6-.7l.3-2.1m0 0a2 2 0 0 1 .4-.8m-.4.8q0-.5.4-.8m0 0a2 2 0 0 1 .7-.5m-.7.5q.2-.4.7-.5m0 0 2-.8a1 1 0 0 0 .6-.8l.4-1.6a1 1 0 0 0-.2-1l-1.5-1.6m0 0a2 2 0 0 1-.4-.7m.4.7a2 2 0 0 1-.4-.7m0 0a2 2 0 0 1 0-.9l.6-2a1 1 0 0 0-.1-1l-1.2-1.4a1 1 0 0 0-.8-.3l-2.2.1m0 0a2 2 0 0 1-.9-.1m.9.1a2 2 0 0 1-.9-.1m0 0a2 2 0 0 1-.7-.6m.7.6a2 2 0 0 1-.7-.6m-11.2 6.2v0m11.6 1.6c0 1.9-1.5 3.4-3.4 3.4-2 0-3.5-1.5-3.5-3.4s1.6-3.4 3.5-3.4c1.9 0 3.4 1.5 3.4 3.4Z"/></svg>