<svg viewBox="0 0 24 24"><path fill="currentColor" fill-rule="evenodd" d="M18 2a3.6 3.6 0 0 1 3.6 3.6v12a3.6 3.6 0 0 1-3.6 3.6H6a3.6 3.6 0 0 1-3.6-3.6v-12A3.6 3.6 0 0 1 6 2zm-7.6 6.3a1 1 0 0 1 0-1.3l1-1a4 4 0 0 1 3-1.2 4 4 0 0 1 3 1.2 4 4 0 0 1 1.4 3 4 4 0 0 1-1.3 3.1l-1 1a1 1 0 0 1-1.3 0 1 1 0 0 1 0-1.3l1-1a2.4 2.4 0 0 0 0-3.4 2 2 0 0 0-1.8-.8 2 2 0 0 0-1.6.7l-1 1a1 1 0 0 1-1.4 0m-5.6 6.1a4 4 0 0 1 1.2-3l1-1a1 1 0 0 1 1.3 0 1 1 0 0 1 0 1.3l-1 1a2.4 2.4 0 0 0 0 3.4q.8.8 1.8.8a2 2 0 0 0 1.7-.7l1-1a1 1 0 0 1 1.3 0 1 1 0 0 1 0 1.3l-1 1a4 4 0 0 1-3 1.3 4 4 0 0 1-3-1.3 4 4 0 0 1-1.3-3m0-6.5a1 1 0 0 1 1-1h1.1V5.8a1 1 0 1 1 2 0v2.1a1 1 0 0 1-1 1H5.8a1 1 0 0 1-1-1M18 17a1 1 0 1 0 0-2h-2.2a1 1 0 0 0-1 1v2a1 1 0 1 0 2 0v-1.2z" clip-rule="evenodd"/></svg>