<svg xmlns="http://www.w3.org/2000/svg" fill="none" viewBox="0 0 24 24"><path fill="currentColor" fill-rule="evenodd" d="M21.6 6A3.6 3.6 0 0 0 18 2.4H6A3.6 3.6 0 0 0 2.4 6v12A3.6 3.6 0 0 0 6 21.6h12a3.6 3.6 0 0 0 3.6-3.6zM10.01 7.767a1 1 0 1 0 1.414 1.414l1.066-1.066a2.5 2.5 0 0 1 1.796-.722 2.6 2.6 0 0 1 1.825.759l.011.01a2.533 2.533 0 0 1 .026 3.611l-1.066 1.066a1 1 0 0 0 1.415 1.414l1.066-1.066a4.533 4.533 0 0 0-.043-6.455 4.6 4.6 0 0 0-3.22-1.339 4.5 4.5 0 0 0-3.224 1.308zm-3.33 3.265a4.533 4.533 0 0 0 .037 6.45 4.53 4.53 0 0 0 3.225 1.366 4.46 4.46 0 0 0 3.224-1.308l1.066-1.065a1 1 0 0 0-1.414-1.415l-1.066 1.066a2.46 2.46 0 0 1-1.796.722 2.53 2.53 0 0 1-1.837-.791 2.533 2.533 0 0 1-.025-3.61l1.065-1.066a1 1 0 0 0-1.414-1.415zm8.071-.186-3.904 3.905a1 1 0 0 1-1.415-1.414l3.905-3.905a1 1 0 1 1 1.414 1.414" clip-rule="evenodd"/></svg>