<svg xmlns="http://www.w3.org/2000/svg" fill="none" viewBox="0 0 24 24"><path fill="currentColor" fill-rule="evenodd" d="M18 2.4A3.6 3.6 0 0 1 21.6 6v12a3.6 3.6 0 0 1-3.6 3.6H6A3.6 3.6 0 0 1 2.4 18V6A3.6 3.6 0 0 1 6 2.4zm1.2 4.2a1.8 1.8 0 1 1-3.6 0 1.8 1.8 0 0 1 3.6 0M7.762 14.434a1 1 0 0 0 .063-.061l.012-.012a.6.6 0 0 1 .854.003l.01.01q.03.03.06.058l2.004 1.736q.03.027.059.057l.01.011a.6.6 0 0 0 .838.018l4.115-3.867a.6.6 0 0 1 .824.006l2.222 2.133a1.2 1.2 0 0 1 .369.865V18.6a.6.6 0 0 1-.6.6H5.4a.6.6 0 0 1-.6-.6v-1.126a1.2 1.2 0 0 1 .215-.685.8.8 0 0 1 .142-.15l2.603-2.205Z" clip-rule="evenodd"/></svg>