<svg xmlns="http://www.w3.org/2000/svg" fill="none" viewBox="0 0 24 24">
  <path fill="#000" d="M15.125 7.677c-.34.34-.87.378-1.309.185A4.502 4.502 0 0 0 12 7.482c-.645 0-1.26.136-1.815.38-.44.193-.97.155-1.31-.185L6.61 5.411c-.415-.415-.387-1.1.103-1.425A9.557 9.557 0 0 1 12 2.4c1.954 0 3.772.584 5.289 1.586.49.324.517 1.01.102 1.425l-2.266 2.266Zm1.198 7.448c-.34-.34-.378-.87-.185-1.31.244-.555.38-1.17.38-1.815 0-.646-.136-1.26-.38-1.816-.193-.44-.155-.97.185-1.309l2.266-2.266c.415-.415 1.101-.387 1.425.103A9.556 9.556 0 0 1 21.6 12a9.556 9.556 0 0 1-1.586 5.288c-.324.49-1.01.518-1.425.103l-2.266-2.266Zm-7.447 1.197c.34-.34.869-.378 1.309-.184a4.5 4.5 0 0 0 1.815.38 4.5 4.5 0 0 0 1.816-.38c.44-.194.97-.155 1.309.184l2.266 2.267c.416.415.387 1.1-.102 1.424A9.556 9.556 0 0 1 12 21.6a9.557 9.557 0 0 1-5.288-1.587c-.49-.323-.518-1.01-.103-1.424l2.267-2.267Zm-1.198-1.197c.34-.34.378-.87.185-1.31A4.501 4.501 0 0 1 7.483 12c0-.646.135-1.26.38-1.816.193-.44.155-.97-.185-1.309L5.412 6.609c-.416-.415-1.101-.387-1.425.103A9.556 9.556 0 0 0 2.4 12c0 1.954.584 3.772 1.587 5.288.324.49 1.01.518 1.425.103l2.266-2.266Z"/>
</svg>
