<svg viewBox="0 0 24 24"><path fill="currentColor" d="m10 7.2.6.1 1.4-.2q1.7 0 3 1.3a5 5 0 0 1 1.3 3.1l-.2 1.2.2.6 2 2a.5.5 0 0 0 .8 0 14 14 0 0 0 2.1-3 2 2 0 0 0 0-1.6c-1-1.8-3.9-6.1-9.2-6.1a9 9 0 0 0-3.2.5q-.5.4-.1.8zm7.6 9.3L15 13.8l-1-.9-3.4-3.3-1.4-1.4-2.2-2-2.2-2.3L4 4l-.3.3V5l1.7 1.7q.3.3 0 .7a14 14 0 0 0-2.6 3.4 2 2 0 0 0 0 1.6c1 1.8 3.9 6.1 9.2 6.1a9 9 0 0 0 4.1-1l.6.1 2.6 2.6h.7l.3-.3v-.7zM12 16a4 4 0 0 1-3-1.4 5 5 0 0 1-1.3-3L8 9.8q.3-.4.7-.1l.8.7.1.6v.4l.3 1.2.7.8a2 2 0 0 0 2 .4l.5.1.8.8q.3.4 0 .7a4 4 0 0 1-1.9.5"/></svg>