<svg fill="none" viewBox="0 0 24 24"><path fill="currentColor" d="M12 12v-1a1 1 0 0 0-1 1zm0 0h1a1 1 0 0 0-1-1zm0 0v1a1 1 0 0 0 1-1zm0 0h-1a1 1 0 0 0 1 1zm8.6 0a8.6 8.6 0 0 1-8.6 8.6v2c5.9 0 10.6-4.7 10.6-10.6zm-8.6 8.6a8.6 8.6 0 0 1-8.6-8.6h-2c0 5.9 4.7 10.6 10.6 10.6zm-8.6-8.6a8.6 8.6 0 0 1 8.6-8.6v-2c-5.9 0-10.6 4.7-10.6 10.6zm8.6-8.6a8.6 8.6 0 0 1 8.6 8.6h2c0-5.9-4.7-10.6-10.6-10.6zm3.8 8.6a4 4 0 0 1-3.8 3.8v2a6 6 0 0 0 5.8-5.8zm-3.8 3.8a4 4 0 0 1-3.8-3.8h-2a6 6 0 0 0 5.8 5.8zm-3.8-3.8a4 4 0 0 1 3.8-3.8v-2a6 6 0 0 0-5.8 5.8zm3.8-3.8a4 4 0 0 1 3.8 3.8h2a6 6 0 0 0-5.8-5.8zm0 4.8zv-2h0zm-1-1zh2v0zm1-1zv2h0zm1 1zh-2v0z"/></svg>