<svg xmlns="http://www.w3.org/2000/svg" fill="none" viewBox="0 0 24 24"><path fill="currentColor" fill-rule="evenodd" d="M7.388 5.275a.27.27 0 0 0 0 .38L9.644 8a.27.27 0 0 1 0 .38L8.29 9.732a.27.27 0 0 1-.379 0L5.655 7.387a.27.27 0 0 0-.38 0L3.7 8.963a.536.536 0 0 1-.914-.343l-.383-5.647a.536.536 0 0 1 .57-.572l5.649.384a.536.536 0 0 1 .343.914zm9.226 13.45a.27.27 0 0 0 0-.38l-3.99-3.989a.27.27 0 0 1 0-.379l1.354-1.354a.27.27 0 0 1 .38 0l3.989 3.99a.27.27 0 0 0 .38 0l1.575-1.576a.536.536 0 0 1 .914.343l.384 5.647a.536.536 0 0 1-.571.572l-5.648-.384a.536.536 0 0 1-.343-.914zm2.112-11.337a.27.27 0 0 0-.38 0l-3.989 3.99a.27.27 0 0 1-.379 0l-1.354-1.354a.27.27 0 0 1 0-.38l3.99-3.99a.27.27 0 0 0 0-.378L15.038 3.7a.536.536 0 0 1 .343-.914l5.648-.384a.536.536 0 0 1 .57.571l-.383 5.648a.536.536 0 0 1-.914.343zm-13.45 9.224a.27.27 0 0 0 .379 0l3.99-3.99a.27.27 0 0 1 .378 0l1.354 1.354a.27.27 0 0 1 0 .38l-3.99 3.99a.27.27 0 0 0 0 .378L8.965 20.3a.536.536 0 0 1-.343.914l-5.648.384a.536.536 0 0 1-.571-.571l.384-5.648a.536.536 0 0 1 .914-.343l1.576 1.576Z" clip-rule="evenodd"/></svg>