<svg viewBox="0 0 24 24"><path fill="currentColor" d="M10 7.2a1 1 0 0 0 .6.1q.7-.2 1.4-.2 1.7 0 3 1.3a5 5 0 0 1 1.3 3.1q0 .6-.2 1.2a1 1 0 0 0 .2.6l2 2a.5.5 0 0 0 .8 0 14 14 0 0 0 2.1-3 2 2 0 0 0 0-1.6c-1-1.8-3.9-6.1-9.2-6.1a9 9 0 0 0-3.2.5q-.5.4-.1.8zm7.6 9.3-2.7-2.7-1-.9-3.4-3.3-1.4-1.4-2.2-2-2.2-2.3a1 1 0 0 0-.7 0l-.3.3a1 1 0 0 0 0 .7l1.7 1.7q.3.3 0 .7a14 14 0 0 0-2.6 3.4 2 2 0 0 0 0 1.6c1 1.8 3.9 6.1 9.2 6.1a9 9 0 0 0 4.1-1 1 1 0 0 1 .6.1l2.6 2.6a1 1 0 0 0 .7 0l.3-.3a1 1 0 0 0 0-.7zm-5.6-.5a4 4 0 0 1-3-1.4 5 5 0 0 1-1.3-3 5 5 0 0 1 .3-1.7q.3-.4.7-.1l.8.7a1 1 0 0 1 .1.6 3 3 0 0 0 0 .4 3 3 0 0 0 .3 1.2q.3.5.7.8a2 2 0 0 0 2 .4 1 1 0 0 1 .5.1l.8.8q.3.4 0 .7a4 4 0 0 1-1.9.5Z"/></svg>