<svg xmlns="http://www.w3.org/2000/svg" fill="none" viewBox="0 0 24 24">
  <path fill="#000" fill-rule="evenodd" d="M18.1 2.3a3.6 3.6 0 0 1 3.6 3.6v12a3.6 3.6 0 0 1-3.6 3.6h-12a3.6 3.6 0 0 1-3.6-3.6v-12a3.6 3.6 0 0 1 3.6-3.6h12Zm-11.557 3A1.03 1.03 0 0 0 5.5 6.315c0 .561.467 1.016 1.043 1.016H17.5a1.03 1.03 0 0 0 1.043-1.016A1.03 1.03 0 0 0 17.5 5.3H6.543Zm3.957 4.908c0-.384-.223-.736-.576-.908a1.066 1.066 0 0 0-1.092.096L6.33 11.224a.998.998 0 0 0-.209 1.422c.346.448 1 .54 1.46.203l.834-.61v5.045A1.03 1.03 0 0 0 9.457 18.3a1.03 1.03 0 0 0 1.043-1.016v-7.076Zm7.183 0c0-.384-.223-.736-.576-.908a1.066 1.066 0 0 0-1.092.096l-2.502 1.828a.998.998 0 0 0-.209 1.422c.346.448 1 .54 1.46.203l.834-.61v5.045A1.03 1.03 0 0 0 16.64 18.3a1.03 1.03 0 0 0 1.043-1.016v-7.076Z" clip-rule="evenodd"/>
</svg>
