<svg fill="none" viewBox="0 0 24 24"><path fill="currentColor" d="M16.1 9.3A1 1 0 0 0 14.7 8zm-8.2 5.4A1 1 0 1 0 9.3 16zm6.8 1.4a1 1 0 0 0 1.4-1.4zM9.3 7.9A1 1 0 0 0 8 9.3zM20.6 12a8.6 8.6 0 0 1-8.6 8.6v2c5.9 0 10.6-4.7 10.6-10.6zM12 20.6A8.6 8.6 0 0 1 3.4 12h-2c0 5.9 4.7 10.6 10.6 10.6zM3.4 12A8.6 8.6 0 0 1 12 3.4v-2C6.1 1.4 1.4 6.1 1.4 12zM12 3.4a8.6 8.6 0 0 1 8.6 8.6h2c0-5.9-4.7-10.6-10.6-10.6zm2.7 4.5-3.4 3.4 1.4 1.4 3.4-3.4zm-3.4 3.4-3.4 3.4L9.3 16l3.4-3.4zm4.8 3.4-3.4-3.4-1.4 1.4 3.4 3.4zm-3.4-3.4L9.3 7.9 8 9.3l3.4 3.4z"/></svg>