<svg viewBox="0 0 24 24"><path fill="currentColor" d="M15.1 7.7q-.5.5-1.3.2a5 5 0 0 0-1.8-.4q-1 0-1.8.4-.8.3-1.3-.2l-2.3-2.3q-.6-.7.1-1.4a10 10 0 0 1 5.3-1.6q3 0 5.3 1.6.8.6 0 1.4zm1.2 7.4q-.5-.5-.2-1.3.4-.8.4-1.8 0-1-.4-1.8-.3-.8.2-1.3l2.3-2.3q.7-.6 1.4.1a10 10 0 0 1 1.6 5.3 10 10 0 0 1-1.6 5.3q-.6.8-1.4 0zm-7.4 1.2q.5-.5 1.3-.2a5 5 0 0 0 1.8.4 5 5 0 0 0 1.8-.4q.8-.3 1.3.2l2.3 2.3q.6.7-.1 1.4a10 10 0 0 1-5.3 1.6 10 10 0 0 1-5.3-1.6q-.7-.6 0-1.4zm-1.2-1.2q.5-.5.2-1.3a5 5 0 0 1-.4-1.8q0-1 .4-1.8.3-.8-.2-1.3l-2.3-2.3q-.7-.6-1.4.1a10 10 0 0 0-1.6 5.3q0 3 1.6 5.3.6.8 1.4 0z"/></svg>