<svg fill="none" viewBox="0 0 24 24"><path fill="currentColor" d="M5.3 16.4a1 1 0 1 0 1.4-1.4zm-2.9-4.3-.7-.7a1 1 0 0 0 0 1.4zm4.3-2.9a1 1 0 1 0-1.4-1.4zm12-1.4a1 1 0 0 0-1.4 1.4zm2.9 4.3.7.7a1 1 0 0 0 0-1.4zm-4.3 3a1 1 0 0 0 1.4 1.3zm-8 3.2a1 1 0 0 0 2 .5zm2.7-6.2-1-.2v0zm2.8-6.4a1 1 0 1 0-2-.5zm-8 9.3-3.7-3.6-1.4 1.4 3.6 3.6zm-3.7-2.2 3.6-3.6-1.4-1.4-3.6 3.6zm14.2-3.6 3.6 3.6 1.4-1.4-3.6-3.6zm3.6 2.2-3.6 3.6 1.4 1.4 3.6-3.6zm-9.6 7.4 1.7-6.4-2-.5-1.7 6.4zm1.7-6.4 1.8-6.7-2-.5-1.8 6.7z"/></svg>