<svg fill="none" viewBox="0 0 24 24"><path fill="currentColor" d="m8.5 12.9-.7-.8zm0 0-.7-.8zm-2.2 1.8-.6-.7zm-.1.1.8.6zm11.5-1.8-.7.7zm-1.9-1.8-.7.7zm-.6 0-.7-.8 0 0zm-3.5 3.2.7.7 0 0zm-.7 0-.7.7 0 0zm0 0-.7.7zm0 0 .6-.8zm-1.7-1.5.7-.8zm0 0 .7-.8h0zm0 0 .7-.8 0 0zm-.8 0-.7-.8 0 0zm7.8-6.3v-1a1 1 0 0 0-1 1zm.4 0h1a1 1 0 0 0-1-1zm0 .3v1a1 1 0 0 0 1-1zm-.4 0h-1a1 1 0 0 0 1 1zm-14.9-.9v12h2v-12zm4.6 16.6h12v-2h-12zm16.6-4.6v-12h-2v12zm-4.6-16.6h-12v2h12zm4.6 4.6a4.6 4.6 0 0 0-4.6-4.6v2a2.6 2.6 0 0 1 2.6 2.6zm-4.6 16.6a4.6 4.6 0 0 0 4.6-4.6h-2a2.6 2.6 0 0 1-2.6 2.6zm-16.6-4.6a4.6 4.6 0 0 0 4.6 4.6v-2a2.6 2.6 0 0 1-2.6-2.6zm2-12a2.6 2.6 0 0 1 2.6-2.6v-2a4.6 4.6 0 0 0-4.6 4.6zm5.7 7.6q0 0 .1 0l-1.4-1.5 0 0q0 0 0 0l0 0zm-2.2 1.9 2.2-1.9-1.3-1.5-2.1 1.9zm.1 0a1 1 0 0 1 0 0zl-1.3-1.5a2 2 0 0 0-.3.3zm0 0-1.6-1.2a2 2 0 0 0-.4 1.1zm0 2v-2h-2v2zm-.5-.5a1 1 0 0 1 .5.5h-2a1.5 1.5 0 0 0 1.5 1.5zm11 0h-11v2h11zm-.5.5a1 1 0 0 1 .5-.5v2a1.5 1.5 0 0 0 1.5-1.5zm0-3.8v3.8h2v-3.8zm0 0h2a2 2 0 0 0-.6-1.5zm-1.9-1.8 1.9 1.8 1.4-1.5-1.9-1.7zm.7 0a1 1 0 0 1-.7 0l1.4-1.4a1.5 1.5 0 0 0-2 0zm-3.4 3.2 3.4-3.2-1.3-1.5-3.5 3.3zm-2 0a1.5 1.5 0 0 0 2 0l-1.4-1.4a1 1 0 0 1 .7 0zm-.1 0zl1.4-1.4 0 0zm0 0a0 0 0 0 1 0 0q0 0 0 0zl1.4-1.4a1 1 0 0 0 0-.1zm-1.7-1.5 1.7 1.5 1.3-1.5-1.6-1.5zm0 0q0 0 0 0l1.4-1.5 0 0h0l0 0zm0 0zl1.4-1.5 0 0zm.6 0a1 1 0 0 1-.7 0l1.5-1.5a1.5 1.5 0 0 0-2.2 0zm0 0zl-1.4-1.5 0 0zm7.1-6h.4v-2h-.4zm-.6-1v.3h2v-.3zm1-.7h-.4v2h.4zm.6 1v-.3h-2v.3z"/></svg>