<svg xmlns="http://www.w3.org/2000/svg" fill="currentColor" viewBox="0 0 24 24"><path d="m8.467 12.882-.647-.763zm.053-.05-.713-.702zM6.298 14.72l-.646-.763zm-.119.125.821.571zm11.514-1.886-.693.722zm-1.852-1.777-.692.721.692-.72Zm-.687-.005-.682-.73-.003.002zM11.725 14.4l.683.73.002-.002zm-.698-.016-.716.699.002.001zm-.009-.009-.716.698zm-.049-.047.655-.756zM9.3 12.88l.655-.756zm-.05-.048.718-.697h-.001l-.716.697Zm-.008-.009.716-.698-.001-.001zm-.712-.002-.71-.703-.002.001zM16.32 6.6v-1a1 1 0 0 0-1 1zm.344 0h1a1 1 0 0 0-1-1zm0 .29v1a1 1 0 0 0 1-1zm-.343 0h-1a1 1 0 0 0 1 1zM1.4 6v12h2V6zM6 22.6h12v-2H6zM22.6 18V6h-2v12zM18 1.4H6v2h12zM22.6 6A4.6 4.6 0 0 0 18 1.4v2A2.6 2.6 0 0 1 20.6 6zM18 22.6a4.6 4.6 0 0 0 4.6-4.6h-2a2.6 2.6 0 0 1-2.6 2.6zM1.4 18A4.6 4.6 0 0 0 6 22.6v-2A2.6 2.6 0 0 1 3.4 18zm2-12A2.6 2.6 0 0 1 6 3.4v-2A4.6 4.6 0 0 0 1.4 6zm5.713 7.645c.06-.05.108-.1.12-.112L7.806 12.13l-.008.009q-.003.003-.001 0l.023-.02zm-2.169 1.838 2.17-1.838L7.82 12.12l-2.168 1.838zM7 15.416a1 1 0 0 1-.048.06l-.008.007-1.292-1.526a1.7 1.7 0 0 0-.294.317zm0 0-1.642-1.142A2 2 0 0 0 5 15.416zM7 17.5v-2.084H5V17.5zm-.5-.5a.5.5 0 0 1 .5.5H5A1.5 1.5 0 0 0 6.5 19zm11 0h-11v2h11zm-.5.5a.5.5 0 0 1 .5-.5v2a1.5 1.5 0 0 0 1.5-1.5zm0-3.82v3.82h2v-3.82zm0 0h2a2 2 0 0 0-.615-1.442zm-1.851-1.777L17 13.68l1.385-1.442-1.851-1.777zm.687.005a.5.5 0 0 1-.687-.005l1.385-1.442a1.5 1.5 0 0 0-2.062-.015zm-3.426 3.22 3.429-3.222-1.37-1.458-3.429 3.223zm-2.097-.044a1.5 1.5 0 0 0 2.095.047l-1.365-1.462a.5.5 0 0 1 .699.016l-1.43 1.4Zm-.01-.01.008.009 1.432-1.397-.009-.009-1.432 1.396Zm.012.01-.022-.02q-.001-.001 0 0l.009.009 1.433-1.395a1 1 0 0 0-.111-.106zm-1.67-1.447 1.67 1.447 1.309-1.512-1.67-1.447zm-.112-.107c.01.011.056.06.111.107l1.31-1.512.022.02h-.001l-.008-.01zm-.008-.008.009.009 1.432-1.396-.009-.009zm.715.003a.5.5 0 0 1-.714-.002l1.43-1.398a1.5 1.5 0 0 0-2.138-.006zm-.008.008.01-.01-1.425-1.403-.01.01zM16.32 7.6h.343v-2h-.343zm-.657-1v.29h2V6.6zm1-.71h-.343v2h.343zm.657 1V6.6h-2v.29z"/></svg>