<svg xmlns="http://www.w3.org/2000/svg" fill="none" viewBox="0 0 24 24"><path fill="currentColor" d="M21.6 16.32v3.6q0 .45-.323.765t-.784.315H3.508q-.462 0-.785-.315a1.03 1.03 0 0 1-.323-.765v-3.6q0-.45.323-.765t.785-.315h4.103c.496 0 .919.331 1.254.698a2.4 2.4 0 0 0 .383.337q.571.405 1.276.405h2.953q.704 0 1.275-.405a2.4 2.4 0 0 0 .384-.337c.335-.367.757-.698 1.254-.698h4.103q.461 0 .784.315.324.315.323.765m-3.75-7.29q-.195.45-.68.45h-2.954v5.04a.68.68 0 0 1-.22.506.72.72 0 0 1-.519.214h-2.954a.72.72 0 0 1-.519-.214.68.68 0 0 1-.219-.506V9.48H6.831q-.485 0-.68-.45-.197-.438.16-.776l5.17-5.04a.7.7 0 0 1 .52-.214q.31 0 .519.214l5.169 5.04q.357.338.161.776"/></svg>