<svg xmlns="http://www.w3.org/2000/svg" fill="none" viewBox="0 0 24 24">
  <path fill="#000" d="M21.6 16.32v3.6c0 .3-.107.555-.323.765-.215.21-.477.315-.784.315H3.508c-.308 0-.57-.105-.785-.315a1.028 1.028 0 0 1-.323-.765v-3.6c0-.3.108-.555.323-.765.216-.21.477-.315.785-.315h4.103c.496 0 .919.331 1.254.698a2.4 2.4 0 0 0 .383.337c.381.27.806.405 1.276.405h2.953c.47 0 .894-.135 1.275-.405a2.39 2.39 0 0 0 .384-.337c.335-.367.757-.698 1.254-.698h4.103c.307 0 .569.105.784.315.216.21.323.465.323.765Zm-3.75-7.29c-.13.3-.357.45-.68.45h-2.954v5.04a.684.684 0 0 1-.22.506.719.719 0 0 1-.519.214h-2.954a.719.719 0 0 1-.519-.214.684.684 0 0 1-.219-.506V9.48H6.831c-.323 0-.55-.15-.68-.45-.131-.292-.078-.551.16-.776l5.17-5.04a.694.694 0 0 1 .52-.214c.207 0 .38.071.519.214l5.169 5.04c.238.225.292.484.161.776Z"/>
</svg>
