<svg xmlns="http://www.w3.org/2000/svg" fill="none" viewBox="0 0 24 24">
  <path fill="#000" fill-rule="evenodd" d="M7.2 21.6h9.6a2.4 2.4 0 0 0 2.4-2.4v-12h1.2a1.2 1.2 0 0 0 0-2.4h-3.187l-.971-1.776a1.2 1.2 0 0 0-1.053-.624h-6.22c-.518 0-.977.334-1.183.81-.21.484-.517 1.099-.891 1.59H3.6a1.2 1.2 0 0 0 0 2.4h1.2v12a2.4 2.4 0 0 0 2.4 2.4Zm2.4-12a1.2 1.2 0 0 1 1.2 1.2v6a1.2 1.2 0 1 1-2.4 0v-6a1.2 1.2 0 0 1 1.2-1.2Zm4.8 0a1.2 1.2 0 0 1 1.2 1.2v6a1.2 1.2 0 1 1-2.4 0v-6a1.2 1.2 0 0 1 1.2-1.2Z" clip-rule="evenodd"/>
</svg>
