<svg viewBox="0 0 24 24"><path fill="currentColor" fill-rule="evenodd" d="M7.4 5.3a.3.3 0 0 0 0 .4l2.2 2.3a.3.3 0 0 1 0 .4l-1.3 1.3a.3.3 0 0 1-.4 0l-2.2-2.3a.3.3 0 0 0-.4 0l-1.6 1.6a.5.5 0 0 1-1-.4l-.3-5.6a.5.5 0 0 1 .6-.6l5.6.4a.5.5 0 0 1 .4.9zm9.2 13.4a.3.3 0 0 0 0-.4l-4-4a.3.3 0 0 1 0-.3l1.4-1.4a.3.3 0 0 1 .4 0l4 4a.3.3 0 0 0 .3 0l1.6-1.6a.5.5 0 0 1 1 .4l.3 5.6a.5.5 0 0 1-.6.6l-5.6-.4a.5.5 0 0 1-.4-.9zm2.1-11.3a.3.3 0 0 0-.4 0l-4 4a.3.3 0 0 1-.3 0l-1.4-1.4a.3.3 0 0 1 0-.4l4-4a.3.3 0 0 0 0-.3l-1.6-1.6a.5.5 0 0 1 .4-1l5.6-.3a.5.5 0 0 1 .6.6l-.4 5.6a.5.5 0 0 1-.9.4zm-13.4 9.2a.3.3 0 0 0 .4 0l4-4a.3.3 0 0 1 .3 0l1.4 1.4a.3.3 0 0 1 0 .4l-4 4a.3.3 0 0 0 0 .3l1.6 1.6a.5.5 0 0 1-.4 1l-5.6.3a.5.5 0 0 1-.6-.6l.4-5.6a.5.5 0 0 1 .9-.4z" clip-rule="evenodd"/></svg>