<svg fill="none" viewBox="0 0 24 24"><path fill="currentColor" d="M16.1 9.3a1 1 0 0 0-1.4-1.4zm-8.2 5.4a1 1 0 1 0 1.4 1.4zm6.8 1.4a1 1 0 0 0 1.4-1.4zm-5.4-8.2a1 1 0 0 0-1.4 1.4zm11.3 4.1a8.6 8.6 0 0 1-8.6 8.6v2c5.9 0 10.6-4.7 10.6-10.6zm-8.6 8.6a8.6 8.6 0 0 1-8.6-8.6h-2c0 5.9 4.7 10.6 10.6 10.6zm-8.6-8.6a8.6 8.6 0 0 1 8.6-8.6v-2c-5.9 0-10.6 4.7-10.6 10.6zm8.6-8.6a8.6 8.6 0 0 1 8.6 8.6h2c0-5.9-4.7-10.6-10.6-10.6zm2.7 4.5-3.4 3.4 1.4 1.4 3.4-3.4zm-3.4 3.4-3.4 3.4 1.4 1.4 3.4-3.4zm4.8 3.4-3.4-3.4-1.4 1.4 3.4 3.4zm-3.4-3.4-3.4-3.4-1.4 1.4 3.4 3.4z"/></svg>