<svg viewBox="0 0 24 24"><path fill="currentColor" fill-rule="evenodd" d="M7.4 5.3v.4L9.6 8v.4L8.3 9.7h-.4L5.7 7.4h-.4L3.7 9a.5.5 0 0 1-1-.4L2.5 3a.5.5 0 0 1 .6-.6l5.6.4a.5.5 0 0 1 .4.9zm9.2 13.4v-.4l-4-4V14l1.4-1.4h.4l4 4h.3l1.6-1.6a.5.5 0 0 1 1 .4l.3 5.6a.5.5 0 0 1-.6.6l-5.6-.4a.5.5 0 0 1-.4-.9zm2.1-11.3h-.4l-4 4H14L12.6 10v-.4l4-4v-.3L15 3.7a.5.5 0 0 1 .4-1l5.6-.3a.5.5 0 0 1 .6.6l-.4 5.6a.5.5 0 0 1-.9.4zM5.3 16.6h.4l4-4h.3l1.4 1.4v.4l-4 4v.3L9 20.3a.5.5 0 0 1-.4 1l-5.6.3a.5.5 0 0 1-.6-.6l.4-5.6a.5.5 0 0 1 .9-.4z" clip-rule="evenodd"/></svg>