<svg xmlns="http://www.w3.org/2000/svg" fill="none" viewBox="0 0 24 24">
  <path fill="#000" fill-rule="evenodd" d="M18 2.4A3.6 3.6 0 0 1 21.6 6v12a3.6 3.6 0 0 1-3.6 3.6H6A3.6 3.6 0 0 1 2.4 18V6A3.6 3.6 0 0 1 6 2.4h12Zm-7.398 7.303c0-.816.644-1.445 1.4-1.445.755 0 1.4.63 1.4 1.445 0 .816-.645 1.446-1.4 1.446a1 1 0 0 0-1 .999l-.001.477v.154a1 1 0 1 0 2 0v.219a3.444 3.444 0 0 0 2.4-3.295c0-1.885-1.504-3.445-3.4-3.445-1.895 0-3.4 1.56-3.4 3.445a1 1 0 0 0 2 0ZM13 16.458a1 1 0 1 0-2 0v.042a1 1 0 1 0 2 0v-.042Z" clip-rule="evenodd"/>
</svg>
