<svg xmlns="http://www.w3.org/2000/svg" fill="none" viewBox="0 0 24 24">
  <path fill="#000" fill-rule="evenodd" d="M14.647 5.7c0-.557-.223-1.091-.62-1.485a2.127 2.127 0 0 0-1.498-.615H5.118c-.562 0-1.1.221-1.498.615C3.223 4.61 3 5.143 3 5.7v12.6c0 .557.223 1.091.62 1.485.397.394.936.615 1.498.615h7.411c.562 0 1.1-.221 1.498-.615a2.09 2.09 0 0 0 .62-1.485V13h3.63l-1.452 1.44a1 1 0 0 0 1.409 1.42l3.176-3.15a1 1 0 0 0 0-1.42l-3.176-3.15a1 1 0 1 0-1.409 1.42L18.278 11h-3.63V5.7Zm-.002 5.3H8a1 1 0 1 0 0 2h6.63v-2h.014Z" clip-rule="evenodd"/>
</svg>
