<svg viewBox="0 0 24 24"><path fill="currentColor" fill-rule="evenodd" d="M12 3.7q.3-.6-.4-.7h-6A3.6 3.6 0 0 0 2 6.6v12a3.6 3.6 0 0 0 3.6 3.6h12a3.6 3.6 0 0 0 3.6-3.6v-5.9q-.1-.5-.7-.5a6.8 6.8 0 0 1-8.4-8.5M7 10a2 2 0 1 0 0-4 2 2 0 0 0 0 4m0 9.1 7.2-5.8h.6l4 3 .2.4V18a2 2 0 0 1-2 2H7.3a.5.5 0 0 1-.4-.9M18.5 3q-1.2.2-1.3 1.2a1 1 0 0 1-2 0c0-1.7 1.5-3.2 3.3-3.2 2 0 3.5 1.5 3.5 3.2q0 .9-.6 1.5-.4.6-1 .9l-.7.5a1 1 0 0 1-2-.3v-.4a1 1 0 0 1 .6-.9l1-.6.6-.5.1-.2q0-1-1.3-1.2" clip-rule="evenodd"/><path fill="currentColor" fill-rule="evenodd" d="M18.7 8.2a1 1 0 0 1 1 1 1 1 0 1 1-2 0 1 1 0 0 1 1-1" clip-rule="evenodd"/></svg>