<svg xmlns="http://www.w3.org/2000/svg" fill="none" viewBox="0 0 24 24">
  <path fill="#000" fill-rule="evenodd" d="M19.2 2.8c-.794 0-1.4.624-1.4 1.348a1 1 0 1 1-2 0C15.8 2.278 17.343.8 19.2.8s3.4 1.478 3.4 3.348c0 1.87-1.543 3.348-3.4 3.348a1 1 0 1 1 0-2c.794 0 1.4-.625 1.4-1.348 0-.724-.606-1.348-1.4-1.348ZM1.4 6.6A4.6 4.6 0 0 1 6 2h6.6a1 1 0 1 1 0 2H6a2.6 2.6 0 0 0-2.6 2.6v12a2.6 2.6 0 0 0 2.231 2.574l9.884-9.302a1 1 0 0 1 1.392.02l3.693 3.694V12a1 1 0 1 1 2 0v6.6a4.6 4.6 0 0 1-4.6 4.6H6a4.6 4.6 0 0 1-4.6-4.6v-12ZM5 8.4a2.8 2.8 0 1 1 5.6 0 2.8 2.8 0 0 1-5.6 0Zm14.2.2a1 1 0 0 1 1 1v.09a1 1 0 0 1-2 0V9.6a1 1 0 0 1 1-1Z" clip-rule="evenodd"/>
</svg>
