<svg xmlns="http://www.w3.org/2000/svg" fill="none" viewBox="0 0 24 24">
  <path fill="#000" d="M19.118 1.355a1 1 0 0 0-1.41 0l-2.454 2.443a1 1 0 1 0 1.41 1.418l.75-.745v3.593a1 1 0 1 0 2 0V4.47l.64.637a1 1 0 1 0 1.41-1.419l-2.346-2.332Z"/>
  <path fill="#000" fill-rule="evenodd" d="M11.579 3c.358 0 .601.366.5.71a6.82 6.82 0 0 0 8.418 8.499c.341-.099.703.145.703.5V18.6a3.6 3.6 0 0 1-3.6 3.6h-12A3.6 3.6 0 0 1 2 18.6v-12A3.6 3.6 0 0 1 5.6 3h5.979ZM9 8a2 2 0 1 1-4 0 2 2 0 0 1 4 0Zm5.188 5.293-7.27 5.843a.5.5 0 0 0 .343.864H17a2 2 0 0 0 2-2v-1.256a.5.5 0 0 0-.193-.394l-3.97-3.087a.5.5 0 0 0-.649.03Z" clip-rule="evenodd"/>
</svg>
