<svg viewBox="0 0 24 24"><path fill="currentColor" fill-rule="evenodd" d="M19.2 2.8q-1.3.1-1.4 1.3a1 1 0 1 1-2 0c0-1.8 1.5-3.3 3.4-3.3s3.4 1.5 3.4 3.3c0 2-1.5 3.4-3.4 3.4a1 1 0 1 1 0-2q1.3-.1 1.4-1.4-.1-1.2-1.4-1.3Zm-17.8 3.8a4.6 4.6 0 0 1 4.6-4.6h6.6a1 1 0 1 1 0 2h-6.6a2.6 2.6 0 0 0-2.6 2.6v12a2.6 2.6 0 0 0 2.2 2.6l10-9.3a1 1 0 0 1 1.3 0l3.7 3.7v-3.6a1 1 0 1 1 2 0v6.6a4.6 4.6 0 0 1-4.6 4.6h-12a4.6 4.6 0 0 1-4.6-4.6zm3.6 1.8a2.8 2.8 0 1 1 5.6 0 2.8 2.8 0 0 1-5.6 0Zm14.2.2a1 1 0 0 1 1 1v0a1 1 0 0 1-2 0v0a1 1 0 0 1 1-1Z" clip-rule="evenodd"/></svg>