<svg fill="none" viewBox="0 0 24 24"><path fill="currentColor" d="M4.7 17.3A1 1 0 1 0 6 18.7zM8.4 15l.7-.7a1 1 0 0 0-1.4 0zm2.4 2.4-.7.7a1 1 0 0 0 1.4 0zm5.4-5.4.7-.7a1 1 0 0 0-1.4 0zm3.5 5a1 1 0 0 0 1.4-1.5zM6 18.6l3-3-1.4-1.4-3 3zm1.6-3L10 18l1.4-1.4L9 14.2zm3.8 2.4 5.4-5.4-1.4-1.4-5.4 5.4zm4-5.4 4.2 4.2 1.4-1.4-4.2-4.2zm-3.4 8A8.6 8.6 0 0 1 3.4 12h-2c0 5.9 4.7 10.6 10.6 10.6zm8.6-8.6a8.6 8.6 0 0 1-8.6 8.6v2c5.9 0 10.6-4.7 10.6-10.6zM12 3.4a8.6 8.6 0 0 1 8.6 8.6h2c0-5.9-4.7-10.6-10.6-10.6zm0-2C6.1 1.4 1.4 6.1 1.4 12h2A8.6 8.6 0 0 1 12 3.4zM9.8 9a1 1 0 0 1-.8.8v2A3 3 0 0 0 11.8 9zm-.8.8a1 1 0 0 1-.8-.8h-2A3 3 0 0 0 9 11.8zM8.2 9a1 1 0 0 1 .8-.8v-2A3 3 0 0 0 6.2 9zm.8-.8a1 1 0 0 1 .8.8h2A3 3 0 0 0 9 6.2z"/></svg>