<svg xmlns="http://www.w3.org/2000/svg" fill="currentColor" viewBox="0 0 24 24"><path d="m2.4 20.4-.78-.625A1 1 0 0 0 2.4 21.4zm5.28-6.6.78-.625a1 1 0 0 0-1.56 0zm1.92 2.4-.78.625a1 1 0 0 0 1.56 0zm4.32-5.4.78-.625a1 1 0 0 0-1.56 0zm7.68 9.6v1a1 1 0 0 0 .78-1.625zM7.4 5.4a.8.8 0 0 1-.8.8v2a2.8 2.8 0 0 0 2.8-2.8zm-.8.8a.8.8 0 0 1-.8-.8h-2a2.8 2.8 0 0 0 2.8 2.8zm-.8-.8a.8.8 0 0 1 .8-.8v-2a2.8 2.8 0 0 0-2.8 2.8zm.8-.8a.8.8 0 0 1 .8.8h2a2.8 2.8 0 0 0-2.8-2.8zM3.18 21.025l5.28-6.6-1.56-1.25-5.28 6.6zm3.72-6.6 1.92 2.4 1.56-1.25-1.92-2.4zm3.48 2.4 4.32-5.4-1.56-1.25-4.32 5.4zm2.76-5.4 7.68 9.6 1.56-1.25-7.68-9.6zM21.6 19.4H2.4v2h19.2z"/></svg>