<svg fill="none" viewBox="0 0 24 24"><path fill="currentColor" d="M7.2 6.1v1a1 1 0 0 0 .9-.5zm1.7-2.9v-1a1 1 0 0 0-.9.5zm6.2 0 .9-.5a1 1 0 0 0-.9-.5zm1.7 3-.9.4a1 1 0 0 0 .9.5zM3.4 18.3V8.5h-2v9.9zM4.8 7h2.4V5H4.8zm3.3-.5 1.6-2.9-1.7-1-1.7 3zm.8-2.4H15v-2H9zm5.4-.5 1.6 3 1.8-1-1.7-3zM16.8 7h2.4V5h-2.4zm3.8 1.4v9.9h2V8.5zm0 9.9a1.4 1.4 0 0 1-1.4 1.4v2a3.4 3.4 0 0 0 3.4-3.4zM19.2 7a1.4 1.4 0 0 1 1.4 1.4h2A3.4 3.4 0 0 0 19.2 5zM3.4 8.5a1.4 1.4 0 0 1 1.4-1.4v-2a3.4 3.4 0 0 0-3.4 3.4zm1.4 11.3a1.4 1.4 0 0 1-1.4-1.4h-2a3.4 3.4 0 0 0 3.4 3.4zm9.8-7a2.6 2.6 0 0 1-2.6 2.6v2a4.6 4.6 0 0 0 4.6-4.6zM12 15.4a2.6 2.6 0 0 1-2.6-2.6h-2a4.6 4.6 0 0 0 4.6 4.6zm-2.6-2.6a2.6 2.6 0 0 1 2.6-2.6v-2a4.6 4.6 0 0 0-4.6 4.6zm2.6-2.6a2.6 2.6 0 0 1 2.6 2.6h2A4.6 4.6 0 0 0 12 8.2zm7.2 9.6H4.8v2h14.4z"/></svg>