<svg viewBox="0 0 24 24"><path fill="currentColor" fill-rule="evenodd" d="M.8 6a4.6 4.6 0 0 1 4.6-4.6h7.8a1 1 0 1 1 0 2H5.4A2.6 2.6 0 0 0 2.8 6v12A2.6 2.6 0 0 0 5 20.6l10-9.3a1 1 0 0 1 1.3 0L20 15v-4.2a1 1 0 1 1 2 0V18a4.6 4.6 0 0 1-4.6 4.6h-12A4.6 4.6 0 0 1 .8 18zm15.9-4.3a1 1 0 0 1 1.4 0l1.7 1.7 1.7-1.7A1 1 0 1 1 22.9 3l-1.7 1.7L23 6.5a1 1 0 0 1-1.4 1.4l-1.7-1.7L18.1 8a1 1 0 1 1-1.4-1.4l1.7-1.7-1.7-1.7a1 1 0 0 1 0-1.4m-12.3 6a2.8 2.8 0 1 1 5.6 0 2.8 2.8 0 0 1-5.6 0" clip-rule="evenodd"/></svg>