<svg xmlns="http://www.w3.org/2000/svg" fill="none" viewBox="0 0 24 24">
  <path fill="#000" fill-rule="evenodd" d="M.303 6a4.6 4.6 0 0 1 4.6-4.6h7.8a1 1 0 1 1 0 2h-7.8a2.6 2.6 0 0 0-2.6 2.6v12a2.6 2.6 0 0 0 2.23 2.574l9.884-9.302a1 1 0 0 1 1.393.02l3.693 3.694V12a1 1 0 0 1 2 0v6a4.6 4.6 0 0 1-4.6 4.6h-12a4.6 4.6 0 0 1-4.6-4.6V6Zm14.606 0a1 1 0 0 1 1-1h6.788a1 1 0 1 1 0 2h-6.788a1 1 0 0 1-1-1ZM6.703 7a.8.8 0 1 0 0 1.6.8.8 0 0 0 0-1.6Zm-2.8.8a2.8 2.8 0 1 1 5.6 0 2.8 2.8 0 0 1-5.6 0Z" clip-rule="evenodd"/>
</svg>
