<svg xmlns="http://www.w3.org/2000/svg" fill="none" viewBox="0 0 24 24">
  <path fill="#000" fill-rule="evenodd" d="M12.079 3.71c.101-.344-.142-.71-.5-.71H5.6A3.6 3.6 0 0 0 2 6.6v12a3.6 3.6 0 0 0 3.6 3.6h12a3.6 3.6 0 0 0 3.6-3.6v-5.89c0-.356-.362-.6-.703-.502a6.82 6.82 0 0 1-8.418-8.499ZM7 10a2 2 0 1 0 0-4 2 2 0 0 0 0 4Zm-.082 9.136 7.27-5.842a.5.5 0 0 1 .65-.031l3.969 3.087a.5.5 0 0 1 .193.395V18a2 2 0 0 1-2 2H7.26a.5.5 0 0 1-.342-.864Z" clip-rule="evenodd"/>
  <path fill="#000" d="M18.898.897a1 1 0 0 1 1 1v2.395h2.394a1 1 0 1 1 0 2h-2.394v2.394a1 1 0 1 1-2 0V6.292h-2.394a1 1 0 1 1 0-2h2.394V1.897a1 1 0 0 1 1-1Z"/>
</svg>
