<svg fill="none" viewBox="0 0 24 24"><path fill="currentColor" d="M4.7 17.3a1 1 0 1 0 1.4 1.4zm3.7-2.3.7-.7a1 1 0 0 0-1.4 0zm2.4 2.4-.7.7a1 1 0 0 0 1.4 0zm5.4-5.4.7-.7a1 1 0 0 0-1.4 0zm3.5 5a1 1 0 0 0 1.4-1.5zm-13.6 1.7 3-3-1.4-1.4-3 3zm1.6-3 2.4 2.4 1.4-1.4-2.4-2.4zm3.8 2.4 5.4-5.4-1.4-1.4-5.4 5.4zm4-5.4 4.2 4.2 1.4-1.4-4.2-4.2zm-3.5 7.9a8.6 8.6 0 0 1-8.6-8.6h-2c0 5.9 4.7 10.6 10.6 10.6zm8.6-8.6a8.6 8.6 0 0 1-8.6 8.6v2c5.9 0 10.6-4.7 10.6-10.6zm-8.6-8.6a8.6 8.6 0 0 1 8.6 8.6h2c0-5.9-4.7-10.6-10.6-10.6zm0-2c-5.9 0-10.6 4.7-10.6 10.6h2a8.6 8.6 0 0 1 8.6-8.6zm-2.2 7.6a1 1 0 0 1-.8.8v2a3 3 0 0 0 2.8-2.8zm-.8.8a1 1 0 0 1-.8-.8h-2a3 3 0 0 0 2.8 2.8zm-.8-.8a1 1 0 0 1 .8-.8v-2a3 3 0 0 0-2.8 2.8zm.8-.8a1 1 0 0 1 .8.8h2a3 3 0 0 0-2.8-2.8z"/></svg>