<svg viewBox="0 0 24 24"><path fill="currentColor" fill-rule="evenodd" d="M12 3.7q.3-.6-.4-.7h-6a3.6 3.6 0 0 0-3.6 3.6v12a3.6 3.6 0 0 0 3.6 3.6h12a3.6 3.6 0 0 0 3.6-3.6v-5.9q-.1-.5-.7-.5a6.8 6.8 0 0 1-8.4-8.5Zm-5 6.3a2 2 0 1 0 0-4 2 2 0 0 0 0 4Zm0 9.1 7.2-5.8a1 1 0 0 1 .6 0l4 3a1 1 0 0 1 .2.4v1.3a2 2 0 0 1-2 2h-9.7a.5.5 0 0 1-.4-.9Zm11.6-16.1q-1.2.2-1.3 1.2a1 1 0 0 1-2 0c0-1.7 1.5-3.2 3.3-3.2 1.9 0 3.3 1.5 3.3 3.2q0 .9-.6 1.5-.4.6-1 .9-.3.3-.7.5a1 1 0 0 1-2-.3v-.4a1 1 0 0 1 .6-.9q0 0 0 0h0l0 0a7 7 0 0 0 1-.6 3 3 0 0 0 .6-.5q.1-.2.1-.2 0-1-1.3-1.2Z" clip-rule="evenodd"/><path fill="currentColor" fill-rule="evenodd" d="M18.7 8.2a1 1 0 0 1 1 1v0a1 1 0 1 1-2 0v0a1 1 0 0 1 1-1Z" clip-rule="evenodd"/></svg>