<svg viewBox="0 0 24 24"><path fill="currentColor" d="M15.2 3.7a1.6 1.6 0 0 1 2.3 0l2.4 2.5a1.6 1.6 0 0 1 0 2.2l-8.2 8.2a.3.3 0 0 1-.4-.2v-8.7a.3.3 0 0 1 .1-.3 1 1 0 0 0 .3-.1z"/><path fill="currentColor" fill-rule="evenodd" d="M3.2 5.2q.1-1.5 1.5-1.6h3.5q1.5.1 1.6 1.6v14q-.1 1.5-1.6 1.6h-3.5a1.6 1.6 0 0 1-1.6-1.6zm2.7 11.8a1 1 0 1 0 0 2h1.2a1 1 0 1 0 0-2z" clip-rule="evenodd"/><path fill="currentColor" d="M16.3 14.2a.3.3 0 0 1 .1 0h2.9q1.4 0 1.6 1.5v3.5q-.2 1.5-1.6 1.6h-8a.3.3 0 0 1-.3-.4q.3-.5.3-1.1a.3.3 0 0 1 0-.2z"/></svg>