<svg xmlns="http://www.w3.org/2000/svg" fill="none" viewBox="0 0 24 24">
  <path fill="#000" d="M15.561 3.302a.5.5 0 0 0-.297-.902H7.2c-.508 0-.997.079-1.457.225a.014.014 0 0 0-.009.019l2.108 5.533a.5.5 0 0 0 .757.23l1.614-1.145 5.348-3.96ZM4.236 4.33c-.125-.33-.542-.427-.764-.154A4.78 4.78 0 0 0 2.4 7.2v6.9a.5.5 0 0 0 .5.5h4.523a.5.5 0 0 0 .468-.678L4.236 4.329ZM2.6 16.6a.2.2 0 0 0-.2.2 4.8 4.8 0 0 0 4.8 4.8h4.497a.5.5 0 0 0 .48-.363l1.144-4a.5.5 0 0 0-.481-.637H2.6Zm11.736 4.362a.5.5 0 0 0 .481.638H16.8a4.8 4.8 0 0 0 4.8-4.8v-1.697a.344.344 0 0 0-.162-.276L17.53 12.17a.5.5 0 0 0-.761.276l-2.434 8.515Zm6.484-8.974a.5.5 0 0 0 .78-.414V7.2c0-1.641-.823-3.09-2.08-3.956a.47.47 0 0 0-.546.02l-4.693 3.474a.5.5 0 0 0 .017.815l6.521 4.435ZM10.634 14.6a.5.5 0 0 1-.468-.322l-1.22-3.205a.5.5 0 0 1 .177-.586l2.255-1.6.017-.012.332-.246a.5.5 0 0 1 .58-.012l2.612 1.777a.5.5 0 0 1 .2.55l-.941 3.293a.5.5 0 0 1-.48.363h-3.064Z"/>
</svg>
