<svg xmlns="http://www.w3.org/2000/svg" fill="currentColor" viewBox="0 0 24 24"><path d="M2.893 19.093a1 1 0 1 0 1.414 1.414zM8.4 15l.707-.707a1 1 0 0 0-1.414 0zm2.4 2.4-.707.707a1 1 0 0 0 1.414 0zm5.4-5.4.707-.707a1 1 0 0 0-1.414 0zm4.093 5.507a1 1 0 0 0 1.414-1.414zm-15.986 3 4.8-4.8-1.414-1.414-4.8 4.8zm3.386-4.8 2.4 2.4 1.414-1.414-2.4-2.4zm3.814 2.4 5.4-5.4-1.414-1.414-5.4 5.4zm3.986-5.4 4.8 4.8 1.414-1.414-4.8-4.8zM6 3.4h12v-2H6zM20.6 6v12h2V6zM18 20.6H6v2h12zM3.4 18V6h-2v12zM6 20.6A2.6 2.6 0 0 1 3.4 18h-2A4.6 4.6 0 0 0 6 22.6zM20.6 18a2.6 2.6 0 0 1-2.6 2.6v2a4.6 4.6 0 0 0 4.6-4.6zM18 3.4A2.6 2.6 0 0 1 20.6 6h2A4.6 4.6 0 0 0 18 1.4zm-12-2A4.6 4.6 0 0 0 1.4 6h2A2.6 2.6 0 0 1 6 3.4zm2.6 6.4a.8.8 0 0 1-.8.8v2a2.8 2.8 0 0 0 2.8-2.8zm-.8.8a.8.8 0 0 1-.8-.8H5a2.8 2.8 0 0 0 2.8 2.8zM7 7.8a.8.8 0 0 1 .8-.8V5A2.8 2.8 0 0 0 5 7.8zm.8-.8a.8.8 0 0 1 .8.8h2A2.8 2.8 0 0 0 7.8 5z"/></svg>