<svg fill="none" viewBox="0 0 24 24"><path fill="currentColor" d="M7.2 6.1v1a1 1 0 0 0 .9-.5zm1.7-2.9v-1a1 1 0 0 0-.9.5zm6.2 0 .9-.5a1 1 0 0 0-.9-.5zm1.7 3-.9.4a1 1 0 0 0 .9.5zm-13.4 12.2v-9.9h-2v9.9zm1.4-11.3h2.4v-2h-2.4zm3.3-.5 1.6-2.9-1.7-1-1.7 3zm.8-2.4h6.2v-2h-6.2zm5.4-.5 1.6 3 1.8-1-1.7-3zm2.5 3.4h2.4v-2h-2.4zm3.8 1.4v9.9h2v-9.9zm0 9.9a1.4 1.4 0 0 1-1.4 1.4v2a3.4 3.4 0 0 0 3.4-3.4zm-1.4-11.3a1.4 1.4 0 0 1 1.4 1.4h2a3.4 3.4 0 0 0-3.4-3.4zm-15.8 1.4a1.4 1.4 0 0 1 1.4-1.4v-2a3.4 3.4 0 0 0-3.4 3.4zm1.4 11.3a1.4 1.4 0 0 1-1.4-1.4h-2a3.4 3.4 0 0 0 3.4 3.4zm9.8-7a2.6 2.6 0 0 1-2.6 2.6v2a4.6 4.6 0 0 0 4.6-4.6zm-2.6 2.6a2.6 2.6 0 0 1-2.6-2.6h-2a4.6 4.6 0 0 0 4.6 4.6zm-2.6-2.6a2.6 2.6 0 0 1 2.6-2.6v-2a4.6 4.6 0 0 0-4.6 4.6zm2.6-2.6a2.6 2.6 0 0 1 2.6 2.6h2a4.6 4.6 0 0 0-4.6-4.6zm7.2 9.6h-14.4v2h14.4z"/></svg>