<svg viewBox="0 0 24 24"><path fill="currentColor" fill-rule="evenodd" d="M.8 6a4.6 4.6 0 0 1 4.6-4.6h7.8a1 1 0 1 1 0 2h-7.8a2.6 2.6 0 0 0-2.6 2.6v12a2.6 2.6 0 0 0 2.2 2.6l10-9.3a1 1 0 0 1 1.3 0l3.7 3.7v-4.2a1 1 0 1 1 2 0v7.2a4.6 4.6 0 0 1-4.6 4.6h-12a4.6 4.6 0 0 1-4.6-4.6zm15.9-4.3a1 1 0 0 1 1.4 0l1.7 1.7 1.7-1.7a1 1 0 1 1 1.4 1.4l-1.7 1.7 1.7 1.7a1 1 0 0 1-1.4 1.4l-1.7-1.7-1.7 1.7a1 1 0 1 1-1.4-1.4l1.7-1.7-1.7-1.7a1 1 0 0 1 0-1.4Zm-12.3 6.1a2.8 2.8 0 1 1 5.6 0 2.8 2.8 0 0 1-5.6 0Z" clip-rule="evenodd"/></svg>