<svg xmlns="http://www.w3.org/2000/svg" fill="none" viewBox="0 0 24 24">
  <path fill="#000" fill-rule="evenodd" d="M18.55 1.691a1 1 0 0 1 1.41 0l2.345 2.332a1 1 0 1 1-1.41 1.418l-.64-.637V8.4a1 1 0 0 1-2 0V4.806l-.75.745a1 1 0 1 1-1.41-1.417l2.454-2.443ZM1.4 6A4.6 4.6 0 0 1 6 1.4h7.8a1 1 0 1 1 0 2H6A2.6 2.6 0 0 0 3.4 6v12a2.6 2.6 0 0 0 2.231 2.574l9.884-9.302a1 1 0 0 1 1.392.02l3.693 3.694V12a1 1 0 1 1 2 0v6a4.6 4.6 0 0 1-4.6 4.6H6A4.6 4.6 0 0 1 1.4 18V6ZM5 7.8a2.8 2.8 0 1 1 5.6 0 2.8 2.8 0 0 1-5.6 0Z" clip-rule="evenodd"/>
</svg>
