<svg fill="none" viewBox="0 0 24 24"><path fill="currentColor" d="m2.4 20.4-.8-.6a1 1 0 0 0 .8 1.6zm5.3-6.6.8-.6a1 1 0 0 0-1.6 0zm1.9 2.4-.8.6a1 1 0 0 0 1.6 0zm4.3-5.4.8-.6a1 1 0 0 0-1.6 0zm7.7 9.6v1a1 1 0 0 0 .8-1.6zm-14.2-15a1 1 0 0 1-.8.8v2a3 3 0 0 0 2.8-2.8zm-.8.8a1 1 0 0 1-.8-.8h-2a3 3 0 0 0 2.8 2.8zm-.8-.8a1 1 0 0 1 .8-.8v-2a3 3 0 0 0-2.8 2.8zm.8-.8a1 1 0 0 1 .8.8h2a3 3 0 0 0-2.8-2.8zm-3.4 16.4 5.3-6.6-1.6-1.2-5.3 6.6zm3.7-6.6 2 2.4 1.5-1.2-2-2.4zm3.5 2.4 4.3-5.4-1.6-1.2-4.3 5.4zm2.7-5.4 7.7 9.6 1.6-1.2-7.7-9.6zm8.5 8h-19.2v2h19.2z"/></svg>