<svg xmlns="http://www.w3.org/2000/svg" fill="none" viewBox="0 0 24 24">
  <path fill="#000" d="M22.508 4.275a1 1 0 0 0-1.415-1.414L17.6 6.354 16.508 5.26a1 1 0 1 0-1.414 1.414l1.799 1.8a1 1 0 0 0 1.414 0l4.2-4.2Z"/>
  <path fill="#000" fill-rule="evenodd" d="M11.579 3c.358 0 .601.366.5.71a6.82 6.82 0 0 0 8.418 8.499c.341-.099.703.145.703.5V18.6a3.6 3.6 0 0 1-3.6 3.6h-12A3.6 3.6 0 0 1 2 18.6v-12A3.6 3.6 0 0 1 5.6 3h5.979ZM9 8a2 2 0 1 1-4 0 2 2 0 0 1 4 0Zm5.188 5.293-7.27 5.843a.5.5 0 0 0 .343.864H17a2 2 0 0 0 2-2v-1.256a.5.5 0 0 0-.193-.394l-3.97-3.087a.5.5 0 0 0-.649.03Z" clip-rule="evenodd"/>
</svg>
