<svg viewBox="0 0 24 24"><path fill="currentColor" d="M15.6 3.3a.5.5 0 0 0-.3-.9h-8.1q-.7 0-1.5.2a0 0 0 0 0 0 0l2.1 5.6a.5.5 0 0 0 .8.2l1.6-1.1zm-11.4 1q-.2-.5-.7-.1a5 5 0 0 0-1.1 3v6.9a1 1 0 0 0 .5.5h4.5a.5.5 0 0 0 .5-.7zm-1.6 12.3a.2.2 0 0 0-.2.2 5 5 0 0 0 4.8 4.8h4.5a1 1 0 0 0 .5-.4l1.1-4a.5.5 0 0 0-.5-.6zm11.7 4.4a.5.5 0 0 0 .5.6h2a5 5 0 0 0 4.8-4.8v-1.7a.3.3 0 0 0-.2-.3l-3.9-2.6a1 1 0 0 0-.7.2zm6.5-9a.5.5 0 0 0 .8-.4v-4.4q-.1-2.4-2-4a1 1 0 0 0-.6 0l-4.7 3.5a.5.5 0 0 0 0 .9zm-10.2 2.6a1 1 0 0 1-.4-.3l-1.3-3.2a1 1 0 0 1 .2-.6l2.3-1.6 0 0 .3-.3a1 1 0 0 1 .6 0l2.6 1.8a1 1 0 0 1 .2.5l-1 3.3a1 1 0 0 1-.4.4z"/></svg>