<svg xmlns="http://www.w3.org/2000/svg" fill="none" viewBox="0 0 24 24">
  <path fill="#000" fill-rule="evenodd" d="M19.303.903a1 1 0 0 1 1 1v2.394h2.394a1 1 0 1 1 0 2h-2.394V8.69a1 1 0 1 1-2 0V6.297h-2.394a1 1 0 1 1 0-2h2.394V1.903a1 1 0 0 1 1-1Zm-19 5.594a4.6 4.6 0 0 1 4.6-4.6h7.8a1 1 0 1 1 0 2h-7.8a2.6 2.6 0 0 0-2.6 2.6v12a2.6 2.6 0 0 0 2.23 2.574l9.884-9.302a1 1 0 0 1 1.393.02l3.693 3.694v-2.986a1 1 0 0 1 2 0v6a4.6 4.6 0 0 1-4.6 4.6h-12a4.6 4.6 0 0 1-4.6-4.6v-12Zm3.6 1.8a2.8 2.8 0 1 1 5.6 0 2.8 2.8 0 0 1-5.6 0Z" clip-rule="evenodd"/>
</svg>
