<svg viewBox="0 0 24 24"><path fill="currentColor" fill-rule="evenodd" d="M12 3.7q.3-.6-.4-.7h-6a3.6 3.6 0 0 0-3.6 3.6v12a3.6 3.6 0 0 0 3.6 3.6h12a3.6 3.6 0 0 0 3.6-3.6v-5.9q-.1-.5-.7-.5a6.8 6.8 0 0 1-8.4-8.5Zm-5 6.3a2 2 0 1 0 0-4 2 2 0 0 0 0 4Zm0 9.1 7.2-5.8a1 1 0 0 1 .6 0l4 3a1 1 0 0 1 .2.4v1.3a2 2 0 0 1-2 2h-9.7a.5.5 0 0 1-.4-.9Z" clip-rule="evenodd"/><path fill="currentColor" d="M18.9.9a1 1 0 0 1 1 1v2.4h2.4a1 1 0 1 1 0 2h-2.4v2.4a1 1 0 1 1-2 0v-2.4h-2.4a1 1 0 1 1 0-2h2.4v-2.4a1 1 0 0 1 1-1Z"/></svg>