<svg xmlns="http://www.w3.org/2000/svg" fill="none" viewBox="0 0 24 24"><path fill="currentColor" fill-rule="evenodd" d="M12 1.4C6.146 1.4 1.4 6.146 1.4 12S6.146 22.6 12 22.6c5.855 0 10.6-4.746 10.6-10.6S17.855 1.4 12 1.4M10 8a2 2 0 1 1-4 0 2 2 0 0 1 4 0m-4.7 8.54a.48.48 0 0 0-.011.652C6.873 18.912 9.213 20 11.824 20c3.67 0 6.804-2.148 8.055-5.178a.48.48 0 0 0-.123-.535l-3.274-3.026a.993.993 0 0 0-1.343 0l-4.111 3.86a.5.5 0 0 1-.685 0L9.08 13.934a.994.994 0 0 0-1.343 0z" clip-rule="evenodd"/></svg>