<svg xmlns="http://www.w3.org/2000/svg" fill="none" viewBox="0 0 24 24">
  <path fill="#000" d="M11.5 7.5a1.5 1.5 0 1 1-3 0 1.5 1.5 0 0 1 3 0Z"/>
  <path fill="#000" fill-rule="evenodd" d="M7.24 3.2a2 2 0 0 0-2 2v10a2 2 0 0 0 2 2H20.6a2 2 0 0 0 2-2v-10a2 2 0 0 0-2-2H7.24Zm0 2H20.6v7.039l-2.276-2.24a1 1 0 0 0-1.423.02l-3.184 3.318-2.012-1.486a1 1 0 0 0-1.296.092l-2.89 2.845a.997.997 0 0 0-.256.412H7.24v-10Z" clip-rule="evenodd"/>
  <path fill="#000" d="M3.4 9a1 1 0 1 0-2 0v10.8a1 1 0 0 0 1 1h12.8a1 1 0 1 0 0-2H3.4V9Z"/>
</svg>
