<svg xmlns="http://www.w3.org/2000/svg" fill="none" viewBox="0 0 24 24">
  <path fill="#000" d="M2.4 4.534c0-1.178.956-2.134 2.134-2.134H8.8c1.179 0 2.134.956 2.134 2.134V8.8A2.133 2.133 0 0 1 8.8 10.934H4.534A2.133 2.133 0 0 1 2.4 8.8V4.534Zm0 10.666c0-1.178.956-2.133 2.134-2.133H8.8c1.179 0 2.134.955 2.134 2.133v4.267A2.133 2.133 0 0 1 8.8 21.6H4.534A2.133 2.133 0 0 1 2.4 19.467V15.2ZM13.067 4.534c0-1.178.955-2.134 2.133-2.134h4.267c1.178 0 2.133.956 2.133 2.134V8.8a2.133 2.133 0 0 1-2.133 2.134H15.2A2.133 2.133 0 0 1 13.067 8.8V4.534Zm0 10.666c0-1.178.955-2.133 2.133-2.133h4.267c1.178 0 2.133.955 2.133 2.133v4.267a2.133 2.133 0 0 1-2.133 2.133H15.2a2.133 2.133 0 0 1-2.133-2.133V15.2Z"/>
</svg>
