<svg xmlns="http://www.w3.org/2000/svg" fill="none" viewBox="0 0 24 24">
  <path fill="#000" d="M2.443 8.508c-.952-.538-.952-1.996 0-2.535l8.501-4.807c.392-.221.86-.221 1.252 0l8.502 4.807c.951.539.951 1.997 0 2.535l-8.502 4.807a1.26 1.26 0 0 1-1.252 0L2.443 8.508Z"/>
  <path fill="#000" fill-rule="evenodd" d="M1.156 11.41c.345-.7 1.156-.968 1.81-.598l8.605 4.866 8.606-4.866c.654-.37 1.465-.102 1.81.597.346.7.096 1.567-.558 1.937l-8.605 4.866a2.526 2.526 0 0 1-2.505 0l-8.605-4.866c-.654-.37-.904-1.237-.558-1.937Z" clip-rule="evenodd"/>
  <path fill="#000" fill-rule="evenodd" d="M1.156 16.065c.345-.7 1.156-.968 1.81-.598l8.605 4.867 8.606-4.867c.654-.37 1.465-.102 1.81.598.346.7.096 1.567-.558 1.936l-8.605 4.867a2.525 2.525 0 0 1-2.505 0l-8.605-4.866c-.654-.37-.904-1.238-.558-1.937Z" clip-rule="evenodd"/>
</svg>
