<svg viewBox="0 0 24 24"><path fill="currentColor" d="M2.4 8.5c-1-.5-1-2 0-2.5L11 1.2q.6-.5 1.3 0L20.7 6c1 .5 1 2 0 2.5l-8.5 4.8a1 1 0 0 1-1.3 0z"/><path fill="currentColor" fill-rule="evenodd" d="M1.2 11.4q.6-1.1 1.8-.6l8.6 4.9 8.6-4.9q1-.4 1.8.6.4 1.2-.6 2l-8.6 4.8a3 3 0 0 1-2.5 0l-8.6-4.9q-1-.7-.5-1.9" clip-rule="evenodd"/><path fill="currentColor" fill-rule="evenodd" d="M1.2 16q.6-1 1.8-.5l8.6 4.8 8.6-4.8q1-.5 1.8.6.4 1.2-.6 1.9l-8.6 4.9a3 3 0 0 1-2.5 0L1.7 18q-1-.7-.5-2" clip-rule="evenodd"/></svg>