<svg fill="none" viewBox="0 0 24 24"><path stroke="currentColor" stroke-linecap="round" stroke-linejoin="round" stroke-width="2" d="M19.5 2.4c1.1 0 2.1 1 2.1 2.1v3.6c0 1.2-1 2.1-2.1 2.1h-3.2c-1.2 0-2.2-1-2.2-2.1V4.5c0-1.2 1-2.1 2.2-2.1zm-15 0c-1.1 0-2.1 1-2.1 2.1v3.6c0 1.2 1 2.1 2.1 2.1h3.2c1.2 0 2.2-1 2.2-2.1V4.5c0-1.2-1-2.1-2.2-2.1zm15 11.4c1.1 0 2.1 1 2.1 2.1v3.6c0 1.2-1 2.1-2.1 2.1h-3.2c-1.2 0-2.2-1-2.2-2.1v-3.6c0-1.2 1-2.1 2.2-2.1zm-15 0c-1.1 0-2.1 1-2.1 2.1v3.6c0 1.2 1 2.1 2.1 2.1h3.2c1.2 0 2.2-1 2.2-2.1v-3.6c0-1.2-1-2.1-2.2-2.1z"/></svg>