<svg xmlns="http://www.w3.org/2000/svg" fill="none" viewBox="0 0 24 24">
  <path fill="#000" fill-rule="evenodd" d="M17.152 1.312a1.5 1.5 0 0 1 2.12.055l3.417 3.6a1.5 1.5 0 0 1 0 2.065l-3.417 3.6a1.5 1.5 0 0 1-2.176-2.065L18.11 7.5H4.8a.9.9 0 0 0-.9.9V12a1.5 1.5 0 0 1-3 0V8.4a3.9 3.9 0 0 1 3.9-3.9h13.31l-1.014-1.068a1.5 1.5 0 0 1 .056-2.12ZM21.6 10.5a1.5 1.5 0 0 1 1.5 1.5v3.6a3.9 3.9 0 0 1-3.9 3.9H5.892l1.013 1.067a1.5 1.5 0 1 1-2.177 2.065l-3.416-3.6a1.5 1.5 0 0 1 0-2.065l3.416-3.6a1.5 1.5 0 0 1 2.177 2.065L5.892 16.5H19.2a.9.9 0 0 0 .9-.9V12a1.5 1.5 0 0 1 1.5-1.5Z" clip-rule="evenodd"/>
</svg>
