<svg fill="none" viewBox="0 0 24 24"><path fill="currentColor" d="m15 12.6-.6-.8 0 0 0 0zm0-1-.6.7 0 0 0 .1zm-3.7-3 .7-.8 0 0-.1 0zm-.7.4 1 0v0zm0 6-1 0v0l0 0zm.8.5.5.8 0 0 0 0zm.6 2.7q-2.6 0-5-.1-1.2 0-2-.3-.8-.3-.8-.4l-1.5 1.5q.8.6 1.8.8 1 .3 2.3.4 2.5.1 5.2.1zm-10.6-6.2q0 2.5.1 4 .2 1.8 1.2 2.9l1.5-1.5q-.5-.4-.7-1.6-.1-1.2-.1-3.8zm19.2 0q0 2.6-.1 3.8-.2 1.3-.7 1.6l1.5 1.5q1-1.2 1.2-2.8.1-1.5.1-4.1zm-8.6 8.2q2.7 0 5.2-.1 1.2-.1 2.3-.4 1-.2 1.8-.8l-1.5-1.5q0 .1-.8.4-.8.2-2 .3-2.3.1-5 .1zm0-14.4q2.6 0 5 .1 1.2 0 2 .3.8.3.8.4l1.5-1.5q-.8-.6-1.8-.8-1-.3-2.3-.4-2.5-.1-5.2-.1zm10.6 6.2q0-2.5-.1-4-.2-1.7-1.2-2.9l-1.5 1.5q.5.3.7 1.6.1 1.2.1 3.8zm-10.6-8.2q-2.7 0-5.2.1-1.2.1-2.3.4-1 .2-1.8.8l1.5 1.5q0-.1.8-.4.8-.2 2-.3 2.3-.1 5-.1zm-8.6 8.2q0-2.6.1-3.8.2-1.2.7-1.6l-1.5-1.5q-1 1.2-1.2 2.8-.1 1.5-.1 4.1zm12.2 1.4q.6-.3.8-1.3-.2-1-.9-1.4l-1 1.7q0 0-.1-.3 0-.3 0-.3 0 0 0 0zm0-2.6-3.6-3-1.3 1.5 3.7 3zm-3.7-3q-.7-.7-1.6-.2-.9.6-.7 1.4l2 0q0 0-.3.3a1 1 0 0 1-.4 0 .3.3 0 0 1-.2 0zm-2.3 1.2 0 6 2 0 0-6zm0 6q-.1.7.7 1.4c.6.4 1.3.1 1.6 0l-1-1.8q0 0 0 0a1 1 0 0 1 .4.1 1 1 0 0 1 .3.3q0 0 0 0zm2.4 1.3 3.6-3-1.2-1.5-3.7 2.9z"/></svg>