<svg xmlns="http://www.w3.org/2000/svg" fill="none" viewBox="0 0 24 24"><path fill="currentColor" fill-rule="evenodd" d="M6.623 2.5A4.123 4.123 0 0 0 2.5 6.623v10.754A4.123 4.123 0 0 0 6.623 21.5h10.754a4.123 4.123 0 0 0 4.123-4.123V6.623A4.123 4.123 0 0 0 17.377 2.5zm-2.33 8.604v-2.51h2.509v2.51h-2.51Zm0-4.302h2.509v-2.51h-.18a2.33 2.33 0 0 0-2.33 2.33v.18Zm12.905 0v-2.51h.18a2.33 2.33 0 0 1 2.33 2.33v.18zm0 1.792h2.51v2.51h-2.51zm0 4.302h2.51v2.51h-2.51zm0 4.302h2.51v.18a2.33 2.33 0 0 1-2.33 2.33h-.18zm-10.396 0v2.51h-.18a2.33 2.33 0 0 1-2.33-2.33v-.18zm0-1.792h-2.51v-2.51h2.51z" clip-rule="evenodd"/></svg>