<svg viewBox="0 0 24 24"><path fill="currentColor" d="M7.6 1.5a1 1 0 0 1 1 .1L15 6.8a1 1 0 0 1 0 1.6L9.8 12l5.2 3.6a1 1 0 0 1 0 1.6l-6.4 5.2a1 1 0 0 1-1.6-.8v-7.7l-4 2.8a1 1 0 0 1-1.2-1.6L6.3 12 1.8 9A1 1 0 1 1 3 7.2L7 10V2.4a1 1 0 0 1 .6-.9M18 6.7a1 1 0 0 1 1.4-.4 7 7 0 0 1 3.2 5.7 7 7 0 0 1-3.2 5.7 1 1 0 1 1-1-1.8 5 5 0 0 0 2.2-3.9 5 5 0 0 0-2.2-4 1 1 0 0 1-.4-1.3"/><path fill="currentColor" d="M16 9.5a1 1 0 0 1 1.3-.5q1.7 1 1.9 3c.2 2-.9 2.4-2 3a1 1 0 1 1-.9-1.8q.9-.4.9-1.2t-.9-1.2a1 1 0 0 1-.4-1.3"/></svg>