<svg fill="none" viewBox="0 0 24 24"><path fill="currentColor" d="m15.6 12.8-.5-.8 0 0 0 0zm0-1.4-.6.8 0 0 .1.1zm-5.5-4 .6-.8 0 0 0 0zm-1.2.6 1 0v0zm0 8-1 0v0l0 0zm1.2.6.5.9 0 0 .1 0zm-4.1-13.2h12v-2h-12zm14.6 2.6v12h2v-12zm-2.6 14.6h-12v2h12zm-14.6-2.6v-12h-2v12zm2.6 2.6a2.6 2.6 0 0 1-2.6-2.6h-2a4.6 4.6 0 0 0 4.6 4.6zm14.6-2.6a2.6 2.6 0 0 1-2.6 2.6v2a4.6 4.6 0 0 0 4.6-4.6zm-2.6-14.6a2.6 2.6 0 0 1 2.6 2.6h2a4.6 4.6 0 0 0-4.6-4.6zm-12-2a4.6 4.6 0 0 0-4.6 4.6h2a2.6 2.6 0 0 1 2.6-2.6zm10.1 12.2q.9-.3 1-1.5c0-.8-.6-1.3-1-1.5l-1 1.7q.1 0 .1 0a1 1 0 0 1 0-.2q0-.2 0-.2 0 0-.1 0zm0-3-5.4-4-1.2 1.6 5.5 4zm-5.5-4q-.8-.6-1.7-.2-1 .6-1 1.6l2 0q0 0 0 0a.4.4 0 0 1-.2.2q-.3 0-.2 0zm-2.7 1.4 0 8 2 0 0-8zm0 8q0 1 1 1.6 1 .4 1.7-.1l-1-1.8q0 .1 0 .1a.4.4 0 0 1 .2 0q.2.2.2.2 0 0 0-.1zm2.8 1.4 5.5-3.8-1.2-1.6-5.4 3.8z"/></svg>