<svg viewBox="0 0 24 24"><path fill="currentColor" fill-rule="evenodd" d="M6 2.4a3.6 3.6 0 0 0-3.6 3.6v12a3.6 3.6 0 0 0 3.6 3.6h12a3.6 3.6 0 0 0 3.6-3.6v-12a3.6 3.6 0 0 0-3.6-3.6zm11.7 3a1 1 0 1 0-1.5 1.3l0 0h-.5q-1.6 0-2.7 1.5a1 1 0 1 0 1.7 1.1q.3-.5 1-.5h.6l-.1 0a1 1 0 0 0 1.5 1.4l1.5-1.8a1 1 0 0 0 0-1.3zm-11.7 1.6a1 1 0 1 0 0 2h1.9q.5 0 1 .6l4.1 6.2q1 1.4 2.7 1.4h.6l-.1.1a1 1 0 0 0 1.5 1.4l1.5-1.8a1 1 0 0 0 0-1.3l-1.5-1.8a1 1 0 1 0-1.5 1.3l0 .1h-.5q-.7 0-1-.5l-4.2-6.2q-1-1.5-2.6-1.5zm4.5 8.8a1 1 0 0 0-1.6-1.2q-.5.6-1 .6h-1.9a1 1 0 1 0 0 2h1.9q1.6-.1 2.6-1.4Z" clip-rule="evenodd"/></svg>