<svg xmlns="http://www.w3.org/2000/svg" fill="none" viewBox="0 0 24 24">
  <path fill="#000" d="M7.57 1.497a1 1 0 0 1 1.061.127l6.4 5.2a1 1 0 0 1-.063 1.6L9.782 12l5.186 3.577a1 1 0 0 1 .063 1.599l-6.4 5.2a1 1 0 0 1-1.63-.776v-7.682L2.967 16.7a1 1 0 0 1-1.135-1.646L6.259 12 1.833 8.947a1 1 0 1 1 1.135-1.646L7 10.08V2.4a1 1 0 0 1 .57-.903Zm10.452 5.195a1 1 0 0 1 1.37-.353 6.56 6.56 0 0 1 3.209 5.66 6.56 6.56 0 0 1-3.21 5.662 1 1 0 1 1-1.016-1.722 4.56 4.56 0 0 0 2.226-3.94 4.56 4.56 0 0 0-2.226-3.938 1 1 0 0 1-.353-1.37Z"/>
  <path fill="#000" d="M15.91 9.466a1 1 0 0 1 1.346-.435c1.09.557 1.903 1.646 1.903 2.969s-.813 2.412-1.903 2.97a1 1 0 1 1-.91-1.782c.534-.273.813-.735.813-1.188 0-.453-.28-.916-.813-1.188a1 1 0 0 1-.436-1.346Z"/>
</svg>
