<svg fill="none" viewBox="0 0 24 24"><path fill="currentColor" d="m15 12.6-.6-.8zm0-1-.6.7v.1zm-3.7-3 .7-.8h-.1zm-.7.4h1zm0 6h-1zm.8.5.5.8zm.6 2.7-5-.1q-1.2 0-2-.3l-.8-.4L2.7 19q.8.6 1.8.8l2.3.4 5.2.1zM1.4 12l.1 4q.2 1.8 1.2 2.9l1.5-1.5q-.5-.4-.7-1.6L3.4 12zm19.2 0-.1 3.8q-.2 1.3-.7 1.6l1.5 1.5q1-1.2 1.2-2.8l.1-4.1zM12 20.2l5.2-.1 2.3-.4q1-.2 1.8-.8l-1.5-1.5-.8.4-2 .3-5 .1zm0-14.4 5 .1q1.2 0 2 .3l.8.4L21.3 5q-.8-.6-1.8-.8l-2.3-.4-5.2-.1zM22.6 12l-.1-4q-.2-1.7-1.2-2.9l-1.5 1.5q.5.3.7 1.6l.1 3.8zM12 3.8l-5.2.1-2.3.4q-1 .2-1.8.8l1.5 1.5.8-.4L7 6l5-.1zM3.4 12l.1-3.8q.2-1.2.7-1.6L2.7 5q-1 1.3-1.2 3l-.1 4zm12.2 1.4q.6-.3.8-1.3-.2-1-.9-1.4l-1 1.7-.1-.3v-.3zm0-2.6-3.6-3-1.3 1.5 3.7 3zm-3.7-3q-.7-.7-1.6-.2-.9.6-.7 1.4h2l-.3.3h-.6zM9.6 9v6h2V9zm0 6q-.1.7.7 1.4c.6.4 1.3.1 1.6 0l-1-1.8.4.1.3.3zm2.4 1.3 3.6-3-1.2-1.5-3.7 2.9z"/></svg>