<svg fill="none" viewBox="0 0 24 24"><path fill="currentColor" d="m15.6 12.8-.5-.8zm0-1.4-.6.8.1.1zm-5.5-4 .6-.8zM8.9 8h1zm0 8H8zm1.2.6.5.9h.1zM6 3.4h12v-2H6zM20.6 6v12h2V6zM18 20.6H6v2h12zM3.4 18V6h-2v12zM6 20.6A2.6 2.6 0 0 1 3.4 18h-2A4.6 4.6 0 0 0 6 22.6zM20.6 18a2.6 2.6 0 0 1-2.6 2.6v2a4.6 4.6 0 0 0 4.6-4.6zM18 3.4A2.6 2.6 0 0 1 20.6 6h2A4.6 4.6 0 0 0 18 1.4zm-12-2A4.6 4.6 0 0 0 1.4 6h2A2.6 2.6 0 0 1 6 3.4zm10.1 12.2q.9-.3 1-1.5c0-.8-.6-1.3-1-1.5l-1 1.7h.1V12H15zm0-3-5.4-4-1.2 1.6 5.5 4zm-5.5-4Q9.8 6 9 6.3q-1 .6-1 1.6h2l-.2.2h-.2zM8 8v8h2V8zm0 8q0 1 1 1.6 1 .4 1.7-.1l-1-1.8v.1h.2l.2.2zm2.8 1.4 5.5-3.8L15 12l-5.4 3.8z"/></svg>