<svg xmlns="http://www.w3.org/2000/svg" fill="none" viewBox="0 0 24 24">
  <path fill="#000" d="M7.238 7.82a1.01 1.01 0 0 1-.51.138H2.96a1.01 1.01 0 0 0-1.01 1.01v6.064c0 .558.452 1.01 1.01 1.01h3.769c.179 0 .354.048.509.138l4.307 3.523a1.01 1.01 0 0 0 1.52-.873V5.17a1.01 1.01 0 0 0-1.52-.873L7.238 7.82Zm10.27.982a1 1 0 1 0-1.414 1.415l1.693 1.692-1.693 1.693a1 1 0 1 0 1.414 1.415l1.693-1.693 1.693 1.693a1 1 0 1 0 1.414-1.415l-1.693-1.693 1.693-1.692a1 1 0 0 0-1.414-1.415L19.2 10.495l-1.693-1.693Z"/>
</svg>
