<svg xmlns="http://www.w3.org/2000/svg" fill="none" viewBox="0 0 24 24"><path fill="currentColor" d="M9.172 4.357A3.9 3.9 0 0 1 12 3.127c1.06 0 2.078.442 2.828 1.23A4.3 4.3 0 0 1 16 7.327v5.6a4.3 4.3 0 0 1-1.172 2.97A3.9 3.9 0 0 1 12 17.127a3.9 3.9 0 0 1-2.828-1.23A4.3 4.3 0 0 1 8 12.927v-5.6c0-1.114.421-2.182 1.172-2.97"/><path fill="currentColor" d="M5.388 13.16a1 1 0 1 0-1.979.288 8.68 8.68 0 0 0 7.592 7.374s.608.051.999.051 1-.051 1-.051a8.68 8.68 0 0 0 7.592-7.374 1 1 0 1 0-1.979-.288 6.682 6.682 0 0 1-13.225 0"/></svg>