<svg xmlns="http://www.w3.org/2000/svg" fill="none" viewBox="0 0 24 24"><path fill="currentColor" fill-rule="evenodd" d="M4.8 6a2.4 2.4 0 0 0-2.4 2.4v7.2A2.4 2.4 0 0 0 4.8 18h14.4a2.4 2.4 0 0 0 2.4-2.4V8.4A2.4 2.4 0 0 0 19.2 6zm1.8 3.2a1 1 0 0 0 0 2h.028a1 1 0 0 0 0-2zm3.6 0a1 1 0 0 0 0 2h.028a1 1 0 0 0 0-2zm3.6 0a1 1 0 0 0 0 2h.028a1 1 0 0 0 0-2zm3.572 0a1 1 0 0 0 0 2h.028a1 1 0 0 0 0-2zM8.4 12.8a1 1 0 1 0 0 2h.028a1 1 0 0 0 0-2zm3.6 0a1 1 0 1 0 0 2h.028a1 1 0 0 0 0-2zm3.6 0a1 1 0 1 0 0 2h.028a1 1 0 0 0 0-2z" clip-rule="evenodd"/></svg>