<svg xmlns="http://www.w3.org/2000/svg" fill="none" viewBox="0 0 24 24"><path fill="currentColor" fill-rule="evenodd" d="M21.5 6.623A4.123 4.123 0 0 0 17.377 2.5H6.623A4.123 4.123 0 0 0 2.5 6.623v10.754A4.123 4.123 0 0 0 6.623 21.5h10.754a4.123 4.123 0 0 0 4.123-4.123zm-8.604-2.33h2.51v2.509h-2.51v-2.51Zm4.302 0v2.509h2.51v-.18a2.33 2.33 0 0 0-2.33-2.33h-.18Zm0 12.905h2.51v.18a2.33 2.33 0 0 1-2.33 2.33h-.18zm-1.792 0v2.51h-2.51v-2.51zm-4.302 0v2.51h-2.51v-2.51zm-4.302 0v2.51h-.18a2.33 2.33 0 0 1-2.33-2.33v-.18zm0-10.396h-2.51v-.18a2.33 2.33 0 0 1 2.33-2.33h.18zm1.792 0v-2.51h2.51v2.51z" clip-rule="evenodd"/></svg>