<svg xmlns="http://www.w3.org/2000/svg" fill="currentColor" viewBox="0 0 24 24"><path d="m15.6 12.81-.546-.839-.014.01-.014.009zm0-1.377-.594.805.045.033.048.028zm-5.516-4.061.593-.805-.028-.021-.03-.019zm-1.156.606 1-.002v-.018zm.023 7.978-1 .003v.028l.002.029zm1.198.665.485.875.046-.025.043-.03zM12 20.6A8.6 8.6 0 0 1 3.4 12h-2c0 5.854 4.746 10.6 10.6 10.6zm8.6-8.6a8.6 8.6 0 0 1-8.6 8.6v2c5.854 0 10.6-4.746 10.6-10.6zM12 3.4a8.6 8.6 0 0 1 8.6 8.6h2c0-5.854-4.746-10.6-10.6-10.6zm0-2C6.146 1.4 1.4 6.146 1.4 12h2A8.6 8.6 0 0 1 12 3.4zm4.145 12.247c.434-.282.983-.787.982-1.547 0-.783-.578-1.273-1.027-1.533L15.099 12.3c.105.06.124.092.11.073a.45.45 0 0 1-.082-.27c0-.143.056-.228.065-.24.004-.005-.027.037-.138.11l1.09 1.675Zm.047-3.02-5.515-4.06-1.186 1.61 5.515 4.061 1.186-1.61Zm-5.573-4.1c-.47-.298-1.131-.469-1.756-.177-.68.318-.948 1.002-.935 1.649l2-.04c-.002-.06.01-.04-.02.018a.43.43 0 0 1-.2.185c-.185.087-.26-.01-.16.055zM7.928 7.981l.023 7.978 2-.006-.023-7.977zm.025 8.035c.031.534.217 1.246.888 1.604.66.353 1.347.123 1.793-.124l-.969-1.75c-.099.055-.138.058-.122.056a.4.4 0 0 1 .24.054c.12.064.172.152.185.179.008.017-.012-.017-.019-.138zm2.77 1.425 5.45-3.812-1.147-1.64-5.45 3.813z"/></svg>