<svg viewBox="0 0 24 24"><path fill="currentColor" fill-rule="evenodd" d="M2.9 2.9a1.5 1.5 0 0 1 2 0l13.8 15a1.5 1.5 0 1 1-2.2 2L15 18.2l-.6-.4a3.3 3.3 0 0 0-4.6 0 1.5 1.5 0 0 1-2-2.1 6 6 0 0 1 3.3-1.8l-1.3-1.3a8 8 0 0 0-3.3 2 1.5 1.5 0 1 1-2.1-2.2 11 11 0 0 1 3.2-2.2l-.9-1a13 13 0 0 0-3.5 2.4A1.5 1.5 0 0 1 .9 9.5a16 16 0 0 1 3.6-2.6L2.8 5a1.5 1.5 0 0 1 0-2.1M11 6.4A1.5 1.5 0 0 1 12.7 5 16 16 0 0 1 23 9.5a1.5 1.5 0 0 1-2.2 2.1A13 13 0 0 0 12.6 8 1.5 1.5 0 0 1 11 6.4m3.3 4.5a1.5 1.5 0 0 1 2-.8 11 11 0 0 1 3.3 2.3 1.5 1.5 0 1 1-2.1 2.1 8 8 0 0 0-2.4-1.6 1.5 1.5 0 0 1-.8-2M13 19a1.5 1.5 0 0 1 0 2.1 1.5 1.5 0 0 1-2.2-2 1.5 1.5 0 0 1 2.2 0" clip-rule="evenodd"/></svg>