<svg viewBox="0 0 24 24"><path fill="currentColor" d="M7.6 1.5a1 1 0 0 1 1 .1l6.4 5.2a1 1 0 0 1 0 1.6l-5.2 3.6 5.2 3.6a1 1 0 0 1 0 1.6l-6.4 5.2a1 1 0 0 1-1.6-.8v-7.7l-4 2.8a1 1 0 0 1-1.2-1.6l4.5-3.1-4.5-3a1 1 0 1 1 1.2-1.7l4 2.8v-7.7a1 1 0 0 1 .6-.9Zm10.4 5.2a1 1 0 0 1 1.4-.4 7 7 0 0 1 3.2 5.7 7 7 0 0 1-3.2 5.7 1 1 0 1 1-1-1.8 5 5 0 0 0 2.2-3.9 5 5 0 0 0-2.2-4 1 1 0 0 1-.4-1.3Z"/><path fill="currentColor" d="M16 9.5a1 1 0 0 1 1.3-.5q1.7 1 1.9 3c.2 2-.9 2.4-2 3a1 1 0 1 1-.9-1.8q.9-.4.9-1.2 0-.8-.9-1.2a1 1 0 0 1-.4-1.3Z"/></svg>