<svg viewBox="0 0 24 24"><path fill="currentColor" fill-rule="evenodd" d="M6 2.4A3.6 3.6 0 0 0 2.4 6v12A3.6 3.6 0 0 0 6 21.6h12a3.6 3.6 0 0 0 3.6-3.6V6A3.6 3.6 0 0 0 18 2.4zm11.7 3a1 1 0 1 0-1.5 1.3h-.5Q14 6.8 13 8.3a1 1 0 1 0 1.7 1.1q.3-.5 1-.5h.6-.1a1 1 0 0 0 1.5 1.4l1.5-1.8a1 1 0 0 0 0-1.3zM6 7a1 1 0 1 0 0 2h1.9q.5 0 1 .6l4.1 6.2q1 1.4 2.7 1.4h.6l-.1.1a1 1 0 0 0 1.5 1.4l1.5-1.8a1 1 0 0 0 0-1.3l-1.5-1.8a1 1 0 1 0-1.5 1.3v.1h-.5q-.7 0-1-.5l-4.2-6.2Q9.5 7 8 7zm4.5 8.8A1 1 0 0 0 9 14.6q-.5.6-1 .6H6a1 1 0 1 0 0 2h1.9q1.6-.1 2.6-1.4" clip-rule="evenodd"/></svg>