<svg xmlns="http://www.w3.org/2000/svg" fill="none" viewBox="0 0 24 24">
  <path fill="#000" fill-rule="evenodd" d="M4.8 5.6c0-1.767 1.382-3.2 3.087-3.2h8.228c1.704 0 3.086 1.433 3.086 3.2v12.8c0 1.767-1.382 3.2-3.086 3.2H7.887c-1.705 0-3.086-1.433-3.086-3.2V5.6ZM12 16.267c-.567 0-1.028.477-1.028 1.066v.069c0 .589.46 1.066 1.029 1.066h.073c.568 0 1.028-.477 1.028-1.066v-.069c0-.589-.46-1.066-1.028-1.066H12Z" clip-rule="evenodd"/>
  <path fill="#fff" d="M15.498 4.533H8.504c-.255 0-.4.301-.247.512l1.018 1.408c.097.135.25.214.412.214h4.628a.508.508 0 0 0 .412-.214l1.018-1.408c.152-.21.007-.512-.247-.512Z"/>
</svg>
