<svg xmlns="http://www.w3.org/2000/svg" fill="none" viewBox="0 0 24 24">
  <path fill="#000" d="M14.73 2.4h3.437c.273.004.534.112.726.3.194.19.304.444.308.711v17.178a1.016 1.016 0 0 1-.308.71 1.062 1.062 0 0 1-.726.3H14.73a1.062 1.062 0 0 1-.727-.3 1.016 1.016 0 0 1-.307-.71V3.41c.004-.267.114-.522.307-.71.193-.19.454-.297.727-.301Zm-8.895 0H9.26c.276 0 .54.106.737.295.197.19.309.446.313.716v17.178c-.004.27-.117.527-.313.716a1.06 1.06 0 0 1-.737.295H5.835a1.062 1.062 0 0 1-.727-.3 1.016 1.016 0 0 1-.307-.711V3.41c.004-.267.114-.522.307-.71.193-.19.454-.297.727-.301Z"/>
</svg>
