<svg fill="none" viewBox="0 0 24 24"><path fill="currentColor" d="m15.6 12.8-.5-.8zm0-1.4-.6.8.1.1zm-5.5-4 .6-.8zM8.9 8h1zm0 8H8zm1.2.6.5.9h.1zm1.9 4A8.6 8.6 0 0 1 3.4 12h-2c0 5.9 4.7 10.6 10.6 10.6zm8.6-8.6a8.6 8.6 0 0 1-8.6 8.6v2c5.9 0 10.6-4.7 10.6-10.6zM12 3.4a8.6 8.6 0 0 1 8.6 8.6h2c0-5.9-4.7-10.6-10.6-10.6zm0-2C6.1 1.4 1.4 6.1 1.4 12h2A8.6 8.6 0 0 1 12 3.4zm4.1 12.2q.9-.3 1-1.5c0-.8-.6-1.3-1-1.5l-1 1.7h.1V12H15zm0-3-5.4-4-1.2 1.6 5.5 4zm-5.5-4Q9.8 6 9 6.3q-1 .6-1 1.6h2l-.2.2h-.2zM8 8v8h2V8zm0 8q0 1 1 1.6 1 .4 1.7-.1l-1-1.8v.1h.2l.2.2zm2.8 1.4 5.5-3.8L15 12l-5.4 3.8z"/></svg>