<svg xmlns="http://www.w3.org/2000/svg" fill="none" viewBox="0 0 24 24">
  <path fill="#000" fill-rule="evenodd" d="M4.333 6C2.934 6 1.8 7.075 1.8 8.4v7.2c0 1.325 1.133 2.4 2.532 2.4h12.659c1.398 0 2.531-1.075 2.531-2.4V8.4c0-1.325-1.133-2.4-2.531-2.4H4.332Zm7.175 3.707a1 1 0 0 0-1.414-1.414l-3 3A1 1 0 0 0 7.8 13h2.986l-1.293 1.293a1 1 0 0 0 1.414 1.414l3-3A1 1 0 0 0 13.2 11h-2.986l1.293-1.293Z" clip-rule="evenodd"/>
  <path fill="#000" d="M22.201 9.2a1 1 0 0 1 1 1v3.6a1 1 0 0 1-2 0v-3.6a1 1 0 0 1 1-1Z"/>
</svg>
