<svg fill="none" viewBox="0 0 24 24"><path fill="currentColor" d="M8 21.6H7a1 1 0 0 0 1.6.8zM8 2.4l.6-.8a1 1 0 0 0-1.6.8zm6.4 5.2.6.8a1 1 0 0 0 0-1.6zm0 8.8.6.8a1 1 0 0 0 0-1.6zM3 7.3a1 1 0 0 0-1.2 1.6zm-1.2 7.8A1 1 0 1 0 3 16.7zm15.5-6a1 1 0 1 0-1 1.7zm-1 4a1 1 0 1 0 1 1.9zm3-6.8a1 1 0 0 0-1 1.8zm-1 9.6a1 1 0 1 0 1 1.8zM9 21.6V12H7v9.6zM9 12H7zm0 0V2.4H7V12zM7.4 3.2l6.4 5.2L15 6.8 8.6 1.6zm1.2 19.2 6.4-5.2-1.2-1.6-6.4 5.2zm6.4-6.8-6.4-4.4-1.1 1.6 6.3 4.4zm-6.4-4.4-1.2 1.6zm0 0L3 7.3 1.8 8.9l5.6 4zm5.2-4.4-6.3 4.4 1 1.6L15 8.4zm-6.3 4.4 1 1.6zm0 0L1.7 15 3 16.7l5.6-3.9zm8.8-.4q.9.4.9 1.2h2q-.2-2-2-3zm.9 1.2q0 .8-.9 1.2l1 1.8q1.7-1 1.9-3zm1.2-4a5 5 0 0 1 2.2 4h2a7 7 0 0 0-3.2-5.7zm2.2 4a5 5 0 0 1-2.2 4l1 1.7a7 7 0 0 0 3.2-5.7z"/></svg>