<svg viewBox="0 0 24 24"><path fill="currentColor" fill-rule="evenodd" d="M2.9 2.9a1.5 1.5 0 0 1 2 0l13.8 15a1.5 1.5 0 1 1-2.2 2l-1.6-1.7a2 2 0 0 1-.6-.4 3.3 3.3 0 0 0-4.6 0 1.5 1.5 0 0 1-2-2.1 6 6 0 0 1 3.3-1.8l-1.3-1.3a8 8 0 0 0-3.3 2 1.5 1.5 0 1 1-2.1-2.2 11 11 0 0 1 3.2-2.2l-.9-1a13 13 0 0 0-3.5 2.4 1.5 1.5 0 0 1-2.2-2.1 16 16 0 0 1 3.6-2.6l-1.7-1.9a1.5 1.5 0 0 1 0-2.1Zm8.2 3.5a1.5 1.5 0 0 1 1.6-1.4 16 16 0 0 1 10.4 4.5 1.5 1.5 0 0 1-2.2 2.1 13 13 0 0 0-8.3-3.6 1.5 1.5 0 0 1-1.5-1.6Zm3.3 4.5a1.5 1.5 0 0 1 2-.8 11 11 0 0 1 3.3 2.3 1.5 1.5 0 1 1-2.1 2.1 8 8 0 0 0-2.4-1.6 1.5 1.5 0 0 1-.8-2Zm-1.3 8a1.5 1.5 0 0 1 0 2.1l0 0a1.5 1.5 0 0 1-2.2-2l0 0a1.5 1.5 0 0 1 2.2 0Z" clip-rule="evenodd"/></svg>