<svg xmlns="http://www.w3.org/2000/svg" fill="none" viewBox="0 0 24 24">
  <path fill="#000" d="M9.172 2.23A3.906 3.906 0 0 1 12 1c1.06 0 2.078.442 2.828 1.23A4.309 4.309 0 0 1 16 5.2v5.6a4.309 4.309 0 0 1-1.172 2.97A3.906 3.906 0 0 1 12 15a3.906 3.906 0 0 1-2.828-1.23A4.309 4.309 0 0 1 8 10.8V5.2c0-1.114.421-2.182 1.172-2.97Z"/>
  <path fill="#000" d="M5.388 11.033a1 1 0 1 0-1.979.288 8.682 8.682 0 0 0 7.592 7.374V21.6a1 1 0 1 0 2 0v-2.905a8.683 8.683 0 0 0 7.591-7.374 1 1 0 1 0-1.979-.288 6.682 6.682 0 0 1-13.225 0Z"/>
</svg>
