<svg xmlns="http://www.w3.org/2000/svg" fill="none" viewBox="0 0 24 24">
  <path fill="#000" fill-rule="evenodd" d="M18.663 19.843a3.338 3.338 0 0 0 3.338-3.337V6.494a3.337 3.337 0 0 0-3.338-3.337H5.2a3 3 0 0 0-3 3v10.686a3 3 0 0 0 3 3h13.464ZM5.203 7.607a1.001 1.001 0 1 0 0 2.002 7.008 7.008 0 0 1 7.01 7.008 1.001 1.001 0 0 0 2.002 0 9.01 9.01 0 0 0-9.011-9.01Zm0 4.004a1.001 1.001 0 0 0 0 2.003 3.004 3.004 0 0 1 3.004 3.003 1.001 1.001 0 0 0 2.003 0 5.006 5.006 0 0 0-5.006-5.006Zm0 4.005a1.001 1.001 0 0 0 0 2.003h.013a1.001 1.001 0 0 0 0-2.003h-.012Z" clip-rule="evenodd"/>
</svg>
