<svg fill="none" viewBox="0 0 24 24"><path fill="currentColor" d="M8 21.6h-1a1 1 0 0 0 1.6.8zm0-19.2.6-.8a1 1 0 0 0-1.6.8zm6.4 5.2.6.8a1 1 0 0 0 0-1.6zm0 8.8.6.8a1 1 0 0 0 0-1.6zm-11.4-9.1a1 1 0 0 0-1.2 1.6zm-1.2 7.8a1 1 0 1 0 1.2 1.6zm15.5-6a1 1 0 1 0-1 1.7zm-1 4a1 1 0 1 0 1 1.9zm3-6.8a1 1 0 0 0-1 1.8zm-1 9.6a1 1 0 1 0 1 1.8zm-9.3 5.7v-9.6h-2v9.6zm0-9.6zh-2v0zm0 0v-9.6h-2v9.6zm-1.6-8.8 6.4 5.2 1.2-1.6-6.4-5.2zm1.2 19.2 6.4-5.2-1.2-1.6-6.4 5.2zm6.4-6.8-6.4-4.4-1.1 1.6 6.3 4.4zm-6.4-4.4zl-1.2 1.6 0 0zm0 0-5.6-3.9-1.2 1.6 5.6 4zm5.2-4.4-6.3 4.4 1 1.6 6.5-4.4zm-6.3 4.4zl1 1.6 0 0zm0 0-5.7 3.9 1.2 1.6 5.6-3.9zm8.8-.4q.9.4.9 1.2h2q-.2-2-2-3zm.9 1.2q0 .8-.9 1.2l1 1.8q1.7-1 1.9-3zm1.2-4a5 5 0 0 1 2.2 4h2a7 7 0 0 0-3.2-5.7zm2.2 4a5 5 0 0 1-2.2 4l1 1.7a7 7 0 0 0 3.2-5.7z"/></svg>