<svg viewBox="0 0 24 24"><path fill="currentColor" fill-rule="evenodd" d="M16.8.9a1.5 1.5 0 0 1 1.5 1.5v.9h3.3a1.5 1.5 0 0 1 0 3h-3.3v.9a1.5 1.5 0 0 1-3 0v-4.8a1.5 1.5 0 0 1 1.5-1.5Zm-15.9 3.9a1.5 1.5 0 0 1 1.5-1.5h9.6a1.5 1.5 0 0 1 0 3h-9.6a1.5 1.5 0 0 1-1.5-1.5Zm11.1 3.3a1.5 1.5 0 0 1 1.5 1.5v4.8a1.5 1.5 0 0 1-3 0v-.9h-8.1a1.5 1.5 0 0 1 0-3h8.1v-.9a1.5 1.5 0 0 1 1.5-1.5Zm3.3 3.9a1.5 1.5 0 0 1 1.5-1.5h4.8a1.5 1.5 0 0 1 0 3h-4.8a1.5 1.5 0 0 1-1.5-1.5Zm-7.5 3.3a1.5 1.5 0 0 1 1.5 1.5v4.8a1.5 1.5 0 0 1-3 0v-.9h-3.9a1.5 1.5 0 0 1 0-3h3.9v-.9a1.5 1.5 0 0 1 1.5-1.5Zm2.7 3.9a1.5 1.5 0 0 1 1.5-1.5h9.6a1.5 1.5 0 0 1 0 3h-9.6a1.5 1.5 0 0 1-1.5-1.5Z" clip-rule="evenodd"/></svg>