<svg fill="none" viewBox="0 0 24 24"><path fill="currentColor" d="M19.4 15.6a1 1 0 0 0 2 0zm-16.8 0a1 1 0 0 0 2 0zm3.1-10.4h12.6v-2h-12.6zm13.7 1v9.4h2v-9.4zm-14.8 9.4v-9.4h-2v9.4zm13.7-10.4q1 .1 1.1 1h2c0-1.7-1.4-3-3.1-3zm-12.6-2c-1.7 0-3.1 1.3-3.1 3h2q.1-.9 1.1-1zm-2.1 14h16.8v-2h-16.8zm17 .2v1.2h2v-1.2zm-.2 1.4h-16.8v2h16.8zm-17-.2v-1.2h-2v1.2zm.2.2a.2.2 0 0 1-.2-.2h-2a2 2 0 0 0 2.2 2.2zm17-.2a.2.2 0 0 1-.2.2v2a2 2 0 0 0 2.2-2.2zm-.2-1.4q.2 0 .2.2h2a2 2 0 0 0-2.2-2.2zm-16.8-2a2 2 0 0 0-2.2 2.2h2q0-.2.2-.2z"/></svg>