<svg fill="none" viewBox="0 0 24 24"><path fill="currentColor" d="m15.6 12.8-.5-.8 0 0 0 0zm0-1.4-.6.8 0 0 .1.1zm-5.5-4 .6-.8 0 0 0 0zm-1.2.6 1 0v0zm0 8-1 0v0l0 0zm1.2.6.5.9 0 0 .1 0zm1.9 4a8.6 8.6 0 0 1-8.6-8.6h-2c0 5.9 4.7 10.6 10.6 10.6zm8.6-8.6a8.6 8.6 0 0 1-8.6 8.6v2c5.9 0 10.6-4.7 10.6-10.6zm-8.6-8.6a8.6 8.6 0 0 1 8.6 8.6h2c0-5.9-4.7-10.6-10.6-10.6zm0-2c-5.9 0-10.6 4.7-10.6 10.6h2a8.6 8.6 0 0 1 8.6-8.6zm4.1 12.2q.9-.3 1-1.5c0-.8-.6-1.3-1-1.5l-1 1.7q.1 0 .1 0a1 1 0 0 1 0-.2q0-.2 0-.2 0 0-.1 0zm0-3-5.4-4-1.2 1.6 5.5 4zm-5.5-4q-.8-.6-1.7-.2-1 .6-1 1.6l2 0q0 0 0 0a.4.4 0 0 1-.2.2q-.3 0-.2 0zm-2.7 1.4 0 8 2 0 0-8zm0 8q0 1 1 1.6 1 .4 1.7-.1l-1-1.8q0 .1 0 .1a.4.4 0 0 1 .2 0q.2.2.2.2 0 0 0-.1zm2.8 1.4 5.5-3.8-1.2-1.6-5.4 3.8z"/></svg>