<svg xmlns="http://www.w3.org/2000/svg" fill="none" viewBox="0 0 24 24">
  <path fill="#000" fill-rule="evenodd" d="M1.8 8.4C1.8 7.075 2.935 6 4.334 6h12.659c1.398 0 2.531 1.075 2.531 2.4v7.2c0 1.325-1.133 2.4-2.531 2.4H4.332c-1.398 0-2.531-1.075-2.531-2.4V8.4Zm2.667.994a1 1 0 0 1 1-1l.823-.006a1 1 0 0 1 1 1l.033 5.112c0 .552-.483 1.056-1.035 1.056H5.5c-.552 0-1.033-.498-1.033-1.05V9.394Zm4.709 0a1 1 0 0 1 1-1l.823-.006a1 1 0 0 1 1 1l.033 5.112c0 .552-.483 1.056-1.035 1.056h-.788c-.553 0-1.033-.498-1.033-1.05V9.394Z" clip-rule="evenodd"/>
  <path fill="#000" d="M23.201 10.2a1 1 0 1 0-2 0v3.6a1 1 0 0 0 2 0v-3.6Z"/>
</svg>
