<svg xmlns="http://www.w3.org/2000/svg" fill="none" viewBox="0 0 24 24">
  <path fill="#000" fill-rule="evenodd" d="M2.857 2.899a1.5 1.5 0 0 1 2.12.083l13.75 14.873a1.5 1.5 0 1 1-2.203 2.037l-1.59-1.72a1.494 1.494 0 0 1-.658-.378 3.26 3.26 0 0 0-4.55 0 1.5 1.5 0 0 1-2.105-2.138 6.204 6.204 0 0 1 3.405-1.712l-1.282-1.386a7.902 7.902 0 0 0-3.346 1.961 1.5 1.5 0 1 1-2.104-2.138 10.893 10.893 0 0 1 3.247-2.206l-.936-1.013a12.62 12.62 0 0 0-3.553 2.463A1.5 1.5 0 0 1 .948 9.487 15.631 15.631 0 0 1 4.486 6.87L2.774 5.018a1.5 1.5 0 0 1 .083-2.12Zm8.27 3.529a1.5 1.5 0 0 1 1.563-1.434 15.699 15.699 0 0 1 10.362 4.493 1.5 1.5 0 0 1-2.104 2.138A12.698 12.698 0 0 0 12.56 7.99a1.5 1.5 0 0 1-1.434-1.563Zm3.243 4.484a1.5 1.5 0 0 1 1.97-.79 10.895 10.895 0 0 1 3.368 2.26 1.5 1.5 0 1 1-2.105 2.137 7.896 7.896 0 0 0-2.442-1.638 1.5 1.5 0 0 1-.79-1.969Zm-1.28 8.017a1.5 1.5 0 0 1-.018 2.12l-.02.02a1.5 1.5 0 0 1-2.104-2.138l.02-.02a1.5 1.5 0 0 1 2.121.018Z" clip-rule="evenodd"/>
</svg>
