<svg xmlns="http://www.w3.org/2000/svg" fill="none" viewBox="0 0 24 24"><path fill="currentColor" fill-rule="evenodd" d="M2.4 12.667V6.133C2.4 4.955 3.356 4 4.534 4h14.933c1.178 0 2.133.955 2.133 2.133v2.083a6 6 0 0 0-7.548 6.584H4.535A2.133 2.133 0 0 1 2.4 12.667M6.5 10.9a1.5 1.5 0 1 0 0-3 1.5 1.5 0 0 0 0 3m5.5 0a1.5 1.5 0 1 0 0-3 1.5 1.5 0 0 0 0 3" clip-rule="evenodd"/><path fill="currentColor" d="m23 11.264-2.106-1.053a2 2 0 0 0-1.788 0L17 11.264v3.345c0 .905 1.068 1.935 3 3.155 1.932-1.22 3-2 3-3.155z"/></svg>