<svg fill="none" viewBox="0 0 24 24"><path fill="currentColor" d="m4.8 5.8-.4-1a1 1 0 0 0-.6 1zM12 21.4l-.5.8a1 1 0 0 0 1 0zm7.2-15.6h1a1 1 0 0 0-.6-1zM10.4 3l-.5-1zm3.2 0 .5-.9zm1.1 8.9a1 1 0 0 0 0-2zm-5.4-2a1 1 0 0 0 0 2zm1.7 3.7a1 1 0 0 0 2 0zm2-5.4a1 1 0 1 0-2 0zM10 2 4.3 4.9l.8 1.8 5.6-2.8zM3.7 5.8v8h2v-8zm0 8Q4 16.1 5.9 18q2 2.1 5.6 4.2l1-1.7q-3.4-2.1-5.1-3.9t-1.6-2.8zm8.7 8.4q3.5-2 5.5-4 2.1-1.7 2.2-4.4h-2q.1 1.5-1.6 3-1.6 1.6-5.1 3.7zm7.7-8.4v-8h-2v8zm-.6-9L14 2.1l-1 1.8 5.7 2.8zm-8.8-1a3 3 0 0 1 2.4 0l.9-1.7a5 5 0 0 0-4.2 0zm3.9 6H12v2h2.7zm-2.7 0H9.3v2H12zm1 3.8v-2.7h-2v2.7zm0-2.7V8.2h-2v2.7z"/></svg>