<svg xmlns="http://www.w3.org/2000/svg" fill="none" viewBox="0 0 24 24">
  <path stroke="currentColor" stroke-linecap="round" stroke-linejoin="round" stroke-width="2" d="M8.157 6.5a6.759 6.759 0 0 0-1.851 2.358 6.848 6.848 0 0 0-.66 2.938c.003 2.48-.56 4.927-1.644 7.15m9.356 3.854c1.603-3.44 2.657-9.45 2.42-11.005-.292-1.922-1.213-3.458-3.435-3.458-2.546 0-3.322 2.587-3.322 3.685m13.153 6.284c.415-2.144.624-4.325.625-6.51 0-2.81-1.101-5.506-3.063-7.493A10.388 10.388 0 0 0 12.342 1.2a10.388 10.388 0 0 0-7.394 3.103 10.667 10.667 0 0 0-3.062 7.492 12.473 12.473 0 0 1-.687 4.092m5.366 5.352a19.616 19.616 0 0 0 2.231-5.94m10.018.203c.152-1.23.227-2.468.225-3.707a6.83 6.83 0 0 0-1.962-4.797 6.652 6.652 0 0 0-4.734-1.988 6.47 6.47 0 0 0-.837.049m6.612 14.148a40.047 40.047 0 0 1-.59 2.032m-7.717 1.058c1.334-2.41 2.537-6.402 2.537-10.465"/>
</svg>
