<svg xmlns="http://www.w3.org/2000/svg" fill="none" viewBox="0 0 24 24">
  <path fill="#000" d="M8.796 2.8H3.772c-.758 0-1.372.627-1.372 1.4v1.1a.5.5 0 0 0 .5.5h7.934a.5.5 0 0 0 .35-.857l-2.038-2a.5.5 0 0 0-.35-.143Z"/>
  <path fill="#000" fill-rule="evenodd" d="M21.6 18.8V9.2c0-1.326-1.074-1.7-2.4-1.7H2.401v11.3a2.4 2.4 0 0 0 2.4 2.4h14.4a2.4 2.4 0 0 0 2.4-2.4ZM15 11.5l-2.106-1.053a2 2 0 0 0-1.788 0L9 11.5v3.345c0 .905 1.068 1.934 3 3.155 1.932-1.22 3-2 3-3.155V11.5Z" clip-rule="evenodd"/>
</svg>
