<svg xmlns="http://www.w3.org/2000/svg" fill="none" viewBox="0 0 24 24">
  <path fill="#000" fill-rule="evenodd" d="M18 2.4A3.6 3.6 0 0 1 21.6 6v12a3.6 3.6 0 0 1-3.6 3.6H6A3.6 3.6 0 0 1 2.4 18V6A3.6 3.6 0 0 1 6 2.4h12ZM6.928 4.479a2.45 2.45 0 0 0-2.45 2.449v2.898a1 1 0 1 0 2 0V6.928a.45.45 0 0 1 .45-.45h2.898a1 1 0 1 0 0-2H6.928Zm7.246 0a1 1 0 1 0 0 2h2.898a.45.45 0 0 1 .45.449v2.898a1 1 0 1 0 2 0V6.928a2.45 2.45 0 0 0-2.45-2.45h-2.898ZM7.652 11a1 1 0 1 0 0 2h8.152a1 1 0 1 0 0-2H7.652ZM6.48 14.174a1 1 0 1 0-2 0v2.898a2.45 2.45 0 0 0 2.449 2.45h2.898a1 1 0 1 0 0-2H6.928a.45.45 0 0 1-.45-.45v-2.898Zm13.043 0a1 1 0 1 0-2 0v2.898a.45.45 0 0 1-.45.45h-2.898a1 1 0 1 0 0 2h2.898a2.45 2.45 0 0 0 2.45-2.45v-2.898Z" clip-rule="evenodd"/>
</svg>
