<svg viewBox="0 0 24 24"><path fill="currentColor" fill-rule="evenodd" d="M18 2.4a3.6 3.6 0 0 1 3.6 3.6v12a3.6 3.6 0 0 1-3.6 3.6h-12a3.6 3.6 0 0 1-3.6-3.6v-12a3.6 3.6 0 0 1 3.6-3.6zm-11 2a2.5 2.5 0 0 0-2.5 2.5v3a1 1 0 1 0 2 0v-3a1 1 0 0 1 .4-.4h3a1 1 0 1 0 0-2zm7.2 0a1 1 0 1 0 0 2h2.9a1 1 0 0 1 .4.5v3a1 1 0 1 0 2 0v-3a2.5 2.5 0 0 0-2.4-2.4zm-6.5 6.6a1 1 0 1 0 0 2h8.1a1 1 0 1 0 0-2zm-1.2 3.2a1 1 0 1 0-2 0v2.9a2.5 2.5 0 0 0 2.4 2.4h3a1 1 0 1 0 0-2h-3a1 1 0 0 1-.4-.4zm13 0a1 1 0 1 0-2 0v2.9a1 1 0 0 1-.4.4h-3a1 1 0 1 0 0 2h3a2.5 2.5 0 0 0 2.4-2.4z" clip-rule="evenodd"/></svg>