<svg fill="none" viewBox="0 0 24 24"><path stroke="currentColor" stroke-linecap="round" stroke-linejoin="round" stroke-width="2" d="M8.2 6.5a7 7 0 0 0-1.9 2.4 7 7 0 0 0-.7 2.9q0 3.9-1.6 7.1m9.4 3.9c1.6-3.4 2.6-9.4 2.4-11-.3-2-1.2-3.5-3.5-3.5C9.8 8.3 9 11 9 12m13.2 6.3q.6-3.2.6-6.5 0-4.3-3-7.5a10 10 0 0 0-7.5-3.1A10 10 0 0 0 5 4.3a11 11 0 0 0-3 7.5 13 13 0 0 1-.7 4m5.4 5.4a20 20 0 0 0 2.2-5.9m10 .2q.3-1.8.2-3.7A7 7 0 0 0 17 7a7 7 0 0 0-4.7-2h-.8m6.6 14.2-.6 2m-7.7 1.1c1.3-2.4 2.5-6.4 2.5-10.5"/></svg>