<svg fill="none" viewBox="0 0 24 24"><path fill="currentColor" d="M21.6 9.2h1zm0 9.6h-1zm-19.2 0h-1zm16.8-12v-1zm-9.2-3 .8-.5zm-1 7.5-.4-1a1 1 0 0 0-.6 1zm3 6.5-.5.8a1 1 0 0 0 1 0zm3-6.5h1a1 1 0 0 0-.6-1zm-4.6-.7.4.9zm3.2 0-.4.9zm-9.8-6.8h4.2v-2h-4.2zm-.4 3v-2.6h-2v2.6zm.4-5q-2.2.1-2.4 2.4h2q0-.4.4-.4zm16.8 7.4v9.6h2v-9.6zm-1.4 11h-14.4v2h14.4zm-15.8-1.4v-12h-2v12zm15.8-13h-7.1v2h7.1zm-10-1.4 2 3 1.7-1.2-2.1-3zm11.4 14.4a1.4 1.4 0 0 1-1.4 1.4v2a3.4 3.4 0 0 0 3.4-3.4zm-15.8 1.4a1.4 1.4 0 0 1-1.4-1.4h-2a3.4 3.4 0 0 0 3.4 3.4zm17.8-11a3.4 3.4 0 0 0-3.4-3.4v2a1.4 1.4 0 0 1 1.4 1.4zm-14.6-5.4a1 1 0 0 1 1.2.6l1.6-1.2a3 3 0 0 0-2.8-1.4zm2 5.9-1.4.7.8 1.8 1.4-.7zm-2 1.6v3.3h2v-3.3zm0 3.3q.1 1.2 1 2.2 1 .9 2.5 1.8l1-1.7q-1.4-.9-2-1.5-.6-.7-.5-.8zm4.5 4q1.5-1 2.4-1.7 1-1 1.1-2.3h-2q.1.3-.5.8-.6.6-2 1.5zm3.5-4v-3.3h-2v3.3zm-.6-4.2-1.3-.7-1 1.8 1.5.7zm-4.6 1a3 3 0 0 1 2.4 0l.9-1.7a5 5 0 0 0-4.2 0zm1.3-5.6h-9.7v2h9.7z"/></svg>