<svg xmlns="http://www.w3.org/2000/svg" fill="none" viewBox="0 0 24 24">
  <path fill="#000" fill-rule="evenodd" d="M12.002 3c-3.555 0-6.4 2.894-6.4 6.461v1.682a7.112 7.112 0 0 0-.801 3.289c0 3.959 3.223 7.168 7.2 7.168 3.976 0 7.2-3.21 7.2-7.168a7.113 7.113 0 0 0-.8-3.286V9.461c0-3.567-2.845-6.461-6.4-6.461Zm4.338 5.712C15.99 6.592 14.18 5 12.002 5s-3.989 1.59-4.34 3.71a7.189 7.189 0 0 1 4.339-1.446c1.63 0 3.133.539 4.34 1.448ZM12.002 12.5a1 1 0 0 1 1 1v2.4a1 1 0 0 1-2 0v-2.4a1 1 0 0 1 1-1Z" clip-rule="evenodd"/>
</svg>
