<svg xmlns="http://www.w3.org/2000/svg" fill="none" viewBox="0 0 24 24">
  <path fill="#000" d="M10.723 10.125c0-.414.348-.75.778-.75.43 0 .777.336.777.75v.75h-1.555v-.75Z"/>
  <path fill="#000" fill-rule="evenodd" d="M7.2 2.4h8.4A3.6 3.6 0 0 1 19.2 6v12.4a3.199 3.199 0 0 1-3.2 3.2H7.2A3.6 3.6 0 0 1 3.6 18V6a3.6 3.6 0 0 1 3.6-3.6Zm1.579 8.539v-.814c0-1.45 1.218-2.625 2.722-2.625 1.503 0 2.722 1.175 2.722 2.625v.814c.453.155.777.571.777 1.06v3.376c0 .621-.522 1.125-1.167 1.125H9.167C8.522 16.5 8 15.996 8 15.375V12c0-.49.325-.907.779-1.061Z" clip-rule="evenodd"/>
</svg>
