<svg xmlns="http://www.w3.org/2000/svg" fill="none" viewBox="0 0 24 24">
  <path fill="#000" fill-rule="evenodd" d="M7.2 2.4h8.4A3.6 3.6 0 0 1 19.2 6v5.571c0 .33-.313.569-.638.515a6.5 6.5 0 0 0-7.129 8.75c.136.355-.11.764-.489.764H7.2A3.6 3.6 0 0 1 3.6 18V6a3.6 3.6 0 0 1 3.6-3.6Zm0 2.8a1 1 0 1 0 0 2H15a1 1 0 1 0 0-2H7.2Zm0 4.6a1 1 0 1 0 0 2h4.2a1 1 0 1 0 0-2H7.2Zm0 4.6a1 1 0 1 0 0 2H9a1 1 0 1 0 0-2H7.2Z" clip-rule="evenodd"/>
  <path fill="#000" fill-rule="evenodd" d="M14.778 17.439v-.814c0-1.45 1.22-2.625 2.723-2.625s2.722 1.175 2.722 2.625v.814c.453.155.777.571.777 1.06v3.376c0 .621-.522 1.125-1.167 1.125h-4.666C14.522 23 14 22.496 14 21.875V18.5c0-.49.325-.907.778-1.061Zm1.945-.814c0-.414.348-.75.778-.75.43 0 .777.336.777.75v.75h-1.555v-.75Z" clip-rule="evenodd"/>
</svg>
