<svg fill="none" viewBox="0 0 24 24"><path fill="currentColor" d="M21.6 9.2h1zm0 9.6h-1zm-19.2 0h-1zm16.8-12v-1zm-9.2-3 .8-.5zm-1 7.5-.4-1a1 1 0 0 0-.6 1zm3 6.5-.5.8a1 1 0 0 0 1 0zm3-6.5h1a1 1 0 0 0-.6-1zm-4.6-.7.4.9zm3.2 0-.4.9zM3.8 3.8H8v-2H3.8zm-.4 3V4.2h-2v2.6zm.4-5q-2.2.1-2.4 2.4h2q0-.4.4-.4zm16.8 7.4v9.6h2V9.2zm-1.4 11H4.8v2h14.4zM3.4 18.8v-12h-2v12zm15.8-13h-7.1v2h7.1zm-10-1.4 2 3L13 6.2l-2.1-3zm11.4 14.4a1.4 1.4 0 0 1-1.4 1.4v2a3.4 3.4 0 0 0 3.4-3.4zM4.8 20.2a1.4 1.4 0 0 1-1.4-1.4h-2a3.4 3.4 0 0 0 3.4 3.4zm17.8-11a3.4 3.4 0 0 0-3.4-3.4v2a1.4 1.4 0 0 1 1.4 1.4zM8 3.8a1 1 0 0 1 1.2.6l1.6-1.2A3 3 0 0 0 8 1.9zm2 5.9-1.4.7.8 1.8 1.4-.7zm-2 1.6v3.3h2v-3.3zm0 3.3q.1 1.2 1 2.2 1 .9 2.5 1.8l1-1.7q-1.4-.9-2-1.5t-.5-.8zm4.5 4 2.4-1.7q1-1 1.1-2.3h-2q.1.3-.5.8t-2 1.5zm3.5-4v-3.3h-2v3.3zm-.6-4.2-1.3-.7-1 1.8 1.5.7zm-4.6 1a3 3 0 0 1 2.4 0l.9-1.7a5 5 0 0 0-4.2 0zm1.3-5.6H2.4v2h9.7z"/></svg>