<svg viewBox="0 0 24 24"><path fill="currentColor" fill-rule="evenodd" d="M7.2 2.4h8.4A3.6 3.6 0 0 1 19.2 6v5.6q0 .5-.6.5a6.5 6.5 0 0 0-7.2 8.7q.3.7-.5.8H7.2A3.6 3.6 0 0 1 3.6 18V6a3.6 3.6 0 0 1 3.6-3.6m0 2.8a1 1 0 1 0 0 2H15a1 1 0 1 0 0-2zm0 4.6a1 1 0 1 0 0 2h4.2a1 1 0 1 0 0-2zm0 4.6a1 1 0 1 0 0 2H9a1 1 0 1 0 0-2z" clip-rule="evenodd"/><path fill="currentColor" fill-rule="evenodd" d="M14.8 17.4v-.8c0-1.4 1.2-2.6 2.7-2.6s2.7 1.2 2.7 2.6v.8q.8.3.8 1.1v3.4q0 1-1.2 1.1h-4.6q-1.1-.1-1.2-1.1v-3.4q0-.9.8-1m2-.8q0-.6.7-.7t.8.7v.8h-1.6z" clip-rule="evenodd"/></svg>