<svg xmlns="http://www.w3.org/2000/svg" fill="none" viewBox="0 0 24 24">
  <path fill="#000" fill-rule="evenodd" d="M12.002 1.4c-3.559 0-6.4 2.91-6.4 6.486V9.11a1.838 1.838 0 0 0-.801 1.518v9.143c0 1.006.81 1.829 1.8 1.829h10.8c.99 0 1.8-.823 1.8-1.829v-9.143c0-1.005-.81-1.828-1.8-1.828H7.6v-.914C7.6 5.384 9.576 3.4 12 3.4c1.514 0 2.846.769 3.64 1.956a1 1 0 0 0 1.662-1.112 6.364 6.364 0 0 0-5.3-2.844Zm1.8 13.8c0-1.006-.81-1.829-1.8-1.829s-1.8.823-1.8 1.829.81 1.829 1.8 1.829 1.8-.823 1.8-1.83Z" clip-rule="evenodd"/>
</svg>
