<svg xmlns="http://www.w3.org/2000/svg" fill="none" viewBox="0 0 24 24">
  <path fill="#000" fill-rule="evenodd" d="M12.002 1.4c-3.555 0-6.4 2.894-6.4 6.461v3.282a7.112 7.112 0 0 0-.801 3.289c0 3.959 3.223 7.168 7.2 7.168 3.976 0 7.2-3.21 7.2-7.168 0-3.959-3.224-7.168-7.2-7.168a7.19 7.19 0 0 0-4.4 1.493v-.896c0-2.484 1.972-4.461 4.4-4.461 1.3 0 2.462.563 3.268 1.466a1 1 0 0 0 1.492-1.332 6.357 6.357 0 0 0-4.76-2.134Zm0 10.886a1 1 0 0 1 1 1v2.4a1 1 0 0 1-2 0v-2.4a1 1 0 0 1 1-1Z" clip-rule="evenodd"/>
</svg>
