<svg xmlns="http://www.w3.org/2000/svg" fill="none" viewBox="0 0 24 24">
  <path fill="#000" d="M15.6 2.4H7.2A3.6 3.6 0 0 0 3.6 6v12a3.6 3.6 0 0 0 3.6 3.6h3.744c.38 0 .625-.409.489-.763a6.5 6.5 0 0 1 7.129-8.75c.325.053.638-.187.638-.516V6a3.6 3.6 0 0 0-3.6-3.6Z"/>
  <path fill="#000" fill-rule="evenodd" d="M14.778 16.625v.814a1.13 1.13 0 0 0-.778 1.06v3.376c0 .621.522 1.125 1.167 1.125h4.666c.645 0 1.167-.504 1.167-1.125V18.5c0-.49-.324-.906-.777-1.06v-.815c0-1.45-1.219-2.625-2.722-2.625-1.504 0-2.723 1.175-2.723 2.625Zm2.723-.75a.764.764 0 0 0-.778.75v.75h1.556v-.75a.764.764 0 0 0-.778-.75Z" clip-rule="evenodd"/>
</svg>
