<svg viewBox="0 0 24 24"><path fill="#3a76f0" d="m9.1.4.3 1a11 11 0 0 0-3 1.3l-.6-1a12 12 0 0 1 3.3-1.3Zm5.8 0-.3 1q1.5.4 3 1.3l.6-1a12 12 0 0 0-3.3-1.3Zm-13.2 5.4a12 12 0 0 0-1.3 3.3l1 .3a11 11 0 0 1 1.3-3zm-.6 6.2q0-.7.1-1.6l-1-.2a12 12 0 0 0 0 3.6l1-.2a11 11 0 0 1 0-1.6Zm17.1 10.3-.6-1q-1.5.9-3 1.3l.3 1a12 12 0 0 0 3.3-1.3Zm4.7-10.3q0 .7-.1 1.6l1 .2a12 12 0 0 0 0-3.6l-1 .2q0 .7 0 1.6Zm.8 2.9-1.1-.3a11 11 0 0 1-1.3 3l1 .6a12 12 0 0 0 1.3-3.3Zm-10 7.9q-1.6.1-3.3 0l-.2 1q1.8.3 3.6 0zm7-4.3a11 11 0 0 1-2.2 2.3l.6.9a12 12 0 0 0 2.6-2.6zm-2.2-15.3q1.2 1 2.3 2.4l.9-.7a12 12 0 0 0-2.6-2.6zm-15.3 2.3a11 11 0 0 1 2.3-2.3l-.6-.9a12 12 0 0 0-2.6 2.6zm19 .3-.9.6q.9 1.5 1.3 3l1-.3q-.4-1.8-1.3-3.3Zm-11.8-4.6a11 11 0 0 1 3.2 0l.2-1a12 12 0 0 0-3.6 0zm-6.6 20.8-2.3.5.5-2.3-1-.3-.6 2.3a1.1 1.1 0 0 0 1.4 1.4l2.3-.5zm-2.6-3 1 .2.5-1.6a11 11 0 0 1-1.3-3l-1 .3q.3 1.5 1 2.8zm5.2 2.4-1.6.3.3 1.1 1.2-.3q1.3.8 2.8 1.2l.3-1.1a11 11 0 0 1-3-1.3zm5.6-19.2a10 10 0 0 0-9.7 9.8 10 10 0 0 0 1.4 5.2l-.9 4 4-1c4.6 3 10.6 1.6 13.5-3 2.8-4.6 1.5-10.6-3-13.5a10 10 0 0 0-5.3-1.5Z"/></svg>