<svg viewBox="0 0 24 24"><path fill="#0a090b" d="m9.1.4.3 1a11 11 0 0 0-3 1.3l-.6-1A12 12 0 0 1 9.1.4m5.8 0-.3 1q1.5.4 3 1.3l.6-1A12 12 0 0 0 15 .4M1.7 5.8A12 12 0 0 0 .4 9l1 .3a11 11 0 0 1 1.3-3zM1.1 12l.1-1.6-1-.2a12 12 0 0 0 0 3.6l1-.2zm17.1 10.3-.6-1q-1.5.9-3 1.3l.3 1a12 12 0 0 0 3.3-1.3M22.9 12l-.1 1.6 1 .2a12 12 0 0 0 0-3.6l-1 .2zm.8 2.9-1.1-.3a11 11 0 0 1-1.3 3l1 .6a12 12 0 0 0 1.3-3.3m-10 7.9h-3.3l-.2 1q1.8.3 3.6 0zm7-4.3a11 11 0 0 1-2.2 2.3l.6.9a12 12 0 0 0 2.6-2.6zm-2-15.3q1.2 1 2.3 2.4l.9-.7A12 12 0 0 0 19 2.3zM3.2 5.5a11 11 0 0 1 2.3-2.3L5 2.3A12 12 0 0 0 2.3 5zm19 .3-.9.6q.9 1.5 1.3 3l1-.3q-.4-1.8-1.3-3.3M10.5 1.2a11 11 0 0 1 3.2 0l.2-1a12 12 0 0 0-3.6 0zM3.8 22l-2.3.5.5-2.3-1-.3-.6 2.3a1.1 1.1 0 0 0 1.4 1.4L4 23zm-2.6-3 1 .2.5-1.6a11 11 0 0 1-1.3-3l-1 .3q.3 1.5 1 2.8zm5.2 2.4-1.6.3.3 1.1 1.2-.3q1.3.8 2.8 1.2l.3-1.1a11 11 0 0 1-3-1.3M12 2.2A10 10 0 0 0 2.3 12a10 10 0 0 0 1.4 5.2l-.9 4 4-1c4.6 3 10.6 1.6 13.5-3 2.8-4.6 1.5-10.6-3-13.5A10 10 0 0 0 12 2.2"/></svg>