<svg viewBox="0 0 24 24"><g fill="#191717" clip-path="url(#a)"><path fill-rule="evenodd" d="M12 .5a12 12 0 0 0-7.8 2.8 12 12 0 0 0-4 7.2 12 12 0 0 0 1.5 8.1 12 12 0 0 0 6.5 5.2q.9 0 .8-.6V21c-3.3.7-4-1.4-4-1.4-.6-1.4-1.4-1.8-1.4-1.8-1-.7.1-.7.1-.7 1.2 0 1.9 1.2 1.9 1.2 1 1.8 2.8 1.3 3.4 1q.3-1.2.8-1.6c-2.7-.3-5.5-1.3-5.5-5.9a5 5 0 0 1 1.3-3.2c-.1-.3-.6-1.5.1-3.2 0 0 1-.3 3.3 1.3a12 12 0 0 1 6 0c2.3-1.6 3.3-1.3 3.3-1.3.7 1.7.2 2.9.1 3.2a5 5 0 0 1 1.3 3.2c0 4.6-2.8 5.6-5.5 5.9q.7.5.8 2.2v3.3q0 .6.8.6a12 12 0 0 0 6.5-5.2 12 12 0 0 0 1.5-8 12 12 0 0 0-4-7.3A12 12 0 0 0 12 .5" clip-rule="evenodd"/><path d="M4.5 17.6h-.2v-.1h.1q.2 0 .1.1m.5.6h-.2v-.3H5zm.5.7-.3-.1v-.3h.3zm.6.6h-.3v-.3H6zm1 .4-.4.1-.2-.2q0-.2.3-.1.3 0 .2.2m1 0q0 .3-.3.3t-.3-.2.3-.2.2.2m.8 0-.2.1h-.3q0-.3.3-.3z"/></g><defs><clipPath id="a"><path fill="#fff" d="M0 0h24v24H0z"/></clipPath></defs></svg>