<svg viewBox="0 0 24 24"><g clip-path="url(#a)"><path fill="#0acf83" d="M8 24c2.2 0 4-1.8 4-4v-4H8c-2.2 0-4 1.8-4 4s1.8 4 4 4"/><path fill="#a259ff" d="M4 12c0-2.2 1.8-4 4-4h4v8H8c-2.2 0-4-1.8-4-4"/><path fill="#f24e1e" d="M4 4c0-2.2 1.8-4 4-4h4v8H8C5.8 8 4 6.2 4 4"/><path fill="#ff7262" d="M12 0h4c2.2 0 4 1.8 4 4s-1.8 4-4 4h-4z"/><path fill="#1abcfe" d="M20 12c0 2.2-1.8 4-4 4s-4-1.8-4-4 1.8-4 4-4 4 1.8 4 4"/></g><defs><clipPath id="a"><path fill="#fff" d="M0 0h24v24H0z"/></clipPath></defs></svg>