<svg viewBox="0 0 24 24"><g clip-path="url(#a)"><path fill="currentColor" d="M21.8 18.7 20.5 21q-1 1.5-1.7 2-.9 1-2.1 1-.8 0-2-.5-1-.5-2-.5-1.1 0-2.3.5t-1.9.5q-1 0-2.2-1-.6-.5-1.7-2-1-1.6-1.8-3.7Q2 15 2 12.9q0-2.4 1-4.1a6 6 0 0 1 2.2-2.2 6 6 0 0 1 3-.9q.9 0 2.3.6l1.8.5 2-.6q1.6-.6 2.7-.5 3 .3 4.6 2.4-2.7 1.6-2.7 4.6 0 2.3 1.7 3.8.6.7 1.6 1zM17.2.5q0 1.8-1.4 3.3-1.5 2-3.7 1.9v-.5q0-1.8 1.4-3.4.6-.8 1.7-1.2 1-.6 2-.6z"/></g><defs><clipPath id="a"><path fill="#fff" d="M0 0h24v24H0z"/></clipPath></defs></svg>