<svg viewBox="0 0 24 24"><path fill="#0a090b" d="M24 17.5q-.4-.6-1-1 0 0-.1 0l-.3-.2q-1.7-.9-2.7-2.2a5 5 0 0 1-.4-.8q0-.3 0-.4a1 1 0 0 1 .1-.1q.3-.2.5-.3.4-.3.6-.4.7-.5 1-1 .4-.9.1-1.8-.5-1.2-2-1.3-.3 0-.6 0l-.1 0a18 18 0 0 0 0-1.6q-.6-2.8-1.7-4a7 7 0 0 0-1.6-1.3q-1.7-1-3.8-1c-2.1 0-2.6.4-3.8 1a7 7 0 0 0-1.6 1.4q-1.2 1-1.6 3.9a18 18 0 0 0 0 1.7 3 3 0 0 0-.8-.1q-1.5 0-2 1.3a2 2 0 0 0 .1 1.7q.3.7 1 1 .2.3.5.5.3 0 .6.3a1 1 0 0 1 .1.1q0 .1 0 .4a5 5 0 0 1-.4.7q-1 1.4-2.6 2.3-1 .3-1.4 1.2-.2.7.4 1.6.3.3.6.4.7.4 1.5.6.2 0 .3.2.2.2.4.7.2.3.4.5.8.4 1.7.3.8 0 1.8.3.4.2 1 .5c.8.5 1.9 1.2 3.8 1.2 1.9 0 3-.7 3.8-1.2q.6-.3 1-.5 1-.2 1.8-.3.9 0 1.6-.3.3-.3.5-.6.2-.4.4-.6a1 1 0 0 1 .2-.2 7 7 0 0 0 1.6-.6q.3-.1.6-.5l0 0q.7-.8.4-1.5Zm-1.8.9q-1.5.6-2.2.8c-.5.3-.2 1-.5 1.1-.4.3-1.6 0-3.1.5-1.3.5-2.1 1.7-4.4 1.7-2.3 0-3-1.2-4.3-1.7-1.6-.5-2.8-.2-3.2-.5-.3-.2 0-.8-.5-1.1q-.7-.2-2.2-.8c-.7-.4-.3-.6 0-.7 3.6-1.8 4.2-4.6 4.3-4.8q0-.4-.3-.7c-.2-.3-1.4-1-1.7-1.2q-.9-.6-.6-1.2.2-.5.7-.5.1 0 .3 0 1 .4 1.5.6 0 0 .1 0 .3 0 .3-.3c0-.7-.2-2 0-3.1q.1-2.2 1.2-3.1c.3-.4 1.7-1.9 4.4-1.9 2.7 0 4.1 1.5 4.4 1.8q1 1 1.3 3.2 0 2 0 3 0 .4.2.4 0 0 .1 0 .6-.2 1.5-.5a1 1 0 0 1 .3 0q.5-.1.7.4.3.6-.6 1.2c-.3.2-1.5 1-1.7 1.2q-.4.3-.2.7c0 .2.6 3 4.3 4.8.2 0 .6.3 0 .7Z"/></svg>