<svg viewBox="0 0 24 24"><g fill="#0a090b" clip-path="url(#a)"><path fill-rule="evenodd" d="M12 .5a12 12 0 0 0-7.8 2.8 12 12 0 0 0-4 7.2 12 12 0 0 0 1.5 8.1 12 12 0 0 0 6.5 5.2q.9 0 .8-.6 0-.6 0-2.2c-3.3.7-4-1.4-4-1.4-.6-1.4-1.4-1.8-1.4-1.8-1-.7.1-.7.1-.7 1.2 0 1.9 1.2 1.9 1.2 1 1.8 2.8 1.3 3.4 1q.3-1.2.8-1.6c-2.7-.3-5.5-1.3-5.5-5.9a5 5 0 0 1 1.3-3.2c-.1-.3-.6-1.5.1-3.2 0 0 1-.3 3.3 1.3a12 12 0 0 1 6 0c2.3-1.6 3.3-1.3 3.3-1.3.7 1.7.2 2.9.1 3.2a5 5 0 0 1 1.3 3.2c0 4.6-2.8 5.6-5.5 5.9q.7.5.8 2.2 0 2.5 0 3.3 0 .6.8.6a12 12 0 0 0 6.5-5.2 12 12 0 0 0 1.5-8 12 12 0 0 0-4-7.3 12 12 0 0 0-7.8-2.8z" clip-rule="evenodd"/><path d="M4.5 17.6q0 0-.2 0 0 0 0-.1 0 0 .1 0 .2 0 .1.1Zm.5.6a.2.2 0 0 1-.2 0q0-.3 0-.3 0 0 .2 0 0 .1 0 .3Zm.5.7q0 0-.3-.1a.2.2 0 0 1 0-.3q.2 0 .3 0 0 .3 0 .4Zm.6.6q0 0-.3 0 0-.2 0-.3 0 0 .3 0 0 .2 0 .3Zm1 .4q0 .1-.4.1-.1 0-.2-.2 0-.2.3-.1.3 0 .2.2Zm1 0q0 .3-.3.3-.3 0-.3-.2 0-.2.3-.2.2 0 .2.2Zm.8 0q0 0-.2.1-.1 0-.3 0 0-.3.3-.3.2 0 .2.1Z"/></g><defs><clipPath id="a"><path fill="#fff" d="M0 0h24v24h-24z"/></clipPath></defs></svg>