<svg viewBox="0 0 24 24"><path fill="#0a090b" stroke="#000" d="m20.3 5.2-.4-.5-.4.5c-.2.3-1.8 2.4-5.5 3.9l-.5.2.3.5.6 1.4.1.2.2.4.1.3h.4c3.2-.4 6.4.2 7 .3l.5.1V12a11 11 0 0 0-2.4-6.7Zm-1.1-.6.3-.3L19 4a11 11 0 0 0-7-2.7q-1.3 0-2.5.3l-.8.1.5.6a55 55 0 0 1 3.8 6l.2.4.4-.2C17.4 7.1 19 5 19.2 4.6ZM8 2.4l-.2-.3-.4.2c-3 1.4-5.2 4.2-6 7.5v.6H2c.6 0 4.8 0 9.6-1.3l.6-.1-.3-.6c-1.7-3-3.6-5.6-3.9-6Zm-6.2 8.8h-.6v.8q.1 4.3 2.8 7.2l.5.5.3-.6c.2-.4 3-4.9 8-6.5h.2l.2-.1.6-.2-.2-.5-.9-1.8-.2-.4-.4.2c-5 1.5-10 1.4-10.3 1.4Zm3.5 8.7-.2.3.3.3a11 11 0 0 0 6.6 2.3q2.3 0 4.2-1h.4l-.1-.4c-.2-1-.8-4.1-2.2-8L14 13l-.5.2c-6 2.1-8.1 6.2-8.3 6.7Zm12 .7v.7l.7-.4q3.7-2.5 4.6-7.2v-.4l-.3-.1c-.4-.2-3.3-1-6.7-.5l-.6.1.3.6c1.3 3.6 1.8 6.6 2 7.2ZM.4 12C.5 5.7 5.7.5 12 .5S23.5 5.7 23.5 12 18.3 23.5 12 23.5.5 18.3.5 12Z"/></svg>