<svg viewBox="0 0 24 24"><path fill="#fff" d="M22.3 17.7C18.6 15.9 18 13 18 12.9q-.1-.4.2-.7l1.7-1.2q.9-.6.6-1.2-.1-.5-.7-.5h-.3L18 10q-.3 0-.2-.3V6.5q-.3-2.2-1.3-3.2c-.3-.3-1.7-1.8-4.4-1.8S8 3 7.6 3.3q-1 1-1.3 3.2v3q0 .4-.2.4H6l-1.5-.5h-.3q-.5-.1-.7.4-.3.6.6 1.2l1.7 1.2q.4.3.2.7c0 .2-.6 3-4.3 4.8-.2 0-.6.3 0 .7l2.3.8c.7.2.2 1 .5 1.2.4.2 1.6 0 3.1.4 1.3.5 2.1 1.7 4.4 1.7s3-1.2 4.4-1.7 2.7-.2 3-.4c.4-.3.1-.9.6-1.2l2.2-.8c.7-.4.3-.6.1-.7"/><path fill="currentColor" d="M24 17.5q-.4-.7-1-1l-.3-.2q-1.7-.9-2.7-2.2l-.4-.8V13l.1-.2.5-.3.6-.4q.7-.5 1-1a2 2 0 0 0 .1-1.8q-.5-1.2-2-1.3h-.7V6.5q-.6-2.8-1.7-4l-1.6-1.3Q14 .1 12 .1c-2.1 0-2.6.4-3.8 1L6.6 2.5Q5.4 3.5 5 6.4V8h-.9q-1.5 0-2 1.3a2 2 0 0 0 .1 1.7q.3.7 1 1l.6.5.5.3.1.2v.3l-.4.8q-1 1.3-2.6 2.2-1 .3-1.4 1.2-.2.7.4 1.6l.6.5 1.5.6H3l.4.8.5.5q.7.4 1.6.4l1.8.2 1 .5c.8.5 2 1.2 3.8 1.2 1.9 0 3-.7 3.9-1.2l.9-.5 1.8-.2q.9.1 1.6-.4l.6-.6q0-.4.3-.6l.3-.1 1.5-.6.6-.6q.7-.7.4-1.5m-1.8.9-2.2.8c-.5.3-.2 1-.5 1.2-.4.2-1.6 0-3.1.5-1.3.4-2.1 1.6-4.4 1.6s-3-1.2-4.4-1.7-2.7-.2-3-.4c-.4-.3-.1-.9-.6-1.2s-1.2-.3-2.2-.8c-.7-.4-.3-.6-.1-.7C5.4 15.9 6 13 6 12.9q.1-.4-.2-.7L4.1 11q-.9-.6-.6-1.2.1-.5.7-.5h.3L6 10q.3 0 .2-.3V6.5q.3-2.2 1.3-3.1C7.9 3 9.3 1.5 12 1.5s4.1 1.5 4.4 1.8q1 1 1.3 3.2v3q0 .4.2.4h.1l1.5-.5h.3q.5-.1.7.4.3.6-.6 1.2l-1.7 1.2q-.4.3-.2.7c0 .2.6 3 4.3 4.8.2 0 .6.3 0 .7"/></svg>