<svg viewBox="0 0 24 24"><g clip-path="url(#a)"><path fill="#0a090b" fill-rule="evenodd" d="M1.7 1.7c-1.7 1.7-1.7 4.4-1.7 9.8v1c0 5.4 0 8.1 1.7 9.8 1.7 1.7 4.4 1.7 9.8 1.7h1c5.4 0 8.1 0 9.8-1.7 1.7-1.7 1.7-4.4 1.7-9.8v-1c0-5.4 0-8.1-1.7-9.8-1.7-1.7-4.4-1.7-9.8-1.7h-1c-5.4 0-8.1 0-9.8 1.7Zm2.3 5.6c.2 6.2 3.3 10 8.8 10h.3v-3.6c2 .2 3.5 1.7 4.1 3.6h2.9c-.8-2.9-2.9-4.4-4.2-5 1.3-.8 3.1-2.6 3.6-5h-2.6c-.6 2-2.2 3.8-3.8 4v-4h-2.6v7c-1.6-.5-3.6-2.4-3.7-7z" clip-rule="evenodd"/></g><defs><clipPath id="a"><path fill="#fff" d="M0 0h24v24h-24z"/></clipPath></defs></svg>