<svg viewBox="0 0 24 24"><g clip-path="url(#a)"><path fill="#0a090b" d="M12 0C5.4 0 0 5.4 0 12c0 5 3.2 9.4 7.6 11.2v-3.5l1.5-6q-.2 0-.4-1.7c0-1.7 1-3 2.2-3q1.5.2 1.5 1.8c0 1-.7 2.5-1 4-.3 1.2.6 2.1 1.8 2.1 2.1 0 3.8-2.2 3.8-5.5 0-2.8-2.1-4.8-5-4.8-3.5 0-5.5 2.5-5.5 5.2q0 1.7 1 2.7v.3l-.3 1.4q0 .3-.4.2c-1.5-.7-2.5-3-2.5-4.7 0-3.8 2.8-7.3 8-7.3 4.1 0 7.4 3 7.4 7s-2.6 7.4-6.3 7.4q-2-.1-2.7-1.3l-.8 2.8c-.2 1-1 2.4-1.5 3.2q1.8.5 3.6.5c6.6 0 12-5.4 12-12S18.6 0 12 0"/></g><defs><clipPath id="a"><path fill="#fff" d="M0 0h24v24H0z"/></clipPath></defs></svg>