<svg viewBox="0 0 24 24"><path fill="#0a090b" d="M24 17.5q-.4-.6-1-1l-.3-.2q-1.7-.9-2.7-2.2l-.4-.8v-.4l.1-.1.5-.3.6-.4q.7-.5 1-1 .4-.9.1-1.8-.5-1.2-2-1.3h-.7V6.5q-.6-2.8-1.7-4l-1.6-1.3Q14 .1 12 .1c-2.1 0-2.6.4-3.8 1L6.6 2.5Q5.4 3.5 5 6.4V8h-.9q-1.5 0-2 1.3a2 2 0 0 0 .1 1.7q.3.7 1 1l.5.5.6.3.1.1v.4L4 14q-1 1.4-2.6 2.3-1 .3-1.4 1.2-.2.7.4 1.6l.6.4 1.5.6.3.2.4.7.4.5q.8.4 1.7.3.8 0 1.8.3l1 .5c.8.5 1.9 1.2 3.8 1.2s3-.7 3.8-1.2l1-.5 1.8-.3q.9 0 1.6-.3l.5-.6.4-.6.2-.2 1.6-.6q.3-.1.6-.5.7-.8.4-1.5m-1.8.9-2.2.8c-.5.3-.2 1-.5 1.1-.4.3-1.6 0-3.1.5-1.3.5-2.1 1.7-4.4 1.7s-3-1.2-4.3-1.7c-1.6-.5-2.8-.2-3.2-.5-.3-.2 0-.8-.5-1.1l-2.2-.8c-.7-.4-.3-.6 0-.7C5.3 15.9 6 13 6 12.9q0-.4-.3-.7c-.2-.3-1.4-1-1.7-1.2q-.9-.6-.6-1.2.2-.5.7-.5h.3L6 10h.1q.3 0 .3-.3c0-.7-.2-2 0-3.1q.1-2.2 1.2-3.1c.4-.5 1.7-2 4.4-2s4.1 1.5 4.4 1.8q1 1 1.3 3.2v3q0 .4.2.4h.1l1.5-.5h.3q.5-.1.7.4.3.6-.6 1.2l-1.7 1.2q-.4.3-.2.7c0 .2.6 3 4.3 4.8.2 0 .6.3 0 .7"/></svg>