<svg viewBox="0 0 24 24"><path fill="#ff004f" d="M17.2 8.7a9 9 0 0 0 5.5 1.7v-4h-1.2v3A9 9 0 0 1 16 7.8v8c0 4-3.2 7.3-7.2 7.3a7 7 0 0 1-4-1.2 7 7 0 0 0 5 2.1c4 0 7.3-3.3 7.3-7.3zm1.4-4a6 6 0 0 1-1.4-3.2V1H16a6 6 0 0 0 2.5 3.7m-11.3 14a3 3 0 0 1-.7-2 3.3 3.3 0 0 1 4.3-3.2v-4h-1v3a3.3 3.3 0 0 0-4.4 3.2q.1 2.1 1.9 3"/><path fill="currentColor" d="M16 7.7a9 9 0 0 0 5.5 1.8V6.4a6 6 0 0 1-2.9-1.7A6 6 0 0 1 16.1 1h-2.9v15.7A3.3 3.3 0 0 1 10 20a3 3 0 0 1-2.6-1.3 3 3 0 0 1-1.9-3 3.3 3.3 0 0 1 4.4-3.1V9.4c-4 .1-7.2 3.3-7.2 7.3a7 7 0 0 0 2.1 5.1 7 7 0 0 0 4 1.2c4 0 7.3-3.2 7.3-7.3z"/><path fill="#00f2ea" d="M21.5 6.4v-.9a6 6 0 0 1-2.9-.8 6 6 0 0 0 2.9 1.7M16.1 1V0h-4v15.8A3.3 3.3 0 0 1 8.8 19l-1.5-.4A3 3 0 0 0 9.9 20a3.3 3.3 0 0 0 3.3-3.3V1zM9.8 9.4v-.9h-1c-4 0-7.3 3.2-7.3 7.3a7 7 0 0 0 3.2 6 7 7 0 0 1-2-5c0-4 3.1-7.3 7-7.4"/></svg>