<svg viewBox="0 0 24 24"><g clip-path="url(#a)"><path fill="#ff4500" d="M12 24c6.6 0 12-5.4 12-12S18.6 0 12 0 0 5.4 0 12s5.4 12 12 12"/><path fill="#fff" d="M20 12q-.2-1.7-1.8-1.8-.7 0-1.2.5-1.9-1.3-4.6-1.5l.8-3.7 2.6.5a1.3 1.3 0 0 0 2.5 0q-.1-1.2-1.3-1.3-.8 0-1.1.7L13 4.8h-.2l-.2.3-.9 4.1Q9 9.4 7 10.7a2 2 0 0 0-1.2-.5Q4 10.4 4 12q0 1.1 1 1.6v.5c0 2.7 3.2 4.9 7 4.9 3.9 0 7-2.2 7-4.9v-.5a2 2 0 0 0 1-1.6M8 13.3Q8.1 12 9.2 12q1.5 0 1.3 1.3-.1 1-1.3 1.2A1.3 1.3 0 0 1 8 13.2m7 3.2c-.9.9-2.5 1-3 1s-2.1-.1-3-1V16a.3.3 0 0 1 .5 0c.5.5 1.7.7 2.5.7q1.5 0 2.5-.7a.3.3 0 0 1 .5 0zm-.3-2a1.3 1.3 0 0 1-1.2-1.3q.1-1 1.3-1.2 1 .1 1.2 1.3-.1 1-1.3 1.2"/></g><defs><clipPath id="a"><path fill="#fff" d="M0 0h24v24H0z"/></clipPath></defs></svg>