<svg viewBox="0 0 24 24"><g clip-path="url(#a)"><path fill="#07f" d="M0 11.5c0-5.4 0-8.1 1.7-9.8 1.7-1.7 4.4-1.7 9.8-1.7h1c5.4 0 8.1 0 9.8 1.7 1.7 1.7 1.7 4.4 1.7 9.8v1c0 5.4 0 8.1-1.7 9.8-1.7 1.7-4.4 1.7-9.8 1.7h-1c-5.4 0-8.1 0-9.8-1.7-1.7-1.7-1.7-4.4-1.7-9.8z"/><path fill="#fff" d="M12.8 17.3c-5.5 0-8.6-3.8-8.8-10h2.8c0 4.6 2.1 6.5 3.7 7v-7h2.6v4c1.6-.2 3.2-2 3.8-4h2.6c-.5 2.4-2.3 4.2-3.5 5 1.2.6 3.3 2.2 4 5h-2.8q-1-3.2-4.1-3.6v3.6z"/></g><defs><clipPath id="a"><path fill="#fff" d="M0 0h24v24h-24z"/></clipPath></defs></svg>