<svg viewBox="0 0 24 24"><g clip-path="url(#a)"><path fill="url(#b)" d="M4.5 1a6 6 0 0 0-2 1.4 6 6 0 0 0-1.4 2q-.4 1-.5 2.9v9.5q0 1.7.5 2.8a6 6 0 0 0 1.4 2 6 6 0 0 0 2 1.3q1 .4 2.8.6h9.5q1.7 0 2.8-.6a6 6 0 0 0 2-1.3 6 6 0 0 0 1.4-2q.5-1.1.5-2.8V7.3q0-1.8-.5-2.8a6 6 0 0 0-1.3-2 6 6 0 0 0-2-1.4q-1.2-.5-3-.5L12.1.5H7.3q-1.7.2-2.8.6m12.2 1.6q1.6.1 2.2.4t1.3.9q.5.6.8 1.3.3.5.4 2.2l.1 4.6v4.7q-.2 1.6-.5 2.1l-.8 1.3-1.3.9q-.5.3-2.2.4H7.4q-1.6 0-2.1-.4l-1.4-.9-.8-1.3q-.3-.5-.4-2.1L2.6 12V7.4q.2-1.7.5-2.2.3-.8.8-1.3L5.3 3q.5-.2 2.1-.4h9.3"/><path fill="url(#c)" d="M6.1 12A6 6 0 1 0 18 12a6 6 0 0 0-12 0m9.8 0a3.8 3.8 0 1 1-7.7 0 3.8 3.8 0 1 1 7.7 0"/><path fill="#654c9f" d="M18.2 7.2a1.4 1.4 0 1 0 0-2.7 1.4 1.4 0 0 0 0 2.7"/></g><defs><radialGradient id="b" cx="0" cy="0" r="1" gradientTransform="rotate(-3 409.7 -7.3)scale(33.343 28.341)" gradientUnits="userSpaceOnUse"><stop stop-color="#fed576"/><stop offset=".3" stop-color="#f47133"/><stop offset=".6" stop-color="#bc3081"/><stop offset="1" stop-color="#4c63d2"/></radialGradient><radialGradient id="c" cx="0" cy="0" r="1" gradientTransform="rotate(-3 324 -113.8)scale(17.122 14.554)" gradientUnits="userSpaceOnUse"><stop stop-color="#fed576"/><stop offset=".3" stop-color="#f47133"/><stop offset=".6" stop-color="#bc3081"/><stop offset="1" stop-color="#4c63d2"/></radialGradient><clipPath id="a"><path fill="#fff" d="M0 0h24v24H0z"/></clipPath></defs></svg>