<svg viewBox="0 0 24 24"><path fill="#0a090b" fill-rule="evenodd" d="M8.6 0a4.6 4.6 0 0 0-2.8 8.3 5 5 0 0 0-1.8 3.7 5 5 0 0 0 1.8 3.7 4.6 4.6 0 0 0 2.8 8.3 4.6 4.6 0 0 0 4.7-4.6v-3.7a4.6 4.6 0 0 0 5.5-7.4 4.6 4.6 0 0 0-2.8-8.3zm-2.7 4.6a2.7 2.7 0 0 1 2.7-2.7h2.8v5.5h-2.8a2.7 2.7 0 0 1-2.7-2.8Zm7.4 2.8v-5.5h2.7a2.7 2.7 0 0 1 2.7 2.7 2.7 2.7 0 0 1-2.7 2.8zm-7.4 4.6a2.7 2.7 0 0 1 2.7-2.7h2.8v5.4h-2.8a2.7 2.7 0 0 1-2.7-2.7Zm10.1-2.7za2.7 2.7 0 0 1 2.7 2.7 2.7 2.7 0 0 1-2.7 2.7 2.7 2.7 0 0 1-2.7-2.7v0a2.7 2.7 0 0 1 2.7-2.7zm-10.1 10a2.7 2.7 0 0 1 2.7-2.7h2.8v2.8a2.7 2.7 0 0 1-2.8 2.7 2.7 2.7 0 0 1-2.7-2.7Z" clip-rule="evenodd"/></svg>