<svg xmlns="http://www.w3.org/2000/svg" width="24" height="24" fill="none" viewBox="0 0 24 24"><g clip-path="url(#a)"><path fill="url(#b)" d="M4.505 1.088a5.7 5.7 0 0 0-2.044 1.33 5.6 5.6 0 0 0-1.33 2.04c-.287.731-.479 1.57-.535 2.798s-.07 1.622-.07 4.753.013 3.525.07 4.754c.056 1.228.253 2.067.534 2.798a5.7 5.7 0 0 0 1.331 2.044 5.65 5.65 0 0 0 2.044 1.331c.731.286 1.57.478 2.799.534s1.621.07 4.753.07c3.13 0 3.525-.013 4.753-.07 1.228-.056 2.067-.253 2.798-.534a5.65 5.65 0 0 0 2.044-1.331 5.66 5.66 0 0 0 1.331-2.044c.286-.731.478-1.57.535-2.798.056-1.229.07-1.622.07-4.754 0-3.13-.014-3.525-.07-4.753s-.253-2.067-.535-2.798a5.7 5.7 0 0 0-1.326-2.04 5.65 5.65 0 0 0-2.044-1.33c-.731-.286-1.57-.479-2.799-.535s-1.621-.07-4.753-.07c-3.13 0-3.525.014-4.753.07-1.233.052-2.072.249-2.803.535m12.211 1.537c1.125.052 1.734.24 2.142.399.54.21.924.459 1.327.862s.651.788.862 1.327c.16.407.347 1.017.399 2.142.056 1.214.065 1.58.065 4.66s-.014 3.444-.065 4.659c-.052 1.125-.24 1.734-.399 2.142a3.6 3.6 0 0 1-.862 1.326 3.6 3.6 0 0 1-1.327.863c-.408.16-1.017.347-2.142.398-1.214.056-1.58.066-4.66.066s-3.445-.014-4.659-.066c-1.125-.051-1.734-.239-2.142-.398a3.6 3.6 0 0 1-1.326-.863 3.6 3.6 0 0 1-.863-1.326c-.16-.408-.347-1.017-.398-2.142-.057-1.214-.066-1.58-.066-4.66s.014-3.445.066-4.66c.051-1.124.239-1.734.398-2.141.21-.54.46-.924.863-1.327a3.6 3.6 0 0 1 1.326-.862c.408-.16 1.017-.347 2.142-.399 1.214-.056 1.58-.066 4.66-.066s3.445.01 4.659.066"/><path fill="url(#c)" d="M6.137 12.014a5.92 5.92 0 1 0 11.84 0 5.92 5.92 0 0 0-11.84 0m9.764 0a3.843 3.843 0 1 1-7.688 0 3.843 3.843 0 1 1 7.688 0"/><path fill="#654c9f" d="M18.217 7.242a1.383 1.383 0 1 0 0-2.765 1.383 1.383 0 0 0 0 2.765"/></g><defs><radialGradient id="b" cx="0" cy="0" r="1" gradientTransform="rotate(-3 409.661 -7.329)scale(33.3428 28.3411)" gradientUnits="userSpaceOnUse"><stop stop-color="#fed576"/><stop offset=".263" stop-color="#f47133"/><stop offset=".609" stop-color="#bc3081"/><stop offset="1" stop-color="#4c63d2"/></radialGradient><radialGradient id="c" cx="0" cy="0" r="1" gradientTransform="rotate(-3 324.877 -112.848)scale(17.122 14.5535)" gradientUnits="userSpaceOnUse"><stop stop-color="#fed576"/><stop offset=".263" stop-color="#f47133"/><stop offset=".609" stop-color="#bc3081"/><stop offset="1" stop-color="#4c63d2"/></radialGradient><clipPath id="a"><path fill="#fff" d="M0 0h24v24H0z"/></clipPath></defs></svg>