<svg viewBox="0 0 24 24"><g clip-path="url(#a)"><path fill="url(#b)" d="M12 24c6.6 0 12-5.4 12-12S18.6 0 12 0 0 5.4 0 12s5.4 12 12 12"/><path fill="#fff" fill-rule="evenodd" d="m5.4 11.9 7-3c3.4-1.4 4-1.7 4.5-1.7l.5.2.1.3v.5c-.1 1.9-.9 6.5-1.3 8.6q-.3 1.3-.8 1.2-1 0-2-.9l-2.6-1.8c-1.2-.8-.4-1.2.3-1.9l3.3-3.2V10H14q-.2 0-5.1 3.3-.8.5-1.3.5-.8-.1-1.9-.5-1.2-.2-1.3-.8 0-.3 1-.6" clip-rule="evenodd"/></g><defs><linearGradient id="b" x1="12" x2="12" y1="0" y2="23.8" gradientUnits="userSpaceOnUse"><stop stop-color="#2aabee"/><stop offset="1" stop-color="#229ed9"/></linearGradient><clipPath id="a"><path fill="#fff" d="M0 0h24v24H0z"/></clipPath></defs></svg>