<svg viewBox="0 0 24 24"><g clip-path="url(#a)"><path fill="#0a090b" fill-rule="evenodd" d="M1.7 1.7C0 3.4 0 6 0 11.5v1c0 5.4 0 8.1 1.7 9.8S6 24 11.5 24h1c5.4 0 8.1 0 9.8-1.7S24 18 24 12.5v-1c0-5.4 0-8.1-1.7-9.8S18 0 12.5 0h-1C6.1 0 3.4 0 1.7 1.7M4 7.3c.2 6.2 3.3 10 8.8 10h.3v-3.6c2 .2 3.5 1.7 4.1 3.6h2.9c-.8-2.9-2.9-4.4-4.2-5 1.3-.8 3.1-2.6 3.6-5h-2.6c-.6 2-2.2 3.8-3.8 4v-4h-2.6v7c-1.6-.5-3.6-2.4-3.7-7z" clip-rule="evenodd"/></g><defs><clipPath id="a"><path fill="#fff" d="M0 0h24v24H0z"/></clipPath></defs></svg>