<svg viewBox="0 0 24 24"><g clip-path="url(#a)"><path fill="#1877f2" d="M24 12c0-6.6-5.4-12-12-12s-12 5.4-12 12c0 6 4.4 11 10.1 11.9v-8.4h-3v-3.5h3v-2.6c0-3 1.8-4.7 4.6-4.7 1.3 0 2.6.2 2.6.2v3h-1.5c-1.5 0-2 .9-2 1.8v2.3h3.4l-.5 3.5h-2.8v8.4c5.7-1 10.1-6 10.1-11.9Z"/><path fill="#fff" d="m16.7 15.5.5-3.5h-3.3v-2.2c0-1 .4-2 2-2h1.4v-2.9s-1.3-.2-2.6-.2q-4.4 0-4.6 4.7v2.6h-3v3.5h3v8.4a12 12 0 0 0 3.8 0v-8.4z"/></g><defs><clipPath id="a"><path fill="#fff" d="M0 0h24v24h-24z"/></clipPath></defs></svg>