<svg viewBox="0 0 24 24"><g clip-path="url(#a)"><path fill="#5865f2" d="M20.3 4.2a20 20 0 0 0-4.9-1.6L14.7 4a18 18 0 0 0-5.4 0l-.7-1.2a20 20 0 0 0-5 1.5q-4.4 7-3.5 13.6v.1a20 20 0 0 0 6 3h.1l1.2-2v-.1L5.5 18v-.1l.4-.3q6.1 2.7 12.1 0h.1l.4.3v.1q-1 .6-2 .9v.1l1.3 2a20 20 0 0 0 6-3h.1q.7-7.7-3.6-13.7M8 15.2q-1.9-.3-2-2.6c-.1-2.3 1-2.4 2.1-2.4s2.2 1 2.2 2.4-1 2.4-2.2 2.4m8 0c-1.2 0-2.2-1.2-2.2-2.5s1-2.4 2.2-2.4q2 .2 2.2 2.4c0 1.3-1 2.4-2.2 2.4"/></g><defs><clipPath id="a"><path fill="#fff" d="M0 0h24v24H0z"/></clipPath></defs></svg>