<svg xmlns="http://www.w3.org/2000/svg" width="24" height="24" fill="none" viewBox="0 0 24 24"><g clip-path="url(#a)"><path fill="#0acf83" d="M8 24c2.208 0 4-1.792 4-4v-4H8c-2.208 0-4 1.792-4 4s1.792 4 4 4"/><path fill="#a259ff" d="M4 12c0-2.208 1.792-4 4-4h4v8H8c-2.208 0-4-1.792-4-4"/><path fill="#f24e1e" d="M4 4c0-2.208 1.792-4 4-4h4v8H8C5.792 8 4 6.208 4 4"/><path fill="#ff7262" d="M12 0h4c2.208 0 4 1.792 4 4s-1.792 4-4 4h-4z"/><path fill="#1abcfe" d="M20 12c0 2.208-1.792 4-4 4s-4-1.792-4-4 1.792-4 4-4 4 1.792 4 4"/></g><defs><clipPath id="a"><path fill="#fff" d="M0 0h24v24H0z"/></clipPath></defs></svg>