<svg viewBox="0 0 24 24"><g fill="#0a090b" clip-path="url(#a)"><path d="M12 2.2c3.2 0 3.6 0 4.8 0q1.8.1 2.3.4a4 4 0 0 1 1.4 1q.6.6.8 1.3.3.5.5 2.2c0 1.3 0 1.7 0 4.9 0 3.2 0 3.6 0 4.8q-.1 1.7-.5 2.3a4 4 0 0 1-.8 1.3 4 4 0 0 1-1.4 1q-.5.2-2.3.4c-1.2 0-1.6 0-4.8 0-3.2 0-3.6 0-4.8 0q-1.7-.2-2.3-.5a4 4 0 0 1-1.4-.9 4 4 0 0 1-.8-1.3q-.3-.6-.5-2.3c0-1.2 0-1.6 0-4.8 0-3.2 0-3.6 0-4.9q.1-1.6.5-2.2.3-.8.8-1.4.7-.5 1.4-.9.5-.2 2.3-.4c1.2 0 1.6 0 4.8 0Zm0-2.2c-3.3 0-3.7 0-5 0q-1.7.1-2.9.6a6 6 0 0 0-2 1.4 6 6 0 0 0-1.5 2.1q-.5 1.1-.5 3c0 1.2-.1 1.6-.1 4.9s0 3.7 0 5q.1 1.8.6 2.9.4 1 1.4 2a6 6 0 0 0 2.1 1.5q1.1.5 3 .5c1.2 0 1.6.1 4.9.1 3.3 0 3.7 0 5 0q1.7-.2 2.9-.6a6 6 0 0 0 2-1.4 6 6 0 0 0 1.5-2.1q.5-1.1.5-3c0-1.2 0-1.6 0-4.9 0-3.3 0-3.7 0-5q0-1.7-.5-2.9a6 6 0 0 0-1.4-2 6 6 0 0 0-2.1-1.5q-1.1-.5-3-.5c-1.2 0-1.6-.1-4.9-.1Z"/><path d="M12 5.8a6 6 0 0 0-6.2 6.2 6 6 0 0 0 6.2 6.2 6 6 0 0 0 6.2-6.2 6 6 0 0 0-6.2-6.2Zm0 10.2a4 4 0 1 1 0-8 4 4 0 0 1 0 8Zm7.8-10.4a1.4 1.4 0 1 1-2.8 0 1.4 1.4 0 0 1 2.8 0Z"/></g><defs><clipPath id="a"><path fill="#fff" d="M0 0h24v24h-24z"/></clipPath></defs></svg>