<svg viewBox="0 0 24 24"><g clip-path="url(#a)"><path fill="#4285f4" d="M23.8 12.3q0-1.2-.2-2.5h-11.4v4.7h6.5a6 6 0 0 1-2.4 3.6v3h3.9q3.5-3.2 3.6-8.8Z"/><path fill="#34a853" d="M12.2 24q5 0 8-2.9l-3.9-3q-1.6 1.1-4 1.2c-3.2 0-5.8-2.2-6.8-5h-4v3a12 12 0 0 0 10.7 6.7Z"/><path fill="#fbbc04" d="M5.5 14.3a7 7 0 0 1 0-4.6v-3h-4a12 12 0 0 0 0 10.7z"/><path fill="#ea4335" d="M12.2 4.8a7 7 0 0 1 4.6 1.7l3.5-3.4a12 12 0 0 0-8-3.1 12 12 0 0 0-10.8 6.6l4 3.1c1-2.8 3.6-5 6.7-5Z"/></g><defs><clipPath id="a"><path fill="#fff" d="M0 0h24v24h-24z"/></clipPath></defs></svg>