<svg viewBox="0 0 24 24"><g fill="#0a090b" clip-path="url(#a)"><path d="M12 2.2h4.8q1.8.1 2.3.4l1.4 1q.6.6.8 1.3.3.5.5 2.2v9.7q-.1 1.7-.5 2.3l-.8 1.3-1.4 1q-.5.2-2.3.4H7.2q-1.7-.2-2.3-.5l-1.4-.9-.8-1.3q-.3-.6-.5-2.3V7.1q.1-1.6.5-2.2.3-.8.8-1.4L5 2.6q.5-.2 2.3-.4zM12 0H7Q5.4.2 4.2.7a6 6 0 0 0-2 1.4 6 6 0 0 0-1.7 2Q0 5.2 0 7.1V17q.1 1.8.6 2.9t1.4 2a6 6 0 0 0 2.1 1.5q1.1.5 3 .5l4.9.1h5q1.7-.2 2.9-.6a6 6 0 0 0 2-1.4 6 6 0 0 0 1.5-2.1q.5-1.1.5-3V7q0-1.7-.5-2.9a6 6 0 0 0-1.4-2A6 6 0 0 0 19.9.5q-1.1-.5-3-.5z"/><path d="M12 5.8A6 6 0 0 0 5.8 12a6 6 0 0 0 6.2 6.2 6 6 0 0 0 6.2-6.2A6 6 0 0 0 12 5.8M12 16a4 4 0 1 1 0-8 4 4 0 0 1 0 8m7.8-10.4a1.4 1.4 0 1 1-2.8 0 1.4 1.4 0 0 1 2.8 0"/></g><defs><clipPath id="a"><path fill="#fff" d="M0 0h24v24H0z"/></clipPath></defs></svg>