<svg viewBox="0 0 24 24"><g clip-path="url(#a)"><path fill="url(#b)" d="M12 24c6.6 0 12-5.4 12-12s-5.4-12-12-12-12 5.4-12 12 5.4 12 12 12Z"/><path fill="#fff" fill-rule="evenodd" d="M5.4 11.9a580 580 0 0 1 7-3c3.4-1.4 4-1.7 4.5-1.7q.2 0 .5.2a1 1 0 0 1 .1.3q0 .1 0 .5c-.1 1.9-.9 6.5-1.3 8.6q-.3 1.3-.8 1.2-1 0-2-.9c-1-.7-1.6-1.1-2.6-1.8-1.2-.8-.4-1.2.3-1.9.1-.2 3.2-3 3.3-3.2q0-.1 0-.2-.1 0-.3 0-.2 0-5.1 3.3-.8.5-1.3.5-.8-.1-1.9-.5-1.2-.2-1.3-.8 0-.3 1-.6Z" clip-rule="evenodd"/></g><defs><linearGradient id="b" x1="12" x2="12" y1="0" y2="23.8" gradientUnits="userSpaceOnUse"><stop stop-color="#2aabee"/><stop offset="1" stop-color="#229ed9"/></linearGradient><clipPath id="a"><path fill="#fff" d="M0 0h24v24h-24z"/></clipPath></defs></svg>