<svg viewBox="0 0 24 24"><path fill="#0a090b" d="M20.3 4.2a20 20 0 0 0-4.9-1.6 0 0 0 0 0 0 0q-.4.8-.7 1.3a18 18 0 0 0-5.4 0 13 13 0 0 0-.7-1.2 0 0 0 0 0 0 0 20 20 0 0 0-5 1.5 0 0 0 0 0 0 0q-4.4 7-3.5 13.6a0 0 0 0 0 0 .1 20 20 0 0 0 6 3 0 0 0 0 0 .1 0 14 14 0 0 0 1.2-2 0 0 0 0 0 0-.1 13 13 0 0 1-1.9-.9 0 0 0 0 1 0-.1q.2-.2.4-.3a0 0 0 0 1 0 0q6.1 2.7 12.1 0a0 0 0 0 1 .1 0q.1 0 .4.3 0 0 0 .1-1 .6-2 .9a0 0 0 0 0 0 .1q.6 1 1.3 2a0 0 0 0 0 0 0 20 20 0 0 0 6-3 0 0 0 0 0 .1 0q.7-7.7-3.6-13.7a0 0 0 0 0 0 0Zm-12.3 11c-1.2 0-2.1-1.2-2.1-2.5s1-2.4 2.1-2.4c1.2 0 2.2 1 2.2 2.4 0 1.3-1 2.4-2.2 2.4Zm8 0c-1.2 0-2.2-1.2-2.2-2.5s1-2.4 2.2-2.4q2 .2 2.2 2.4c0 1.3-1 2.4-2.2 2.4Z"/></svg>