<svg viewBox="0 0 24 24"><g clip-path="url(#a)"><path fill="#fff" d="M12 24c6.6 0 12-5.4 12-12S18.6 0 12 0 0 5.4 0 12s5.4 12 12 12"/><path fill="#e60019" d="M12 0C5.4 0 0 5.4 0 12c0 5 3.2 9.4 7.6 11.2q-.2-1.7 0-3.5l1.5-6s-.4-.7-.4-1.7c0-1.7 1-3 2.2-3q1.5.2 1.5 1.8-.2 1.6-1 4c-.3 1.2.6 2.1 1.8 2.1 2.1 0 3.8-2.2 3.8-5.5 0-2.8-2.1-4.8-5-4.8-3.5 0-5.5 2.5-5.5 5.2q0 1.6 1 2.7v.4l-.3 1.3q-.1.3-.5.2c-1.5-.7-2.4-3-2.4-4.7 0-3.8 2.8-7.2 8-7.2 4.1 0 7.3 3 7.3 6.9 0 4.1-2.6 7.5-6.2 7.5q-2-.2-2.7-1.4l-.8 2.8c-.3 1-1 2.4-1.5 3.2q1.7.5 3.6.5c6.6 0 12-5.4 12-12S18.6 0 12 0"/></g><defs><clipPath id="a"><path fill="#fff" d="M0 0h24v24H0z"/></clipPath></defs></svg>