<svg viewBox="0 0 24 24"><path fill="#ea4c89" d="M12 23.6c6.4 0 11.6-5.2 11.6-11.6S18.4.4 12 .4.4 5.6.4 12 5.6 23.6 12 23.6"/><path fill="#c32361" fill-rule="evenodd" d="M12 0C5.4 0 0 5.4 0 12s5.4 12 12 12 12-5.4 12-12S18.6 0 12 0m8 5.5a10 10 0 0 1 2.2 6.4c-.3 0-3.7-.7-7-.3l-.3-.5-.7-1.5C18 8 19.7 5.8 20 5.6m-8-3.7q4 .1 6.8 2.5c-.2.3-1.7 2.4-5.4 3.7-1.7-3-3.5-5.6-3.8-6zm-4.4 1c.3.3 2.1 2.8 3.8 5.9C6.6 10 2.4 10 2 10c.6-3.2 2.8-5.8 5.6-7.2M1.7 12v-.3c.5 0 5.5 0 10.6-1.5L13 12l-.4.1c-5.3 1.7-8 6.4-8.3 6.8A10 10 0 0 1 1.7 12M12 22.3A10 10 0 0 1 5.7 20c.2-.4 2.3-4.4 8-6.4h.1c1.5 3.7 2 6.8 2.2 7.7q-1.8.9-4 .9m5.7-1.8c0-.6-.6-3.6-2-7.3 3.2-.5 6 .3 6.4.4q-.7 4.4-4.4 6.9" clip-rule="evenodd"/></svg>