<svg viewBox="0 0 24 24"><path fill="#fff" d="M22.3 17.7c-3.7-1.8-4.3-4.6-4.3-4.8q-.1-.4.2-.7c.2-.2 1.4-1 1.7-1.2q.9-.6.6-1.2-.1-.5-.7-.5 0 0-.3 0-1 .4-1.5.6a1 1 0 0 1-.1 0q-.3 0-.2-.3c0-.7 0-2 0-3.1q-.3-2.2-1.3-3.2c-.3-.3-1.7-1.8-4.4-1.8-2.7 0-4 1.5-4.4 1.8q-1 1-1.3 3.2 0 2 0 3 0 .4-.2.4a1 1 0 0 1-.1 0q-.6-.2-1.5-.5a1 1 0 0 0-.3 0q-.5-.1-.7.4-.3.6.6 1.2c.3.2 1.5 1 1.7 1.2q.4.3.2.7c0 .2-.6 3-4.3 4.8-.2 0-.6.3 0 .7q1.6.6 2.3.8c.5.3.2 1 .5 1.2.4.2 1.6 0 3.1.4 1.3.5 2.1 1.7 4.4 1.7 2.3 0 3-1.2 4.4-1.7 1.5-.5 2.7-.2 3-.4.4-.3.1-.9.6-1.2q.7-.2 2.2-.8c.7-.4.3-.6.1-.7Z"/><path fill="currentColor" d="M24 17.5q-.4-.7-1-1a2 2 0 0 0-.1 0l-.3-.2q-1.7-.9-2.7-2.2a5 5 0 0 1-.4-.8q0-.3 0-.3a1 1 0 0 1 .1-.2q.3-.2.5-.3.5-.3.6-.4.7-.5 1-1a2 2 0 0 0 .1-1.8q-.5-1.2-2-1.3a3 3 0 0 0-.7 0 17 17 0 0 0 0-1.6q-.6-2.8-1.7-4a6 6 0 0 0-1.6-1.3q-1.7-1-3.8-1c-2.1 0-2.6.4-3.8 1a6 6 0 0 0-1.6 1.4q-1.2 1-1.6 3.9a17 17 0 0 0 0 1.7 3 3 0 0 0-.8-.1q-1.5 0-2 1.3a2 2 0 0 0 .1 1.7q.3.7 1 1 .1.3.6.5l.5.3a1 1 0 0 1 .1.2q0 0 0 .3a5 5 0 0 1-.4.8q-1 1.3-2.6 2.2-1 .3-1.4 1.2-.2.7.4 1.6.3.3.6.5.8.3 1.5.6.2 0 .3 0 .2.3.4.8.2.3.5.5.7.4 1.6.4.8 0 1.8.2.4.2 1 .5c.8.5 2 1.2 3.8 1.2 1.9 0 3-.7 3.9-1.2q.4-.3.9-.5 1-.2 1.8-.2.9.1 1.6-.4a2 2 0 0 0 .6-.6q0-.4.3-.6a1 1 0 0 1 .3-.1 7 7 0 0 0 1.5-.6q.3-.2.6-.6l0 0q.7-.7.4-1.5Zm-1.8.9q-1.5.5-2.2.8c-.5.3-.2 1-.5 1.2-.4.2-1.6 0-3.1.5-1.3.4-2.1 1.6-4.4 1.6-2.3 0-3-1.2-4.4-1.7-1.5-.5-2.7-.2-3-.4-.4-.3-.1-.9-.6-1.2q-.7-.3-2.2-.8c-.7-.4-.3-.6-.1-.7 3.7-1.8 4.3-4.6 4.3-4.8q.1-.4-.2-.7c-.2-.2-1.4-1-1.7-1.2q-.9-.6-.6-1.2.1-.5.7-.5 0 0 .3 0 1 .4 1.5.6a1 1 0 0 0 .1 0q.3 0 .2-.3c0-.7 0-2 0-3.1q.3-2.2 1.3-3.1c.3-.4 1.7-1.9 4.4-1.9 2.7 0 4.1 1.5 4.4 1.8q1 1 1.3 3.2 0 2 0 3 0 .4.2.4a1 1 0 0 0 .1 0q.6-.2 1.5-.5.1 0 .3 0 .5-.1.7.4.3.6-.6 1.2c-.3.2-1.5 1-1.7 1.2q-.4.3-.2.7c0 .2.6 3 4.3 4.8.2 0 .6.3 0 .7Z"/></svg>