<svg viewBox="0 0 24 24"><path fill="#ff004f" d="M17.2 8.7a9 9 0 0 0 5.5 1.7v-4q-.6 0-1.2 0v3a9 9 0 0 1-5.5-1.7v8c0 4-3.2 7.3-7.2 7.3a7 7 0 0 1-4-1.2 7 7 0 0 0 5.1 2.2c4 0 7.3-3.3 7.3-7.3zm1.4-4a6 6 0 0 1-1.4-3.2v-.5h-1.1a6 6 0 0 0 2.5 3.7Zm-11.3 14a3 3 0 0 1-.7-2 3.3 3.3 0 0 1 4.3-3.2v-4a7 7 0 0 0-1.1 0v3a3.3 3.3 0 0 0-4.4 3.2q.1 2.1 1.9 3Z"/><path fill="currentColor" d="M16 7.7a9 9 0 0 0 5.5 1.8v-3.1a6 6 0 0 1-2.9-1.7 6 6 0 0 1-2.5-3.7h-2.9v15.7a3.3 3.3 0 0 1-3.3 3.3 3 3 0 0 1-2.6-1.3 3 3 0 0 1-1.9-3 3.3 3.3 0 0 1 4.4-3.1v-3.2c-4 .1-7.2 3.3-7.2 7.3a7 7 0 0 0 2.1 5.1 7 7 0 0 0 4 1.2c4 0 7.3-3.2 7.3-7.3z"/><path fill="#00f2ea" d="M21.5 6.4v-.9a6 6 0 0 1-2.9-.8 6 6 0 0 0 2.9 1.7Zm-5.4-5.4a6 6 0 0 1 0-.5v-.5h-4v15.8a3.3 3.3 0 0 1-3.3 3.3 3 3 0 0 1-1.5-.4 3 3 0 0 0 2.6 1.3 3.3 3.3 0 0 0 3.3-3.3v-15.7zm-6.3 8.4v-.9a7 7 0 0 0-1 0c-4 0-7.3 3.2-7.3 7.3a7 7 0 0 0 3.2 6 7 7 0 0 1-2-5c0-4 3.1-7.3 7-7.4Z"/></svg>