<svg viewBox="0 0 24 24"><g clip-path="url(#a)"><path fill="#0a090b" fill-rule="evenodd" d="M24 12c0 6.6-5.4 12-12 12s-12-5.4-12-12 5.4-12 12-12 12 5.4 12 12Zm-11.6-3.1q-1.7.6-7 3-.7.3-.9.6.1.5 1 .7.2 0 .3.1c.6.2 1.5.5 1.9.5q.6 0 1.3-.5 5-3.3 5-3.4.1 0 .3 0 0 .1 0 .3c0 .2-1.8 1.8-2.7 2.7q-.5.5-.5.5-.2.1-.3.3c-.6.5-1 1 0 1.6q.7.5 1.3.9.6.4 1.4 1 .2 0 .4.2.7.7 1.5.6.5 0 .8-1.2c.4-2.1 1.2-6.7 1.4-8.6a2 2 0 0 0 0-.5 1 1 0 0 0-.2-.3q-.3-.2-.5-.2c-.4 0-1.1.3-4.5 1.7Z" clip-rule="evenodd"/></g><defs><clipPath id="a"><path fill="#fff" d="M0 0h24v24h-24z"/></clipPath></defs></svg>