<svg viewBox="0 0 24 24"><path fill="#0a090b" stroke="#000" d="m20.3 5.2-.4-.5-.4.5c-.2.3-1.8 2.4-5.5 3.9l-.5.2.3.5q.3.8.6 1.4v0q0 .2.1.2 0 .3.2.4l.1.3.4 0c3.2-.4 6.4.2 7 .3l0 0 .5.1 0-.6a11 11 0 0 0-2.4-6.7Zm-1.1-.6.3-.3-.4-.3a11 11 0 0 0-7.1-2.7q-1.3 0-2.5.3l-.8.1.5.6 0 0a55 55 0 0 1 3.8 6l.2.4.4-.2c3.8-1.4 5.4-3.5 5.6-3.9Zm-11.2-2.2-.2-.3-.4.2c-3 1.4-5.2 4.2-6 7.5l0 .6h.6c.6 0 4.8 0 9.6-1.3l.6-.1-.3-.6c-1.7-3-3.6-5.6-3.9-6Zm-6.2 8.8-.6 0v.8q.1 4.3 2.8 7.2l.5.5.3-.6c.2-.4 3-4.9 8-6.5l.2 0 .2-.1.6-.2-.2-.5a31 31 0 0 0-.9-1.8l-.2-.4-.4.2c-5 1.5-10 1.4-10.3 1.4Zm3.5 8.7-.2.3.3.3a11 11 0 0 0 6.6 2.3q2.3 0 4.2-1l.4 0-.1-.4c-.2-1-.8-4.1-2.2-8l-.2-.4-.5.2a1 1 0 0 0 0 0c-6 2.1-8.1 6.2-8.3 6.7Zm12 .7 0 .7.7-.4q3.7-2.5 4.6-7.2l0-.4-.3-.1c-.4-.2-3.3-1-6.7-.5l-.6.1.3.6c1.3 3.6 1.8 6.6 2 7.2Zm-16.8-8.6c0-6.3 5.2-11.5 11.5-11.5 6.3 0 11.5 5.2 11.5 11.5s-5.2 11.5-11.5 11.5c-6.3 0-11.5-5.2-11.5-11.5Z"/></svg>