<svg viewBox="0 0 24 24"><path fill="#0a090b" fill-rule="evenodd" d="M24 12c0 6.6-5.4 12-12 12s-12-5.4-12-12 5.4-12 12-12 12 5.4 12 12Zm-5.8-1.8q1.6.2 1.8 1.8 0 1.1-1 1.6 0 .3 0 .5c0 2.7-3.1 4.9-7 4.9-3.8 0-7-2.2-7-4.9q0-.2 0-.5a2 2 0 0 1-1-1.6q.2-1.7 1.8-1.8.7 0 1.2.5 1.9-1.3 4.7-1.5l1-4.1a.3.3 0 0 1 0-.2q.1 0 .3 0l2.9.5a1 1 0 0 1 1.1-.7q1.2.1 1.3 1.3a1.3 1.3 0 0 1-2.5 0l-2.6-.5-.8 3.7q2.8.2 4.6 1.5.5-.5 1.2-.5Zm-9 1.8q-1 .1-1.2 1.3.1 1 1.3 1.2 1-.1 1.2-1.3-.1-1-1.3-1.2Zm2.8 5.5c.5 0 2.1-.1 3-1a.4.4 0 0 0 0-.4.3.3 0 0 0-.5 0q-1 .7-2.5.7c-.8 0-2-.2-2.5-.7a.3.3 0 0 0-.4 0 .3.3 0 0 0 0 .4c.8.9 2.4 1 3 1Zm1.5-4.2q.1 1 1.3 1.2 1-.1 1.2-1.3-.1-1-1.2-1.2-1.2.2-1.3 1.2Z" clip-rule="evenodd"/></svg>