<svg viewBox="0 0 24 24"><g clip-path="url(#a)"><path fill="url(#b)" d="M4.5 1a6 6 0 0 0-2 1.4 6 6 0 0 0-1.4 2q-.4 1-.5 2.9c0 1.2 0 1.6 0 4.7 0 3.1 0 3.5 0 4.8q0 1.7.5 2.8a6 6 0 0 0 1.4 2 6 6 0 0 0 2 1.3q1 .4 2.8.6c1.2 0 1.6 0 4.8 0 3 0 3.5 0 4.7 0q1.7 0 2.8-.6a6 6 0 0 0 2-1.3 6 6 0 0 0 1.4-2q.5-1.1.5-2.8c0-1.3 0-1.7 0-4.8 0-3.1 0-3.5 0-4.7q0-1.8-.5-2.8a6 6 0 0 0-1.3-2 6 6 0 0 0-2-1.4q-1.1-.5-2.9-.5c-1.2-.1-1.6-.1-4.7-.1-3.2 0-3.6 0-4.8 0q-1.7.2-2.8.6Zm12.2 1.6q1.6.1 2.2.4.7.3 1.3.9.5.6.8 1.3.3.5.4 2.2c.1 1.2.1 1.5.1 4.6 0 3 0 3.5 0 4.7q-.2 1.6-.5 2.1a4 4 0 0 1-.8 1.3 4 4 0 0 1-1.3.9q-.5.3-2.2.4c-1.2 0-1.6 0-4.6 0-3.1 0-3.5 0-4.7 0q-1.6 0-2.1-.4a4 4 0 0 1-1.4-.9 4 4 0 0 1-.8-1.3q-.3-.5-.4-2.1c0-1.2-.1-1.6-.1-4.7s0-3.4 0-4.6q.2-1.7.5-2.2.3-.8.8-1.3a4 4 0 0 1 1.4-.9q.5-.2 2.1-.4c1.2 0 1.6 0 4.7 0s3.4 0 4.6 0Z"/><path fill="url(#c)" d="M6.1 12a6 6 0 1 0 11.9 0 6 6 0 0 0-11.9 0Zm9.8 0a3.8 3.8 0 1 1-7.7 0 3.8 3.8 0 1 1 7.7 0Z"/><path fill="#654c9f" d="M18.2 7.2a1.4 1.4 0 1 0 0-2.7 1.4 1.4 0 0 0 0 2.7Z"/></g><defs><radialGradient id="b" cx="0" cy="0" r="1" gradientTransform="matrix(33.2971 -1.74503 1.48326 28.30226 .945 21.43)" gradientUnits="userSpaceOnUse"><stop stop-color="#fed576"/><stop offset=".3" stop-color="#f47133"/><stop offset=".6" stop-color="#bc3081"/><stop offset="1" stop-color="#4c63d2"/></radialGradient><radialGradient id="c" cx="0" cy="0" r="1" gradientTransform="rotate(-3 324.877 -112.848) scale(17.122 14.5535)" gradientUnits="userSpaceOnUse"><stop stop-color="#fed576"/><stop offset=".3" stop-color="#f47133"/><stop offset=".6" stop-color="#bc3081"/><stop offset="1" stop-color="#4c63d2"/></radialGradient><clipPath id="a"><path fill="#fff" d="M0 0h24v24h-24z"/></clipPath></defs></svg>