<svg fill="none" viewBox="0 0 16 16"><g filter="url(#a)"><path fill="#fff" d="M4.5 2.2C5 2 5.9 2 6.2 2.6c.2.6.4 1.3.4 1l.1-1.5q.2-.5.7-.6.4-.2 1-.1.3 0 .7.5l.4 1.8.3-1.6q.2-.4.6-.4h1q.5 0 .7.5.3.7.4 1.6c0 .2 0-.4.3-.7q.3-.8 1.3-.6.8.3.6 1.2V6l-.2 1.7-.8 1.5-1.1 1.8-.2 1 .2.9h-1.3c-.4 0-.8-.9-1-1.1l-.3-.2q-.2 0-.3.2l-1 1.1H5.5s.2-1-.2-1.3L4 10.5l-.8-1q-.9-.8-1.2-2t0-1.7.8-.6h1l.4.4q.3.6.2.1t-.4-1q-.4-.7-.4-1.5.1-.8.8-1"/><path stroke="#222124" stroke-linejoin="round" stroke-width=".8" d="M4.5 2.2C5 2 5.9 2 6.2 2.6c.2.6.4 1.3.4 1l.1-1.5q.2-.5.7-.6.4-.2 1-.1.3 0 .7.5l.4 1.8.3-1.6q.2-.4.6-.4h1q.5 0 .7.5.3.7.4 1.6c0 .2 0-.4.3-.7q.3-.8 1.3-.6.8.3.6 1.2V6l-.2 1.7-.8 1.5-1.1 1.8-.2 1 .2.9h-1.3c-.4 0-.8-.9-1-1.1l-.3-.2q-.2 0-.3.2l-1 1.1H5.5s.2-1-.2-1.3L4 10.5l-.8-1q-.9-.8-1.2-2t0-1.7.8-.6h1l.4.4q.3.6.2.1t-.4-1q-.4-.7-.4-1.5t.8-1Z" clip-rule="evenodd"/><path fill="#222124" d="M12.3 9.8V6.4q0-.3-.4-.4-.3 0-.4.4v3.4q0 .3.4.4.3 0 .3-.4m-2 0V6.4q0-.3-.4-.4-.3 0-.4.4v3.4q0 .4.4.4t.4-.4M7.5 6.4v3.4q0 .3.4.4.3 0 .4-.4V6.4q0-.4-.4-.4-.3 0-.4.4"/></g><defs><filter id="a" width="15.2" height="14.1" x=".8" y="1" color-interpolation-filters="sRGB" filterUnits="userSpaceOnUse"><feFlood flood-opacity="0" result="BackgroundImageFix"/><feColorMatrix in="SourceAlpha" result="hardAlpha" values="0 0 0 0 0 0 0 0 0 0 0 0 0 0 0 0 0 0 127 0"/><feOffset dy="1"/><feGaussianBlur stdDeviation=".4"/><feColorMatrix values="0 0 0 0 0 0 0 0 0 0 0 0 0 0 0 0 0 0 0.5 0"/><feBlend in2="BackgroundImageFix" result="effect1_dropShadow_0_39"/><feBlend in="SourceGraphic" in2="effect1_dropShadow_0_39" result="shape"/></filter></defs></svg>