<svg fill="none" viewBox="0 0 18 19"><g filter="url(#a)"><path fill="#fff" d="M5.4 9.3 5 7.7l-.5-1.2L4 5.3 3.5 4q0-.7.3-1.2.6-.6 1.4-.4.6.3.9.8l.7 1.5q.4 1.1.6 2.3l.1.4V3.2l.1-.7q0-.6.7-1 .7-.3 1.4 0 .6.4.7 1v4.8q0-2 .4-4 .2-.6.8-1 .8-.1 1.4.3.4.5.5 1.2v3.5l.2-.7.4-.9.4-.7.7-.5h.7q.4.1.6.6v1L16 7.9l-.3 1.6c0 .4-.2 1.4-.4 1.8q-.2.8-.8 1.5-.8.8-1.2 1.8v2h-1.2c-.4-.1-.8-1-1-1.2l-.3-.2q-.3 0-.3.3c-.3.3-.8 1-1.1 1h-3s.1-1-.3-1.3l-1.1-1-.8-1-1.3-2c-.3-.5-1-1-1.3-1.6q-.3-.6-.2-1.3.4-1 1.4-.8.8 0 1.3.5l.7.8.4.5q.3.4.2 0"/><path stroke="#222124" stroke-linecap="round" stroke-linejoin="round" stroke-width=".8" d="M5.4 9.3 5 7.7l-.5-1.2L4 5.3 3.5 4q0-.7.3-1.2.6-.6 1.4-.4.6.3.9.8l.7 1.5q.4 1.1.6 2.3l.1.4V3.2l.1-.7q0-.6.7-1 .7-.3 1.4 0 .6.4.7 1v4.8q0-2 .4-4 .2-.6.8-1 .8-.1 1.4.3.4.5.5 1.2v3.5l.2-.7.4-.9.4-.7.7-.5h.7q.4.1.6.6v1L16 7.9l-.3 1.6c0 .4-.2 1.4-.4 1.8q-.2.8-.8 1.5-.8.8-1.2 1.8v2h-1.2c-.4-.1-.8-1-1-1.2l-.3-.2q-.3 0-.3.3c-.3.3-.8 1-1.1 1h-3s.1-1-.3-1.3l-1.1-1-.8-1-1.3-2c-.3-.5-1-1-1.3-1.6q-.3-.6-.2-1.3.4-1 1.4-.8.8 0 1.3.5l.7.8.4.5q.3.4.2 0"/><path fill="#222124" d="M12.8 13.4V10q0-.3-.4-.4-.3 0-.4.4v3.4q0 .3.4.4.3 0 .3-.4m-2 0V10q0-.3-.4-.4-.3 0-.4.4v3.4q0 .3.4.4.3 0 .4-.4M8 10v3.4q0 .3.4.4.3 0 .4-.4V10q0-.4-.4-.4-.3 0-.4.4"/></g><defs><filter id="a" width="17.5" height="17.7" x=".2" y="1" color-interpolation-filters="sRGB" filterUnits="userSpaceOnUse"><feFlood flood-opacity="0" result="BackgroundImageFix"/><feColorMatrix in="SourceAlpha" result="hardAlpha" values="0 0 0 0 0 0 0 0 0 0 0 0 0 0 0 0 0 0 127 0"/><feOffset dy="1"/><feGaussianBlur stdDeviation=".4"/><feColorMatrix values="0 0 0 0 0 0 0 0 0 0 0 0 0 0 0 0 0 0 0.5 0"/><feBlend in2="BackgroundImageFix" result="effect1_dropShadow_0_29"/><feBlend in="SourceGraphic" in2="effect1_dropShadow_0_29" result="shape"/></filter></defs></svg>