<svg xmlns="http://www.w3.org/2000/svg" fill="none" viewBox="0 0 18 19"><g filter="url(#a)"><path fill="#fff" d="M5.38 9.27c-.1-.37-.2-.85-.41-1.55s-.34-.86-.47-1.23-.3-.72-.5-1.18a12 12 0 0 1-.46-1.44 1.43 1.43 0 0 1 .28-1.17 1.41 1.41 0 0 1 1.36-.35c.379.166.7.44.92.79.295.472.537.975.72 1.5.282.72.486 1.467.61 2.23l.09.45V6.16c0-1-.06-1.82 0-2.94 0-.13.06-.59.08-.72a1.19 1.19 0 0 1 .67-1c.445-.2.955-.2 1.4 0 .399.178.665.564.69 1 0 .11.09 1 .09 1.11v3.64c.024-1.32.137-2.636.34-3.94a1.5 1.5 0 0 1 .79-.93 1.37 1.37 0 0 1 1.4.24c.288.316.458.723.48 1.15v3.55c.09-.28.19-.54.27-.74s.24-.61.36-.86q.184-.358.41-.69a1.38 1.38 0 0 1 .67-.56 1 1 0 0 1 1.3.59c.06.364.06.736 0 1.1a9.3 9.3 0 0 1-.35 1.65c-.13.45-.27 1.23-.34 1.6s-.23 1.38-.36 1.82a6 6 0 0 1-.79 1.47 7.2 7.2 0 0 0-1.19 1.81 4 4 0 0 0-.1 1c-.002.31.039.62.12.92a5.8 5.8 0 0 1-1.23 0c-.39-.06-.87-.84-1-1.08a.38.38 0 0 0-.68 0c-.23.38-.71 1.07-1.05 1.11-.67.08-2.05 0-3.14 0 0 0 .19-1-.23-1.36s-.83-.78-1.14-1.06l-.83-.92c-.28-.36-.63-1.09-1.24-2-.35-.5-1-1.09-1.28-1.58a1.75 1.75 0 0 1-.19-1.32 1.21 1.21 0 0 1 1.37-.86 2 2 0 0 1 1.24.54q.402.348.75.75c.16.19.2.28.38.51s.3.46.21.12"/><path stroke="#222124" stroke-linecap="round" stroke-linejoin="round" stroke-width=".75" d="M5.38 9.27c-.1-.37-.2-.85-.41-1.55s-.34-.86-.47-1.23-.3-.72-.5-1.18a12 12 0 0 1-.46-1.44 1.43 1.43 0 0 1 .28-1.17 1.41 1.41 0 0 1 1.36-.35c.379.166.7.44.92.79.295.472.537.975.72 1.5.282.72.486 1.467.61 2.23l.09.45V6.16c0-1-.06-1.82 0-2.94 0-.13.06-.59.08-.72a1.19 1.19 0 0 1 .67-1c.445-.2.955-.2 1.4 0 .399.178.665.564.69 1 0 .11.09 1 .09 1.11v3.64c.024-1.32.137-2.636.34-3.94a1.5 1.5 0 0 1 .79-.93 1.37 1.37 0 0 1 1.4.24c.288.316.458.723.48 1.15v3.55c.09-.28.19-.54.27-.74s.24-.61.36-.86q.184-.358.41-.69a1.38 1.38 0 0 1 .67-.56 1 1 0 0 1 1.3.59c.06.364.06.736 0 1.1a9.3 9.3 0 0 1-.35 1.65c-.13.45-.27 1.23-.34 1.6s-.23 1.38-.36 1.82a6 6 0 0 1-.79 1.47 7.2 7.2 0 0 0-1.19 1.81 4 4 0 0 0-.1 1c-.002.31.039.62.12.92a5.8 5.8 0 0 1-1.23 0c-.39-.06-.87-.84-1-1.08a.38.38 0 0 0-.68 0c-.23.38-.71 1.07-1.05 1.11-.67.08-2.05 0-3.14 0 0 0 .19-1-.23-1.36s-.83-.78-1.14-1.06l-.83-.92c-.28-.36-.63-1.09-1.24-2-.35-.5-1-1.09-1.28-1.58a1.75 1.75 0 0 1-.19-1.32 1.21 1.21 0 0 1 1.37-.86 2 2 0 0 1 1.24.54q.402.348.75.75c.16.19.2.28.38.51s.3.46.21.12"/><path fill="#222124" d="M12.75 13.43V9.98a.375.375 0 0 0-.75 0v3.45a.375.375 0 0 0 .75 0M10.76 13.43l-.01-3.453a.374.374 0 0 0-.75.002l.01 3.454a.374.374 0 0 0 .75-.002M8.005 9.98l.02 3.444c.001.21.17.377.377.376a.376.376 0 0 0 .373-.38l-.02-3.445a.376.376 0 0 0-.377-.375.376.376 0 0 0-.373.38"/></g><defs><filter id="a" width="17.468" height="17.695" x=".221" y=".975" color-interpolation-filters="sRGB" filterUnits="userSpaceOnUse"><feFlood flood-opacity="0" result="BackgroundImageFix"/><feColorMatrix in="SourceAlpha" result="hardAlpha" values="0 0 0 0 0 0 0 0 0 0 0 0 0 0 0 0 0 0 127 0"/><feOffset dy="1"/><feGaussianBlur stdDeviation=".4"/><feColorMatrix values="0 0 0 0 0 0 0 0 0 0 0 0 0 0 0 0 0 0 0.5 0"/><feBlend in2="BackgroundImageFix" result="effect1_dropShadow_0_29"/><feBlend in="SourceGraphic" in2="effect1_dropShadow_0_29" result="shape"/></filter></defs></svg>