<svg fill="none" viewBox="0 0 18 19"><g filter="url(#a)"><path fill="#fff" d="M5.4 9.3q-.1-.6-.4-1.6c-.2-.7-.4-.8-.5-1.2q-.2-.5-.5-1.2-.2-.8-.5-1.4 0-.7.3-1.2.6-.6 1.4-.4.6.3.9.8.4.8.7 1.5.4 1.1.6 2.3l.1.4c0 0 0-1.1 0-1.1q0-1.4 0-3 0-.4.1-.7 0-.6.7-1 .7-.3 1.4 0 .6.4.7 1c0 .1 0 1 0 1.1q0 1.5 0 2.2c0 .2 0 1.6 0 1.5q0-2 .4-4 .2-.6.8-1 .8-.1 1.4.3.4.5.5 1.2 0 .7 0 1.2c0 .9 0 1.3 0 2.1q0 .2 0 .2.1-.4.2-.7.2-.4.4-.9.1-.3.4-.7.3-.3.7-.5.3-.1.7 0 .4.1.6.6 0 .5 0 1-.1 1-.4 1.7-.2.9-.3 1.6c0 .4-.2 1.4-.4 1.8q-.2.8-.8 1.5-.8.8-1.2 1.8 0 .5 0 1 0 .4 0 1-.5 0-1.2 0c-.4-.1-.8-1-1-1.2q0-.1-.3-.2-.3 0-.3.3c-.3.3-.8 1-1.1 1-.7.1-2 0-3.1 0 0 0 .1-1-.3-1.3q-.6-.7-1.1-1l-.8-1q-.4-.5-1.3-2c-.3-.5-1-1-1.3-1.6q-.3-.6-.2-1.3.4-1 1.4-.8.8 0 1.3.5.4.3.7.8.2.1.4.5.3.4.2 0"/><path stroke="#222124" stroke-linecap="round" stroke-linejoin="round" stroke-width=".8" d="M5.4 9.3q-.1-.6-.4-1.6c-.2-.7-.4-.8-.5-1.2q-.2-.5-.5-1.2-.2-.8-.5-1.4 0-.7.3-1.2.6-.6 1.4-.4.6.3.9.8.4.8.7 1.5.4 1.1.6 2.3l.1.4c0 0 0-1.1 0-1.1q0-1.4 0-3 0-.4.1-.7 0-.6.7-1 .7-.3 1.4 0 .6.4.7 1c0 .1 0 1 0 1.1q0 1.5 0 2.2c0 .2 0 1.6 0 1.5q0-2 .4-4 .2-.6.8-1 .8-.1 1.4.3.4.5.5 1.2 0 .7 0 1.2c0 .9 0 1.3 0 2.1q0 .2 0 .2.1-.4.2-.7.2-.4.4-.9.1-.3.4-.7.3-.3.7-.5.3-.1.7 0 .4.1.6.6 0 .5 0 1-.1 1-.4 1.7-.2.9-.3 1.6c0 .4-.2 1.4-.4 1.8q-.2.8-.8 1.5-.8.8-1.2 1.8 0 .5 0 1 0 .4 0 1-.5 0-1.2 0c-.4-.1-.8-1-1-1.2q0-.1-.3-.2-.3 0-.3.3c-.3.3-.8 1-1.1 1-.7.1-2 0-3.1 0 0 0 .1-1-.3-1.3q-.6-.7-1.1-1l-.8-1q-.4-.5-1.3-2c-.3-.5-1-1-1.3-1.6q-.3-.6-.2-1.3.4-1 1.4-.8.8 0 1.3.5.4.3.7.8.2.1.4.5.3.4.2 0"/><path fill="#222124" d="M12.8 13.4v-3.4q0-.3-.4-.4-.3 0-.4.4v3.4q0 .3.4.4.3 0 .3-.4Z"/><path fill="#222124" d="m10.8 13.4 0-3.4q0-.3-.4-.4-.3 0-.4.4l0 3.4q0 .3.4.4.3 0 .4-.4Z"/><path fill="#222124" d="m8 10 0 3.4q0 .3.4.4.3 0 .4-.4l0-3.4q0-.4-.4-.4-.3 0-.4.4Z"/></g><defs><filter id="a" width="17.5" height="17.7" x=".2" y="1" color-interpolation-filters="sRGB" filterUnits="userSpaceOnUse"><feFlood flood-opacity="0" result="BackgroundImageFix"/><feColorMatrix in="SourceAlpha" result="hardAlpha" values="0 0 0 0 0 0 0 0 0 0 0 0 0 0 0 0 0 0 127 0"/><feOffset dy="1"/><feGaussianBlur stdDeviation=".4"/><feColorMatrix values="0 0 0 0 0 0 0 0 0 0 0 0 0 0 0 0 0 0 0.5 0"/><feBlend in2="BackgroundImageFix" result="effect1_dropShadow_0_29"/><feBlend in="SourceGraphic" in2="effect1_dropShadow_0_29" result="shape"/></filter></defs></svg>