<svg fill="none" viewBox="0 0 18 18"><g filter="url(#a)"><path fill="#fff" d="M4.8 12.3q-.4-.6-1.3-2c-.3-.5-1.2-1.5-1.4-2q-.3-.4-.2-1 .4-1 1.4-1 .9.2 1.4.8.3.3.7.8.2.2.4.5.3.4.2 0 0-.8-.4-2 0-.7-.3-1.1 0-.6-.3-1.3 0-.8-.3-1.4 0-1 .3-1.9.7-.5 1.3-.2.7.5 1 1.3.3 1 .5 2c.1 1 .4 2.5.4 2.8 0-.4 0-1.2 0-1.5q.2-.6.7-.8.4-.2 1-.1.4 0 .7.5.3.9.4 1.8 0-.7.3-1.6.2-.3.7-.5.4 0 1 0 .4.2.6.5.4.8.4 1.7 0 0 .3-.8.2-.5.8-.6.5-.2 1 .3.2.4.1 1c0 .6 0 .6 0 1q0 .8 0 1.2 0 .9-.2 1.8-.3.8-.7 1.4-.8.8-1.2 1.8-.1.5-.1 1 0 .4 0 1-.5 0-1.2 0c-.3-.1-.8-1-1-1.1q0-.3-.3-.3-.2 0-.3.3c-.2.3-.7 1-1 1q-1.4 0-3.2 0c0 0 .2-1-.3-1.3q-.6-.7-1-1z"/><path stroke="#222124" stroke-linecap="round" stroke-linejoin="round" stroke-width=".8" d="M4.8 12.3q-.4-.6-1.3-2c-.3-.5-1.2-1.5-1.4-2q-.3-.4-.2-1 .4-1 1.4-1 .9.2 1.4.8.3.3.7.8.2.2.4.5.3.4.2 0 0-.8-.4-2 0-.7-.3-1.1 0-.6-.3-1.3 0-.8-.3-1.4 0-1 .3-1.9.7-.5 1.3-.2.7.5 1 1.3.3 1 .5 2c.1 1 .4 2.5.4 2.8 0-.4 0-1.2 0-1.5q.2-.6.7-.8.4-.2 1-.1.4 0 .7.5.3.9.4 1.8 0-.7.3-1.6.2-.3.7-.5.4 0 1 0 .4.2.6.5.4.8.4 1.7 0 0 .3-.8.2-.5.8-.6.5-.2 1 .3.2.4.1 1c0 .6 0 .6 0 1q0 .8 0 1.2 0 .9-.2 1.8-.3.8-.7 1.4-.8.8-1.2 1.8-.1.5-.1 1 0 .4 0 1-.5 0-1.2 0c-.3-.1-.8-1-1-1.1q0-.3-.3-.3-.2 0-.3.3c-.2.3-.7 1-1 1q-1.4 0-3.2 0c0 0 .2-1-.3-1.3q-.6-.7-1-1z" clip-rule="evenodd"/><path fill="#222124" d="M13.3 12.8v-3.4q0-.3-.4-.4-.3 0-.4.4v3.4q0 .3.4.4.3 0 .3-.4Z"/><path fill="#222124" d="m11.3 12.8 0-3.4q0-.3-.4-.4-.3 0-.4.4l0 3.4q0 .3.4.4.3 0 .4-.4Z"/><path fill="#222124" d="m8.5 9.4 0 3.4q0 .3.4.4.3 0 .4-.4l0-3.4q0-.3-.4-.4-.3 0-.4.4Z"/></g><defs><filter id="a" width="16.7" height="17.9" x=".7" y="0" color-interpolation-filters="sRGB" filterUnits="userSpaceOnUse"><feFlood flood-opacity="0" result="BackgroundImageFix"/><feColorMatrix in="SourceAlpha" result="hardAlpha" values="0 0 0 0 0 0 0 0 0 0 0 0 0 0 0 0 0 0 127 0"/><feOffset dy="1"/><feGaussianBlur stdDeviation=".4"/><feColorMatrix values="0 0 0 0 0 0 0 0 0 0 0 0 0 0 0 0 0 0 0.5 0"/><feBlend in2="BackgroundImageFix" result="effect1_dropShadow_0_19"/><feBlend in="SourceGraphic" in2="effect1_dropShadow_0_19" result="shape"/></filter></defs></svg>