<svg xmlns="http://www.w3.org/2000/svg" fill="currentColor" viewBox="0 0 16 16"><g filter="url(#a)"><path fill="#fff" d="M4.5 2.15c.48-.18 1.43-.07 1.68.47s.4 1.24.41 1.07a6.4 6.4 0 0 1 .13-1.54 1.11 1.11 0 0 1 .69-.69 1.9 1.9 0 0 1 .92-.06c.31.064.585.242.77.5a5.5 5.5 0 0 1 .39 1.83 6.5 6.5 0 0 1 .27-1.58 1.24 1.24 0 0 1 .69-.48c.33-.06.67-.06 1 0a1.4 1.4 0 0 1 .68.49c.212.53.34 1.09.38 1.66 0 .14.07-.39.29-.74a1.002 1.002 0 1 1 1.9.64v2.26a11.6 11.6 0 0 1-.24 1.74 5.9 5.9 0 0 1-.72 1.43 7.2 7.2 0 0 0-1.19 1.81 4 4 0 0 0-.1 1c-.001.31.04.62.12.92a5.8 5.8 0 0 1-1.23 0c-.39-.06-.87-.84-1-1.08a.38.38 0 0 0-.68 0c-.22.38-.71 1.07-1 1.11-.67.08-2.06 0-3.14 0 0 0 .19-1-.23-1.36s-.83-.78-1.14-1.06l-.83-.92a4.45 4.45 0 0 1-1.24-2c-.21-.94-.19-1.39 0-1.77a1.5 1.5 0 0 1 .85-.65 1.8 1.8 0 0 1 .88.06c.196.082.366.217.49.39.23.31.31.46.21.12s-.32-.59-.43-1a4.6 4.6 0 0 1-.38-1.53 1.14 1.14 0 0 1 .83-1"/><path fill-rule="evenodd" stroke="#222124" stroke-linejoin="round" stroke-width=".75" d="M4.5 2.15c.48-.18 1.43-.07 1.68.47s.4 1.24.41 1.07a6.4 6.4 0 0 1 .13-1.54 1.11 1.11 0 0 1 .69-.69 1.9 1.9 0 0 1 .92-.06c.31.064.585.242.77.5a5.5 5.5 0 0 1 .39 1.83 6.5 6.5 0 0 1 .27-1.58 1.24 1.24 0 0 1 .69-.48c.33-.06.67-.06 1 0a1.4 1.4 0 0 1 .68.49c.212.53.34 1.09.38 1.66 0 .14.07-.39.29-.74a1.002 1.002 0 1 1 1.9.64v2.26a11.6 11.6 0 0 1-.24 1.74 5.9 5.9 0 0 1-.72 1.43 7.2 7.2 0 0 0-1.19 1.81 4 4 0 0 0-.1 1c-.001.31.04.62.12.92a5.8 5.8 0 0 1-1.23 0c-.39-.06-.87-.84-1-1.08a.38.38 0 0 0-.68 0c-.22.38-.71 1.07-1 1.11-.67.08-2.06 0-3.14 0 0 0 .19-1-.23-1.36s-.83-.78-1.14-1.06l-.83-.92a4.45 4.45 0 0 1-1.24-2c-.21-.94-.19-1.39 0-1.77a1.5 1.5 0 0 1 .85-.65 1.8 1.8 0 0 1 .88.06c.196.082.366.217.49.39.23.31.31.46.21.12s-.32-.59-.43-1a4.6 4.6 0 0 1-.38-1.53c.02-.48.34-.897.8-1.04Z" clip-rule="evenodd"/><path fill="#222124" d="M12.25 9.826V6.374a.375.375 0 0 0-.75 0v3.452a.375.375 0 0 0 .75 0M10.27 9.825l-.02-3.454a.374.374 0 0 0-.75.004l.02 3.454a.374.374 0 0 0 .75-.004M7.5 6.38l.02 3.445c.001.208.17.376.377.375a.376.376 0 0 0 .373-.38l-.02-3.445A.376.376 0 0 0 7.873 6a.376.376 0 0 0-.373.38"/></g><defs><filter id="a" width="15.173" height="14.125" x=".755" y=".995" color-interpolation-filters="sRGB" filterUnits="userSpaceOnUse"><feFlood flood-opacity="0" result="BackgroundImageFix"/><feColorMatrix in="SourceAlpha" result="hardAlpha" values="0 0 0 0 0 0 0 0 0 0 0 0 0 0 0 0 0 0 127 0"/><feOffset dy="1"/><feGaussianBlur stdDeviation=".4"/><feColorMatrix values="0 0 0 0 0 0 0 0 0 0 0 0 0 0 0 0 0 0 0.5 0"/><feBlend in2="BackgroundImageFix" result="effect1_dropShadow_0_39"/><feBlend in="SourceGraphic" in2="effect1_dropShadow_0_39" result="shape"/></filter></defs></svg>