<svg fill="none" viewBox="0 0 18 18"><g filter="url(#a)"><path fill="#fff" d="m4.8 12.3-1.3-2c-.3-.5-1.2-1.5-1.4-2q-.3-.4-.2-1 .4-1 1.4-1 .9.2 1.4.8l.7.8.4.5q.3.4.2 0l-.4-2-.3-1.1L5 4q0-.8-.3-1.4 0-1 .3-1.9.7-.5 1.3-.2.7.5 1 1.3l.5 2 .4 2.8V5q.2-.6.7-.8t1-.1q.4 0 .7.5l.4 1.8.3-1.6q.2-.3.7-.5h1l.6.5q.4.8.4 1.7l.3-.8q.2-.5.8-.6.5-.2 1 .3.2.4.1 1v2.2l-.2 1.8-.7 1.4q-.8.8-1.2 1.8l-.1 1v1h-1.2c-.3-.1-.8-1-1-1.1q0-.3-.3-.3t-.3.3c-.2.3-.7 1-1 1H7s.2-1-.3-1.3l-1-1z"/><path stroke="#222124" stroke-linecap="round" stroke-linejoin="round" stroke-width=".8" d="m4.8 12.3-1.3-2c-.3-.5-1.2-1.5-1.4-2q-.3-.4-.2-1 .4-1 1.4-1 .9.2 1.4.8l.7.8.4.5q.3.4.2 0l-.4-2-.3-1.1L5 4q0-.8-.3-1.4 0-1 .3-1.9.7-.5 1.3-.2.7.5 1 1.3l.5 2 .4 2.8V5q.2-.6.7-.8t1-.1q.4 0 .7.5l.4 1.8.3-1.6q.2-.3.7-.5h1l.6.5q.4.8.4 1.7l.3-.8q.2-.5.8-.6.5-.2 1 .3.2.4.1 1v2.2l-.2 1.8-.7 1.4q-.8.8-1.2 1.8l-.1 1v1h-1.2c-.3-.1-.8-1-1-1.1q0-.3-.3-.3t-.3.3c-.2.3-.7 1-1 1H7s.2-1-.3-1.3l-1-1z" clip-rule="evenodd"/><path fill="#222124" d="M13.3 12.8V9.4q0-.3-.4-.4-.3 0-.4.4v3.4q0 .3.4.4.3 0 .3-.4m-2 0V9.4q0-.3-.4-.4-.3 0-.4.4v3.4q0 .3.4.4.3 0 .4-.4M8.5 9.4v3.4q0 .3.4.4.3 0 .4-.4V9.4q0-.3-.4-.4-.3 0-.4.4"/></g><defs><filter id="a" width="16.7" height="17.9" x=".7" y="0" color-interpolation-filters="sRGB" filterUnits="userSpaceOnUse"><feFlood flood-opacity="0" result="BackgroundImageFix"/><feColorMatrix in="SourceAlpha" result="hardAlpha" values="0 0 0 0 0 0 0 0 0 0 0 0 0 0 0 0 0 0 127 0"/><feOffset dy="1"/><feGaussianBlur stdDeviation=".4"/><feColorMatrix values="0 0 0 0 0 0 0 0 0 0 0 0 0 0 0 0 0 0 0.5 0"/><feBlend in2="BackgroundImageFix" result="effect1_dropShadow_0_19"/><feBlend in="SourceGraphic" in2="effect1_dropShadow_0_19" result="shape"/></filter></defs></svg>