<svg xmlns="http://www.w3.org/2000/svg" fill="none" viewBox="0 0 24 24"><path fill="currentColor" d="M9.708 11.893a1 1 0 0 0-1.414 1.414zM10.8 14.4l-.707.707a1 1 0 0 0 1.414 0zm4.907-3.492a1 1 0 0 0-1.414-1.415zm-9.144 8.711a1 1 0 1 0-1.414-1.414zm-4.102 1.274a1 1 0 1 0 1.414 1.415zm17.664 1.415a1 1 0 0 0 1.414-1.415zm-1.274-4.103a1 1 0 0 0-1.414 1.415zM5.508 3.108a1 1 0 0 0-1.414-1.415zM1.094 4.692a1 1 0 0 0 1.414 1.415zm20.4 1.415a1 1 0 1 0 1.414-1.415zm-1.586-4.415a1 1 0 1 0-1.414 1.414zM8.294 13.307l1.8 1.8 1.414-1.414-1.8-1.8zm3.214 1.8 4.2-4.2-1.414-1.414-4.2 4.2 1.414 1.415ZM5.15 18.206l-2.688 2.688 1.414 1.415 2.688-2.689zm16.39 2.688-2.688-2.688-1.414 1.415 2.688 2.688zm-2.091-8.125A7.45 7.45 0 0 1 12 20.216v2a9.45 9.45 0 0 0 9.448-9.448h-2ZM12 20.216a7.45 7.45 0 0 1-7.448-7.448h-2A9.45 9.45 0 0 0 12 22.216zm-7.448-7.448A7.45 7.45 0 0 1 12 5.32v-2a9.45 9.45 0 0 0-9.448 9.448zM12 5.32a7.45 7.45 0 0 1 7.448 7.448h2A9.45 9.45 0 0 0 12 3.32zM4.094 1.693l-3 3 1.414 1.415 3-3zm18.814 3-3-3-1.414 1.414 3 3z"/></svg>