<svg xmlns="http://www.w3.org/2000/svg" fill="none" viewBox="0 0 25 24">
  <path fill="#000" fill-rule="evenodd" d="M18.787 3.4c0-.552-.432-1-.965-1-.532 0-.964.448-.964 1v1.332H7.75V3.399c0-.551-.432-.998-.964-.998-.533 0-.965.447-.965.998v1.333c-1.42 0-2.571 1.192-2.571 2.663v11.542c0 1.47 1.151 2.663 2.571 2.663H18.68c1.42 0 2.571-1.192 2.571-2.663V7.395c0-1.433-1.093-2.602-2.463-2.661V3.399ZM6.143 10.058c0-.552.432-1 .964-1h10.714c.533 0 .965.448.965 1 0 .551-.432.998-.965.998H7.107c-.532 0-.964-.447-.964-.998Z" clip-rule="evenodd"/>
</svg>
