<svg xmlns="http://www.w3.org/2000/svg" fill="none" viewBox="0 0 24 24">
  <path fill="#000" d="M9.708 11.893a1 1 0 0 0-1.414 1.414l1.414-1.414ZM10.8 14.4l-.707.707a1 1 0 0 0 1.414 0L10.8 14.4Zm4.907-3.492a1 1 0 0 0-1.414-1.415l1.414 1.415Zm-9.144 8.711a1 1 0 1 0-1.414-1.414l1.414 1.415Zm-4.102 1.274a1 1 0 1 0 1.414 1.415l-1.414-1.415Zm17.664 1.415a1 1 0 0 0 1.414-1.415l-1.414 1.415Zm-1.274-4.103a1 1 0 0 0-1.414 1.415l1.414-1.415ZM5.508 3.108a1 1 0 0 0-1.414-1.415l1.414 1.414ZM1.094 4.692a1 1 0 0 0 1.414 1.415L1.094 4.692Zm20.4 1.415a1 1 0 1 0 1.414-1.415l-1.414 1.415Zm-1.586-4.415a1 1 0 1 0-1.414 1.414l1.414-1.414ZM8.294 13.307l1.8 1.8 1.414-1.414-1.8-1.8-1.414 1.414Zm3.214 1.8 4.2-4.2-1.414-1.414-4.2 4.2 1.414 1.415ZM5.15 18.206l-2.688 2.688 1.414 1.415 2.688-2.689-1.414-1.414Zm16.39 2.688-2.688-2.688-1.414 1.415 2.688 2.688 1.414-1.415Zm-2.091-8.125A7.448 7.448 0 0 1 12 20.216v2a9.448 9.448 0 0 0 9.448-9.448h-2ZM12 20.216a7.448 7.448 0 0 1-7.448-7.448h-2A9.448 9.448 0 0 0 12 22.216v-2Zm-7.448-7.448A7.448 7.448 0 0 1 12 5.32v-2a9.448 9.448 0 0 0-9.448 9.448h2ZM12 5.32a7.448 7.448 0 0 1 7.448 7.448h2A9.448 9.448 0 0 0 12 3.32v2ZM4.094 1.693l-3 3 1.414 1.415 3-3-1.414-1.415Zm18.814 3-3-3-1.414 1.414 3 3 1.414-1.414Z"/>
</svg>
