<svg xmlns="http://www.w3.org/2000/svg" fill="none" viewBox="0 0 25 24"><path fill="currentColor" d="M1.65 7.008a1 1 0 0 0 2 0zM7.258 3.4a1 1 0 1 0 0-2zm9.984-2a1 1 0 1 0 0 2zm.768 1v-1zm3.84 3.84h-1zm-1 .768a1 1 0 1 0 2 0zM6.813 19.62A1 1 0 1 0 5.4 18.205l1.415 1.415Zm-4.102 1.274a1 1 0 1 0 1.414 1.415zm17.664 1.415a1 1 0 0 0 1.415-1.415zm-1.273-4.103a1 1 0 0 0-1.415 1.415zM13.25 9.6a1 1 0 1 0-2 0zm-2 6a1 1 0 1 0 2 0zm4-2a1 1 0 1 0 0-2zm-6-2a1 1 0 1 0 0 2zm-5.6-4.592V6.24h-2v.768zM6.49 3.4h.768v-2H6.49zM3.65 6.24A2.84 2.84 0 0 1 6.49 3.4v-2a4.84 4.84 0 0 0-4.84 4.84zM17.242 3.4h.768v-2h-.768zm3.608 2.84v.768h2V6.24zM18.01 3.4a2.84 2.84 0 0 1 2.84 2.84h2a4.84 4.84 0 0 0-4.84-4.84zM5.4 18.205l-2.69 2.688 1.414 1.415 2.689-2.689-1.415-1.414Zm16.39 2.688-2.688-2.688-1.415 1.415 2.688 2.688zm-2.092-8.125a7.45 7.45 0 0 1-7.448 7.448v2a9.45 9.45 0 0 0 9.448-9.448zm-7.448 7.448a7.45 7.45 0 0 1-7.448-7.448h-2a9.45 9.45 0 0 0 9.448 9.448zm-7.448-7.448A7.45 7.45 0 0 1 12.25 5.32v-2a9.45 9.45 0 0 0-9.448 9.448zM12.25 5.32a7.45 7.45 0 0 1 7.448 7.448h2A9.45 9.45 0 0 0 12.25 3.32zm-1 4.28v3h2v-3zm0 3v3h2v-3zm4-1h-3v2h3zm-3 0h-3v2h3z"/></svg>