<svg xmlns="http://www.w3.org/2000/svg" fill="none" viewBox="0 0 24 24"><path fill="currentColor" d="M1.4 7.008a1 1 0 0 0 2 0zM7.008 3.4a1 1 0 1 0 0-2zm9.984-2a1 1 0 1 0 0 2zm.768 1v-1zm3.84 3.84h-1zm-1 .768a1 1 0 1 0 2 0zM6.563 19.62a1 1 0 1 0-1.414-1.414zm-4.102 1.274a1 1 0 1 0 1.415 1.415zm17.664 1.415a1 1 0 0 0 1.415-1.415zm-1.273-4.103a1 1 0 0 0-1.415 1.415zm-9.145-6.312a1 1 0 0 0-1.414 1.414l1.415-1.414ZM10.8 14.4l-.707.707a1 1 0 0 0 1.415 0zm4.907-3.492a1 1 0 0 0-1.414-1.415l1.415 1.415ZM3.4 7.008V6.24h-2v.768zM6.24 3.4h.768v-2H6.24zM3.4 6.24A2.84 2.84 0 0 1 6.24 3.4v-2A4.84 4.84 0 0 0 1.4 6.24zM16.992 3.4h.768v-2h-.768zM20.6 6.24v.768h2V6.24zM17.76 3.4a2.84 2.84 0 0 1 2.84 2.84h2a4.84 4.84 0 0 0-4.84-4.84zM5.15 18.205l-2.69 2.688 1.415 1.415 2.688-2.689-1.415-1.414Zm16.39 2.688-2.688-2.688-1.415 1.415 2.688 2.688zm-2.092-8.125A7.45 7.45 0 0 1 12 20.216v2a9.45 9.45 0 0 0 9.448-9.448zM12 20.216a7.45 7.45 0 0 1-7.448-7.448h-2A9.45 9.45 0 0 0 12 22.216zm-7.448-7.448A7.45 7.45 0 0 1 12 5.32v-2a9.45 9.45 0 0 0-9.448 9.448zM12 5.32a7.45 7.45 0 0 1 7.448 7.448h2A9.45 9.45 0 0 0 12 3.32zm-3.707 7.987 1.8 1.8 1.415-1.414-1.8-1.8zm3.215 1.8 4.2-4.2-1.415-1.414-4.2 4.2 1.415 1.415Z"/></svg>