<svg fill="none" viewBox="0 0 25 24"><path fill="#d9d9d9" d="M13.7 14.4a1.4 1.4 0 1 1-2.8 0 1.4 1.4 0 0 1 2.8 0"/><path fill="currentColor" d="M20.6 2.8A1 1 0 0 0 19 4.2zm1 4a1 1 0 1 0 1.5-1.5zm-8.3 2.9a1 1 0 1 0-2 0zm-2 3.6a1 1 0 1 0 2 0zM9.6.3a1 1 0 0 0 0 2zm5.2 2a1 1 0 0 0 0-2zM18.3 6a1 1 0 1 0 1.4 1.5zm2.8-1.3.7-.7zm-9.8 4.9v3.6h2V9.7zM9.5 2.3h5.3v-2H9.6zm10.2 5.3 2.1-2.1L20.4 4l-2.1 2zm.8 6a8 8 0 0 1-8.2 8.1v2c5.7 0 10.2-4.5 10.2-10.2zm-8.2 8.1a8 8 0 0 1-8.1-8.2h-2c0 5.7 4.5 10.2 10.1 10.2zm-8.1-8.2a8 8 0 0 1 8.1-8.2v-2C6.7 3.3 2.2 8 2.2 13.5zm8.1-8.2a8 8 0 0 1 8.2 8.2h2C22.5 8 18 3.3 12.3 3.3zm.4 9.1a.4.4 0 0 1-.4.4v2a2.4 2.4 0 0 0 2.4-2.4zm-.4.4a.4.4 0 0 1-.4-.4h-2a2.4 2.4 0 0 0 2.4 2.4zm-.4-.4a.4.4 0 0 1 .4-.4v-2a2.4 2.4 0 0 0-2.4 2.4zm.4-.4q.4 0 .4.4h2a2.4 2.4 0 0 0-2.4-2.4zm6.8-9.8 1.3 1.3L21.8 4l-1.2-1.3zm1.3 1.3 1.2 1.2 1.5-1.4-1.3-1.2z"/></svg>