<svg fill="none" viewBox="0 0 24 24"><path fill="currentColor" d="M19.8 2.8a1 1 0 0 0-1.4 1.4zm1 4a1 1 0 1 0 1.5-1.5zm-8.2 2.9a1 1 0 1 0-2 0zm-2 3.6a1 1 0 1 0 2 0zM8.8.3a1 1 0 0 0 0 2zm5.3 2a1 1 0 0 0 0-2zM17.6 6A1 1 0 1 0 19 7.6zm2.7-1.3.8-.7zm-9.7 4.9v3.6h2V9.7zM8.8 2.3h5.3v-2H8.8zM19 7.6l2-2.1L19.7 4l-2 2zm.8 6a8 8 0 0 1-8.2 8.1v2c5.6 0 10.2-4.5 10.2-10.2zm-8.2 8.1a8 8 0 0 1-8.2-8.2h-2c0 5.7 4.6 10.2 10.2 10.2zm-8.2-8.2a8 8 0 0 1 8.2-8.2v-2C6 3.3 1.4 8 1.4 13.5zm8.2-8.2a8 8 0 0 1 8.2 8.2h2c0-5.6-4.6-10.2-10.2-10.2zm6.8-1 1.2 1.2L21.1 4l-1.3-1.3zm1.2 1.2L21 6.7l1.4-1.4-1.2-1.2z"/></svg>