<svg fill="none" viewBox="0 0 25 24"><path fill="#d9d9d9" d="M13.7 14.4a1.4 1.4 0 1 1-2.8 0 1.4 1.4 0 0 1 2.8 0Z"/><path fill="currentColor" d="M20.6 2.8a1 1 0 0 0-1.5 1.4zm1 4a1 1 0 1 0 1.5-1.5zm-8.3 2.9a1 1 0 1 0-2 0zm-2 3.6a1 1 0 1 0 2 0zm-1.7-13a1 1 0 0 0 0 2zm5.2 2a1 1 0 0 0 0-2zm3.5 3.8a1 1 0 1 0 1.4 1.5zm2.8-1.3.7-.7zm-9.8 4.9v3.6h2v-3.6zm-1.8-7.4h5.3v-2h-5.2zm10.2 5.3 2.1-2.1-1.4-1.4-2.1 2zm.8 6a8 8 0 0 1-8.2 8.1v2c5.7 0 10.2-4.5 10.2-10.2zm-8.2 8.1a8 8 0 0 1-8.1-8.2h-2c0 5.7 4.5 10.2 10.1 10.2zm-8.1-8.2a8 8 0 0 1 8.1-8.2v-2c-5.6 0-10.1 4.6-10.1 10.2zm8.1-8.2a8 8 0 0 1 8.2 8.2h2c0-5.6-4.5-10.2-10.2-10.2zm.4 9.1a.4.4 0 0 1-.4.4v2a2.4 2.4 0 0 0 2.4-2.4zm-.4.4a.4.4 0 0 1-.4-.4h-2a2.4 2.4 0 0 0 2.4 2.4zm-.4-.4a.4.4 0 0 1 .4-.4v-2a2.4 2.4 0 0 0-2.4 2.4zm.4-.4q.4 0 .4.4h2a2.4 2.4 0 0 0-2.4-2.4zm6.8-9.8 1.3 1.3 1.4-1.4-1.2-1.3zm1.3 1.3 1.2 1.2 1.5-1.4-1.3-1.2z"/></svg>