<svg xmlns="http://www.w3.org/2000/svg" fill="currentColor" viewBox="0 0 25 24"><path fill="#d9d9d9" d="M13.724 14.418a1.391 1.391 0 1 1-2.783 0 1.391 1.391 0 0 1 2.783 0"/><path d="M20.553 2.806a1 1 0 0 0-1.415 1.414zm1.09 3.919a1 1 0 1 0 1.414-1.415zm-8.31 2.962a1 1 0 1 0-2 0zm-2 3.618a1 1 0 1 0 2 0zM9.55.287a1 1 0 0 0 0 2zm5.287 2a1 1 0 0 0 0-2zm3.467 3.858a1 1 0 1 0 1.414 1.414zm2.794-1.38.707-.707zm-9.765 4.922v3.618h2V9.687zm-1.783-7.4h5.287v-2H9.55zM19.718 7.56l2.087-2.087-1.414-1.414-2.087 2.087zm.797 5.972a8.183 8.183 0 0 1-8.183 8.182v2c5.624 0 10.183-4.559 10.183-10.182zm-8.183 8.182a8.183 8.183 0 0 1-8.182-8.182h-2c0 5.623 4.559 10.182 10.182 10.182zM4.15 13.531a8.183 8.183 0 0 1 8.182-8.183v-2C6.71 3.348 2.15 7.907 2.15 13.531zm8.182-8.183a8.183 8.183 0 0 1 8.183 8.183h2c0-5.624-4.559-10.183-10.183-10.183zm.392 9.07a.39.39 0 0 1-.392.39v2a2.39 2.39 0 0 0 2.392-2.39zm-.392.39a.39.39 0 0 1-.39-.39h-2a2.39 2.39 0 0 0 2.39 2.39zm-.39-.39a.39.39 0 0 1 .39-.392v-2a2.39 2.39 0 0 0-2.39 2.392zm.39-.392c.217 0 .392.175.392.392h2a2.39 2.39 0 0 0-2.392-2.392zm6.806-9.806 1.253 1.252 1.414-1.414-1.252-1.252zm1.253 1.252 1.252 1.253 1.414-1.415-1.252-1.252z"/></svg>