<svg xmlns="http://www.w3.org/2000/svg" fill="currentColor" viewBox="0 0 24 24"><path d="M9.707 11.893a1 1 0 0 0-1.414 1.414zM10.8 14.4l-.707.707a1 1 0 0 0 1.414 0zm4.907-3.493a1 1 0 0 0-1.414-1.414zm-9.144 8.712a1 1 0 1 0-1.414-1.414zm-4.102 1.274a1 1 0 1 0 1.414 1.414zm17.664 1.414a1 1 0 0 0 1.414-1.414zm-1.274-4.102a1 1 0 0 0-1.414 1.414zM5.507 3.107a1 1 0 0 0-1.414-1.414zM1.093 4.693a1 1 0 0 0 1.414 1.414zm20.4 1.414a1 1 0 0 0 1.414-1.414zm-1.586-4.414a1 1 0 0 0-1.414 1.414zM8.293 13.307l1.8 1.8 1.414-1.414-1.8-1.8zm3.214 1.8 4.2-4.2-1.414-1.414-4.2 4.2zM5.15 18.205l-2.69 2.688 1.414 1.414 2.688-2.688-1.414-1.414Zm16.39 2.688-2.688-2.688-1.414 1.414 2.688 2.688zm-2.091-8.125A7.45 7.45 0 0 1 12 20.216v2a9.45 9.45 0 0 0 9.448-9.448h-2ZM12 20.216a7.45 7.45 0 0 1-7.448-7.448h-2A9.45 9.45 0 0 0 12 22.216zm-7.448-7.448A7.45 7.45 0 0 1 12 5.32v-2a9.45 9.45 0 0 0-9.448 9.448zM12 5.32a7.45 7.45 0 0 1 7.448 7.448h2A9.45 9.45 0 0 0 12 3.32zM4.093 1.693l-3 3 1.414 1.414 3-3zm18.814 3-3-3-1.414 1.414 3 3z"/></svg>