<svg fill="none" viewBox="0 0 24 24"><path fill="currentColor" d="M1.4 7a1 1 0 1 0 2 0zM7 3.4a1 1 0 1 0 0-2zm10-2a1 1 0 1 0 0 2zm.8 1v-1zm3.8 3.8h-1zm-1 .8a1 1 0 1 0 2 0zm-14 12.6A1 1 0 1 0 5 18.2zM2.5 21a1 1 0 1 0 1.4 1.4zM20 22.3a1 1 0 0 0 1.4-1.4zm-1.2-4a1 1 0 0 0-1.5 1.3zm-9.2-6.4a1 1 0 0 0-1.4 1.4zm1.1 2.5-.7.7a1 1 0 0 0 1.4 0zm5-3.5a1 1 0 0 0-1.5-1.4zM3.3 7v-.8h-2V7zm2.8-3.6H7v-2h-.8zM3.4 6.2a3 3 0 0 1 2.8-2.8v-2a5 5 0 0 0-4.8 4.8zM17 3.4h.8v-2H17zm3.6 2.8V7h2v-.8zm-2.8-2.8a3 3 0 0 1 2.8 2.8h2a5 5 0 0 0-4.8-4.8zM5 18.2l-2.6 2.7 1.4 1.4 2.7-2.7zm16.4 2.7L19 18.2l-1.5 1.4 2.7 2.7zm-2-8.1a7.4 7.4 0 0 1-7.5 7.4v2a9.4 9.4 0 0 0 9.4-9.4zM12 20.2a7.4 7.4 0 0 1-7.4-7.4h-2a9.4 9.4 0 0 0 9.4 9.4zm-7.4-7.4A7.4 7.4 0 0 1 12 5.3v-2a9.4 9.4 0 0 0-9.4 9.5zM12 5.3a7.4 7.4 0 0 1 7.4 7.5h2A9.4 9.4 0 0 0 12 3.3zm-3.7 8 1.8 1.8 1.4-1.4-1.8-1.8zm3.2 1.8 4.2-4.2-1.4-1.4-4.2 4.2z"/></svg>