<svg viewBox="0 0 24 24"><path fill="currentColor" d="M9.7 11.9a1 1 0 0 0-1.4 1.4zm1.1 2.5-.7.7a1 1 0 0 0 1.4 0zm5-3.5a1 1 0 0 0-1.5-1.4zm-9.2 8.7a1 1 0 1 0-1.5-1.4zm-4.1 1.3a1 1 0 1 0 1.4 1.4zm17.6 1.4a1 1 0 0 0 1.4-1.4zm-1.2-4.1a1 1 0 0 0-1.5 1.4zm-13.4-15a1 1 0 0 0-1.4-1.5zm-4.4 1.5a1 1 0 0 0 1.4 1.4zm20.4 1.4a1 1 0 1 0 1.4-1.4zm-1.6-4.4a1 1 0 1 0-1.4 1.4zm-11.6 11.6 1.8 1.8 1.4-1.4-1.8-1.8zm3.2 1.8 4.2-4.2-1.4-1.4-4.2 4.2zm-6.3 3.1-2.7 2.7 1.4 1.4 2.7-2.7zm16.3 2.7-2.6-2.7-1.5 1.4 2.7 2.7zm-2-8.1a7.4 7.4 0 0 1-7.5 7.4v2a9.4 9.4 0 0 0 9.4-9.4zm-7.5 7.4a7.4 7.4 0 0 1-7.4-7.4h-2a9.4 9.4 0 0 0 9.4 9.4zm-7.4-7.4a7.4 7.4 0 0 1 7.4-7.5v-2a9.4 9.4 0 0 0-9.4 9.5zm7.4-7.5a7.4 7.4 0 0 1 7.4 7.5h2a9.4 9.4 0 0 0-9.4-9.5zm-8-3.6-3 3 1.5 1.4 3-3zm19 3-3-3-1.5 1.4 3 3z"/></svg>