<svg fill="none" viewBox="0 0 25 24"><path fill="currentColor" d="M1.7 7a1 1 0 1 0 2 0zm5.6-3.6a1 1 0 1 0 0-2zm10-2a1 1 0 1 0 0 2zm.7 1v-1zm3.9 3.8h-1zm-1 .8a1 1 0 1 0 2 0zm-14 12.6a1 1 0 1 0-1.5-1.4zm-4.2 1.3a1 1 0 1 0 1.4 1.4zm17.7 1.4a1 1 0 0 0 1.4-1.4zm-1.3-4.1a1 1 0 0 0-1.4 1.4zm-5.9-8.6a1 1 0 1 0-2 0zm-2 6a1 1 0 1 0 2 0zm4-2a1 1 0 1 0 0-2zm-6-2a1 1 0 1 0 0 2zm-5.5-4.6v-.8h-2v.8zm2.8-3.6h.8v-2h-.8zm-2.8 2.8a3 3 0 0 1 2.8-2.8v-2a5 5 0 0 0-4.8 4.8zm13.5-2.8h.8v-2h-.8zm3.7 2.8v.8h2v-.8zm-2.9-2.8a3 3 0 0 1 2.9 2.8h2a5 5 0 0 0-4.9-4.8zm-12.6 14.8-2.7 2.7 1.4 1.4 2.7-2.7zm16.4 2.7-2.7-2.7-1.4 1.4 2.7 2.7zm-2.1-8.1a7.4 7.4 0 0 1-7.4 7.4v2a9.4 9.4 0 0 0 9.4-9.4zm-7.4 7.4a7.4 7.4 0 0 1-7.5-7.4h-2a9.4 9.4 0 0 0 9.5 9.4zm-7.5-7.4a7.4 7.4 0 0 1 7.5-7.5v-2a9.4 9.4 0 0 0-9.5 9.5zm7.5-7.5a7.4 7.4 0 0 1 7.4 7.5h2a9.4 9.4 0 0 0-9.4-9.5zm-1 4.3v3h2v-3zm0 3v3h2v-3zm4-1h-3v2h3zm-3 0h-3v2h3z"/></svg>