<svg xmlns="http://www.w3.org/2000/svg" fill="none" viewBox="0 0 25 24">
  <path fill="#D9D9D9" d="M13.724 14.418a1.391 1.391 0 1 1-2.782 0 1.391 1.391 0 0 1 2.782 0Z"/>
  <path fill="#000" d="M20.553 2.806A1 1 0 1 0 19.14 4.22l1.414-1.414Zm1.09 3.919a1 1 0 1 0 1.415-1.415l-1.415 1.415Zm-8.31 2.962a1 1 0 1 0-2 0h2Zm-2 3.618a1 1 0 1 0 2 0h-2ZM9.55.287a1 1 0 0 0 0 2v-2Zm5.287 2a1 1 0 1 0 0-2v2Zm3.467 3.858a1 1 0 1 0 1.414 1.414l-1.414-1.414Zm2.794-1.38.707-.707-.707.707Zm-9.765 4.922v3.618h2V9.687h-2Zm-1.783-7.4h5.287v-2H9.55v2ZM19.718 7.56l2.087-2.087-1.414-1.414-2.087 2.087 1.414 1.414Zm.798 5.972a8.183 8.183 0 0 1-8.183 8.182v2c5.624 0 10.183-4.559 10.183-10.182h-2Zm-8.183 8.182a8.183 8.183 0 0 1-8.183-8.182h-2c0 5.623 4.56 10.182 10.183 10.182v-2ZM4.15 13.531a8.183 8.183 0 0 1 8.183-8.183v-2C6.709 3.348 2.15 7.907 2.15 13.531h2Zm8.183-8.183a8.183 8.183 0 0 1 8.183 8.183h2c0-5.624-4.56-10.183-10.183-10.183v2Zm.391 9.07a.391.391 0 0 1-.391.39v2a2.39 2.39 0 0 0 2.391-2.39h-2Zm-.391.39a.391.391 0 0 1-.391-.39h-2a2.39 2.39 0 0 0 2.391 2.39v-2Zm-.391-.39c0-.217.175-.392.391-.392v-2a2.391 2.391 0 0 0-2.391 2.392h2Zm.391-.392c.216 0 .391.175.391.392h2a2.391 2.391 0 0 0-2.391-2.392v2Zm6.806-9.806 1.252 1.252 1.414-1.414-1.252-1.252L19.14 4.22Zm1.252 1.252 1.252 1.253 1.415-1.415-1.253-1.252-1.414 1.414Z"/>
</svg>
