<svg xmlns="http://www.w3.org/2000/svg" fill="none" viewBox="0 0 25 24">
  <path stroke="currentColor" stroke-linecap="round" stroke-linejoin="round" stroke-width="2" d="M10.145 18.309h5.211M18.1 21.6H7.402a1.097 1.097 0 0 1-1.097-1.097v-2.93c0-.235.075-.463.214-.651l3.146-4.27a1.097 1.097 0 0 0 0-1.302L6.52 7.08a1.097 1.097 0 0 1-.214-.652v-2.93c0-.606.49-1.098 1.097-1.098h10.423c.606 0 1.097.492 1.097 1.098V6.45c0 .22-.067.437-.192.62l-2.934 4.287c-.263.385-.255.895.022 1.27l3.164 4.295c.14.188.214.416.214.65v2.931c0 .606-.491 1.097-1.097 1.097Z"/>
</svg>
