<svg xmlns="http://www.w3.org/2000/svg" fill="none" viewBox="0 0 24 24"><path fill="currentColor" d="M20.117 11.583h-4.43V8.646h1.823q.15 0 .254.104l2.249 2.236a.34.34 0 0 1 .104.253zM4.807 4.2a2.397 2.397 0 0 0-2.41 2.395L2.4 15.03a2.397 2.397 0 0 0 2.385 2.392l4.998.033h4.429s4.893.004 5.905 0a1.48 1.48 0 0 0 1.476-1.468v-3.67l.006-.402a8 8 0 0 0 0-.436 11 11 0 0 0-.03-.395 2 2 0 0 0-.074-.425 2 2 0 0 0-.162-.35 1.6 1.6 0 0 0-.259-.344l-2.284-2.27a1.8 1.8 0 0 0-.582-.368 1.8 1.8 0 0 0-.675-.149h-1.845V4.976a.7.7 0 0 0-.22-.516.7.7 0 0 0-.518-.218z"/><path fill="currentColor" d="M9.602 17.407a2.397 2.397 0 0 1-2.4 2.393 2.397 2.397 0 0 1-2.4-2.393 2.397 2.397 0 0 1 2.4-2.394c1.325 0 2.4 1.072 2.4 2.394m9.6 0a2.397 2.397 0 0 1-2.4 2.393 2.397 2.397 0 0 1-2.4-2.393 2.397 2.397 0 0 1 2.4-2.394c1.325 0 2.4 1.072 2.4 2.394"/></svg>