<svg xmlns="http://www.w3.org/2000/svg" fill="none" viewBox="0 0 24 24">
  <path stroke="currentColor" stroke-linecap="round" stroke-linejoin="round" stroke-width="2" d="m12.873 12.675-2.423 4.197m6.818-12.96c-2.052 1.253-6.203 4.528-6.389 7.612m7.386-7.036c-.013 2.43-.697 7.707-3.33 9.378M1.802 19.19l2.533-1.115a9.21 9.21 0 0 1 4.93-.698l.078.01a9.21 9.21 0 0 1 4.632 2.018l2.027 1.668M6.667 9.092l12.413 7.166c.702.406 1.6.165 2.005-.537a8.318 8.318 0 0 0-3.044-11.362l-.549-.317A8.318 8.318 0 0 0 6.13 7.087c-.406.702-.165 1.6.537 2.005Z"/>
</svg>
