<svg xmlns="http://www.w3.org/2000/svg" fill="none" viewBox="0 0 24 24">
  <path fill="#000" d="m15.25 8.496-.382.924.382-.924Zm4.243 10.615a1 1 0 1 0 .764-1.848l-.764 1.848ZM3.945 10.513a1 1 0 1 0-.765 1.848l.765-1.848ZM6.176 4h11.647V2H6.176v2Zm11.647 16H6.176v2h11.647v-2ZM4 17.823V6.176H2v11.647h2ZM6.176 20A2.176 2.176 0 0 1 4 17.823H2A4.176 4.176 0 0 0 6.176 22v-2ZM20 17.823A2.176 2.176 0 0 1 17.823 20v2A4.177 4.177 0 0 0 22 17.823h-2ZM17.823 4C19.026 4 20 4.974 20 6.176h2A4.176 4.176 0 0 0 17.823 2v2ZM6.176 2A4.176 4.176 0 0 0 2 6.176h2C4 4.974 4.974 4 6.176 4V2ZM20 10.875v6.948h2v-6.948h-2ZM4.305 5.049l10.563 4.37.764-1.847L5.07 3.2l-.765 1.848Zm10.563 4.37 5.75 2.38.764-1.848-5.75-2.38-.764 1.849ZM16.937 3.1l-2.574 4.933 1.774.925 2.573-4.933-1.773-.925Zm3.32 14.164-16.312-6.75-.765 1.848 16.313 6.75.764-1.848ZM20 6.176v4.699h2V6.176h-2Z"/>
</svg>
