<svg fill="none" viewBox="0 0 24 24"><path fill="currentColor" d="m15.5 8.3-.4.9zM20 19.5a1 1 0 1 0 .8-1.8zm-16.6-9a1 1 0 1 0-.8 1.8zm2.4-7.1h12.4v-2H5.8zm12.4 17.2H5.8v2h12.4zM3.4 18.2V5.8h-2v12.4zm2.4 2.4a2.4 2.4 0 0 1-2.4-2.4h-2a4.4 4.4 0 0 0 4.4 4.4zm14.8-2.4a2.4 2.4 0 0 1-2.4 2.4v2a4.4 4.4 0 0 0 4.4-4.4zM18.2 3.4a2.4 2.4 0 0 1 2.4 2.4h2a4.4 4.4 0 0 0-4.4-4.4zm-12.4-2a4.4 4.4 0 0 0-4.4 4.4h2a2.4 2.4 0 0 1 2.4-2.4zm14.8 9.4v7.4h2v-7.4zM3.8 4.5l11.3 4.7.7-1.9L4.6 2.7zm11.3 4.7 6.1 2.5.8-1.8-6.2-2.6zm2.2-6.7-2.7 5.3 1.8 1L19 3.4zm3.5 15.2L3.4 10.5l-.8 1.8L20 19.5zm-.2-12v5.1h2v-5z"/></svg>