<svg viewBox="0 0 24 24"><path fill="currentColor" d="M4.1 8.8a1 1 0 0 0 0 2zm15.8 2a1 1 0 1 0 0-2zm-15.7 3a1 1 0 1 0 0 2zm15.8 2a1 1 0 1 0 0-2zm0-3.8a8 8 0 0 1-8 8v2c5.5 0 10-4.5 10-10zm-8 8a8 8 0 0 1-8-8H2c0 5.5 4.5 10 10 10zm-8-8a8 8 0 0 1 8-8V2C6.5 2 2 6.5 2 12zm8-8a8 8 0 0 1 8 8h2c0-5.5-4.5-10-10-10zm0 16q-.3.1-.8-.4t-1-1.6q-1-2.3-1.1-6H7q0 4 1.2 6.8.6 1.3 1.5 2.2t2.2 1zm-3-8q.1-3.7 1.1-6l1-1.6q.6-.4.9-.4V2q-1.3 0-2.2 1T8.3 5.2Q7.1 8 7.1 12zm3 10q1.3 0 2.2-1t1.5-2.2q1.2-2.8 1.2-6.8h-2q0 3.7-1 6l-1 1.6q-.6.4-.9.4zm5-10q0-4-1.3-6.8Q15.1 4 14.2 3T12 2v2q.3-.1.8.4t1 1.6q1 2.3 1.1 6zM4 10.8h16v-2H4zm.1 5H20v-2H4.2z"/></svg>