<svg viewBox="0 0 24 24"><path fill="currentColor" d="M20.1 11.6h-4.4v-3h1.8q.2 0 .3.2l2.2 2.2a.3.3 0 0 1 .1.2zm-15.3-7.4a2.4 2.4 0 0 0-2.4 2.4l0 8.4a2.4 2.4 0 0 0 2.4 2.4l5 0h4.4s5 0 6 0a1.5 1.5 0 0 0 1.4-1.4v-3.7l0-.4a8 8 0 0 0 0-.4 11 11 0 0 0 0-.4 2 2 0 0 0-.1-.4 2 2 0 0 0-.2-.4 2 2 0 0 0-.2-.3l-2.3-2.3a2 2 0 0 0-.6-.4 2 2 0 0 0-.7-.1h-1.8v-2.2a1 1 0 0 0-.2-.5 1 1 0 0 0-.6-.3z"/><path fill="currentColor" d="M9.6 17.4a2.4 2.4 0 0 1-2.4 2.4 2.4 2.4 0 0 1-2.4-2.4 2.4 2.4 0 0 1 2.4-2.4c1.3 0 2.4 1 2.4 2.4Zm9.6 0a2.4 2.4 0 0 1-2.4 2.4 2.4 2.4 0 0 1-2.4-2.4 2.4 2.4 0 0 1 2.4-2.4c1.3 0 2.4 1 2.4 2.4Z"/></svg>