<svg fill="none" viewBox="0 0 24 24"><path fill="currentColor" d="m15.5 8.3-.4.9zm4.5 11.2a1 1 0 1 0 .8-1.8zm-16.6-9a1 1 0 1 0-.8 1.8zm2.4-7.1h12.4v-2h-12.4zm12.4 17.2h-12.4v2h12.4zm-14.8-2.4v-12.4h-2v12.4zm2.4 2.4a2.4 2.4 0 0 1-2.4-2.4h-2a4.4 4.4 0 0 0 4.4 4.4zm14.8-2.4a2.4 2.4 0 0 1-2.4 2.4v2a4.4 4.4 0 0 0 4.4-4.4zm-2.4-14.8a2.4 2.4 0 0 1 2.4 2.4h2a4.4 4.4 0 0 0-4.4-4.4zm-12.4-2a4.4 4.4 0 0 0-4.4 4.4h2a2.4 2.4 0 0 1 2.4-2.4zm14.8 9.4v7.4h2v-7.4zm-16.8-6.3 11.3 4.7.7-1.9-11.2-4.6zm11.3 4.7 6.1 2.5.8-1.8-6.2-2.6zm2.2-6.7-2.7 5.3 1.8 1 2.7-5.3zm3.5 15.2-17.4-7.2-.8 1.8 17.4 7.2zm-.2-12v5.1h2v-5z"/></svg>