<svg fill="none" viewBox="0 0 24 24"><path fill="currentColor" d="M3.6 8.6a1 1 0 0 0 0 2zm16.8 2a1 1 0 1 0 0-2zM3.7 14a1 1 0 1 0 0 2zm16.8 2a1 1 0 1 0 0-2zm.1-4a8.6 8.6 0 0 1-8.6 8.6v2c5.9 0 10.6-4.7 10.6-10.6zM12 20.6A8.6 8.6 0 0 1 3.4 12h-2c0 5.9 4.7 10.6 10.6 10.6zM3.4 12A8.6 8.6 0 0 1 12 3.4v-2C6.1 1.4 1.4 6.1 1.4 12zM12 3.4a8.6 8.6 0 0 1 8.6 8.6h2c0-5.9-4.7-10.6-10.6-10.6zm0 17.2q-.3 0-1-.5-.5-.6-1-1.7-1.1-2.5-1.2-6.4h-2q0 4.3 1.3 7.2.6 1.5 1.6 2.4 1 1 2.3 1zM8.8 12q.1-3.9 1.1-6.4.6-1.2 1.2-1.7t.9-.5v-2q-1.4 0-2.3 1-1 1-1.6 2.4Q7 7.8 6.8 12zM12 22.6q1.4 0 2.3-1 1-1 1.6-2.4 1.3-3 1.3-7.2h-2q-.1 3.9-1.1 6.4-.6 1.2-1.2 1.7t-.9.5zM17.2 12q0-4.3-1.3-7.2-.6-1.5-1.6-2.4-1-1-2.3-1v2q.3 0 1 .5.5.6 1 1.7 1.1 2.5 1.2 6.4zM3.6 10.6h16.8v-2H3.6zm.1 5.4h16.8v-2H3.7z"/></svg>