<svg fill="none" viewBox="0 0 24 24"><path fill="currentColor" d="M8.8 20.1a1 1 0 1 0-2 0zm-2 1.8a1 1 0 1 0 2 0zm9 0a1 1 0 1 0 2 0zm-5.2-16.2a1 1 0 1 0-2 0zm-2 10.8a1 1 0 1 0 2 0zm6.8-10.8a1 1 0 1 0-2 0zm-2 10.8a1 1 0 1 0 2 0zm-6.6 3.6v1.8h2v-1.8zm9 0v1.8h2v-1.8zm-7.2-14.4v10.8h2v-10.8zm4.8 0v10.8h2v-10.8zm-6.2-2.6h9.6v-2h-9.6zm11 1.4v13.2h2v-13.2zm-1.4 14.6h-9.6v2h9.6zm-11-1.4v-13.2h-2v13.2zm1.4 1.4a1.4 1.4 0 0 1-1.4-1.4h-2a3.4 3.4 0 0 0 3.4 3.4zm11-1.4a1.4 1.4 0 0 1-1.4 1.4v2a3.4 3.4 0 0 0 3.4-3.4zm-1.4-14.6a1.4 1.4 0 0 1 1.4 1.4h2a3.4 3.4 0 0 0-3.4-3.4zm-9.6-2a3.4 3.4 0 0 0-3.4 3.4h2a1.4 1.4 0 0 1 1.4-1.4z"/></svg>