<svg fill="none" viewBox="0 0 24 24"><path fill="currentColor" d="M21 13a1 1 0 1 0 0-2zm-.4-1a8.6 8.6 0 0 1-8.6 8.6v2c5.9 0 10.6-4.7 10.6-10.6zm-8.6 8.6a8.6 8.6 0 0 1-8.6-8.6h-2c0 5.9 4.7 10.6 10.6 10.6zm-8.6-8.6a8.6 8.6 0 0 1 8.6-8.6v-2c-5.9 0-10.6 4.7-10.6 10.6zm8.6-8.6a8.6 8.6 0 0 1 8.6 8.6h2c0-5.9-4.7-10.6-10.6-10.6zm0 17.2q-.3 0-1-.5-.5-.6-1-1.7-1.1-2.5-1.2-6.4h-2q0 4.3 1.3 7.2.6 1.5 1.6 2.4 1 1 2.3 1zm-3.2-8.6q.1-3.9 1.1-6.4.6-1.2 1.2-1.7.5-.6.9-.5v-2q-1.4 0-2.3 1-1 1-1.6 2.4-1.2 3-1.3 7.2zm3.2 10.6q1.4 0 2.3-1 1-1 1.6-2.4 1.3-3 1.3-7.2h-2q-.1 3.9-1.1 6.4-.6 1.2-1.2 1.7-.5.6-.9.5zm5.2-10.6q0-4.3-1.3-7.2-.6-1.5-1.6-2.4-1-1-2.3-1v2q.3 0 1 .5.5.6 1 1.7 1.1 2.5 1.2 6.4zm-14.8 1h18.6v-2h-18.6z"/></svg>