<svg viewBox="0 0 24 24"><path fill="currentColor" d="m15.3 8.5-.4 1zm4.2 10.6a1 1 0 1 0 .8-1.8zm-15.6-8.6a1 1 0 1 0-.7 1.9zm2.3-6.5h11.6v-2h-11.6zm11.6 16h-11.6v2h11.6zm-13.8-2.2v-11.6h-2v11.6zm2.2 2.2a2 2 0 0 1-2.2-2.2h-2a4 4 0 0 0 4.2 4.2zm13.8-2.2a2 2 0 0 1-2.2 2.2v2a4 4 0 0 0 4.2-4.2zm-2.2-13.8c1.2 0 2.2 1 2.2 2.2h2a4 4 0 0 0-4.2-4.2zm-11.6-2a4 4 0 0 0-4.2 4.2h2c0-1.2 1-2.2 2.2-2.2zm13.8 8.9v7h2v-7zm-15.7-5.9 10.6 4.4.7-1.8-10.5-4.4zm10.6 4.4 5.7 2.4.8-1.8-5.8-2.4zm2-6.3-2.5 5 1.7.9 2.6-5zm3.4 14.2-16.4-6.8-.7 1.9 16.3 6.7zm-.3-11.1v4.7h2v-4.7z"/></svg>