<svg fill="none" viewBox="0 0 24 24"><path fill="currentColor" d="m12 14.4-.7.8a1 1 0 0 0 1.4 0zm-5.1.9a1 1 0 0 0-.6-2zm10.8-2a1 1 0 1 0-.6 2zm-1.9-6.2q0 .8-.6 2l-1.6 2.2-2.2 2.3.6.8.7.8 2.5-2.6 1.7-2.6q.8-1.4.9-2.9zM12 14.4l.7-.8-.2-.1-2.1-2.2L8.8 9q-.6-1.2-.6-2h-2q0 1.5.9 3l1.7 2.5 2.5 2.6zM8.2 7.1c0-2 1.7-3.7 3.8-3.7v-2c-3.2 0-5.8 2.5-5.8 5.7zM12 3.4c2.1 0 3.8 1.7 3.8 3.7h2c0-3.2-2.6-5.7-5.8-5.7zm8.6 14.2q0 .3-.5.8t-1.7 1.1q-2.5 1-6.4 1.1v2q4.3 0 7.2-1.2 1.4-.7 2.3-1.5 1-1 1.1-2.3zm-8.6 3q-4 0-6.4-1.1-1.2-.5-1.7-1t-.5-.9h-2q0 1.4 1 2.3t2.4 1.5q3 1.1 7.2 1.2zm-8.6-3q0-.4.8-1.1t2.7-1.2l-.6-2Q4.3 14 3 15t-1.5 2.7zm13.7-2.3q1.8.4 2.7 1.2t.8 1.1h2q-.2-1.7-1.5-2.7t-3.4-1.6z"/></svg>