<svg xmlns="http://www.w3.org/2000/svg" fill="none" viewBox="0 0 24 24"><path fill="currentColor" d="M8.8 20.1a1 1 0 1 0-2 0zm-2 1.8a1 1 0 1 0 2 0zm9 0a1 1 0 1 0 2 0zM10.6 5.7a1 1 0 1 0-2 0zm-2 10.8a1 1 0 1 0 2 0zm6.8-10.8a1 1 0 1 0-2 0zm-2 10.8a1 1 0 1 0 2 0zm-6.6 3.6v1.8h2v-1.8zm9 0v1.8h2v-1.8zM8.6 5.7v10.8h2V5.7zm4.8 0v10.8h2V5.7zM7.2 3.1h9.6v-2H7.2zm11 1.4v13.2h2V4.5zm-1.4 14.6H7.2v2h9.6zm-11-1.4V4.5h-2v13.2zm1.4 1.4a1.4 1.4 0 0 1-1.4-1.4h-2a3.4 3.4 0 0 0 3.4 3.4zm11-1.4a1.4 1.4 0 0 1-1.4 1.4v2a3.4 3.4 0 0 0 3.4-3.4zM16.8 3.1a1.4 1.4 0 0 1 1.4 1.4h2a3.4 3.4 0 0 0-3.4-3.4zm-9.6-2a3.4 3.4 0 0 0-3.4 3.4h2a1.4 1.4 0 0 1 1.4-1.4z"/></svg>