<svg viewBox="0 0 24 24"><path fill="currentColor" d="M20.4 13a1 1 0 1 0 0-2zm-.4-1a8 8 0 0 1-8 8v2c5.5 0 10-4.5 10-10zm-8 8a8 8 0 0 1-8-8h-2c0 5.5 4.5 10 10 10zm-8-8a8 8 0 0 1 8-8v-2c-5.5 0-10 4.5-10 10zm8-8a8 8 0 0 1 8 8h2c0-5.5-4.5-10-10-10zm0 16q-.3.1-.8-.4-.6-.6-1-1.6-1-2.3-1.1-6h-2q0 4 1.2 6.8.6 1.3 1.5 2.2.9 1 2.2 1zm-3-8q.1-3.7 1.1-6 .6-1 1-1.6.6-.4.9-.4v-2q-1.3 0-2.2 1-.9.9-1.5 2.2-1.2 2.8-1.2 6.8zm3 10q1.3 0 2.2-1 .9-.9 1.5-2.2 1.2-2.8 1.2-6.8h-2q0 3.7-1 6-.6 1-1 1.6-.6.4-.9.4zm5-10q0-4-1.3-6.8-.6-1.3-1.5-2.2-.9-1-2.2-1v2q.3-.1.8.4.6.6 1 1.6 1 2.3 1.1 6zm-14 1h17.4v-2h-17.4z"/></svg>