<svg fill="none" viewBox="0 0 24 24"><path fill="currentColor" d="m8.4 11-.3 1a1 1 0 0 0 1.2-.7zm-4.5 0a1 1 0 0 0 1.9-.8zm2.8-5.1-.4-1zm-1.1-.2a1 1 0 0 0 1.8-.8zm1.1-2.4a1 1 0 0 0-1.8.7zm2.3 1.6a1 1 0 1 0 1.9.7zm2.5-1a1 1 0 1 0-1.8-.7zm-8.7 2.3a1 1 0 0 0-.8 1.8zm1 2.5a1 1 0 1 0 .7-1.9zm6.3-1.3a1 1 0 1 0 1.4-1.4zm10.5 6.2a6 6 0 0 1-5.9 5.8v2a8 8 0 0 0 7.9-7.8zm-5.9-6a6 6 0 0 1 5.9 6h2a8 8 0 0 0-7.9-8zm-5.4 3.7a6 6 0 0 1 5.4-3.6v-2a8 8 0 0 0-7.2 4.9zm-2.1.5q.4 0 1 .1l.4-2a6 6 0 0 0-1.4 0zm-3.8 3.8a4 4 0 0 1 3.8-3.8v-2a6 6 0 0 0-5.8 5.8zm3.8 3.8a4 4 0 0 1-3.8-3.8h-2a6 6 0 0 0 5.8 5.8zm7.5 0h-7.5v2h7.5zm-9-9.2a2.6 2.6 0 0 1 1.4-3.4l-.8-1.9a4.6 4.6 0 0 0-2.4 6zm1.7-5.3-.7-1.7-1.8.8.7 1.7zm3.5.7.6-1.6-1.8-.8-.7 1.7zm-8.9 2.4 1.7.7.8-1.9-1.7-.6zm5.1-1.2a3 3 0 0 1 3 .6l1.4-1.4a5 5 0 0 0-5.2-1z"/></svg>