<svg xmlns="http://www.w3.org/2000/svg" fill="none" viewBox="0 0 24 24"><path fill="currentColor" d="m8.392 10.958-.249.969a1 1 0 0 0 1.175-.59zm-4.472.01a1 1 0 0 0 1.84-.785zm2.817-5.117-.393-.92zM5.58 5.692a1 1 0 0 0 1.84-.785zm1.133-2.44a1 1 0 0 0-1.84.785zm2.303 1.637a1 1 0 1 0 1.856.745zm2.527-.925a1 1 0 0 0-1.856-.745zm-8.75 2.199a1 1 0 1 0-.745 1.856zm.926 2.526a1 1 0 1 0 .745-1.856L3.72 8.69Zm6.345-1.287a1 1 0 0 0 1.473-1.354zm10.535 6.15a5.857 5.857 0 0 1-5.857 5.857v2a7.857 7.857 0 0 0 7.857-7.857zm-5.857-5.857a5.857 5.857 0 0 1 5.857 5.857h2a7.857 7.857 0 0 0-7.857-7.857zm-5.425 3.642a5.86 5.86 0 0 1 5.425-3.642v-2a7.86 7.86 0 0 0-7.276 4.885zm-2.118.472q.495.001.943.118L8.64 9.99a5.8 5.8 0 0 0-1.44-.181v2Zm-3.8 3.8a3.8 3.8 0 0 1 3.8-3.8v-2a5.8 5.8 0 0 0-5.8 5.8zm3.8 3.8a3.8 3.8 0 0 1-3.8-3.8h-2a5.8 5.8 0 0 0 5.8 5.8zm7.543 0H7.2v2h7.543zM5.76 10.183a2.6 2.6 0 0 1 1.37-3.412l-.786-1.84A4.6 4.6 0 0 0 3.92 10.97l1.84-.786Zm1.66-5.276L6.715 3.25l-1.84.786.707 1.655 1.84-.785Zm3.453.727.67-1.67-1.855-.745-.671 1.67zM2.049 8.02l1.67.67.746-1.856-1.67-.67zM7.13 6.77a2.6 2.6 0 0 1 2.937.63l1.472-1.353a4.6 4.6 0 0 0-5.194-1.116z"/></svg>