<svg fill="none" viewBox="0 0 24 24"><path fill="currentColor" d="M8.4 11 8 12a1 1 0 0 0 1.2-.7zm-4.5 0a1 1 0 0 0 1.9-.8zm2.8-5.1-.4-1zm-1.1-.2a1 1 0 0 0 1.8-.8zm1.1-2.4A1 1 0 0 0 5 4zM9 4.9a1 1 0 1 0 1.9.7zm2.5-1a1 1 0 1 0-1.8-.7zM2.8 6.3A1 1 0 0 0 2 8zm1 2.5a1 1 0 1 0 .7-1.9zM10 7.4A1 1 0 1 0 11.5 6zm10.5 6.2a6 6 0 0 1-5.9 5.8v2a8 8 0 0 0 7.9-7.8zm-5.9-6a6 6 0 0 1 5.9 6h2a8 8 0 0 0-7.9-8zm-5.4 3.7a6 6 0 0 1 5.4-3.6v-2a8 8 0 0 0-7.2 4.9zm-2.1.5 1 .1.4-2H7.2zm-3.8 3.8a4 4 0 0 1 3.8-3.8v-2a6 6 0 0 0-5.8 5.8zm3.8 3.8a4 4 0 0 1-3.8-3.8h-2a6 6 0 0 0 5.8 5.8zm7.5 0H7.2v2h7.5zm-9-9.2A2.6 2.6 0 0 1 7 6.8l-.8-1.9A4.6 4.6 0 0 0 4 11zm1.7-5.3-.7-1.7L5 4l.7 1.7zm3.5.7.6-1.6-1.8-.8L9 5zM2 8l1.7.7.8-1.9-1.7-.6zm5.1-1.2a3 3 0 0 1 3 .6L11.5 6a5 5 0 0 0-5.2-1z"/></svg>