<svg xmlns="http://www.w3.org/2000/svg" fill="none" viewBox="0 0 24 24">
  <path fill="#000" d="m8.392 10.958-.249.969a1 1 0 0 0 1.175-.59l-.926-.379Zm-4.472.01a1 1 0 0 0 1.84-.785l-1.84.786Zm2.817-5.117-.393-.92.393.92ZM5.58 5.692a1 1 0 0 0 1.84-.785l-1.84.785Zm1.133-2.44a1 1 0 0 0-1.84.785l1.84-.786Zm2.303 1.637a1 1 0 1 0 1.856.745L9.017 4.89Zm2.527-.925a1 1 0 0 0-1.856-.745l1.856.745Zm-8.75 2.199a1 1 0 1 0-.745 1.856l.746-1.856Zm.926 2.526a1 1 0 1 0 .745-1.856L3.72 8.69Zm6.345-1.287a1 1 0 0 0 1.473-1.354l-1.473 1.354Zm10.535 6.15a5.857 5.857 0 0 1-5.857 5.857v2a7.857 7.857 0 0 0 7.857-7.857h-2Zm-5.857-5.857a5.857 5.857 0 0 1 5.857 5.857h2a7.857 7.857 0 0 0-7.857-7.857v2Zm-5.425 3.642a5.862 5.862 0 0 1 5.425-3.642v-2a7.862 7.862 0 0 0-7.276 4.885l1.85.757Zm-2.118.472c.33 0 .645.041.943.118L8.64 9.99a5.78 5.78 0 0 0-1.44-.181v2Zm-3.8 3.8a3.8 3.8 0 0 1 3.8-3.8v-2a5.8 5.8 0 0 0-5.8 5.8h2Zm3.8 3.8a3.8 3.8 0 0 1-3.8-3.8h-2a5.8 5.8 0 0 0 5.8 5.8v-2Zm7.543 0H7.2v2h7.543v-2ZM5.76 10.183a2.6 2.6 0 0 1 1.37-3.412l-.786-1.84A4.6 4.6 0 0 0 3.92 10.97l1.84-.786Zm1.66-5.276L6.715 3.25l-1.84.786.707 1.655 1.84-.785Zm3.453.727.67-1.67-1.855-.745-.671 1.67 1.856.745ZM2.049 8.02l1.67.67.746-1.856-1.67-.67-.746 1.856ZM7.13 6.77a2.601 2.601 0 0 1 2.937.63l1.472-1.353a4.602 4.602 0 0 0-5.194-1.116L7.13 6.77Z"/>
</svg>
