<svg viewBox="0 0 24 24"><path fill="currentColor" d="m6.6 14 .6.8a1 1 0 0 0 .4-.8zm4.8 0h-1l.3.7zM9 16.4a1 1 0 1 0 0 2zm0 2a1 1 0 1 0 0-2zm3.2-1A3 3 0 0 1 9 20.6v2a5 5 0 0 0 5.2-5.2zM9 20.6a3 3 0 0 1-3.2-3.2h-2A5 5 0 0 0 9 22.6zm-3.2-3.2q0-1.6 1.4-2.6L6 13a5 5 0 0 0-2.2 4.3zm5-2.7 1 1.3.4 1.4h2q0-1.3-.7-2.4L12 13.2zm-.4-9.9V14h2V4.8zM7.6 14V4.8h-2V14zM9 3.4a1.4 1.4 0 0 1 1.4 1.4h2A3.4 3.4 0 0 0 9 1.4zm0-2c-1.9 0-3.4 1.5-3.4 3.4h2A1.4 1.4 0 0 1 9 3.4zm0 17v-2zm9.2-11.2a1.4 1.4 0 0 1-1.4 1.4v2a3.4 3.4 0 0 0 3.4-3.4zm-1.4 1.4a1.4 1.4 0 0 1-1.4-1.4h-2a3.4 3.4 0 0 0 3.4 3.4zm-1.4-1.4a1.4 1.4 0 0 1 1.4-1.4v-2a3.4 3.4 0 0 0-3.4 3.4zm1.4-1.4a1.4 1.4 0 0 1 1.4 1.4h2a3.4 3.4 0 0 0-3.4-3.4z"/></svg>