<svg xmlns="http://www.w3.org/2000/svg" fill="none" viewBox="0 0 18 20">
  <path fill="#111928" fill-rule="evenodd" d="M6.126 1.064a1.199 1.199 0 0 1 1.74-.462c.416.277.737.67.987 1.056.257.397 1.124 1.882 1.325 2.365.15.36.244.544.357.761.189.366.427.827 1.056 2.38.044.108.077.196.103.267.063.17.09.24.135.233.294-.047 1.034-.427 1.55-1.05.215-.26.357-.475.451-.645.116-.208.448-.346.637-.202.896.68 2.82 2.48 2.933 5.433a8.402 8.402 0 0 1-16.8 0c0-2.148.821-4.3 2.46-5.94.71-.71 1.176-1.182 1.618-1.76.436-.571.869-1.276 1.448-2.436Zm-.53 12.58a3.75 3.75 0 0 1 .583-4.04 3.75 3.75 0 0 1 2.326-1.247 5.99 5.99 0 0 1 1.925 3.545 5.935 5.935 0 0 0 2.133-1 3.75 3.75 0 0 1-6.967 2.743Z" clip-rule="evenodd"/>
</svg>
