<svg fill="none" viewBox="0 0 24 24"><path fill="currentColor" d="M18.9 20.2a1 1 0 1 0 0-2zm-13.8-2a1 1 0 0 0 0 2zm-2.7-4.3a1 1 0 1 0 0 2zm19.2 2a1 1 0 1 0 0-2zm-17.4-3.9a1 1 0 1 0 1.2-1.6zm-.9-3a1 1 0 0 0-1.1 1.7zm4.8-1.5a1 1 0 0 0 1.8-1zm.7-3.1a1 1 0 0 0-1.8.8zm5 1.9a1 1 0 1 0 1.7 1.1zm3-1a1 1 0 0 0-1.6-1zm5 5.4a1 1 0 0 0-.9-1.8zm-3.1-.7a1 1 0 1 0 .9 1.8zm.2 8.2h-13.8v2h13.8zm-16.5-2.3h19.2v-2h-19.2zm5.8-1a4 4 0 0 1 3.8-3.8v-2a6 6 0 0 0-5.8 5.8zm3.8-3.8a4 4 0 0 1 3.8 3.8h2a6 6 0 0 0-5.8-5.8zm-6.6-.7-2.1-1.4-1.1 1.7 2 1.3zm4.5-3.8-1.1-2.2-1.8.8 1.1 2.3zm5.6.8 1.3-2-1.6-1.2-1.4 2.1zm5.4 1.5-2.2 1.1.9 1.8 2.2-1z"/></svg>