<svg viewBox="0 0 24 24"><path fill="currentColor" d="m6.6 14 .6.8a1 1 0 0 0 .4-.8zm4.8 0h-1a1 1 0 0 0 .3.7zm-2.4 2.4a1 1 0 1 0 0 2zm0 2a1 1 0 1 0 0-2zm3.2-1a3 3 0 0 1-3.2 3.2v2a5 5 0 0 0 5.2-5.2zm-3.2 3.2a3 3 0 0 1-3.2-3.2h-2a5 5 0 0 0 5.2 5.2zm-3.2-3.2q0-1.6 1.4-2.6l-1.2-1.7a5 5 0 0 0-2.2 4.3zm5-2.7a5 5 0 0 1 1 1.3q.3.8.4 1.4h2q0-1.3-.7-2.4a7 7 0 0 0-1.4-1.8zm-.4-9.9v9.2h2v-9.2zm-2.8 9.2v-9.2h-2v9.2zm1.4-10.6a1.4 1.4 0 0 1 1.4 1.4h2a3.4 3.4 0 0 0-3.4-3.4zm0-2c-1.9 0-3.4 1.5-3.4 3.4h2a1.4 1.4 0 0 1 1.4-1.4zm0 17zv-2h0zm9.2-11.2a1.4 1.4 0 0 1-1.4 1.4v2a3.4 3.4 0 0 0 3.4-3.4zm-1.4 1.4a1.4 1.4 0 0 1-1.4-1.4h-2a3.4 3.4 0 0 0 3.4 3.4zm-1.4-1.4a1.4 1.4 0 0 1 1.4-1.4v-2a3.4 3.4 0 0 0-3.4 3.4zm1.4-1.4a1.4 1.4 0 0 1 1.4 1.4h2a3.4 3.4 0 0 0-3.4-3.4z"/></svg>