<svg xmlns="http://www.w3.org/2000/svg" fill="currentColor" viewBox="0 0 24 24"><path d="m6.6 13.953.572.82a1 1 0 0 0 .428-.82zm4.8 0h-1a1 1 0 0 0 .333.745zM9 16.4a1 1 0 1 0 0 2zm.056 2a1 1 0 1 0 0-2zm3.144-1A3.2 3.2 0 0 1 9 20.6v2a5.2 5.2 0 0 0 5.2-5.2zM9 20.6a3.2 3.2 0 0 1-3.2-3.2h-2A5.2 5.2 0 0 0 9 22.6zm-3.2-3.2c0-1.087.54-2.047 1.372-2.627l-1.144-1.64A5.2 5.2 0 0 0 3.8 17.4zm4.933-2.702c.345.309.727.772 1.017 1.29.296.527.45 1.024.45 1.412h2c0-.856-.316-1.698-.706-2.391a7.2 7.2 0 0 0-1.427-1.801zM10.4 4.8v9.153h2V4.8zm-2.8 9.153V4.798h-2v9.155zM9 3.4a1.4 1.4 0 0 1 1.4 1.4h2A3.4 3.4 0 0 0 9 1.4zm0-2c-1.877 0-3.4 1.52-3.4 3.398h2C7.6 4.026 8.226 3.4 9 3.4zm0 17h.056v-2H9zm9.2-11.2a1.4 1.4 0 0 1-1.4 1.4v2a3.4 3.4 0 0 0 3.4-3.4zm-1.4 1.4a1.4 1.4 0 0 1-1.4-1.4h-2a3.4 3.4 0 0 0 3.4 3.4zm-1.4-1.4a1.4 1.4 0 0 1 1.4-1.4v-2a3.4 3.4 0 0 0-3.4 3.4zm1.4-1.4a1.4 1.4 0 0 1 1.4 1.4h2a3.4 3.4 0 0 0-3.4-3.4z"/></svg>