<svg xmlns="http://www.w3.org/2000/svg" fill="none" viewBox="0 0 24 24">
  <path fill="#000" d="m6.6 13.953.573.82a1 1 0 0 0 .428-.82h-1Zm4.8 0h-1a1 1 0 0 0 .334.745l.667-.745ZM9 16.4a1 1 0 1 0 0 2v-2Zm.057 2a1 1 0 1 0 0-2v2Zm3.144-1A3.2 3.2 0 0 1 9 20.6v2a5.2 5.2 0 0 0 5.2-5.2h-2ZM9 20.6a3.2 3.2 0 0 1-3.2-3.2h-2A5.2 5.2 0 0 0 9 22.6v-2Zm-3.2-3.2c0-1.087.54-2.047 1.372-2.627l-1.144-1.64A5.195 5.195 0 0 0 3.8 17.4h2Zm4.933-2.702a5.25 5.25 0 0 1 1.017 1.29c.296.527.45 1.024.45 1.412h2c0-.856-.317-1.698-.706-2.391a7.24 7.24 0 0 0-1.427-1.801l-1.334 1.49ZM10.4 4.8v9.153h2V4.8h-2Zm-2.8 9.153V4.798h-2v9.155h2ZM9 3.4a1.4 1.4 0 0 1 1.4 1.4h2A3.4 3.4 0 0 0 9 1.4v2Zm0-2c-1.877 0-3.4 1.52-3.4 3.398h2A1.4 1.4 0 0 1 9 3.4v-2Zm0 17h.056v-2H9v2Zm9.2-11.2a1.4 1.4 0 0 1-1.4 1.4v2a3.4 3.4 0 0 0 3.4-3.4h-2Zm-1.4 1.4a1.4 1.4 0 0 1-1.4-1.4h-2a3.4 3.4 0 0 0 3.4 3.4v-2Zm-1.4-1.4a1.4 1.4 0 0 1 1.4-1.4v-2a3.4 3.4 0 0 0-3.4 3.4h2Zm1.4-1.4a1.4 1.4 0 0 1 1.4 1.4h2a3.4 3.4 0 0 0-3.4-3.4v2Z"/>
</svg>
