<svg xmlns="http://www.w3.org/2000/svg" fill="none" viewBox="0 0 24 24"><path fill="currentColor" d="M18.857 20.2a1 1 0 1 0 0-2zm-13.714-2a1 1 0 0 0 0 2zM2.4 13.902a1 1 0 1 0 0 2zm19.2 2a1 1 0 1 0 0-2zM4.246 12.048a1 1 0 1 0 1.109-1.664l-1.11 1.664Zm-.948-3.035a1 1 0 0 0-1.11 1.664zm4.806-1.554a1 1 0 0 0 1.793-.886zM8.8 4.357a1 1 0 1 0-1.793.886zm4.99 1.945a1 1 0 0 0 1.664 1.11zm3.036-.947a1 1 0 1 0-1.665-1.11zm4.976 5.386a1 1 0 0 0-.887-1.793zm-3.103-.697a1 1 0 1 0 .886 1.793zm.157 8.156H5.143v2h13.714zM2.4 15.902h19.2v-2H2.4zm5.8-1a3.8 3.8 0 0 1 3.8-3.8v-2a5.8 5.8 0 0 0-5.8 5.8zm3.8-3.8a3.8 3.8 0 0 1 3.8 3.8h2a5.8 5.8 0 0 0-5.8-5.8zm-6.645-.718L3.298 9.013l-1.11 1.664 2.058 1.371zm4.542-3.811L8.8 4.357l-1.793.886L8.104 7.46zm5.558.839 1.372-2.058-1.665-1.109-1.37 2.057zm5.461 1.536L18.7 10.044l.886 1.793 2.217-1.096z"/></svg>